<svg width="16" height="16" viewBox="0 0 16 16" fill="none" xmlns="http://www.w3.org/2000/svg">
<path d="M10.1387 1.63948C10.364 1.86485 10.6697 1.99147 10.9884 1.99147H12.8211C13.4848 1.99147 14.0229 2.52952 14.0229 3.19324V5.02591C14.0229 5.34464 14.1495 5.65031 14.3749 5.87569L15.6497 7.15048C16.119 7.6198 16.119 8.38072 15.6497 8.85004L14.3749 10.1248C14.1495 10.3502 14.0229 10.6559 14.0229 10.9746V12.8073C14.0229 13.471 13.4848 14.009 12.8211 14.009H10.9884C10.6697 14.009 10.364 14.1357 10.1387 14.361L8.85118 15.6485C8.38186 16.1178 7.62094 16.1178 7.15162 15.6485L5.86413 14.361C5.63876 14.1357 5.33308 14.009 5.01435 14.009H3.2061C2.54238 14.009 2.00433 13.471 2.00433 12.8073V10.998C2.00433 10.6793 1.87772 10.3736 1.65234 10.1483L0.353942 8.84987C-0.115312 8.38061 -0.115386 7.61983 0.353777 7.15048L1.65251 5.85124C1.87778 5.62588 2.00433 5.32028 2.00433 5.00163V3.19324C2.00433 2.52952 2.54238 1.99147 3.2061 1.99147H5.01435C5.33308 1.99147 5.63876 1.86485 5.86413 1.63948L7.15162 0.35199C7.62094 -0.11733 8.38186 -0.11733 8.85118 0.35199L10.1387 1.63948Z" fill="#5A79F9"/>
<g opacity="0.25">
<path d="M3.48633 11.5239C3.48633 11.7746 3.69114 11.9817 3.93815 11.9389C6.23281 11.5421 8.02526 8.1547 8.02526 4.03467C8.02526 6.0942 6.23365 7.78759 3.93975 7.98667C3.69001 8.00834 3.48633 8.20945 3.48633 8.46013L3.48633 11.5239Z" fill="white"/>
<path d="M12.5755 4.48857C12.5755 4.2379 12.3707 4.03082 12.1237 4.07354C9.82906 4.47039 8.03662 7.85779 8.03662 11.9778C8.03662 9.91828 9.82823 8.22489 12.1221 8.02582C12.3719 8.00415 12.5755 7.80303 12.5755 7.55236V4.48857Z" fill="white"/>
<path d="M8.02526 4.03467C8.02526 8.1547 6.23281 11.5421 3.93815 11.9389C3.69114 11.9817 3.48633 11.7746 3.48633 11.5239L3.48633 8.46013C3.48633 8.20945 3.69001 8.00834 3.93975 7.98667C6.23365 7.78759 8.02526 6.0942 8.02526 4.03467ZM8.02526 4.03467L8.03662 11.9778M8.03662 11.9778C8.03662 7.85779 9.82906 4.47039 12.1237 4.07354C12.3707 4.03082 12.5755 4.2379 12.5755 4.48857V7.55236C12.5755 7.80303 12.3719 8.00415 12.1221 8.02582C9.82823 8.22489 8.03662 9.91828 8.03662 11.9778Z" stroke="white" stroke-width="0.624999" stroke-linecap="round" stroke-linejoin="round"/>
</g>
<mask id="mask0_122_6769" style="mask-type:alpha" maskUnits="userSpaceOnUse" x="0" y="0" width="16" height="17">
<rect y="0.000488281" width="16" height="16" fill="#D9D9D9"/>
</mask>
<g mask="url(#mask0_122_6769)">
<path d="M3.48633 11.5239C3.48633 11.7746 3.69114 11.9817 3.93815 11.9389C6.23281 11.5421 8.02526 8.1547 8.02526 4.03467C8.02526 6.0942 6.23365 7.78759 3.93975 7.98667C3.69001 8.00834 3.48633 8.20945 3.48633 8.46013L3.48633 11.5239Z" fill="white"/>
<path d="M12.5755 4.48857C12.5755 4.2379 12.3707 4.03082 12.1237 4.07354C9.82906 4.47039 8.03662 7.85779 8.03662 11.9778C8.03662 9.91828 9.82823 8.22489 12.1221 8.02582C12.3719 8.00415 12.5755 7.80303 12.5755 7.55236V4.48857Z" fill="white"/>
<path d="M8.02526 4.03467C8.02526 8.1547 6.23281 11.5421 3.93815 11.9389C3.69114 11.9817 3.48633 11.7746 3.48633 11.5239L3.48633 8.46013C3.48633 8.20945 3.69001 8.00834 3.93975 7.98667C6.23365 7.78759 8.02526 6.0942 8.02526 4.03467ZM8.02526 4.03467L8.03662 11.9778M8.03662 11.9778C8.03662 7.85779 9.82906 4.47039 12.1237 4.07354C12.3707 4.03082 12.5755 4.2379 12.5755 4.48857V7.55236C12.5755 7.80303 12.3719 8.00415 12.1221 8.02582C9.82823 8.22489 8.03662 9.91828 8.03662 11.9778Z" stroke="white" stroke-width="0.624999" stroke-linecap="round" stroke-linejoin="round"/>
</g>
</svg>
