<svg width="110" height="110" viewBox="0 0 110 110" fill="none" xmlns="http://www.w3.org/2000/svg">
<rect x="2.5" y="2.5" width="105" height="105" rx="27.7525" fill="#5A79F9"/>
<rect x="2.5" y="2.5" width="105" height="105" rx="27.7525" stroke="white" stroke-width="5"/>
<rect x="24.6953" y="29.748" width="60.6061" height="10.101" rx="2.52525" fill="white"/>
<rect x="24.6953" y="49.9492" width="60.6061" height="10.101" rx="2.52525" fill="white"/>
<path d="M24.6953 75.2028C24.6953 72.822 24.6953 71.6316 25.4349 70.892C26.1746 70.1523 27.365 70.1523 29.7458 70.1523H80.2509C82.6317 70.1523 83.8221 70.1523 84.5617 70.892C85.3014 71.6316 85.3014 72.822 85.3014 75.2028C85.3014 77.5837 85.3014 78.7741 84.5617 79.5137C83.8221 80.2534 82.6317 80.2534 80.2509 80.2534H29.7458C27.365 80.2534 26.1746 80.2534 25.4349 79.5137C24.6953 78.7741 24.6953 77.5837 24.6953 75.2028Z" fill="white"/>
</svg>
