<svg width="124" height="124" viewBox="0 0 124 124" fill="none" xmlns="http://www.w3.org/2000/svg">
<g clip-path="url(#clip0_2_2611)">
<path d="M77.9401 12.604C79.673 14.3369 82.0232 15.3104 84.4738 15.3104H98.5598C103.663 15.3104 107.8 19.4472 107.8 24.5504V38.6363C107.8 41.0869 108.773 43.4372 110.506 45.17L120.312 54.9759C123.92 58.5844 123.92 64.4348 120.312 68.0432L110.506 77.8491C108.773 79.582 107.8 81.9322 107.8 84.3828V98.4698C107.8 103.573 103.663 107.71 98.5598 107.71H84.4728C82.0222 107.71 79.672 108.683 77.9391 110.416L68.0424 120.313C64.434 123.921 58.5835 123.921 54.9751 120.313L45.0784 110.416C43.3455 108.683 40.9953 107.71 38.5447 107.71H24.6404C19.5373 107.71 15.4004 103.573 15.4004 98.4698V84.5644C15.4004 82.1138 14.4269 79.7636 12.694 78.0308L2.70634 68.0431C-0.902046 64.4347 -0.902124 58.5844 2.70617 54.9759L12.6942 44.9874C14.4269 43.2545 15.4004 40.9044 15.4004 38.4539V24.5504C15.4004 19.4472 19.5373 15.3104 24.6404 15.3104H38.5437C40.9943 15.3104 43.3446 14.3369 45.0774 12.604L54.9751 2.70634C58.5835 -0.902108 64.434 -0.902116 68.0424 2.70633L77.9401 12.604Z" fill="#F5F5F5"/>
<path d="M26.7959 88.6009C26.7959 90.5283 28.3706 92.1204 30.2698 91.792C47.9127 88.7407 61.6943 62.6961 61.6943 31.0186C61.6943 46.8537 47.9191 59.8736 30.2821 61.4042C28.3619 61.5708 26.7959 63.1171 26.7959 65.0445V88.6009Z" fill="#5A79F9"/>
<path d="M96.6798 34.5087C96.6798 32.5813 95.1051 30.9892 93.2059 31.3176C75.563 34.3689 61.7815 60.4135 61.7815 92.091C61.7815 76.2559 75.5566 63.236 93.1936 61.7054C95.1138 61.5388 96.6798 59.9925 96.6798 58.0651V34.5087Z" fill="#5A79F9"/>
<path d="M61.6943 31.0186C61.6943 62.6961 47.9127 88.7407 30.2698 91.792C28.3706 92.1204 26.7959 90.5283 26.7959 88.6009V65.0445C26.7959 63.1171 28.3619 61.5708 30.2821 61.4042C47.9191 59.8736 61.6943 46.8537 61.6943 31.0186ZM61.6943 31.0186L61.7816 92.0908M61.7816 92.0908C61.7816 60.4133 75.5631 34.3687 93.206 31.3174C95.1052 30.989 96.6799 32.5811 96.6799 34.5085V58.0649C96.6799 59.9923 95.1139 61.5386 93.1937 61.7052C75.5567 63.2358 61.7816 76.2557 61.7816 92.0908Z" stroke="#5A79F9" stroke-width="5" stroke-linecap="round" stroke-linejoin="round"/>
</g>
<defs>
<clipPath id="clip0_2_2611">
<rect width="124" height="124" fill="white"/>
</clipPath>
</defs>
</svg>
