<svg width="217" height="218" viewBox="0 0 217 218" fill="none" xmlns="http://www.w3.org/2000/svg">
<g filter="url(#filter0_g_248_2352)">
<mask id="path-1-outside-1_248_2352" maskUnits="userSpaceOnUse" x="2.51416" y="2.4563" width="212" height="213" fill="black">
<rect fill="white" x="2.51416" y="2.4563" width="212" height="213"/>
<path d="M98.1667 16.6802C103.799 11.0483 112.929 11.0483 118.561 16.6802L132.641 30.7593C135.346 33.4638 139.014 34.9839 142.839 34.9839H166.124C174.088 34.984 180.545 41.4402 180.545 49.4048V72.6899C180.545 76.5146 182.064 80.1827 184.768 82.8872L199.99 98.1089C205.622 103.741 205.622 112.872 199.99 118.503L184.768 133.725C182.064 136.43 180.545 140.098 180.545 143.922V164.562C180.545 170.866 176.499 176.224 170.863 178.185C170.336 179.921 169.7 181.528 168.924 183.051C165.041 190.672 158.845 196.868 151.224 200.75C142.561 205.165 131.219 205.165 108.538 205.165C85.8559 205.165 74.5146 205.165 65.8512 200.75C58.2308 196.868 52.0349 190.672 48.152 183.051C47.375 181.526 46.7381 179.917 46.2106 178.179C40.5828 176.214 36.5446 170.86 36.5446 164.562V144.284C36.5445 140.459 35.0254 136.791 32.321 134.086L16.738 118.504C11.1062 112.873 11.1063 103.741 16.738 98.1089L32.321 82.5259C35.0253 79.8214 36.5446 76.1532 36.5446 72.3286V49.4048C36.5446 41.4402 43.0018 34.9839 50.9665 34.9839H73.8893C77.7141 34.9839 81.3821 33.4638 84.0866 30.7593L98.1667 16.6802Z"/>
</mask>
<path d="M98.1667 16.6802L105.237 23.7515L105.238 23.7512L98.1667 16.6802ZM118.561 16.6802L111.49 23.7512L111.49 23.7515L118.561 16.6802ZM132.641 30.7593L139.712 23.6882L139.712 23.688L132.641 30.7593ZM166.124 34.9839L166.124 24.9839H166.124V34.9839ZM180.545 49.4048H170.545H180.545ZM180.545 72.6899H170.545V72.69L180.545 72.6899ZM184.768 82.8872L177.697 89.9581L177.697 89.9583L184.768 82.8872ZM199.99 98.1089L207.061 91.0379L207.061 91.0378L199.99 98.1089ZM199.99 118.503L207.061 125.574L207.061 125.574L199.99 118.503ZM184.768 133.725L177.697 126.654L177.697 126.654L184.768 133.725ZM180.545 143.922L170.545 143.922V143.922H180.545ZM180.545 164.562H190.545H180.545ZM170.863 178.185L167.577 168.74L162.773 170.412L161.295 175.279L170.863 178.185ZM168.924 183.051L177.834 187.591L177.834 187.591L168.924 183.051ZM151.224 200.75L155.764 209.661L155.764 209.661L151.224 200.75ZM108.538 205.165V215.165V205.165ZM65.8512 200.75L61.3113 209.661L61.3114 209.661L65.8512 200.75ZM48.152 183.051L39.242 187.591L39.242 187.591L48.152 183.051ZM46.2106 178.179L55.7796 175.275L54.304 170.413L49.5074 168.738L46.2106 178.179ZM36.5446 144.284H46.5446V144.283L36.5446 144.284ZM32.321 134.086L39.392 127.015L39.3918 127.015L32.321 134.086ZM16.738 118.504L9.66689 125.575L9.66711 125.576L16.738 118.504ZM16.738 98.1089L9.66689 91.0378L9.66678 91.0379L16.738 98.1089ZM32.321 82.5259L39.392 89.597L39.3922 89.5968L32.321 82.5259ZM36.5446 72.3286L46.5446 72.3287V72.3286H36.5446ZM50.9665 34.9839V44.9839V34.9839ZM73.8893 34.9839V24.9839V34.9839ZM84.0866 30.7593L77.0158 23.688L77.0156 23.6882L84.0866 30.7593ZM98.1667 16.6802L105.238 23.7512C106.964 22.0246 109.764 22.0246 111.49 23.7512L118.561 16.6802L125.632 9.60911C116.095 0.0720272 100.633 0.0720272 91.0956 9.60911L98.1667 16.6802ZM118.561 16.6802L111.49 23.7515L125.57 37.8306L132.641 30.7593L139.712 23.688L125.632 9.60887L118.561 16.6802ZM132.641 30.7593L125.57 37.8304C130.149 42.4093 136.36 44.9839 142.839 44.9839V34.9839V24.9839C141.667 24.9839 140.542 24.5183 139.712 23.6882L132.641 30.7593ZM142.839 34.9839V44.9839H166.124V34.9839V24.9839H142.839V34.9839ZM166.124 34.9839L166.124 44.9839C168.565 44.9839 170.545 46.9632 170.545 49.4048H180.545H190.545C190.545 35.9173 179.611 24.9841 166.124 24.9839L166.124 34.9839ZM180.545 49.4048H170.545V72.6899H180.545H190.545V49.4048H180.545ZM180.545 72.6899L170.545 72.69C170.545 79.1665 173.117 85.3782 177.697 89.9581L184.768 82.8872L191.839 75.8163C191.011 74.9873 190.545 73.8627 190.545 72.6899L180.545 72.6899ZM184.768 82.8872L177.697 89.9583L192.919 105.18L199.99 98.1089L207.061 91.0378L191.839 75.8161L184.768 82.8872ZM199.99 98.1089L192.919 105.18C194.645 106.906 194.645 109.706 192.919 111.432L199.99 118.503L207.061 125.574C216.598 116.037 216.598 100.575 207.061 91.0379L199.99 98.1089ZM199.99 118.503L192.919 111.432L177.697 126.654L184.768 133.725L191.839 140.796L207.061 125.574L199.99 118.503ZM184.768 133.725L177.697 126.654C173.117 131.234 170.545 137.446 170.545 143.922L180.545 143.922L190.545 143.923C190.545 142.749 191.011 141.625 191.839 140.796L184.768 133.725ZM180.545 143.922H170.545V164.562H180.545H190.545V143.922H180.545ZM180.545 164.562H170.545C170.545 166.478 169.32 168.134 167.577 168.74L170.863 178.185L174.148 187.63C183.679 184.315 190.545 175.254 190.545 164.562H180.545ZM170.863 178.185L161.295 175.279C160.921 176.509 160.496 177.563 160.013 178.511L168.924 183.051L177.834 187.591C178.903 185.493 179.751 183.332 180.431 181.091L170.863 178.185ZM168.924 183.051L160.013 178.511C157.089 184.25 152.423 188.916 146.684 191.84L151.224 200.75L155.764 209.661C165.266 204.819 172.992 197.093 177.834 187.591L168.924 183.051ZM151.224 200.75L146.685 191.84C143.998 193.209 140.459 194.145 134.324 194.646C128.072 195.157 120.044 195.165 108.538 195.165V205.165V215.165C119.714 215.165 128.697 215.172 135.952 214.58C143.324 213.977 149.788 212.706 155.764 209.661L151.224 200.75ZM108.538 205.165V195.165C97.0318 195.165 89.0036 195.157 82.7518 194.646C76.6167 194.145 73.0781 193.209 70.3911 191.84L65.8512 200.75L61.3114 209.661C67.2878 212.706 73.7515 213.977 81.1233 214.58C88.3784 215.172 97.3618 215.165 108.538 215.165V205.165ZM65.8512 200.75L70.3911 191.84C64.6523 188.916 59.9862 184.25 57.0621 178.511L48.152 183.051L39.242 187.591C44.0836 197.093 51.8092 204.819 61.3113 209.661L65.8512 200.75ZM48.152 183.051L57.0621 178.511C56.5782 177.562 56.1533 176.506 55.7796 175.275L46.2106 178.179L36.6417 181.084C37.3229 183.328 38.1719 185.491 39.242 187.591L48.152 183.051ZM46.2106 178.179L49.5074 168.738C47.767 168.131 46.5446 166.475 46.5446 164.562H36.5446H26.5446C26.5446 175.245 33.3985 184.297 42.9139 187.62L46.2106 178.179ZM36.5446 164.562H46.5446V144.284H36.5446H26.5446V164.562H36.5446ZM36.5446 144.284L46.5446 144.283C46.5444 137.807 43.9722 131.596 39.392 127.015L32.321 134.086L25.2499 141.158C26.0785 141.986 26.5446 143.111 26.5446 144.284L36.5446 144.284ZM32.321 134.086L39.3918 127.015L23.8088 111.433L16.738 118.504L9.66711 125.576L25.2501 141.158L32.321 134.086ZM16.738 118.504L23.809 111.433C22.0826 109.707 22.0824 106.907 23.8091 105.18L16.738 98.1089L9.66678 91.0379C0.130105 100.575 0.129766 116.038 9.66689 125.575L16.738 118.504ZM16.738 98.1089L23.809 105.18L39.392 89.597L32.321 82.5259L25.2499 75.4548L9.66689 91.0378L16.738 98.1089ZM32.321 82.5259L39.3922 89.5968C43.972 85.0168 46.5445 78.8051 46.5446 72.3287L36.5446 72.3286L26.5446 72.3285C26.5446 73.5014 26.0787 74.626 25.2498 75.4549L32.321 82.5259ZM36.5446 72.3286H46.5446V49.4048H36.5446H26.5446V72.3286H36.5446ZM36.5446 49.4048H46.5446C46.5446 46.9639 48.5238 44.9839 50.9665 44.9839V34.9839V24.9839C37.4799 24.9839 26.5446 35.9164 26.5446 49.4048H36.5446ZM50.9665 34.9839V44.9839H73.8893V34.9839V24.9839H50.9665V34.9839ZM73.8893 34.9839V44.9839C80.3676 44.9839 86.5788 42.4092 91.1576 37.8304L84.0866 30.7593L77.0156 23.6882C76.1854 24.5183 75.0605 24.9839 73.8893 24.9839V34.9839ZM84.0866 30.7593L91.1574 37.8306L105.237 23.7515L98.1667 16.6802L91.0958 9.60887L77.0158 23.688L84.0866 30.7593Z" fill="white" mask="url(#path-1-outside-1_248_2352)"/>
</g>
<g filter="url(#filter1_g_248_2352)">
<path d="M132.642 30.7638C135.347 33.4683 139.015 34.9877 142.839 34.9877H166.124C174.089 34.9877 180.546 41.4443 180.546 49.4089V72.694C180.546 76.5187 182.065 80.1867 184.769 82.8912L199.991 98.1134C205.623 103.745 205.623 112.876 199.991 118.508L184.77 133.729C182.065 136.433 180.546 140.101 180.546 143.926V164.566C180.546 172.531 174.089 178.988 166.124 178.988H50.9668C43.0022 178.988 36.5456 172.531 36.5456 164.566V144.287C36.5456 140.463 35.0261 136.794 32.3215 134.09L16.7392 118.508C11.1072 112.876 11.1071 103.745 16.7389 98.1134L32.3219 82.5299C35.0263 79.8254 36.5456 76.1574 36.5456 72.3327V49.4089C36.5456 41.4443 43.0022 34.9877 50.9668 34.9877H73.8905C77.7152 34.9877 81.3833 33.4683 84.0878 30.7638L98.1676 16.6841C103.799 11.0522 112.93 11.0522 118.562 16.6841L132.642 30.7638Z" fill="#5A79F9"/>
</g>
<g filter="url(#filter2_ig_248_2352)">
<rect x="43.7386" y="75.5666" width="129.6" height="129.6" rx="40.5" fill="#FFC6B7"/>
</g>
<g filter="url(#filter3_g_248_2352)">
<path d="M63.0695 109.976C63.0695 103.413 63.0695 100.132 64.3468 97.625C65.4703 95.4199 67.263 93.6272 69.4681 92.5037C71.9748 91.2264 75.2564 91.2264 81.8195 91.2264C88.3826 91.2264 91.6642 91.2264 94.171 92.5037C96.376 93.6272 98.1687 95.4199 99.2923 97.625C100.57 100.132 100.57 103.413 100.57 109.976V128.726C100.57 135.29 100.57 138.571 99.2923 141.078C98.1687 143.283 96.376 145.076 94.171 146.199C91.6642 147.476 88.3826 147.476 81.8195 147.476C75.2564 147.476 71.9748 147.476 69.4681 146.199C67.263 145.076 65.4703 143.283 64.3468 141.078C63.0695 138.571 63.0695 135.29 63.0695 128.726V109.976Z" fill="white"/>
<path d="M116.511 109.975C116.511 103.412 116.511 100.131 117.789 97.6237C118.912 95.4187 120.705 93.626 122.91 92.5025C125.417 91.2252 128.698 91.2252 135.261 91.2252C141.824 91.2252 145.106 91.2252 147.613 92.5025C149.818 93.626 151.611 95.4187 152.734 97.6237C154.011 100.131 154.011 103.412 154.011 109.975V128.725C154.011 135.288 154.011 138.57 152.734 141.077C151.611 143.282 149.818 145.074 147.613 146.198C145.106 147.475 141.824 147.475 135.261 147.475C128.698 147.475 125.417 147.475 122.91 146.198C120.705 145.074 118.912 143.282 117.789 141.077C116.511 138.57 116.511 135.288 116.511 128.725V109.975Z" fill="white"/>
<path d="M85.1018 113.259C88.3834 113.259 90.0242 113.259 91.2776 113.898C92.3801 114.46 93.2764 115.356 93.8381 116.459C94.4768 117.712 94.4768 119.353 94.4768 122.634V132.009C94.4768 135.291 94.4768 136.932 93.8381 138.185C93.2764 139.288 92.3801 140.184 91.2776 140.746C90.0242 141.384 88.3834 141.384 85.1018 141.384C81.8202 141.384 80.1794 141.384 78.926 140.746C77.8236 140.184 76.9272 139.288 76.3655 138.185C75.7268 136.932 75.7268 135.291 75.7268 132.009V128.72C75.7268 127.641 75.7268 127.101 76.05 126.762C76.3731 126.422 76.9371 126.394 78.065 126.339C79.339 126.276 80.2171 126.123 80.9592 125.745C82.0616 125.183 82.958 124.286 83.5198 123.184C84.1584 121.931 84.1584 120.29 84.1584 117.008V114.203C84.1584 113.681 84.5805 113.259 85.1018 113.259Z" fill="#4C4C4C"/>
<path d="M137.133 113.727C140.414 113.727 142.055 113.727 143.308 114.366C144.411 114.928 145.307 115.824 145.869 116.926C146.507 118.18 146.508 119.821 146.508 123.102V132.477C146.508 135.759 146.507 137.4 145.869 138.653C145.307 139.755 144.411 140.652 143.308 141.214C142.055 141.852 140.414 141.852 137.133 141.852C133.851 141.852 132.21 141.852 130.957 141.214C129.854 140.652 128.958 139.755 128.396 138.653C127.758 137.4 127.758 135.759 127.758 132.477V129.194C127.758 128.105 127.758 127.561 128.088 127.22C128.418 126.879 128.979 126.862 130.101 126.827C131.635 126.779 132.635 126.637 133.466 126.214C134.568 125.652 135.464 124.755 136.026 123.653C136.665 122.4 136.665 120.759 136.665 117.477V114.195C136.665 113.937 136.874 113.727 137.133 113.727Z" fill="#4C4C4C"/>
</g>
<g filter="url(#filter4_g_248_2352)">
<path d="M86.463 159.974C87.0674 156.547 90.6567 154.529 93.8994 155.794L102.936 159.319C104.592 159.965 106.36 160.276 108.138 160.236L117.835 160.014C121.315 159.934 123.998 163.058 123.393 166.486C122.937 169.076 120.716 170.983 118.087 171.043L107.241 171.291C104.766 171.347 102.304 170.913 99.9981 170.014L89.8904 166.071C87.4409 165.115 86.0064 162.564 86.463 159.974Z" fill="white"/>
</g>
<defs>
<filter id="filter0_g_248_2352" x="0.63916" y="0.581299" width="215.449" height="216.458" filterUnits="userSpaceOnUse" color-interpolation-filters="sRGB">
<feFlood flood-opacity="0" result="BackgroundImageFix"/>
<feBlend mode="normal" in="SourceGraphic" in2="BackgroundImageFix" result="shape"/>
<feTurbulence type="fractalNoise" baseFrequency="0.053333345800638199 0.053333345800638199" numOctaves="3" seed="5149" />
<feDisplacementMap in="shape" scale="3.7499995231628418" xChannelSelector="R" yChannelSelector="G" result="displacedImage" width="100%" height="100%" />
<feMerge result="effect1_texture_248_2352">
<feMergeNode in="displacedImage"/>
</feMerge>
</filter>
<filter id="filter1_g_248_2352" x="10.6401" y="10.5852" width="195.45" height="170.277" filterUnits="userSpaceOnUse" color-interpolation-filters="sRGB">
<feFlood flood-opacity="0" result="BackgroundImageFix"/>
<feBlend mode="normal" in="SourceGraphic" in2="BackgroundImageFix" result="shape"/>
<feTurbulence type="fractalNoise" baseFrequency="0.053333334624767303 0.053333334624767303" numOctaves="3" seed="5149" />
<feDisplacementMap in="shape" scale="3.75" xChannelSelector="R" yChannelSelector="G" result="displacedImage" width="100%" height="100%" />
<feMerge result="effect1_texture_248_2352">
<feMergeNode in="displacedImage"/>
</feMerge>
</filter>
<filter id="filter2_ig_248_2352" x="41.8636" y="73.6916" width="133.35" height="133.35" filterUnits="userSpaceOnUse" color-interpolation-filters="sRGB">
<feFlood flood-opacity="0" result="BackgroundImageFix"/>
<feBlend mode="normal" in="SourceGraphic" in2="BackgroundImageFix" result="shape"/>
<feColorMatrix in="SourceAlpha" type="matrix" values="0 0 0 0 0 0 0 0 0 0 0 0 0 0 0 0 0 0 127 0" result="hardAlpha"/>
<feOffset dy="1.875"/>
<feGaussianBlur stdDeviation="4.6875"/>
<feComposite in2="hardAlpha" operator="arithmetic" k2="-1" k3="1"/>
<feColorMatrix type="matrix" values="0 0 0 0 0.352941 0 0 0 0 0.47451 0 0 0 0 0.976471 0 0 0 1 0"/>
<feBlend mode="normal" in2="shape" result="effect1_innerShadow_248_2352"/>
<feTurbulence type="fractalNoise" baseFrequency="0.053333334624767303 0.053333334624767303" numOctaves="3" seed="5149" />
<feDisplacementMap in="effect1_innerShadow_248_2352" scale="3.75" xChannelSelector="R" yChannelSelector="G" result="displacedImage" width="100%" height="100%" />
<feMerge result="effect2_texture_248_2352">
<feMergeNode in="displacedImage"/>
</feMerge>
</filter>
<filter id="filter3_g_248_2352" x="61.1945" y="89.3502" width="94.6918" height="60.0012" filterUnits="userSpaceOnUse" color-interpolation-filters="sRGB">
<feFlood flood-opacity="0" result="BackgroundImageFix"/>
<feBlend mode="normal" in="SourceGraphic" in2="BackgroundImageFix" result="shape"/>
<feTurbulence type="fractalNoise" baseFrequency="0.053333334624767303 0.053333334624767303" numOctaves="3" seed="5149" />
<feDisplacementMap in="shape" scale="3.75" xChannelSelector="R" yChannelSelector="G" result="displacedImage" width="100%" height="100%" />
<feMerge result="effect1_texture_248_2352">
<feMergeNode in="displacedImage"/>
</feMerge>
</filter>
<filter id="filter4_g_248_2352" x="84.5037" y="153.538" width="40.85" height="19.6323" filterUnits="userSpaceOnUse" color-interpolation-filters="sRGB">
<feFlood flood-opacity="0" result="BackgroundImageFix"/>
<feBlend mode="normal" in="SourceGraphic" in2="BackgroundImageFix" result="shape"/>
<feTurbulence type="fractalNoise" baseFrequency="0.053333345800638199 0.053333345800638199" numOctaves="3" seed="5149" />
<feDisplacementMap in="shape" scale="3.7499995231628418" xChannelSelector="R" yChannelSelector="G" result="displacedImage" width="100%" height="100%" />
<feMerge result="effect1_texture_248_2352">
<feMergeNode in="displacedImage"/>
</feMerge>
</filter>
</defs>
</svg>
