<svg width="1024" height="1024" viewBox="0 0 1024 1024" fill="none" xmlns="http://www.w3.org/2000/svg">
<g clip-path="url(#clip0_458_40543)">
<path d="M0 500C0 264.298 0 146.447 73.2233 73.2233C146.447 0 264.298 0 500 0H524C759.702 0 877.553 0 950.777 73.2233C1024 146.447 1024 264.298 1024 500V524C1024 759.702 1024 877.553 950.777 950.777C877.553 1024 759.702 1024 524 1024H500C264.298 1024 146.447 1024 73.2233 950.777C0 877.553 0 759.702 0 524V500Z" fill="white"/>
<rect x="202" y="252" width="620" height="104" rx="24" fill="#5A79F9"/>
<rect x="202" y="460" width="620" height="104" rx="24" fill="#5A79F9"/>
<path d="M202 716C202 693.373 202 682.059 209.029 675.029C216.059 668 227.373 668 250 668H774C796.627 668 807.941 668 814.971 675.029C822 682.059 822 693.373 822 716V724C822 746.627 822 757.941 814.971 764.971C807.941 772 796.627 772 774 772H250C227.373 772 216.059 772 209.029 764.971C202 757.941 202 746.627 202 724V716Z" fill="#5A79F9"/>
</g>
<defs>
<clipPath id="clip0_458_40543">
<rect width="1024" height="1024" fill="white"/>
</clipPath>
</defs>
</svg>
