<svg width="100" height="100" viewBox="0 0 100 100" fill="none" xmlns="http://www.w3.org/2000/svg">
<rect width="100" height="100" rx="25.2525" fill="#F5F5F5"/>
<rect x="19.6968" y="24.7471" width="60.6061" height="10.101" rx="2.52525" fill="#5A79F9"/>
<rect x="19.6968" y="44.9492" width="60.6061" height="10.101" rx="2.52525" fill="#5A79F9"/>
<path d="M19.6968 70.2019C19.6968 67.821 19.6968 66.6306 20.4364 65.891C21.176 65.1514 22.3665 65.1514 24.7473 65.1514H75.2523C77.6332 65.1514 78.8236 65.1514 79.5632 65.891C80.3028 66.6306 80.3028 67.821 80.3028 70.2019V70.2019C80.3028 72.5827 80.3028 73.7731 79.5632 74.5127C78.8236 75.2524 77.6332 75.2524 75.2523 75.2524H24.7473C22.3665 75.2524 21.176 75.2524 20.4364 74.5127C19.6968 73.7731 19.6968 72.5827 19.6968 70.2019V70.2019Z" fill="#5A79F9"/>
</svg>
