<svg width="632" height="349" viewBox="0 0 632 349" fill="none" xmlns="http://www.w3.org/2000/svg">
<g filter="url(#filter0_g_538_26656)">
<path d="M146.281 270.443L154.153 270.443C193.808 270.443 230.985 251.155 253.82 218.735C276.186 186.981 312.344 167.785 351.177 167.049L364.52 166.796" stroke="#5A79F9" stroke-width="12" stroke-linecap="round" stroke-dasharray="32 32"/>
</g>
<rect x="352.4" y="94.0195" width="150" height="150" rx="40" fill="white"/>
<rect x="352.4" y="94.0195" width="150" height="150" rx="40" stroke="#5A79F9" stroke-width="10"/>
<path d="M409.232 196.02C408.781 195.118 408.456 193.917 408.255 192.415C408.105 190.863 408.03 189.612 408.03 188.66C408.03 185.807 408.506 183.204 409.457 180.851C410.408 178.448 411.985 176.37 414.188 174.618C416.39 172.816 419.369 171.439 423.124 170.488L426.728 169.587C429.782 168.786 432.06 167.534 433.562 165.832C435.114 164.08 435.89 161.627 435.89 158.473C435.89 155.319 434.788 152.866 432.586 151.114C430.433 149.311 427.204 148.41 422.899 148.41C421.196 148.41 419.594 148.535 418.093 148.786C416.641 149.036 415.289 149.386 414.038 149.837C412.786 150.237 411.66 150.663 410.658 151.114H409.982V143.529C411.484 142.878 413.412 142.303 415.765 141.802C418.168 141.301 420.746 141.051 423.499 141.051C428.355 141.051 432.285 141.827 435.289 143.379C438.343 144.931 440.571 147.033 441.972 149.687C443.424 152.29 444.15 155.194 444.15 158.398C444.15 163.454 442.798 167.434 440.095 170.338C437.392 173.241 433.862 175.269 429.507 176.42L426.053 177.321C422.398 178.222 419.795 179.574 418.243 181.376C416.741 183.128 415.99 185.231 415.99 187.684C415.99 188.385 416.04 188.936 416.14 189.336C416.29 189.687 416.491 190.137 416.741 190.688L412.836 188.66H445.427V196.02H409.232Z" fill="#5A79F9"/>
<rect x="6" y="193.22" width="150" height="150" rx="40" fill="white"/>
<rect x="6" y="193.22" width="150" height="150" rx="40" stroke="#5A79F9" stroke-width="10"/>
<path d="M77.3998 293.718V254.594C77.3998 253.793 77.4248 252.842 77.4749 251.741C77.525 250.639 77.575 249.663 77.6251 248.812C77.7252 247.961 77.8253 247.56 77.9255 247.61L81.1545 248.286H63.7328V241.978C64.4336 241.728 65.535 241.503 67.0369 241.303C68.5888 241.052 70.316 240.877 72.2183 240.777C74.1708 240.627 76.0982 240.552 78.0006 240.552C79.953 240.552 81.6551 240.652 83.1069 240.852C84.5587 241.002 85.6851 241.202 86.4861 241.453L86.6363 242.354C86.4361 243.255 86.2859 244.456 86.1858 245.958C86.1357 247.46 86.0856 248.987 86.0356 250.539C86.0356 252.091 86.0356 253.368 86.0356 254.369V293.718H77.3998ZM62.4562 295.22V287.785H99.3271V295.22H62.4562Z" fill="#5A79F9"/>
<g filter="url(#filter1_d_538_26656)">
<g filter="url(#filter2_g_538_26656)">
<mask id="path-6-outside-1_538_26656" maskUnits="userSpaceOnUse" x="430.186" y="-5.79601" width="208.465" height="209.173" fill="black">
<rect fill="white" x="430.186" y="-5.79601" width="208.465" height="209.173"/>
<path d="M545.415 25.0009C550.933 21.815 557.988 23.7056 561.174 29.2236L569.138 43.0176C570.668 45.6674 573.188 47.6009 576.144 48.3928L594.136 53.2138C600.29 54.8631 603.942 61.1891 602.293 67.3436L597.472 85.3359C596.68 88.2912 597.096 91.4402 598.625 94.0899L607.237 109.007C610.422 114.525 608.532 121.58 603.014 124.766L588.098 133.379C585.448 134.909 583.514 137.428 582.722 140.383L578.449 156.33C577.144 161.201 572.911 164.5 568.151 164.85C567.384 166.082 566.56 167.192 565.646 168.208C561.067 173.292 554.997 176.797 548.304 178.22C540.696 179.837 531.932 177.488 514.405 172.792C496.877 168.096 488.113 165.747 482.333 160.543C477.248 155.964 473.743 149.894 472.321 143.201C472.036 141.864 471.877 140.49 471.829 139.04C467.885 136.356 465.87 131.383 467.174 126.514L471.373 110.843C472.165 107.887 471.751 104.739 470.221 102.089L461.408 86.8238C458.222 81.3058 460.113 74.2492 465.631 71.0634L480.896 62.2501C483.545 60.7202 485.479 58.2 486.271 55.2444L491.018 37.5276C492.667 31.3731 498.994 27.7207 505.148 29.3696L522.866 34.1171C525.821 34.909 528.971 34.4947 531.621 32.9648L545.415 25.0009Z"/>
</mask>
<path d="M545.415 25.0009L541.415 18.0727L545.415 25.0009ZM561.174 29.2236L568.102 25.2236L561.174 29.2236ZM569.138 43.0176L562.21 47.0176L562.21 47.0176L569.138 43.0176ZM576.144 48.3928L574.073 56.1202L576.144 48.3928ZM594.136 53.2138L596.207 45.4865L596.206 45.4864L594.136 53.2138ZM597.472 85.3359L589.745 83.2653L589.744 83.2656L597.472 85.3359ZM598.625 94.0899L605.554 90.0902L605.554 90.0901L598.625 94.0899ZM607.237 109.007L600.308 113.006L600.309 113.007L607.237 109.007ZM603.014 124.766L599.014 117.838L599.014 117.838L603.014 124.766ZM588.098 133.379L592.098 140.307L592.098 140.307L588.098 133.379ZM582.722 140.383L574.995 138.312L574.995 138.313L582.722 140.383ZM578.449 156.33L586.176 158.401L586.176 158.401L578.449 156.33ZM568.151 164.85L567.565 156.871L563.508 157.169L561.359 160.623L568.151 164.85ZM565.646 168.208L571.591 173.561L571.591 173.561L565.646 168.208ZM548.304 178.22L549.968 186.045L549.968 186.045L548.304 178.22ZM514.405 172.792L512.334 180.519L514.405 172.792ZM482.333 160.543L476.98 166.488L476.98 166.488L482.333 160.543ZM472.321 143.201L464.496 144.864L464.496 144.865L472.321 143.201ZM471.829 139.04L479.825 138.775L479.69 134.712L476.329 132.425L471.829 139.04ZM467.174 126.514L459.447 124.444L459.447 124.444L467.174 126.514ZM471.373 110.843L479.101 112.913L479.101 112.913L471.373 110.843ZM470.221 102.089L477.149 98.0889L477.149 98.0889L470.221 102.089ZM465.631 71.0634L461.631 64.1352L465.631 71.0634ZM480.896 62.2501L484.896 69.1783L480.896 62.2501ZM505.148 29.3696L507.219 21.6422L507.218 21.6422L505.148 29.3696ZM522.866 34.1171L524.936 26.3897L522.866 34.1171ZM531.621 32.9648L535.621 39.893L535.621 39.893L531.621 32.9648ZM545.415 25.0009L549.415 31.9291C551.106 30.9524 553.269 31.5319 554.246 33.2236L561.174 29.2236L568.102 25.2236C562.707 15.8792 550.759 12.6777 541.415 18.0727L545.415 25.0009ZM561.174 29.2236L554.246 33.2236L562.21 47.0176L569.138 43.0176L576.066 39.0176L568.102 25.2236L561.174 29.2236ZM569.138 43.0176L562.21 47.0176C564.801 51.5054 569.069 54.7793 574.073 56.1202L576.144 48.3928L578.214 40.6654C577.308 40.4225 576.535 39.8294 576.066 39.0175L569.138 43.0176ZM576.144 48.3928L574.073 56.1202L592.065 60.9412L594.136 53.2138L596.206 45.4864L578.214 40.6654L576.144 48.3928ZM594.136 53.2138L592.065 60.9412C593.951 61.4467 595.071 63.3857 594.566 65.2731L602.293 67.3436L610.02 69.4142C612.813 58.9926 606.629 48.2796 596.207 45.4865L594.136 53.2138ZM602.293 67.3436L594.566 65.2731L589.745 83.2653L597.472 85.3359L605.199 87.4064L610.02 69.4142L602.293 67.3436ZM597.472 85.3359L589.744 83.2656C588.403 88.2719 589.107 93.6042 591.697 98.0898L598.625 94.0899L605.554 90.0901C605.084 89.2762 604.957 88.3105 605.199 87.4061L597.472 85.3359ZM598.625 94.0899L591.697 98.0896L600.308 113.006L607.237 109.007L614.165 105.007L605.554 90.0902L598.625 94.0899ZM607.237 109.007L600.309 113.007C601.285 114.698 600.706 116.861 599.014 117.838L603.014 124.766L607.014 131.694C616.358 126.299 619.56 114.351 614.165 105.007L607.237 109.007ZM603.014 124.766L599.014 117.838L584.098 126.451L588.098 133.379L592.098 140.307L607.014 131.694L603.014 124.766ZM588.098 133.379L584.098 126.451C579.612 129.04 576.336 133.306 574.995 138.312L582.722 140.383L590.449 142.454C590.692 141.55 591.284 140.777 592.098 140.307L588.098 133.379ZM582.722 140.383L574.995 138.313L570.722 154.26L578.449 156.33L586.176 158.401L590.449 142.454L582.722 140.383ZM578.449 156.33L570.722 154.26C570.326 155.737 569.039 156.763 567.565 156.871L568.151 164.85L568.737 172.828C576.782 172.238 583.962 166.664 586.176 158.401L578.449 156.33ZM568.151 164.85L561.359 160.623C560.815 161.497 560.269 162.223 559.701 162.855L565.646 168.208L571.591 173.561C572.852 172.16 573.954 170.666 574.943 169.077L568.151 164.85ZM565.646 168.208L559.701 162.854C556.253 166.684 551.681 169.323 546.641 170.394L548.304 178.22L549.968 186.045C558.313 184.271 565.882 179.901 571.591 173.561L565.646 168.208ZM548.304 178.22L546.641 170.394C544.281 170.896 541.353 170.886 536.508 170.003C531.572 169.103 525.366 167.447 516.475 165.065L514.405 172.792L512.334 180.519C520.97 182.833 527.91 184.7 533.64 185.744C539.461 186.805 544.719 187.16 549.968 186.045L548.304 178.22ZM514.405 172.792L516.475 165.065C507.584 162.682 501.382 161.014 496.657 159.325C492.019 157.667 489.479 156.212 487.686 154.597L482.333 160.543L476.98 166.488C480.967 170.078 485.699 172.399 491.271 174.391C496.754 176.351 503.698 178.205 512.334 180.519L514.405 172.792ZM482.333 160.543L487.686 154.597C483.857 151.15 481.217 146.578 480.146 141.538L472.321 143.201L464.496 144.865C466.269 153.21 470.64 160.779 476.98 166.488L482.333 160.543ZM472.321 143.201L480.146 141.538C479.969 140.704 479.859 139.802 479.825 138.775L471.829 139.04L463.834 139.304C463.896 141.178 464.104 143.023 464.496 144.864L472.321 143.201ZM471.829 139.04L476.329 132.425C475.107 131.594 474.506 130.062 474.902 128.585L467.174 126.514L459.447 124.444C457.233 132.704 460.662 141.119 467.33 145.654L471.829 139.04ZM467.174 126.514L474.902 128.585L479.101 112.913L471.373 110.843L463.646 108.772L459.447 124.444L467.174 126.514ZM471.373 110.843L479.101 112.913C480.442 107.908 479.74 102.576 477.149 98.0889L470.221 102.089L463.293 106.089C463.762 106.901 463.889 107.866 463.646 108.772L471.373 110.843ZM470.221 102.089L477.149 98.0889L468.336 82.8238L461.408 86.8238L454.479 90.8238L463.293 106.089L470.221 102.089ZM461.408 86.8238L468.336 82.8238C467.359 81.1321 467.939 78.9683 469.631 77.9916L465.631 71.0634L461.631 64.1352C452.286 69.5302 449.084 81.4794 454.479 90.8238L461.408 86.8238ZM465.631 71.0634L469.631 77.9916L484.896 69.1783L480.896 62.2501L476.896 55.3219L461.631 64.1352L465.631 71.0634ZM480.896 62.2501L484.896 69.1783C489.383 66.5873 492.657 62.3194 493.998 57.315L486.271 55.2444L478.543 53.1739C478.301 54.0805 477.708 54.8532 476.896 55.3219L480.896 62.2501ZM486.271 55.2444L493.998 57.315L498.746 39.5982L491.018 37.5276L483.291 35.457L478.543 53.1739L486.271 55.2444ZM491.018 37.5276L498.746 39.5982C499.251 37.7116 501.191 36.5915 503.078 37.0971L505.148 29.3696L507.218 21.6422C496.797 18.85 486.083 25.0346 483.291 35.457L491.018 37.5276ZM505.148 29.3696L503.078 37.097L520.795 41.8445L522.866 34.1171L524.936 26.3897L507.219 21.6422L505.148 29.3696ZM522.866 34.1171L520.795 41.8445C525.8 43.1854 531.133 42.4841 535.621 39.893L531.621 32.9648L527.621 26.0366C526.809 26.5054 525.843 26.6326 524.936 26.3897L522.866 34.1171ZM531.621 32.9648L535.621 39.893L549.415 31.9291L545.415 25.0009L541.415 18.0727L527.621 26.0366L531.621 32.9648Z" fill="white" mask="url(#path-6-outside-1_538_26656)"/>
</g>
<g filter="url(#filter3_g_538_26656)">
<path d="M569.138 43.0179C570.668 45.6678 573.188 47.6014 576.144 48.3933L594.134 53.2137C600.288 54.8628 603.941 61.189 602.292 67.3436L597.471 85.3336C596.679 88.2892 597.094 91.4383 598.624 94.0881L607.237 109.006C610.423 114.525 608.532 121.58 603.014 124.766L588.096 133.379C585.446 134.909 583.512 137.429 582.72 140.385L578.448 156.33C576.799 162.484 570.473 166.137 564.318 164.488L475.331 140.644C469.176 138.994 465.524 132.668 467.173 126.514L471.373 110.841C472.164 107.886 471.75 104.737 470.22 102.087L461.407 86.8229C458.221 81.3048 460.112 74.2489 465.63 71.063L480.894 62.2504C483.544 60.7205 485.478 58.2006 486.27 55.245L491.017 37.5276C492.666 31.373 498.992 27.7206 505.147 29.3697L522.864 34.1171C525.82 34.909 528.969 34.4944 531.619 32.9645L545.414 24.9998C550.932 21.814 557.988 23.7046 561.174 29.2227L569.138 43.0179Z" fill="#5A79F9"/>
</g>
<g filter="url(#filter4_ig_538_26656)">
<rect x="491.165" y="59.2295" width="103.68" height="103.68" rx="32.4" transform="rotate(15 491.165 59.2295)" fill="#FFC6B7"/>
</g>
<g filter="url(#filter5_g_538_26656)">
<path d="M498.975 89.8336C500.334 84.762 501.013 82.2262 502.519 80.5536C503.844 79.0823 505.601 78.0682 507.537 77.6566C509.739 77.1886 512.274 77.8681 517.346 79.227C522.418 80.5859 524.953 81.2654 526.626 82.7714C528.097 84.0962 529.111 85.8527 529.523 87.7893C529.991 89.9908 529.312 92.5266 527.953 97.5982L524.07 112.087C522.711 117.159 522.032 119.694 520.526 121.367C519.201 122.838 517.445 123.852 515.508 124.264C513.307 124.732 510.771 124.053 505.699 122.694C500.628 121.335 498.092 120.655 496.419 119.149C494.948 117.824 493.934 116.068 493.522 114.131C493.054 111.93 493.734 109.394 495.093 104.323L498.975 89.8336Z" fill="white"/>
<path d="M540.268 100.898C541.627 95.8265 542.306 93.2907 543.813 91.6181C545.137 90.1468 546.894 89.1327 548.83 88.721C551.032 88.2531 553.568 88.9325 558.639 90.2915V90.2915C563.711 91.6504 566.247 92.3299 567.919 93.8359C569.391 95.1606 570.405 96.9172 570.816 98.8537C571.284 101.055 570.605 103.591 569.246 108.663L565.364 123.152C564.005 128.223 563.325 130.759 561.819 132.432C560.494 133.903 558.738 134.917 556.801 135.329C554.6 135.797 552.064 135.117 546.992 133.758V133.758C541.921 132.399 539.385 131.72 537.712 130.214C536.241 128.889 535.227 127.132 534.815 125.196C534.347 122.994 535.027 120.459 536.386 115.387L540.268 100.898Z" fill="white"/>
<path d="M515.319 96.9314C517.855 97.6108 519.123 97.9505 519.959 98.7034C520.695 99.3658 521.202 100.244 521.408 101.213C521.642 102.313 521.302 103.581 520.623 106.117L518.682 113.361C518.002 115.897 517.662 117.165 516.91 118.001C516.247 118.737 515.369 119.244 514.4 119.45C513.3 119.684 512.032 119.344 509.496 118.665C506.96 117.985 505.692 117.646 504.856 116.893C504.12 116.23 503.613 115.352 503.407 114.383C503.173 113.283 503.513 112.015 504.193 109.479L504.874 106.935C505.098 106.101 505.21 105.683 505.53 105.488C505.85 105.293 506.292 105.388 507.174 105.58C508.174 105.797 508.885 105.861 509.537 105.723C510.506 105.517 511.384 105.01 512.047 104.274C512.8 103.438 513.139 102.17 513.819 99.6341L514.4 97.4645C514.507 97.0642 514.919 96.8241 515.319 96.9314V96.9314Z" fill="#4C4C4C"/>
<path d="M555.429 108.067C557.965 108.747 559.233 109.086 560.069 109.839C560.805 110.502 561.312 111.38 561.518 112.348C561.752 113.449 561.412 114.717 560.733 117.253L558.791 124.497C558.112 127.033 557.772 128.301 557.019 129.137C556.357 129.873 555.478 130.38 554.51 130.586C553.409 130.82 552.141 130.48 549.606 129.8C547.07 129.121 545.802 128.781 544.966 128.028C544.23 127.366 543.723 126.487 543.517 125.519C543.283 124.418 543.623 123.15 544.303 120.615L544.983 118.076C545.208 117.234 545.321 116.814 545.647 116.619C545.973 116.424 546.41 116.527 547.284 116.732C548.479 117.013 549.281 117.11 550.01 116.956C550.978 116.75 551.856 116.243 552.519 115.508C553.272 114.671 553.611 113.403 554.291 110.867L554.97 108.333C555.023 108.133 555.229 108.014 555.429 108.067V108.067Z" fill="#4C4C4C"/>
</g>
<g filter="url(#filter6_g_538_26656)">
<path d="M506.699 133.3C507.875 130.776 511.067 129.96 513.311 131.609L519.564 136.204C520.71 137.046 522.012 137.653 523.394 137.99L530.933 139.827C533.638 140.486 535.065 143.455 533.888 145.979V145.979C532.999 147.885 530.888 148.899 528.844 148.401L520.411 146.347C518.487 145.878 516.675 145.033 515.079 143.86L508.085 138.721C506.39 137.475 505.81 135.206 506.699 133.3V133.3Z" fill="white"/>
</g>
</g>
<defs>
<filter id="filter0_g_538_26656" x="130.281" y="150.796" width="250.239" height="135.647" filterUnits="userSpaceOnUse" color-interpolation-filters="sRGB">
<feFlood flood-opacity="0" result="BackgroundImageFix"/>
<feBlend mode="normal" in="SourceGraphic" in2="BackgroundImageFix" result="shape"/>
<feTurbulence type="fractalNoise" baseFrequency="0.0099999997764825821 0.0099999997764825821" numOctaves="3" seed="7246" />
<feDisplacementMap in="shape" scale="20" xChannelSelector="R" yChannelSelector="G" result="displacedImage" width="100%" height="100%" />
<feMerge result="effect1_texture_538_26656">
<feMergeNode in="displacedImage"/>
</feMerge>
</filter>
<filter id="filter1_d_538_26656" x="436.859" y="0.452148" width="194.927" height="201.276" filterUnits="userSpaceOnUse" color-interpolation-filters="sRGB">
<feFlood flood-opacity="0" result="BackgroundImageFix"/>
<feColorMatrix in="SourceAlpha" type="matrix" values="0 0 0 0 0 0 0 0 0 0 0 0 0 0 0 0 0 0 127 0" result="hardAlpha"/>
<feOffset/>
<feGaussianBlur stdDeviation="7.5"/>
<feComposite in2="hardAlpha" operator="out"/>
<feColorMatrix type="matrix" values="0 0 0 0 0 0 0 0 0 0 0 0 0 0 0 0 0 0 0.25 0"/>
<feBlend mode="normal" in2="BackgroundImageFix" result="effect1_dropShadow_538_26656"/>
<feBlend mode="normal" in="SourceGraphic" in2="effect1_dropShadow_538_26656" result="shape"/>
</filter>
<filter id="filter2_g_538_26656" x="450.359" y="13.9521" width="167.927" height="174.276" filterUnits="userSpaceOnUse" color-interpolation-filters="sRGB">
<feFlood flood-opacity="0" result="BackgroundImageFix"/>
<feBlend mode="normal" in="SourceGraphic" in2="BackgroundImageFix" result="shape"/>
<feTurbulence type="fractalNoise" baseFrequency="0.066666677594184875 0.066666677594184875" numOctaves="3" seed="5149" />
<feDisplacementMap in="shape" scale="2.9999995231628418" xChannelSelector="R" yChannelSelector="G" result="displacedImage" width="100%" height="100%" />
<feMerge result="effect1_texture_538_26656">
<feMergeNode in="displacedImage"/>
</feMerge>
</filter>
<filter id="filter3_g_538_26656" x="458.36" y="21.9521" width="151.925" height="144.432" filterUnits="userSpaceOnUse" color-interpolation-filters="sRGB">
<feFlood flood-opacity="0" result="BackgroundImageFix"/>
<feBlend mode="normal" in="SourceGraphic" in2="BackgroundImageFix" result="shape"/>
<feTurbulence type="fractalNoise" baseFrequency="0.066666670143604279 0.066666670143604279" numOctaves="3" seed="5149" />
<feDisplacementMap in="shape" scale="3" xChannelSelector="R" yChannelSelector="G" result="displacedImage" width="100%" height="100%" />
<feMerge result="effect1_texture_538_26656">
<feMergeNode in="displacedImage"/>
</feMerge>
</filter>
<filter id="filter4_ig_538_26656" x="470.311" y="65.21" width="115.021" height="115.021" filterUnits="userSpaceOnUse" color-interpolation-filters="sRGB">
<feFlood flood-opacity="0" result="BackgroundImageFix"/>
<feBlend mode="normal" in="SourceGraphic" in2="BackgroundImageFix" result="shape"/>
<feColorMatrix in="SourceAlpha" type="matrix" values="0 0 0 0 0 0 0 0 0 0 0 0 0 0 0 0 0 0 127 0" result="hardAlpha"/>
<feOffset dy="1.5"/>
<feGaussianBlur stdDeviation="3.75"/>
<feComposite in2="hardAlpha" operator="arithmetic" k2="-1" k3="1"/>
<feColorMatrix type="matrix" values="0 0 0 0 0.352941 0 0 0 0 0.47451 0 0 0 0 0.976471 0 0 0 1 0"/>
<feBlend mode="normal" in2="shape" result="effect1_innerShadow_538_26656"/>
<feTurbulence type="fractalNoise" baseFrequency="0.066666670143604279 0.066666670143604279" numOctaves="3" seed="5149" />
<feDisplacementMap in="effect1_innerShadow_538_26656" scale="3" xChannelSelector="R" yChannelSelector="G" result="displacedImage" width="100%" height="100%" />
<feMerge result="effect2_texture_538_26656">
<feMergeNode in="displacedImage"/>
</feMerge>
</filter>
<filter id="filter5_g_538_26656" x="491.875" y="76.0088" width="80.5889" height="60.9668" filterUnits="userSpaceOnUse" color-interpolation-filters="sRGB">
<feFlood flood-opacity="0" result="BackgroundImageFix"/>
<feBlend mode="normal" in="SourceGraphic" in2="BackgroundImageFix" result="shape"/>
<feTurbulence type="fractalNoise" baseFrequency="0.066666670143604279 0.066666670143604279" numOctaves="3" seed="5149" />
<feDisplacementMap in="shape" scale="3" xChannelSelector="R" yChannelSelector="G" result="displacedImage" width="100%" height="100%" />
<feMerge result="effect1_texture_538_26656">
<feMergeNode in="displacedImage"/>
</feMerge>
</filter>
<filter id="filter6_g_538_26656" x="504.785" y="129.251" width="31.0188" height="20.7764" filterUnits="userSpaceOnUse" color-interpolation-filters="sRGB">
<feFlood flood-opacity="0" result="BackgroundImageFix"/>
<feBlend mode="normal" in="SourceGraphic" in2="BackgroundImageFix" result="shape"/>
<feTurbulence type="fractalNoise" baseFrequency="0.066666677594184875 0.066666677594184875" numOctaves="3" seed="5149" />
<feDisplacementMap in="shape" scale="2.9999995231628418" xChannelSelector="R" yChannelSelector="G" result="displacedImage" width="100%" height="100%" />
<feMerge result="effect1_texture_538_26656">
<feMergeNode in="displacedImage"/>
</feMerge>
</filter>
</defs>
</svg>
