<svg width="500" height="500" viewBox="0 0 500 500" fill="none" xmlns="http://www.w3.org/2000/svg">
<g filter="url(#filter0_d_320_4433)">
<rect x="109" y="219.512" width="162" height="162" rx="50" fill="white"/>
<rect x="104.5" y="215.012" width="171" height="171" rx="54.5" stroke="#5A79F9" stroke-width="9"/>
<path d="M161.736 330.484C158.82 330.484 156.039 330.187 153.393 329.593C150.801 328.999 148.614 328.216 146.832 327.244V319.63H147.48C149.1 320.656 151.152 321.601 153.636 322.465C156.12 323.275 158.82 323.68 161.736 323.68C165.732 323.68 168.81 323.086 170.97 321.898C173.13 320.656 174.615 319.171 175.425 317.443C176.235 315.661 176.64 313.96 176.64 312.34C176.64 309.1 175.479 306.508 173.157 304.564C170.889 302.62 167.406 301.648 162.708 301.648H156.876L155.58 298.408L175.02 275.323L176.154 277.672H147.804V271.192H180.528L181.5 272.002C181.608 272.38 181.689 272.866 181.743 273.46C181.797 274 181.824 274.432 181.824 274.756C181.824 276.052 181.5 277.348 180.852 278.644C180.204 279.886 179.34 281.128 178.26 282.37L164.409 297.922L163.761 295.492C168.189 295.546 171.915 296.275 174.939 297.679C177.963 299.029 180.231 300.973 181.743 303.511C183.309 305.995 184.092 309.046 184.092 312.664C184.092 316.228 183.201 319.36 181.419 322.06C179.637 324.706 177.072 326.785 173.724 328.297C170.376 329.755 166.38 330.484 161.736 330.484ZM214.079 330.484C207.761 330.484 203.009 329.35 199.823 327.082C196.691 324.76 195.125 321.25 195.125 316.552C195.125 313.42 195.881 310.828 197.393 308.776C198.959 306.724 201.146 305.185 203.954 304.159C206.816 303.133 210.191 302.62 214.079 302.62C217.103 302.62 219.614 302.89 221.612 303.43C223.664 303.916 225.419 304.402 226.877 304.888V310.72C225.419 310.234 223.61 309.802 221.45 309.424C219.29 308.992 217.265 308.776 215.375 308.776C211.001 308.776 207.734 309.343 205.574 310.477C203.468 311.611 202.415 313.636 202.415 316.552C202.415 319.306 203.441 321.304 205.493 322.546C207.545 323.734 210.515 324.328 214.403 324.328C216.563 324.328 218.642 324.166 220.64 323.842C222.638 323.464 224.501 322.978 226.229 322.384L224.771 324.571C224.663 324.139 224.555 323.653 224.447 323.113C224.393 322.573 224.339 322.006 224.285 321.412C224.231 320.818 224.177 320.197 224.123 319.549C224.123 318.901 224.123 318.226 224.123 317.524V302.944C224.123 299.488 223.637 296.923 222.665 295.249C221.747 293.521 220.343 292.387 218.453 291.847C216.617 291.253 214.295 290.956 211.487 290.956C209.381 290.956 207.221 291.226 205.007 291.766C202.847 292.306 201.119 292.9 199.823 293.548H199.175V286.906C201.119 286.096 203.279 285.502 205.655 285.124C208.085 284.692 210.353 284.476 212.459 284.476C215.159 284.476 217.643 284.719 219.911 285.205C222.233 285.691 224.258 286.582 225.986 287.878C227.768 289.12 229.145 290.929 230.117 293.305C231.089 295.681 231.575 298.786 231.575 302.62V313.312C231.575 314.392 231.575 315.796 231.575 317.524C231.629 319.252 231.683 320.953 231.737 322.627C231.845 324.301 232.007 325.624 232.223 326.596L232.061 327.244C230.279 327.892 228.308 328.459 226.148 328.945C223.988 329.431 221.828 329.809 219.668 330.079C217.562 330.349 215.699 330.484 214.079 330.484Z" fill="#5A79F9"/>
</g>
<g filter="url(#filter1_d_320_4433)">
<g filter="url(#filter2_g_320_4433)">
<mask id="path-4-outside-1_320_4433" maskUnits="userSpaceOnUse" x="192.796" y="109.201" width="208.465" height="209.173" fill="black">
<rect fill="white" x="192.796" y="109.201" width="208.465" height="209.173"/>
<path d="M308.023 139.997C313.541 136.812 320.597 138.702 323.783 144.22L331.748 158.017C333.278 160.667 335.798 162.601 338.753 163.393L356.742 168.213C362.897 169.862 366.549 176.188 364.9 182.343L360.08 200.331C359.288 203.287 359.702 206.436 361.232 209.086L369.846 224.004C373.032 229.522 371.141 236.578 365.623 239.764L350.704 248.378C348.054 249.908 346.121 252.427 345.329 255.382L341.056 271.33C339.751 276.2 335.517 279.499 330.758 279.849C329.991 281.081 329.167 282.191 328.252 283.208C323.674 288.292 317.604 291.797 310.911 293.22C303.303 294.837 294.538 292.489 277.011 287.793C259.484 283.097 250.72 280.748 244.939 275.543C239.855 270.964 236.35 264.894 234.927 258.201C234.643 256.863 234.483 255.489 234.435 254.038C230.491 251.355 228.477 246.382 229.781 241.514L233.981 225.838C234.773 222.883 234.359 219.734 232.829 217.084L224.017 201.821C220.831 196.303 222.722 189.247 228.24 186.061L243.503 177.248C246.153 175.718 248.086 173.198 248.878 170.243L253.625 152.527C255.274 146.372 261.601 142.72 267.755 144.369L285.472 149.116C288.427 149.908 291.576 149.493 294.226 147.963L308.023 139.997Z"/>
</mask>
<path d="M308.023 139.997L304.024 133.069L304.023 133.069L308.023 139.997ZM323.783 144.22L330.711 140.22L330.711 140.22L323.783 144.22ZM331.748 158.017L324.819 162.017L324.82 162.018L331.748 158.017ZM338.753 163.393L336.683 171.12L338.753 163.393ZM356.742 168.213L358.812 160.485L356.742 168.213ZM361.232 209.086L354.304 213.086L354.304 213.086L361.232 209.086ZM369.846 224.004L376.774 220.005L376.774 220.004L369.846 224.004ZM365.623 239.764L369.623 246.692L369.624 246.692L365.623 239.764ZM350.704 248.378L346.704 241.449L346.704 241.45L350.704 248.378ZM345.329 255.382L337.602 253.312L337.602 253.312L345.329 255.382ZM341.056 271.33L348.783 273.4L348.783 273.4L341.056 271.33ZM330.758 279.849L330.172 271.871L326.115 272.169L323.966 275.622L330.758 279.849ZM328.252 283.208L334.198 288.561L334.198 288.561L328.252 283.208ZM310.911 293.22L312.574 301.045L312.574 301.045L310.911 293.22ZM277.011 287.793L274.941 295.52L277.011 287.793ZM244.939 275.543L239.586 281.488L239.586 281.488L244.939 275.543ZM234.927 258.201L227.102 259.865L227.102 259.865L234.927 258.201ZM234.435 254.038L242.431 253.774L242.297 249.711L238.935 247.424L234.435 254.038ZM229.781 241.514L222.054 239.443L222.054 239.443L229.781 241.514ZM233.981 225.838L241.709 227.909L241.709 227.908L233.981 225.838ZM232.829 217.084L225.9 221.084L225.901 221.084L232.829 217.084ZM224.017 201.821L230.946 197.821L230.945 197.821L224.017 201.821ZM228.24 186.061L232.24 192.989L232.24 192.989L228.24 186.061ZM243.503 177.248L239.503 170.32L239.503 170.32L243.503 177.248ZM248.878 170.243L256.606 172.313L248.878 170.243ZM253.625 152.527L245.898 150.456L253.625 152.527ZM267.755 144.369L269.826 136.641L269.826 136.641L267.755 144.369ZM285.472 149.116L283.401 156.843L283.402 156.843L285.472 149.116ZM294.226 147.963L298.225 154.892L298.226 154.892L294.226 147.963ZM308.023 139.997L312.023 146.926C313.715 145.949 315.878 146.529 316.855 148.22L323.783 144.22L330.711 140.22C325.316 130.876 313.367 127.675 304.024 133.069L308.023 139.997ZM323.783 144.22L316.854 148.22L324.819 162.017L331.748 158.017L338.676 154.018L330.711 140.22L323.783 144.22ZM331.748 158.017L324.82 162.018C327.411 166.505 331.678 169.779 336.683 171.12L338.753 163.393L340.824 155.665C339.918 155.422 339.145 154.829 338.676 154.017L331.748 158.017ZM338.753 163.393L336.683 171.12L354.671 175.94L356.742 168.213L358.812 160.485L340.824 155.665L338.753 163.393ZM356.742 168.213L354.671 175.94C356.558 176.446 357.678 178.385 357.173 180.272L364.9 182.343L372.627 184.413C375.42 173.991 369.235 163.278 358.812 160.485L356.742 168.213ZM364.9 182.343L357.173 180.272L352.353 198.261L360.08 200.331L367.807 202.402L372.627 184.413L364.9 182.343ZM360.08 200.331L352.353 198.261C351.012 203.265 351.713 208.598 354.304 213.086L361.232 209.086L368.16 205.086C367.692 204.274 367.564 203.308 367.807 202.402L360.08 200.331ZM361.232 209.086L354.304 213.086L362.918 228.005L369.846 224.004L376.774 220.004L368.16 205.086L361.232 209.086ZM369.846 224.004L362.918 228.004C363.894 229.696 363.315 231.859 361.623 232.836L365.623 239.764L369.624 246.692C378.967 241.297 382.169 229.349 376.774 220.005L369.846 224.004ZM365.623 239.764L361.623 232.836L346.704 241.449L350.704 248.378L354.704 255.306L369.623 246.692L365.623 239.764ZM350.704 248.378L346.704 241.45C342.217 244.04 338.943 248.307 337.602 253.312L345.329 255.382L353.056 257.453C353.299 256.547 353.892 255.775 354.704 255.306L350.704 248.378ZM345.329 255.382L337.602 253.312L333.329 269.259L341.056 271.33L348.783 273.4L353.056 257.453L345.329 255.382ZM341.056 271.33L333.329 269.259C332.933 270.736 331.646 271.762 330.172 271.871L330.758 279.849L331.344 287.828C339.389 287.237 346.569 281.663 348.783 273.4L341.056 271.33ZM330.758 279.849L323.966 275.622C323.421 276.497 322.875 277.224 322.307 277.855L328.252 283.208L334.198 288.561C335.459 287.159 336.561 285.665 337.55 284.076L330.758 279.849ZM328.252 283.208L322.307 277.855C318.86 281.684 314.288 284.323 309.248 285.395L310.911 293.22L312.574 301.045C320.919 299.271 328.489 294.901 334.198 288.561L328.252 283.208ZM310.911 293.22L309.248 285.394C306.888 285.896 303.959 285.886 299.115 285.004C294.178 284.104 287.973 282.448 279.082 280.066L277.011 287.793L274.941 295.52C283.577 297.835 290.517 299.7 296.246 300.744C302.068 301.805 307.326 302.16 312.574 301.045L310.911 293.22ZM277.011 287.793L279.082 280.066C270.191 277.683 263.989 276.015 259.263 274.325C254.627 272.668 252.086 271.212 250.293 269.597L244.939 275.543L239.586 281.488C243.574 285.078 248.305 287.399 253.877 289.392C259.361 291.352 266.304 293.206 274.941 295.52L277.011 287.793ZM244.939 275.543L250.293 269.597C246.463 266.15 243.824 261.578 242.753 256.538L234.927 258.201L227.102 259.865C228.876 268.21 233.246 275.779 239.586 281.488L244.939 275.543ZM234.927 258.201L242.753 256.538C242.575 255.702 242.465 254.799 242.431 253.774L234.435 254.038L226.44 254.303C226.502 256.18 226.711 258.025 227.102 259.865L234.927 258.201ZM234.435 254.038L238.935 247.424C237.714 246.593 237.113 245.061 237.509 243.584L229.781 241.514L222.054 239.443C219.841 247.702 223.268 256.117 229.935 260.653L234.435 254.038ZM229.781 241.514L237.509 243.584L241.709 227.909L233.981 225.838L226.254 223.767L222.054 239.443L229.781 241.514ZM233.981 225.838L241.709 227.908C243.05 222.904 242.348 217.571 239.757 213.084L232.829 217.084L225.901 221.084C226.37 221.897 226.497 222.862 226.254 223.768L233.981 225.838ZM232.829 217.084L239.757 213.084L230.946 197.821L224.017 201.821L217.089 205.82L225.9 221.084L232.829 217.084ZM224.017 201.821L230.945 197.821C229.969 196.129 230.548 193.966 232.24 192.989L228.24 186.061L224.24 179.133C214.896 184.528 211.694 196.476 217.089 205.821L224.017 201.821ZM228.24 186.061L232.24 192.989L247.503 184.176L243.503 177.248L239.503 170.32L224.24 179.133L228.24 186.061ZM243.503 177.248L247.503 184.176C251.991 181.585 255.265 177.318 256.606 172.313L248.878 170.243L241.151 168.172C240.908 169.079 240.315 169.851 239.503 170.32L243.503 177.248ZM248.878 170.243L256.606 172.313L261.352 154.597L253.625 152.527L245.898 150.456L241.151 168.172L248.878 170.243ZM253.625 152.527L261.352 154.597C261.858 152.71 263.798 151.591 265.685 152.096L267.755 144.369L269.826 136.641C259.403 133.849 248.69 140.034 245.898 150.456L253.625 152.527ZM267.755 144.369L265.685 152.096L283.401 156.843L285.472 149.116L287.542 141.389L269.826 136.641L267.755 144.369ZM285.472 149.116L283.402 156.843C288.406 158.184 293.739 157.482 298.225 154.892L294.226 147.963L290.226 141.035C289.413 141.504 288.448 141.631 287.542 141.388L285.472 149.116ZM294.226 147.963L298.226 154.892L312.023 146.926L308.023 139.997L304.023 133.069L290.226 141.035L294.226 147.963Z" fill="white" mask="url(#path-4-outside-1_320_4433)"/>
</g>
<g filter="url(#filter3_g_320_4433)">
<path d="M331.749 158.017C333.279 160.667 335.799 162.601 338.754 163.393L356.743 168.212C362.897 169.862 366.55 176.188 364.9 182.342L360.08 200.331C359.289 203.286 359.703 206.435 361.233 209.085L369.846 224.004C373.032 229.522 371.141 236.578 365.623 239.764L350.705 248.377C348.055 249.907 346.121 252.427 345.329 255.383L341.056 271.329C339.407 277.484 333.081 281.136 326.927 279.487L237.939 255.643C231.785 253.994 228.132 247.668 229.782 241.513L233.982 225.838C234.774 222.883 234.359 219.734 232.829 217.084L224.017 201.821C220.831 196.303 222.722 189.247 228.24 186.061L243.503 177.249C246.153 175.719 248.086 173.199 248.878 170.244L253.626 152.526C255.275 146.372 261.601 142.719 267.755 144.368L285.473 149.116C288.428 149.908 291.578 149.493 294.227 147.963L308.024 139.998C313.542 136.812 320.598 138.703 323.784 144.221L331.749 158.017Z" fill="#5A79F9"/>
</g>
<g filter="url(#filter4_ig_320_4433)">
<rect x="253.777" y="174.23" width="103.68" height="103.68" rx="32.4" transform="rotate(15 253.777 174.23)" fill="#FFC6B7"/>
</g>
<g filter="url(#filter5_g_320_4433)">
<path d="M261.583 204.835C262.941 199.763 263.621 197.227 265.127 195.555C266.452 194.083 268.208 193.069 270.145 192.658C272.346 192.19 274.882 192.869 279.954 194.228C285.025 195.587 287.561 196.266 289.234 197.772C290.705 199.097 291.719 200.854 292.131 202.79C292.599 204.992 291.919 207.528 290.56 212.599L286.678 227.088C285.319 232.16 284.64 234.695 283.134 236.368C281.809 237.839 280.052 238.853 278.116 239.265C275.914 239.733 273.378 239.054 268.307 237.695C263.235 236.336 260.699 235.656 259.027 234.15C257.556 232.825 256.541 231.069 256.13 229.132C255.662 226.931 256.341 224.395 257.7 219.323L261.583 204.835Z" fill="white"/>
<path d="M302.876 215.899C304.234 210.827 304.914 208.292 306.42 206.619C307.745 205.148 309.501 204.134 311.438 203.722C313.639 203.254 316.175 203.934 321.247 205.292V205.292C326.318 206.651 328.854 207.331 330.527 208.837C331.998 210.162 333.012 211.918 333.424 213.855C333.892 216.056 333.212 218.592 331.853 223.664L327.971 238.153C326.612 243.224 325.933 245.76 324.427 247.433C323.102 248.904 321.345 249.918 319.409 250.33C317.207 250.797 314.671 250.118 309.6 248.759V248.759C304.528 247.4 301.992 246.721 300.32 245.215C298.849 243.89 297.834 242.133 297.423 240.197C296.955 237.995 297.634 235.46 298.993 230.388L302.876 215.899Z" fill="white"/>
<path d="M277.924 211.933C280.46 212.613 281.729 212.953 282.565 213.706C283.3 214.368 283.807 215.246 284.013 216.215C284.247 217.315 283.907 218.583 283.227 221.119L281.286 228.363C280.607 230.899 280.267 232.167 279.514 233.003C278.852 233.739 277.974 234.246 277.006 234.452C275.905 234.686 274.636 234.346 272.101 233.667C269.565 232.987 268.297 232.648 267.461 231.895C266.725 231.232 266.219 230.354 266.013 229.386C265.779 228.285 266.118 227.017 266.797 224.481L267.479 221.936C267.703 221.102 267.815 220.684 268.135 220.489C268.455 220.294 268.897 220.39 269.779 220.581C270.779 220.798 271.49 220.862 272.142 220.724C273.111 220.518 273.988 220.01 274.651 219.275C275.404 218.438 275.744 217.171 276.424 214.635L277.005 212.466C277.112 212.066 277.524 211.826 277.924 211.933V211.933Z" fill="#4C4C4C"/>
<path d="M318.037 223.068C320.573 223.748 321.842 224.087 322.678 224.84C323.414 225.503 323.92 226.381 324.126 227.349C324.36 228.45 324.02 229.718 323.341 232.254L321.4 239.498C320.72 242.034 320.381 243.302 319.628 244.138C318.965 244.874 318.087 245.381 317.119 245.587C316.018 245.821 314.75 245.481 312.214 244.801C309.678 244.122 308.41 243.782 307.574 243.029C306.839 242.367 306.332 241.489 306.126 240.52C305.892 239.42 306.231 238.152 306.911 235.616L307.591 233.076C307.817 232.235 307.929 231.814 308.255 231.619C308.581 231.424 309.018 231.527 309.892 231.732C311.087 232.013 311.89 232.111 312.619 231.956C313.587 231.75 314.466 231.243 315.128 230.507C315.881 229.671 316.221 228.403 316.9 225.867L317.579 223.334C317.633 223.134 317.838 223.015 318.037 223.068V223.068Z" fill="#4C4C4C"/>
</g>
<g filter="url(#filter6_g_320_4433)">
<path d="M269.307 248.3C270.484 245.776 273.676 244.96 275.919 246.609L282.172 251.204C283.319 252.046 284.62 252.653 286.002 252.99L293.542 254.827C296.247 255.486 297.673 258.455 296.497 260.979V260.979C295.608 262.885 293.497 263.899 291.453 263.401L283.02 261.347C281.096 260.878 279.284 260.033 277.688 258.86L270.694 253.721C268.999 252.475 268.418 250.206 269.307 248.3V248.3Z" fill="white"/>
</g>
</g>
<defs>
<filter id="filter0_d_320_4433" x="10" y="120.512" width="360" height="360" filterUnits="userSpaceOnUse" color-interpolation-filters="sRGB">
<feFlood flood-opacity="0" result="BackgroundImageFix"/>
<feColorMatrix in="SourceAlpha" type="matrix" values="0 0 0 0 0 0 0 0 0 0 0 0 0 0 0 0 0 0 127 0" result="hardAlpha"/>
<feOffset/>
<feGaussianBlur stdDeviation="45"/>
<feComposite in2="hardAlpha" operator="out"/>
<feColorMatrix type="matrix" values="0 0 0 0 1 0 0 0 0 1 0 0 0 0 1 0 0 0 1 0"/>
<feBlend mode="normal" in2="BackgroundImageFix" result="effect1_dropShadow_320_4433"/>
<feBlend mode="normal" in="SourceGraphic" in2="effect1_dropShadow_320_4433" result="shape"/>
</filter>
<filter id="filter1_d_320_4433" x="199.469" y="115.449" width="194.926" height="201.279" filterUnits="userSpaceOnUse" color-interpolation-filters="sRGB">
<feFlood flood-opacity="0" result="BackgroundImageFix"/>
<feColorMatrix in="SourceAlpha" type="matrix" values="0 0 0 0 0 0 0 0 0 0 0 0 0 0 0 0 0 0 127 0" result="hardAlpha"/>
<feOffset/>
<feGaussianBlur stdDeviation="7.5"/>
<feComposite in2="hardAlpha" operator="out"/>
<feColorMatrix type="matrix" values="0 0 0 0 0 0 0 0 0 0 0 0 0 0 0 0 0 0 0.25 0"/>
<feBlend mode="normal" in2="BackgroundImageFix" result="effect1_dropShadow_320_4433"/>
<feBlend mode="normal" in="SourceGraphic" in2="effect1_dropShadow_320_4433" result="shape"/>
</filter>
<filter id="filter2_g_320_4433" x="212.969" y="128.949" width="167.926" height="174.279" filterUnits="userSpaceOnUse" color-interpolation-filters="sRGB">
<feFlood flood-opacity="0" result="BackgroundImageFix"/>
<feBlend mode="normal" in="SourceGraphic" in2="BackgroundImageFix" result="shape"/>
<feTurbulence type="fractalNoise" baseFrequency="0.066666677594184875 0.066666677594184875" numOctaves="3" seed="5149" />
<feDisplacementMap in="shape" scale="2.9999995231628418" xChannelSelector="R" yChannelSelector="G" result="displacedImage" width="100%" height="100%" />
<feMerge result="effect1_texture_320_4433">
<feMergeNode in="displacedImage"/>
</feMerge>
</filter>
<filter id="filter3_g_320_4433" x="220.969" y="136.95" width="151.926" height="144.433" filterUnits="userSpaceOnUse" color-interpolation-filters="sRGB">
<feFlood flood-opacity="0" result="BackgroundImageFix"/>
<feBlend mode="normal" in="SourceGraphic" in2="BackgroundImageFix" result="shape"/>
<feTurbulence type="fractalNoise" baseFrequency="0.066666670143604279 0.066666670143604279" numOctaves="3" seed="5149" />
<feDisplacementMap in="shape" scale="3" xChannelSelector="R" yChannelSelector="G" result="displacedImage" width="100%" height="100%" />
<feMerge result="effect1_texture_320_4433">
<feMergeNode in="displacedImage"/>
</feMerge>
</filter>
<filter id="filter4_ig_320_4433" x="232.922" y="180.211" width="115.023" height="115.021" filterUnits="userSpaceOnUse" color-interpolation-filters="sRGB">
<feFlood flood-opacity="0" result="BackgroundImageFix"/>
<feBlend mode="normal" in="SourceGraphic" in2="BackgroundImageFix" result="shape"/>
<feColorMatrix in="SourceAlpha" type="matrix" values="0 0 0 0 0 0 0 0 0 0 0 0 0 0 0 0 0 0 127 0" result="hardAlpha"/>
<feOffset dy="1.5"/>
<feGaussianBlur stdDeviation="3.75"/>
<feComposite in2="hardAlpha" operator="arithmetic" k2="-1" k3="1"/>
<feColorMatrix type="matrix" values="0 0 0 0 0.352941 0 0 0 0 0.47451 0 0 0 0 0.976471 0 0 0 1 0"/>
<feBlend mode="normal" in2="shape" result="effect1_innerShadow_320_4433"/>
<feTurbulence type="fractalNoise" baseFrequency="0.066666670143604279 0.066666670143604279" numOctaves="3" seed="5149" />
<feDisplacementMap in="effect1_innerShadow_320_4433" scale="3" xChannelSelector="R" yChannelSelector="G" result="displacedImage" width="100%" height="100%" />
<feMerge result="effect2_texture_320_4433">
<feMergeNode in="displacedImage"/>
</feMerge>
</filter>
<filter id="filter5_g_320_4433" x="254.484" y="191.01" width="80.5859" height="60.9668" filterUnits="userSpaceOnUse" color-interpolation-filters="sRGB">
<feFlood flood-opacity="0" result="BackgroundImageFix"/>
<feBlend mode="normal" in="SourceGraphic" in2="BackgroundImageFix" result="shape"/>
<feTurbulence type="fractalNoise" baseFrequency="0.066666670143604279 0.066666670143604279" numOctaves="3" seed="5149" />
<feDisplacementMap in="shape" scale="3" xChannelSelector="R" yChannelSelector="G" result="displacedImage" width="100%" height="100%" />
<feMerge result="effect1_texture_320_4433">
<feMergeNode in="displacedImage"/>
</feMerge>
</filter>
<filter id="filter6_g_320_4433" x="267.395" y="244.251" width="31.0195" height="20.7764" filterUnits="userSpaceOnUse" color-interpolation-filters="sRGB">
<feFlood flood-opacity="0" result="BackgroundImageFix"/>
<feBlend mode="normal" in="SourceGraphic" in2="BackgroundImageFix" result="shape"/>
<feTurbulence type="fractalNoise" baseFrequency="0.066666677594184875 0.066666677594184875" numOctaves="3" seed="5149" />
<feDisplacementMap in="shape" scale="2.9999995231628418" xChannelSelector="R" yChannelSelector="G" result="displacedImage" width="100%" height="100%" />
<feMerge result="effect1_texture_320_4433">
<feMergeNode in="displacedImage"/>
</feMerge>
</filter>
</defs>
</svg>
