<svg width="500" height="500" viewBox="0 0 500 500" fill="none" xmlns="http://www.w3.org/2000/svg">
<g filter="url(#filter0_d_320_4378)">
<rect x="109" y="219.512" width="162" height="162" rx="50" fill="white"/>
<rect x="104.5" y="215.012" width="171" height="171" rx="54.5" stroke="#5A79F9" stroke-width="9"/>
<path d="M171.156 329.512C170.67 328.54 170.319 327.244 170.103 325.624C169.941 324.004 169.86 322.708 169.86 321.736C169.86 318.712 170.346 315.958 171.318 313.474C172.344 310.936 174.018 308.749 176.34 306.913C178.716 305.023 181.929 303.592 185.979 302.62L189.948 301.648C193.512 300.73 196.185 299.272 197.967 297.274C199.749 295.276 200.64 292.414 200.64 288.688C200.64 284.962 199.371 282.1 196.833 280.102C194.295 278.05 190.596 277.024 185.736 277.024C183.9 277.024 182.199 277.159 180.633 277.429C179.067 277.699 177.609 278.05 176.259 278.482C174.909 278.914 173.64 279.4 172.452 279.94H171.804V272.812C173.424 272.164 175.476 271.57 177.96 271.03C180.444 270.49 183.144 270.22 186.06 270.22C191.244 270.22 195.456 271.057 198.696 272.731C201.936 274.351 204.312 276.565 205.824 279.373C207.336 282.127 208.092 285.232 208.092 288.688C208.092 294.196 206.607 298.543 203.637 301.729C200.721 304.861 197.022 306.994 192.54 308.128L188.652 309.1C184.386 310.126 181.362 311.638 179.58 313.636C177.852 315.634 176.988 318.01 176.988 320.764C176.988 321.628 177.069 322.276 177.231 322.708C177.393 323.14 177.636 323.653 177.96 324.247L174.153 322.708H209.712V329.512H171.156Z" fill="#5A79F9"/>
</g>
<g filter="url(#filter1_d_320_4378)">
<g filter="url(#filter2_g_320_4378)">
<mask id="path-4-outside-1_320_4378" maskUnits="userSpaceOnUse" x="192.796" y="109.202" width="208.465" height="209.173" fill="black">
<rect fill="white" x="192.796" y="109.202" width="208.465" height="209.173"/>
<path d="M308.024 139.999C313.542 136.813 320.598 138.704 323.784 144.222L331.748 158.017C333.278 160.667 335.799 162.6 338.754 163.392L356.743 168.212C362.898 169.861 366.551 176.188 364.901 182.342L360.081 200.333C359.289 203.288 359.705 206.437 361.234 209.087L369.846 224.005C373.032 229.523 371.142 236.579 365.623 239.765L350.706 248.377C348.057 249.907 346.122 252.427 345.33 255.383L341.057 271.329C339.753 276.199 335.519 279.499 330.759 279.849C329.992 281.081 329.168 282.191 328.253 283.208C323.674 288.293 317.604 291.797 310.911 293.22C303.303 294.837 294.539 292.489 277.012 287.792C259.485 283.096 250.721 280.748 244.941 275.543C239.856 270.965 236.35 264.894 234.928 258.202C234.643 256.863 234.484 255.488 234.436 254.037C230.493 251.353 228.478 246.381 229.783 241.513L233.982 225.84C234.774 222.884 234.36 219.735 232.83 217.085L224.017 201.822C220.831 196.304 222.722 189.247 228.24 186.061L243.504 177.249C246.154 175.719 248.087 173.199 248.879 170.244L253.627 152.526C255.276 146.372 261.602 142.719 267.757 144.368L285.474 149.116C288.43 149.908 291.579 149.493 294.229 147.964L308.024 139.999Z"/>
</mask>
<path d="M308.024 139.999L304.024 133.071L304.024 133.071L308.024 139.999ZM323.784 144.222L316.856 148.222L323.784 144.222ZM331.748 158.017L324.82 162.017L324.82 162.017L331.748 158.017ZM338.754 163.392L336.683 171.119L338.754 163.392ZM356.743 168.212L358.814 160.485L356.743 168.212ZM360.081 200.333L352.354 198.262L352.353 198.262L360.081 200.333ZM361.234 209.087L368.163 205.087L368.163 205.087L361.234 209.087ZM369.846 224.005L362.918 228.004L362.918 228.005L369.846 224.005ZM365.623 239.765L361.624 232.837L361.623 232.837L365.623 239.765ZM350.706 248.377L354.706 255.306L354.706 255.306L350.706 248.377ZM330.759 279.849L330.173 271.87L326.116 272.168L323.967 275.622L330.759 279.849ZM328.253 283.208L334.198 288.561L334.198 288.561L328.253 283.208ZM310.911 293.22L312.575 301.045L312.575 301.045L310.911 293.22ZM277.012 287.792L274.941 295.52L277.012 287.792ZM244.941 275.543L239.588 281.488L239.588 281.488L244.941 275.543ZM234.928 258.202L227.103 259.865L227.103 259.865L234.928 258.202ZM234.436 254.037L242.432 253.773L242.298 249.71L238.937 247.423L234.436 254.037ZM232.83 217.085L239.758 213.085L239.758 213.085L232.83 217.085ZM224.017 201.822L217.089 205.822L217.089 205.822L224.017 201.822ZM228.24 186.061L232.24 192.99L228.24 186.061ZM243.504 177.249L247.504 184.177L247.504 184.177L243.504 177.249ZM248.879 170.244L256.606 172.315L256.607 172.315L248.879 170.244ZM253.627 152.526L261.354 154.597L253.627 152.526ZM267.757 144.368L269.827 136.641L269.827 136.641L267.757 144.368ZM285.474 149.116L283.404 156.843L283.404 156.843L285.474 149.116ZM294.229 147.964L290.229 141.035L294.229 147.964ZM308.024 139.999L312.024 146.927C313.716 145.95 315.879 146.53 316.856 148.222L323.784 144.222L330.712 140.222C325.317 130.877 313.369 127.676 304.024 133.071L308.024 139.999ZM323.784 144.222L316.856 148.222L324.82 162.017L331.748 158.017L338.677 154.017L330.712 140.222L323.784 144.222ZM331.748 158.017L324.82 162.017C327.411 166.505 331.679 169.779 336.683 171.119L338.754 163.392L340.825 155.665C339.918 155.422 339.145 154.829 338.677 154.017L331.748 158.017ZM338.754 163.392L336.683 171.119L354.673 175.94L356.743 168.212L358.814 160.485L340.825 155.665L338.754 163.392ZM356.743 168.212L354.673 175.94C356.56 176.445 357.68 178.385 357.174 180.272L364.901 182.342L372.629 184.413C375.421 173.991 369.236 163.278 358.814 160.485L356.743 168.212ZM364.901 182.342L357.174 180.272L352.354 198.262L360.081 200.333L367.808 202.403L372.629 184.413L364.901 182.342ZM360.081 200.333L352.353 198.262C351.012 203.269 351.716 208.601 354.306 213.087L361.234 209.087L368.163 205.087C367.693 204.273 367.566 203.308 367.808 202.403L360.081 200.333ZM361.234 209.087L354.306 213.086L362.918 228.004L369.846 224.005L376.775 220.005L368.163 205.087L361.234 209.087ZM369.846 224.005L362.918 228.005C363.895 229.697 363.315 231.86 361.624 232.837L365.623 239.765L369.623 246.693C378.968 241.298 382.17 229.349 376.775 220.005L369.846 224.005ZM365.623 239.765L361.623 232.837L346.706 241.449L350.706 248.377L354.706 255.306L369.623 246.693L365.623 239.765ZM350.706 248.377L346.707 241.449C342.22 244.039 338.944 248.306 337.603 253.312L345.33 255.383L353.058 257.453C353.3 256.548 353.893 255.775 354.706 255.306L350.706 248.377ZM345.33 255.383L337.603 253.312L333.33 269.259L341.057 271.329L348.785 273.4L353.058 257.453L345.33 255.383ZM341.057 271.329L333.33 269.259C332.934 270.736 331.647 271.762 330.173 271.87L330.759 279.849L331.345 287.827C339.391 287.236 346.571 281.663 348.785 273.4L341.057 271.329ZM330.759 279.849L323.967 275.622C323.424 276.495 322.877 277.222 322.308 277.855L328.253 283.208L334.198 288.561C335.459 287.161 336.561 285.667 337.552 284.075L330.759 279.849ZM328.253 283.208L322.308 277.855C318.86 281.684 314.288 284.323 309.248 285.395L310.911 293.22L312.575 301.045C320.92 299.271 328.489 294.901 334.198 288.561L328.253 283.208ZM310.911 293.22L309.248 285.395C306.888 285.896 303.96 285.886 299.116 285.003C294.179 284.104 287.973 282.447 279.082 280.065L277.012 287.792L274.941 295.52C283.577 297.834 290.517 299.7 296.247 300.744C302.068 301.805 307.326 302.161 312.575 301.045L310.911 293.22ZM277.012 287.792L279.082 280.065C270.191 277.683 263.989 276.014 259.264 274.325C254.627 272.668 252.087 271.212 250.294 269.598L244.941 275.543L239.588 281.488C243.575 285.079 248.307 287.4 253.878 289.392C259.362 291.352 266.305 293.206 274.941 295.52L277.012 287.792ZM244.941 275.543L250.294 269.598C246.464 266.15 243.824 261.578 242.753 256.538L234.928 258.202L227.103 259.865C228.877 268.211 233.248 275.78 239.588 281.488L244.941 275.543ZM234.928 258.202L242.753 256.538C242.576 255.704 242.466 254.801 242.432 253.773L234.436 254.037L226.44 254.3C226.502 256.176 226.711 258.022 227.103 259.865L234.928 258.202ZM234.436 254.037L238.937 247.423C237.715 246.592 237.114 245.06 237.51 243.584L229.783 241.513L222.055 239.443C219.842 247.702 223.27 256.115 229.935 260.651L234.436 254.037ZM229.783 241.513L237.51 243.584L241.71 227.91L233.982 225.84L226.255 223.769L222.055 239.443L229.783 241.513ZM233.982 225.84L241.71 227.91C243.051 222.906 242.349 217.573 239.758 213.085L232.83 217.085L225.902 221.085C226.371 221.897 226.498 222.862 226.255 223.769L233.982 225.84ZM232.83 217.085L239.758 213.085L230.945 197.822L224.017 201.822L217.089 205.822L225.902 221.085L232.83 217.085ZM224.017 201.822L230.945 197.822C229.969 196.13 230.548 193.966 232.24 192.99L228.24 186.061L224.24 179.133C214.896 184.528 211.694 196.477 217.089 205.822L224.017 201.822ZM228.24 186.061L232.24 192.99L247.504 184.177L243.504 177.249L239.504 170.321L224.24 179.133L228.24 186.061ZM243.504 177.249L247.504 184.177C251.991 181.586 255.265 177.319 256.606 172.315L248.879 170.244L241.152 168.173C240.909 169.079 240.316 169.852 239.504 170.321L243.504 177.249ZM248.879 170.244L256.607 172.315L261.354 154.597L253.627 152.526L245.899 150.456L241.152 168.174L248.879 170.244ZM253.627 152.526L261.354 154.597C261.86 152.71 263.799 151.59 265.686 152.096L267.757 144.368L269.827 136.641C259.405 133.849 248.692 140.033 245.899 150.456L253.627 152.526ZM267.757 144.368L265.686 152.096L283.404 156.843L285.474 149.116L287.545 141.388L269.827 136.641L267.757 144.368ZM285.474 149.116L283.404 156.843C288.408 158.184 293.741 157.483 298.229 154.892L294.229 147.964L290.229 141.035C289.417 141.504 288.452 141.631 287.545 141.388L285.474 149.116ZM294.229 147.964L298.229 154.892L312.024 146.927L308.024 139.999L304.024 133.071L290.229 141.035L294.229 147.964Z" fill="white" mask="url(#path-4-outside-1_320_4378)"/>
</g>
<g filter="url(#filter3_g_320_4378)">
<path d="M331.748 158.017C333.278 160.667 335.798 162.6 338.754 163.392L356.744 168.213C362.898 169.862 366.551 176.188 364.902 182.343L360.081 200.333C359.289 203.288 359.704 206.437 361.234 209.087L369.847 224.005C373.033 229.524 371.142 236.579 365.624 239.765L350.706 248.378C348.056 249.908 346.122 252.428 345.33 255.384L341.058 271.33C339.408 277.484 333.082 281.137 326.928 279.488L237.941 255.644C231.786 253.994 228.134 247.668 229.783 241.514L233.982 225.84C234.774 222.885 234.36 219.736 232.83 217.086L224.017 201.822C220.831 196.304 222.722 189.248 228.24 186.062L243.504 177.249C246.154 175.719 248.087 173.2 248.879 170.244L253.627 152.527C255.276 146.372 261.602 142.72 267.757 144.369L285.474 149.116C288.43 149.908 291.579 149.493 294.229 147.964L308.024 139.999C313.542 136.813 320.598 138.704 323.784 144.222L331.748 158.017Z" fill="#5A79F9"/>
</g>
<g filter="url(#filter4_ig_320_4378)">
<rect x="253.777" y="174.23" width="103.68" height="103.68" rx="32.4" transform="rotate(15 253.777 174.23)" fill="#FFC6B7"/>
</g>
<g filter="url(#filter5_g_320_4378)">
<path d="M261.583 204.835C262.941 199.763 263.621 197.227 265.127 195.555C266.452 194.083 268.208 193.069 270.145 192.658C272.346 192.19 274.882 192.869 279.954 194.228C285.025 195.587 287.561 196.266 289.234 197.772C290.705 199.097 291.719 200.854 292.131 202.79C292.599 204.992 291.919 207.528 290.56 212.599L286.678 227.088C285.319 232.16 284.64 234.695 283.134 236.368C281.809 237.839 280.052 238.853 278.116 239.265C275.914 239.733 273.378 239.054 268.307 237.695C263.235 236.336 260.699 235.656 259.027 234.15C257.556 232.825 256.541 231.069 256.13 229.132C255.662 226.931 256.341 224.395 257.7 219.323L261.583 204.835Z" fill="white"/>
<path d="M302.876 215.899C304.234 210.827 304.914 208.292 306.42 206.619C307.745 205.148 309.501 204.134 311.438 203.722C313.639 203.254 316.175 203.934 321.247 205.292V205.292C326.318 206.651 328.854 207.331 330.527 208.837C331.998 210.162 333.012 211.918 333.424 213.855C333.892 216.056 333.212 218.592 331.853 223.664L327.971 238.153C326.612 243.224 325.933 245.76 324.427 247.433C323.102 248.904 321.345 249.918 319.409 250.33C317.207 250.797 314.671 250.118 309.6 248.759V248.759C304.528 247.4 301.992 246.721 300.32 245.215C298.849 243.89 297.834 242.133 297.423 240.197C296.955 237.995 297.634 235.46 298.993 230.388L302.876 215.899Z" fill="white"/>
<path d="M277.924 211.933C280.46 212.613 281.729 212.953 282.565 213.706C283.3 214.368 283.807 215.246 284.013 216.215C284.247 217.315 283.907 218.583 283.227 221.119L281.286 228.363C280.607 230.899 280.267 232.167 279.514 233.003C278.852 233.739 277.974 234.246 277.006 234.452C275.905 234.686 274.636 234.346 272.101 233.667C269.565 232.987 268.297 232.648 267.461 231.895C266.725 231.232 266.219 230.354 266.013 229.386C265.779 228.285 266.118 227.017 266.797 224.481L267.479 221.936C267.703 221.102 267.815 220.684 268.135 220.489C268.455 220.294 268.897 220.39 269.779 220.581C270.779 220.798 271.49 220.862 272.142 220.724C273.111 220.518 273.988 220.01 274.651 219.275C275.404 218.438 275.744 217.171 276.424 214.635L277.005 212.466C277.112 212.066 277.524 211.826 277.924 211.933V211.933Z" fill="#4C4C4C"/>
<path d="M318.037 223.068C320.573 223.748 321.842 224.087 322.678 224.84C323.414 225.503 323.92 226.381 324.126 227.349C324.36 228.45 324.02 229.718 323.341 232.254L321.4 239.498C320.72 242.034 320.381 243.302 319.628 244.138C318.965 244.874 318.087 245.381 317.119 245.587C316.018 245.821 314.75 245.481 312.214 244.801C309.678 244.122 308.41 243.782 307.574 243.029C306.839 242.367 306.332 241.489 306.126 240.52C305.892 239.42 306.231 238.152 306.911 235.616L307.591 233.076C307.817 232.235 307.929 231.814 308.255 231.619C308.581 231.424 309.018 231.527 309.892 231.732C311.087 232.013 311.89 232.111 312.619 231.956C313.587 231.75 314.466 231.243 315.128 230.507C315.881 229.671 316.221 228.403 316.9 225.867L317.579 223.334C317.633 223.134 317.838 223.015 318.037 223.068V223.068Z" fill="#4C4C4C"/>
</g>
<g filter="url(#filter6_g_320_4378)">
<path d="M269.307 248.3C270.484 245.776 273.676 244.96 275.919 246.609L282.172 251.204C283.319 252.046 284.62 252.653 286.002 252.99L293.542 254.827C296.247 255.486 297.673 258.455 296.497 260.979V260.979C295.608 262.885 293.497 263.899 291.453 263.401L283.02 261.347C281.096 260.878 279.284 260.033 277.688 258.86L270.694 253.721C268.999 252.475 268.418 250.206 269.307 248.3V248.3Z" fill="white"/>
</g>
</g>
<defs>
<filter id="filter0_d_320_4378" x="10" y="120.512" width="360" height="360" filterUnits="userSpaceOnUse" color-interpolation-filters="sRGB">
<feFlood flood-opacity="0" result="BackgroundImageFix"/>
<feColorMatrix in="SourceAlpha" type="matrix" values="0 0 0 0 0 0 0 0 0 0 0 0 0 0 0 0 0 0 127 0" result="hardAlpha"/>
<feOffset/>
<feGaussianBlur stdDeviation="45"/>
<feComposite in2="hardAlpha" operator="out"/>
<feColorMatrix type="matrix" values="0 0 0 0 1 0 0 0 0 1 0 0 0 0 1 0 0 0 1 0"/>
<feBlend mode="normal" in2="BackgroundImageFix" result="effect1_dropShadow_320_4378"/>
<feBlend mode="normal" in="SourceGraphic" in2="effect1_dropShadow_320_4378" result="shape"/>
</filter>
<filter id="filter1_d_320_4378" x="199.469" y="115.45" width="194.926" height="201.279" filterUnits="userSpaceOnUse" color-interpolation-filters="sRGB">
<feFlood flood-opacity="0" result="BackgroundImageFix"/>
<feColorMatrix in="SourceAlpha" type="matrix" values="0 0 0 0 0 0 0 0 0 0 0 0 0 0 0 0 0 0 127 0" result="hardAlpha"/>
<feOffset/>
<feGaussianBlur stdDeviation="7.5"/>
<feComposite in2="hardAlpha" operator="out"/>
<feColorMatrix type="matrix" values="0 0 0 0 0 0 0 0 0 0 0 0 0 0 0 0 0 0 0.25 0"/>
<feBlend mode="normal" in2="BackgroundImageFix" result="effect1_dropShadow_320_4378"/>
<feBlend mode="normal" in="SourceGraphic" in2="effect1_dropShadow_320_4378" result="shape"/>
</filter>
<filter id="filter2_g_320_4378" x="212.969" y="128.95" width="167.926" height="174.279" filterUnits="userSpaceOnUse" color-interpolation-filters="sRGB">
<feFlood flood-opacity="0" result="BackgroundImageFix"/>
<feBlend mode="normal" in="SourceGraphic" in2="BackgroundImageFix" result="shape"/>
<feTurbulence type="fractalNoise" baseFrequency="0.066666677594184875 0.066666677594184875" numOctaves="3" seed="5149" />
<feDisplacementMap in="shape" scale="2.9999995231628418" xChannelSelector="R" yChannelSelector="G" result="displacedImage" width="100%" height="100%" />
<feMerge result="effect1_texture_320_4378">
<feMergeNode in="displacedImage"/>
</feMerge>
</filter>
<filter id="filter3_g_320_4378" x="220.969" y="136.951" width="151.926" height="144.433" filterUnits="userSpaceOnUse" color-interpolation-filters="sRGB">
<feFlood flood-opacity="0" result="BackgroundImageFix"/>
<feBlend mode="normal" in="SourceGraphic" in2="BackgroundImageFix" result="shape"/>
<feTurbulence type="fractalNoise" baseFrequency="0.066666670143604279 0.066666670143604279" numOctaves="3" seed="5149" />
<feDisplacementMap in="shape" scale="3" xChannelSelector="R" yChannelSelector="G" result="displacedImage" width="100%" height="100%" />
<feMerge result="effect1_texture_320_4378">
<feMergeNode in="displacedImage"/>
</feMerge>
</filter>
<filter id="filter4_ig_320_4378" x="232.922" y="180.211" width="115.023" height="115.021" filterUnits="userSpaceOnUse" color-interpolation-filters="sRGB">
<feFlood flood-opacity="0" result="BackgroundImageFix"/>
<feBlend mode="normal" in="SourceGraphic" in2="BackgroundImageFix" result="shape"/>
<feColorMatrix in="SourceAlpha" type="matrix" values="0 0 0 0 0 0 0 0 0 0 0 0 0 0 0 0 0 0 127 0" result="hardAlpha"/>
<feOffset dy="1.5"/>
<feGaussianBlur stdDeviation="3.75"/>
<feComposite in2="hardAlpha" operator="arithmetic" k2="-1" k3="1"/>
<feColorMatrix type="matrix" values="0 0 0 0 0.352941 0 0 0 0 0.47451 0 0 0 0 0.976471 0 0 0 1 0"/>
<feBlend mode="normal" in2="shape" result="effect1_innerShadow_320_4378"/>
<feTurbulence type="fractalNoise" baseFrequency="0.066666670143604279 0.066666670143604279" numOctaves="3" seed="5149" />
<feDisplacementMap in="effect1_innerShadow_320_4378" scale="3" xChannelSelector="R" yChannelSelector="G" result="displacedImage" width="100%" height="100%" />
<feMerge result="effect2_texture_320_4378">
<feMergeNode in="displacedImage"/>
</feMerge>
</filter>
<filter id="filter5_g_320_4378" x="254.484" y="191.01" width="80.5859" height="60.9668" filterUnits="userSpaceOnUse" color-interpolation-filters="sRGB">
<feFlood flood-opacity="0" result="BackgroundImageFix"/>
<feBlend mode="normal" in="SourceGraphic" in2="BackgroundImageFix" result="shape"/>
<feTurbulence type="fractalNoise" baseFrequency="0.066666670143604279 0.066666670143604279" numOctaves="3" seed="5149" />
<feDisplacementMap in="shape" scale="3" xChannelSelector="R" yChannelSelector="G" result="displacedImage" width="100%" height="100%" />
<feMerge result="effect1_texture_320_4378">
<feMergeNode in="displacedImage"/>
</feMerge>
</filter>
<filter id="filter6_g_320_4378" x="267.395" y="244.251" width="31.0195" height="20.7764" filterUnits="userSpaceOnUse" color-interpolation-filters="sRGB">
<feFlood flood-opacity="0" result="BackgroundImageFix"/>
<feBlend mode="normal" in="SourceGraphic" in2="BackgroundImageFix" result="shape"/>
<feTurbulence type="fractalNoise" baseFrequency="0.066666677594184875 0.066666677594184875" numOctaves="3" seed="5149" />
<feDisplacementMap in="shape" scale="2.9999995231628418" xChannelSelector="R" yChannelSelector="G" result="displacedImage" width="100%" height="100%" />
<feMerge result="effect1_texture_320_4378">
<feMergeNode in="displacedImage"/>
</feMerge>
</filter>
</defs>
</svg>
