<svg width="361" height="361" viewBox="0 0 361 361" fill="none" xmlns="http://www.w3.org/2000/svg">
<g filter="url(#filter0_d_305_2279)">
<rect x="99.8438" y="99.5117" width="162" height="162" rx="50" fill="url(#paint0_linear_305_2279)"/>
<rect x="95.3438" y="95.0117" width="171" height="171" rx="54.5" stroke="white" stroke-width="9"/>
<path d="M178.2 208.54V164.476C178.2 163.612 178.227 162.586 178.281 161.398C178.335 160.21 178.389 159.184 178.443 158.32C178.551 157.402 178.632 157.024 178.686 157.186L181.602 157.672H162.972V152.164C163.728 151.894 164.916 151.651 166.536 151.435C168.21 151.165 170.046 150.949 172.044 150.787C174.096 150.625 176.04 150.544 177.876 150.544C179.82 150.544 181.521 150.652 182.979 150.868C184.437 151.03 185.598 151.246 186.462 151.516L186.624 152.488C186.408 153.46 186.246 154.756 186.138 156.376C186.084 157.996 186.03 159.643 185.976 161.317C185.976 162.991 185.976 164.368 185.976 165.448V208.54H178.2ZM161.676 209.512V202.708H200.556V209.512H161.676Z" fill="white"/>
</g>
<defs>
<filter id="filter0_d_305_2279" x="0.84375" y="0.511719" width="360" height="360" filterUnits="userSpaceOnUse" color-interpolation-filters="sRGB">
<feFlood flood-opacity="0" result="BackgroundImageFix"/>
<feColorMatrix in="SourceAlpha" type="matrix" values="0 0 0 0 0 0 0 0 0 0 0 0 0 0 0 0 0 0 127 0" result="hardAlpha"/>
<feOffset/>
<feGaussianBlur stdDeviation="45"/>
<feComposite in2="hardAlpha" operator="out"/>
<feColorMatrix type="matrix" values="0 0 0 0 0.351909 0 0 0 0 0.475644 0 0 0 0 0.975962 0 0 0 1 0"/>
<feBlend mode="normal" in2="BackgroundImageFix" result="effect1_dropShadow_305_2279"/>
<feBlend mode="normal" in="SourceGraphic" in2="effect1_dropShadow_305_2279" result="shape"/>
</filter>
<linearGradient id="paint0_linear_305_2279" x1="99.8438" y1="180.512" x2="261.844" y2="180.512" gradientUnits="userSpaceOnUse">
<stop stop-color="#F67F1E"/>
<stop offset="1" stop-color="#EBC333"/>
</linearGradient>
</defs>
</svg>
