<svg width="500" height="500" viewBox="0 0 500 500" fill="none" xmlns="http://www.w3.org/2000/svg">
<g opacity="0.5" filter="url(#filter0_d_320_4485)">
<rect x="169" y="169" width="162" height="162" rx="50" fill="white"/>
<rect x="164.5" y="164.5" width="171" height="171" rx="54.5" stroke="#5A79F9" stroke-width="9"/>
<path d="M220.736 279.972C217.82 279.972 215.039 279.675 212.393 279.081C209.801 278.487 207.614 277.704 205.832 276.732V269.118H206.48C208.1 270.144 210.152 271.089 212.636 271.953C215.12 272.763 217.82 273.168 220.736 273.168C224.732 273.168 227.81 272.574 229.97 271.386C232.13 270.144 233.615 268.659 234.425 266.931C235.235 265.149 235.64 263.448 235.64 261.828C235.64 258.588 234.479 255.996 232.157 254.052C229.889 252.108 226.406 251.136 221.708 251.136H215.876L214.58 247.896L234.02 224.811L235.154 227.16H206.804V220.68H239.528L240.5 221.49C240.608 221.868 240.689 222.354 240.743 222.948C240.797 223.488 240.824 223.92 240.824 224.244C240.824 225.54 240.5 226.836 239.852 228.132C239.204 229.374 238.34 230.616 237.26 231.858L223.409 247.41L222.761 244.98C227.189 245.034 230.915 245.763 233.939 247.167C236.963 248.517 239.231 250.461 240.743 252.999C242.309 255.483 243.092 258.534 243.092 262.152C243.092 265.716 242.201 268.848 240.419 271.548C238.637 274.194 236.072 276.273 232.724 277.785C229.376 279.243 225.38 279.972 220.736 279.972ZM272.917 279.972C270.163 279.972 267.382 279.675 264.574 279.081C261.766 278.541 259.309 277.866 257.203 277.056L257.041 276.408C257.257 275.436 257.392 274.113 257.446 272.439C257.554 270.765 257.608 269.064 257.608 267.336C257.662 265.608 257.689 264.204 257.689 263.124V231.372C257.689 230.562 257.689 229.563 257.689 228.375C257.689 227.187 257.662 225.945 257.608 224.649C257.554 223.299 257.473 222.057 257.365 220.923C257.311 219.735 257.203 218.79 257.041 218.088L257.203 217.44H265.141V267.012C265.141 268.632 265.06 270.036 264.898 271.224C264.79 272.358 264.655 273.33 264.493 274.14L263.197 271.872C264.493 272.304 265.978 272.682 267.652 273.006C269.326 273.33 271.081 273.492 272.917 273.492C278.101 273.492 281.935 272.061 284.419 269.199C286.903 266.337 288.145 262.152 288.145 256.644C288.145 251.622 286.849 247.68 284.257 244.818C281.719 241.902 277.939 240.444 272.917 240.444C271.513 240.444 270.298 240.525 269.272 240.687C268.246 240.795 267.22 240.984 266.194 241.254C265.168 241.524 263.953 241.902 262.549 242.388V236.232C264.439 235.422 266.329 234.855 268.219 234.531C270.163 234.153 271.945 233.964 273.565 233.964C278.209 233.964 282.178 234.882 285.472 236.718C288.82 238.554 291.358 241.173 293.086 244.575C294.868 247.977 295.759 252 295.759 256.644C295.759 261.504 294.841 265.689 293.005 269.199C291.169 272.655 288.55 275.328 285.148 277.218C281.746 279.054 277.669 279.972 272.917 279.972Z" fill="#5A79F9"/>
</g>
<defs>
<filter id="filter0_d_320_4485" x="70" y="70" width="360" height="360" filterUnits="userSpaceOnUse" color-interpolation-filters="sRGB">
<feFlood flood-opacity="0" result="BackgroundImageFix"/>
<feColorMatrix in="SourceAlpha" type="matrix" values="0 0 0 0 0 0 0 0 0 0 0 0 0 0 0 0 0 0 127 0" result="hardAlpha"/>
<feOffset/>
<feGaussianBlur stdDeviation="45"/>
<feComposite in2="hardAlpha" operator="out"/>
<feColorMatrix type="matrix" values="0 0 0 0 1 0 0 0 0 1 0 0 0 0 1 0 0 0 1 0"/>
<feBlend mode="normal" in2="BackgroundImageFix" result="effect1_dropShadow_320_4485"/>
<feBlend mode="normal" in="SourceGraphic" in2="effect1_dropShadow_320_4485" result="shape"/>
</filter>
</defs>
</svg>
