<svg width="360" height="361" viewBox="0 0 360 361" fill="none" xmlns="http://www.w3.org/2000/svg">
<g filter="url(#filter0_d_305_2658)">
<rect x="99" y="99.5117" width="162" height="162" rx="50" fill="white"/>
<rect x="94.5" y="95.0117" width="171" height="171" rx="54.5" stroke="#5A79F9" stroke-width="9"/>
<path d="M180.596 210.484C176.816 210.484 173.576 209.809 170.876 208.459C168.176 207.055 165.989 205.057 164.315 202.465C162.695 199.873 161.48 196.795 160.67 193.231C159.914 189.667 159.536 185.698 159.536 181.324C159.536 176.518 160.103 172.225 161.237 168.445C162.371 164.611 164.045 161.344 166.259 158.644C168.527 155.89 171.335 153.811 174.683 152.407C178.085 150.949 182 150.22 186.428 150.22C188.696 150.22 190.613 150.382 192.179 150.706C193.745 150.976 195.176 151.354 196.472 151.84V158.968H195.824C194.69 158.482 193.394 158.05 191.936 157.672C190.478 157.24 188.534 157.024 186.104 157.024C182.864 157.024 180.056 157.564 177.68 158.644C175.304 159.67 173.36 161.236 171.848 163.342C170.336 165.394 169.202 167.905 168.446 170.875C167.69 173.791 167.312 177.166 167.312 181C167.312 186.076 167.717 190.315 168.527 193.717C169.391 197.119 170.795 199.684 172.739 201.412C174.737 203.14 177.464 204.004 180.92 204.004C183.836 204.004 186.185 203.41 187.967 202.222C189.803 200.98 191.126 199.36 191.936 197.362C192.8 195.31 193.232 193.096 193.232 190.72C193.232 186.832 192.179 183.754 190.073 181.486C188.021 179.218 184.97 178.084 180.92 178.084C177.356 178.084 174.413 178.813 172.091 180.271C169.823 181.675 167.906 183.43 166.34 185.536H163.424V177.922H166.664C167.96 176.356 169.823 174.925 172.253 173.629C174.683 172.279 178.004 171.604 182.216 171.604C185.78 171.604 188.939 172.333 191.693 173.791C194.501 175.195 196.688 177.328 198.254 180.19C199.874 182.998 200.684 186.508 200.684 190.72C200.684 194.392 199.901 197.74 198.335 200.764C196.823 203.734 194.555 206.11 191.531 207.892C188.561 209.62 184.916 210.484 180.596 210.484Z" fill="#5A79F9"/>
</g>
<defs>
<filter id="filter0_d_305_2658" x="0" y="0.511719" width="360" height="360" filterUnits="userSpaceOnUse" color-interpolation-filters="sRGB">
<feFlood flood-opacity="0" result="BackgroundImageFix"/>
<feColorMatrix in="SourceAlpha" type="matrix" values="0 0 0 0 0 0 0 0 0 0 0 0 0 0 0 0 0 0 127 0" result="hardAlpha"/>
<feOffset/>
<feGaussianBlur stdDeviation="45"/>
<feComposite in2="hardAlpha" operator="out"/>
<feColorMatrix type="matrix" values="0 0 0 0 1 0 0 0 0 1 0 0 0 0 1 0 0 0 1 0"/>
<feBlend mode="normal" in2="BackgroundImageFix" result="effect1_dropShadow_305_2658"/>
<feBlend mode="normal" in="SourceGraphic" in2="effect1_dropShadow_305_2658" result="shape"/>
</filter>
</defs>
</svg>
