<svg width="500" height="500" viewBox="0 0 500 500" fill="none" xmlns="http://www.w3.org/2000/svg">
<g filter="url(#filter0_d_440_12373)">
<rect x="169" y="169" width="162" height="162" rx="50" fill="white"/>
<rect x="164.5" y="164.5" width="171" height="171" rx="54.5" stroke="#5A79F9" stroke-width="9"/>
<path d="M220.736 279.972C217.82 279.972 215.039 279.675 212.393 279.081C209.801 278.487 207.614 277.704 205.832 276.732V269.118H206.48C208.1 270.144 210.152 271.089 212.636 271.953C215.12 272.763 217.82 273.168 220.736 273.168C224.732 273.168 227.81 272.574 229.97 271.386C232.13 270.144 233.615 268.659 234.425 266.931C235.235 265.149 235.64 263.448 235.64 261.828C235.64 258.588 234.479 255.996 232.157 254.052C229.889 252.108 226.406 251.136 221.708 251.136H215.876L214.58 247.896L234.02 224.811L235.154 227.16H206.804V220.68H239.528L240.5 221.49C240.608 221.868 240.689 222.354 240.743 222.948C240.797 223.488 240.824 223.92 240.824 224.244C240.824 225.54 240.5 226.836 239.852 228.132C239.204 229.374 238.34 230.616 237.26 231.858L223.409 247.41L222.761 244.98C227.189 245.034 230.915 245.763 233.939 247.167C236.963 248.517 239.231 250.461 240.743 252.999C242.309 255.483 243.092 258.534 243.092 262.152C243.092 265.716 242.201 268.848 240.419 271.548C238.637 274.194 236.072 276.273 232.724 277.785C229.376 279.243 225.38 279.972 220.736 279.972ZM272.917 279.972C270.163 279.972 267.382 279.675 264.574 279.081C261.766 278.541 259.309 277.866 257.203 277.056L257.041 276.408C257.257 275.436 257.392 274.113 257.446 272.439C257.554 270.765 257.608 269.064 257.608 267.336C257.662 265.608 257.689 264.204 257.689 263.124V231.372C257.689 230.562 257.689 229.563 257.689 228.375C257.689 227.187 257.662 225.945 257.608 224.649C257.554 223.299 257.473 222.057 257.365 220.923C257.311 219.735 257.203 218.79 257.041 218.088L257.203 217.44H265.141V267.012C265.141 268.632 265.06 270.036 264.898 271.224C264.79 272.358 264.655 273.33 264.493 274.14L263.197 271.872C264.493 272.304 265.978 272.682 267.652 273.006C269.326 273.33 271.081 273.492 272.917 273.492C278.101 273.492 281.935 272.061 284.419 269.199C286.903 266.337 288.145 262.152 288.145 256.644C288.145 251.622 286.849 247.68 284.257 244.818C281.719 241.902 277.939 240.444 272.917 240.444C271.513 240.444 270.298 240.525 269.272 240.687C268.246 240.795 267.22 240.984 266.194 241.254C265.168 241.524 263.953 241.902 262.549 242.388V236.232C264.439 235.422 266.329 234.855 268.219 234.531C270.163 234.153 271.945 233.964 273.565 233.964C278.209 233.964 282.178 234.882 285.472 236.718C288.82 238.554 291.358 241.173 293.086 244.575C294.868 247.977 295.759 252 295.759 256.644C295.759 261.504 294.841 265.689 293.005 269.199C291.169 272.655 288.55 275.328 285.148 277.218C281.746 279.054 277.669 279.972 272.917 279.972Z" fill="#5A79F9"/>
</g>
<g filter="url(#filter1_d_440_12373)">
<g filter="url(#filter2_g_440_12373)">
<mask id="path-4-outside-1_440_12373" maskUnits="userSpaceOnUse" x="226.985" y="51.202" width="208.465" height="209.173" fill="black">
<rect fill="white" x="226.985" y="51.202" width="208.465" height="209.173"/>
<path d="M342.213 81.9986C347.731 78.8131 354.787 80.7037 357.973 86.2214L365.938 100.019C367.468 102.668 369.988 104.602 372.944 105.394L390.932 110.214C397.087 111.863 400.739 118.189 399.09 124.344L394.27 142.331C393.478 145.287 393.893 148.436 395.423 151.086L404.036 166.006C407.222 171.524 405.332 178.579 399.814 181.765L384.894 190.38C382.244 191.91 380.311 194.429 379.519 197.384L375.246 213.33C373.942 218.199 369.708 221.499 364.949 221.85C364.182 223.082 363.358 224.192 362.443 225.209C357.864 230.293 351.794 233.798 345.101 235.221C337.493 236.838 328.729 234.49 311.202 229.793C293.674 225.097 284.91 222.749 279.13 217.544C274.045 212.966 270.54 206.895 269.118 200.202C268.833 198.864 268.673 197.489 268.625 196.038C264.682 193.354 262.668 188.382 263.973 183.514L268.172 167.84C268.964 164.885 268.549 161.736 267.019 159.086L258.206 143.822C255.021 138.304 256.911 131.248 262.429 128.062L277.693 119.249C280.343 117.72 282.277 115.2 283.069 112.244L287.816 94.5281C289.465 88.3737 295.791 84.7211 301.945 86.3699L319.662 91.1171C322.618 91.9091 325.767 91.4947 328.417 89.9649L342.213 81.9986Z"/>
</mask>
<path d="M342.213 81.9986L338.214 75.0703L338.213 75.0706L342.213 81.9986ZM357.973 86.2214L364.901 82.2217L364.901 82.2211L357.973 86.2214ZM365.938 100.019L359.01 104.018L359.01 104.019L365.938 100.019ZM372.944 105.394L370.873 113.121L370.873 113.121L372.944 105.394ZM390.932 110.214L393.003 102.487L393.003 102.486L390.932 110.214ZM399.09 124.344L406.818 126.414L399.09 124.344ZM394.27 142.331L386.543 140.261L394.27 142.331ZM395.423 151.086L402.351 147.086L395.423 151.086ZM404.036 166.006L397.108 170.006L404.036 166.006ZM399.814 181.765L395.813 174.837L395.813 174.837L399.814 181.765ZM384.894 190.38L388.894 197.308L388.894 197.308L384.894 190.38ZM379.519 197.384L371.792 195.314L371.792 195.314L379.519 197.384ZM375.246 213.33L382.974 215.4L382.974 215.4L375.246 213.33ZM364.949 221.85L364.362 213.871L360.306 214.17L358.157 217.623L364.949 221.85ZM362.443 225.209L368.388 230.562L368.388 230.562L362.443 225.209ZM345.101 235.221L346.765 243.046L346.765 243.046L345.101 235.221ZM311.202 229.793L309.131 237.521L311.202 229.793ZM279.13 217.544L273.777 223.489L273.777 223.489L279.13 217.544ZM269.118 200.202L261.292 201.866L261.292 201.866L269.118 200.202ZM268.625 196.038L276.621 195.774L276.487 191.711L273.126 189.424L268.625 196.038ZM263.973 183.514L256.245 181.444L256.245 181.444L263.973 183.514ZM268.172 167.84L275.9 169.911L275.9 169.911L268.172 167.84ZM267.019 159.086L260.09 163.086L260.091 163.086L267.019 159.086ZM258.206 143.822L251.278 147.821L251.278 147.821L258.206 143.822ZM262.429 128.062L258.429 121.134L258.429 121.134L262.429 128.062ZM277.693 119.249L273.693 112.321L277.693 119.249ZM283.069 112.244L290.797 114.315L283.069 112.244ZM287.816 94.5281L280.089 92.4576L287.816 94.5281ZM301.945 86.3699L304.016 78.6425L304.016 78.6424L301.945 86.3699ZM319.662 91.1171L321.733 83.3897L319.662 91.1171ZM328.417 89.9649L332.417 96.8931L332.417 96.8929L328.417 89.9649ZM342.213 81.9986L346.213 88.9269C347.905 87.9504 350.068 88.5299 351.045 90.2216L357.973 86.2214L364.901 82.2211C359.506 72.8775 347.558 69.6757 338.214 75.0703L342.213 81.9986ZM357.973 86.2214L351.045 90.221L359.01 104.018L365.938 100.019L372.866 96.0189L364.901 82.2217L357.973 86.2214ZM365.938 100.019L359.01 104.019C361.601 108.506 365.869 111.78 370.873 113.121L372.944 105.394L375.014 97.6665C374.108 97.4235 373.335 96.8304 372.866 96.0186L365.938 100.019ZM372.944 105.394L370.873 113.121L388.862 117.941L390.932 110.214L393.003 102.486L375.014 97.6665L372.944 105.394ZM390.932 110.214L388.861 117.941C390.749 118.447 391.868 120.387 391.363 122.273L399.09 124.344L406.818 126.414C409.61 115.992 403.425 105.279 393.003 102.487L390.932 110.214ZM399.09 124.344L391.363 122.273L386.543 140.261L394.27 142.331L401.998 144.402L406.818 126.414L399.09 124.344ZM394.27 142.331L386.543 140.261C385.202 145.265 385.903 150.598 388.494 155.086L395.423 151.086L402.351 147.086C401.882 146.274 401.755 145.309 401.998 144.402L394.27 142.331ZM395.423 151.086L388.494 155.086L397.108 170.006L404.036 166.006L410.965 162.006L402.351 147.086L395.423 151.086ZM404.036 166.006L397.108 170.006C398.085 171.697 397.505 173.86 395.813 174.837L399.814 181.765L403.814 188.693C413.158 183.298 416.36 171.35 410.965 162.006L404.036 166.006ZM399.814 181.765L395.813 174.837L380.894 183.452L384.894 190.38L388.894 197.308L403.814 188.693L399.814 181.765ZM384.894 190.38L380.894 183.452C376.407 186.042 373.133 190.309 371.792 195.314L379.519 197.384L387.246 199.455C387.489 198.549 388.082 197.777 388.894 197.308L384.894 190.38ZM379.519 197.384L371.792 195.314L367.519 211.259L375.246 213.33L382.974 215.4L387.246 199.455L379.519 197.384ZM375.246 213.33L367.519 211.259C367.123 212.736 365.836 213.763 364.362 213.871L364.949 221.85L365.536 229.828C373.581 229.236 380.76 223.662 382.974 215.4L375.246 213.33ZM364.949 221.85L358.157 217.623C357.614 218.496 357.067 219.223 356.498 219.856L362.443 225.209L368.388 230.562C369.649 229.162 370.751 227.668 371.742 226.076L364.949 221.85ZM362.443 225.209L356.498 219.856C353.05 223.685 348.478 226.324 343.438 227.396L345.101 235.221L346.765 243.046C355.11 241.272 362.679 236.902 368.388 230.562L362.443 225.209ZM345.101 235.221L343.438 227.396C341.078 227.897 338.15 227.887 333.305 227.004C328.369 226.105 322.163 224.448 313.272 222.066L311.202 229.793L309.131 237.521C317.767 239.835 324.707 241.701 330.436 242.745C336.258 243.806 341.516 244.162 346.765 243.046L345.101 235.221ZM311.202 229.793L313.272 222.066C304.381 219.683 298.179 218.015 293.454 216.326C288.816 214.668 286.276 213.213 284.483 211.599L279.13 217.544L273.777 223.489C277.764 227.08 282.496 229.401 288.068 231.392C293.551 233.353 300.495 235.207 309.131 237.521L311.202 229.793ZM279.13 217.544L284.483 211.599C280.654 208.151 278.014 203.579 276.943 198.539L269.118 200.202L261.292 201.866C263.066 210.211 267.436 217.78 273.777 223.489L279.13 217.544ZM269.118 200.202L276.943 198.539C276.765 197.701 276.655 196.798 276.621 195.774L268.625 196.038L260.629 196.301C260.691 198.181 260.902 200.026 261.292 201.866L269.118 200.202ZM268.625 196.038L273.126 189.424C271.905 188.593 271.304 187.062 271.7 185.585L263.973 183.514L256.245 181.444C254.032 189.702 257.458 198.115 264.124 202.651L268.625 196.038ZM263.973 183.514L271.7 185.585L275.9 169.911L268.172 167.84L260.445 165.77L256.245 181.444L263.973 183.514ZM268.172 167.84L275.9 169.911C277.241 164.904 276.537 159.572 273.947 155.086L267.019 159.086L260.091 163.086C260.561 163.9 260.687 164.866 260.445 165.77L268.172 167.84ZM267.019 159.086L273.947 155.087L265.135 139.822L258.206 143.822L251.278 147.821L260.09 163.086L267.019 159.086ZM258.206 143.822L265.135 139.822C264.158 138.13 264.738 135.967 266.429 134.99L262.429 128.062L258.429 121.134C249.085 126.529 245.884 138.477 251.278 147.821L258.206 143.822ZM262.429 128.062L266.429 134.99L281.693 126.178L277.693 119.249L273.693 112.321L258.429 121.134L262.429 128.062ZM277.693 119.249L281.693 126.178C286.179 123.587 289.455 119.321 290.797 114.315L283.069 112.244L275.342 110.173C275.099 111.078 274.506 111.852 273.693 112.321L277.693 119.249ZM283.069 112.244L290.797 114.315L295.544 96.5987L287.816 94.5281L280.089 92.4576L275.342 110.173L283.069 112.244ZM287.816 94.5281L295.544 96.5987C296.049 94.7115 297.989 93.592 299.875 94.0974L301.945 86.3699L304.016 78.6424C293.593 75.8502 282.881 82.036 280.089 92.4576L287.816 94.5281ZM301.945 86.3699L299.875 94.0973L317.592 98.8445L319.662 91.1171L321.733 83.3897L304.016 78.6425L301.945 86.3699ZM319.662 91.1171L317.592 98.8445C322.596 100.185 327.929 99.484 332.417 96.8931L328.417 89.9649L324.417 83.0366C323.605 83.5054 322.639 83.6326 321.733 83.3897L319.662 91.1171ZM328.417 89.9649L332.417 96.8929L346.214 88.9266L342.213 81.9986L338.213 75.0706L324.417 83.0368L328.417 89.9649Z" fill="white" mask="url(#path-4-outside-1_440_12373)"/>
</g>
<g filter="url(#filter3_g_440_12373)">
<path d="M365.939 100.018C367.468 102.668 369.988 104.602 372.944 105.394L390.932 110.213C397.087 111.863 400.739 118.189 399.09 124.343L394.27 142.332C393.478 145.287 393.893 148.436 395.422 151.086L404.036 166.005C407.221 171.523 405.331 178.579 399.813 181.765L384.894 190.378C382.244 191.908 380.311 194.428 379.519 197.384L375.246 213.329C373.597 219.484 367.271 223.136 361.116 221.487L272.129 197.643C265.975 195.994 262.322 189.668 263.971 183.513L268.171 167.839C268.963 164.884 268.549 161.735 267.019 159.085L258.207 143.822C255.021 138.304 256.911 131.248 262.429 128.062L277.692 119.25C280.342 117.72 282.276 115.2 283.068 112.245L287.815 94.5273C289.464 88.3727 295.79 84.7203 301.945 86.3694L319.662 91.1168C322.618 91.9087 325.767 91.4941 328.417 89.9642L342.213 81.9988C347.731 78.813 354.787 80.7036 357.973 86.2217L365.939 100.018Z" fill="#5A79F9"/>
</g>
<g filter="url(#filter4_ig_440_12373)">
<rect x="287.966" y="116.231" width="103.68" height="103.68" rx="32.4" transform="rotate(15 287.966 116.231)" fill="#FFC6B7"/>
</g>
<g filter="url(#filter5_g_440_12373)">
<path d="M295.771 146.835C297.13 141.763 297.809 139.227 299.315 137.555C300.64 136.083 302.397 135.069 304.333 134.658C306.535 134.19 309.071 134.869 314.142 136.228C319.214 137.587 321.75 138.266 323.422 139.772C324.893 141.097 325.908 142.854 326.319 144.79C326.787 146.992 326.108 149.528 324.749 154.599L320.867 169.088C319.508 174.16 318.828 176.695 317.322 178.368C315.997 179.839 314.241 180.853 312.304 181.265C310.103 181.733 307.567 181.054 302.495 179.695C297.424 178.336 294.888 177.656 293.215 176.15C291.744 174.825 290.73 173.069 290.318 171.132C289.85 168.931 290.53 166.395 291.889 161.323L295.771 146.835Z" fill="white"/>
<path d="M337.064 157.9C338.423 152.828 339.102 150.293 340.608 148.62C341.933 147.149 343.69 146.135 345.626 145.723C347.828 145.255 350.364 145.934 355.435 147.293V147.293C360.507 148.652 363.043 149.332 364.715 150.838C366.186 152.163 367.201 153.919 367.612 155.856C368.08 158.057 367.401 160.593 366.042 165.665L362.159 180.153C360.801 185.225 360.121 187.761 358.615 189.433C357.29 190.905 355.534 191.919 353.597 192.331C351.396 192.798 348.86 192.119 343.788 190.76V190.76C338.717 189.401 336.181 188.722 334.508 187.216C333.037 185.891 332.023 184.134 331.611 182.198C331.143 179.996 331.823 177.46 333.182 172.389L337.064 157.9Z" fill="white"/>
<path d="M305.121 154.751C304.442 157.286 304.102 158.554 304.336 159.655C304.542 160.623 305.049 161.502 305.785 162.164C306.621 162.917 307.889 163.257 310.424 163.936V163.936C310.885 164.06 311.115 164.122 311.271 164.248C311.451 164.394 311.569 164.598 311.606 164.828C311.637 165.025 311.576 165.253 311.454 165.71L310.475 169.364C309.795 171.9 309.455 173.168 308.702 174.005C308.04 174.74 307.161 175.247 306.193 175.453C305.092 175.687 303.825 175.347 301.289 174.667C298.753 173.988 297.485 173.648 296.649 172.895C295.913 172.233 295.406 171.355 295.2 170.387C294.966 169.286 295.306 168.017 295.986 165.482L297.927 158.237C298.606 155.702 298.946 154.434 299.699 153.597C300.361 152.862 301.24 152.355 302.208 152.149C302.694 152.046 303.212 152.055 303.858 152.156C304.699 152.288 305.12 152.354 305.348 152.704C305.576 153.054 305.456 153.501 305.217 154.395L305.121 154.751Z" fill="#4C4C4C"/>
<path d="M345.6 165.985C344.92 168.521 344.581 169.789 344.815 170.889C345.02 171.858 345.528 172.736 346.263 173.399C347.1 174.151 348.368 174.491 350.903 175.171V175.171C351.025 175.203 351.085 175.219 351.133 175.238C351.544 175.398 351.786 175.818 351.719 176.253C351.712 176.304 351.696 176.363 351.664 176.482L350.589 180.495C349.909 183.031 349.569 184.299 348.817 185.135C348.154 185.871 347.276 186.378 346.307 186.584C345.206 186.818 343.939 186.478 341.403 185.799C338.867 185.119 337.599 184.78 336.763 184.027C336.027 183.364 335.52 182.486 335.314 181.517C335.081 180.417 335.42 179.148 336.1 176.613L338.041 169.369C338.72 166.833 339.06 165.565 339.813 164.729C340.475 163.993 341.354 163.487 342.322 163.281C342.9 163.158 343.524 163.195 344.355 163.356C345.199 163.519 345.621 163.601 345.837 163.947C346.053 164.292 345.935 164.733 345.7 165.613L345.6 165.985Z" fill="#4C4C4C"/>
</g>
<g filter="url(#filter6_g_440_12373)">
<path d="M303.496 190.301C304.673 187.777 307.864 186.961 310.108 188.61L316.361 193.205C317.507 194.047 318.809 194.654 320.191 194.991L327.73 196.828C330.436 197.487 331.862 200.456 330.685 202.98V202.98C329.796 204.886 327.685 205.9 325.641 205.402L317.208 203.348C315.284 202.879 313.472 202.034 311.876 200.861L304.882 195.722C303.187 194.476 302.607 192.207 303.496 190.301V190.301Z" fill="white"/>
</g>
</g>
<defs>
<filter id="filter0_d_440_12373" x="70" y="70" width="360" height="360" filterUnits="userSpaceOnUse" color-interpolation-filters="sRGB">
<feFlood flood-opacity="0" result="BackgroundImageFix"/>
<feColorMatrix in="SourceAlpha" type="matrix" values="0 0 0 0 0 0 0 0 0 0 0 0 0 0 0 0 0 0 127 0" result="hardAlpha"/>
<feOffset/>
<feGaussianBlur stdDeviation="45"/>
<feComposite in2="hardAlpha" operator="out"/>
<feColorMatrix type="matrix" values="0 0 0 0 1 0 0 0 0 1 0 0 0 0 1 0 0 0 1 0"/>
<feBlend mode="normal" in2="BackgroundImageFix" result="effect1_dropShadow_440_12373"/>
<feBlend mode="normal" in="SourceGraphic" in2="effect1_dropShadow_440_12373" result="shape"/>
</filter>
<filter id="filter1_d_440_12373" x="233.658" y="57.4502" width="194.927" height="201.28" filterUnits="userSpaceOnUse" color-interpolation-filters="sRGB">
<feFlood flood-opacity="0" result="BackgroundImageFix"/>
<feColorMatrix in="SourceAlpha" type="matrix" values="0 0 0 0 0 0 0 0 0 0 0 0 0 0 0 0 0 0 127 0" result="hardAlpha"/>
<feOffset/>
<feGaussianBlur stdDeviation="7.5"/>
<feComposite in2="hardAlpha" operator="out"/>
<feColorMatrix type="matrix" values="0 0 0 0 0 0 0 0 0 0 0 0 0 0 0 0 0 0 0.25 0"/>
<feBlend mode="normal" in2="BackgroundImageFix" result="effect1_dropShadow_440_12373"/>
<feBlend mode="normal" in="SourceGraphic" in2="effect1_dropShadow_440_12373" result="shape"/>
</filter>
<filter id="filter2_g_440_12373" x="247.158" y="70.9502" width="167.927" height="174.28" filterUnits="userSpaceOnUse" color-interpolation-filters="sRGB">
<feFlood flood-opacity="0" result="BackgroundImageFix"/>
<feBlend mode="normal" in="SourceGraphic" in2="BackgroundImageFix" result="shape"/>
<feTurbulence type="fractalNoise" baseFrequency="0.066666677594184875 0.066666677594184875" numOctaves="3" seed="5149" />
<feDisplacementMap in="shape" scale="2.9999995231628418" xChannelSelector="R" yChannelSelector="G" result="displacedImage" width="100%" height="100%" />
<feMerge result="effect1_texture_440_12373">
<feMergeNode in="displacedImage"/>
</feMerge>
</filter>
<filter id="filter3_g_440_12373" x="255.159" y="78.9512" width="151.924" height="144.433" filterUnits="userSpaceOnUse" color-interpolation-filters="sRGB">
<feFlood flood-opacity="0" result="BackgroundImageFix"/>
<feBlend mode="normal" in="SourceGraphic" in2="BackgroundImageFix" result="shape"/>
<feTurbulence type="fractalNoise" baseFrequency="0.066666670143604279 0.066666670143604279" numOctaves="3" seed="5149" />
<feDisplacementMap in="shape" scale="3" xChannelSelector="R" yChannelSelector="G" result="displacedImage" width="100%" height="100%" />
<feMerge result="effect1_texture_440_12373">
<feMergeNode in="displacedImage"/>
</feMerge>
</filter>
<filter id="filter4_ig_440_12373" x="267.112" y="122.212" width="115.021" height="115.021" filterUnits="userSpaceOnUse" color-interpolation-filters="sRGB">
<feFlood flood-opacity="0" result="BackgroundImageFix"/>
<feBlend mode="normal" in="SourceGraphic" in2="BackgroundImageFix" result="shape"/>
<feColorMatrix in="SourceAlpha" type="matrix" values="0 0 0 0 0 0 0 0 0 0 0 0 0 0 0 0 0 0 127 0" result="hardAlpha"/>
<feOffset dy="1.5"/>
<feGaussianBlur stdDeviation="3.75"/>
<feComposite in2="hardAlpha" operator="arithmetic" k2="-1" k3="1"/>
<feColorMatrix type="matrix" values="0 0 0 0 0.352941 0 0 0 0 0.47451 0 0 0 0 0.976471 0 0 0 1 0"/>
<feBlend mode="normal" in2="shape" result="effect1_innerShadow_440_12373"/>
<feTurbulence type="fractalNoise" baseFrequency="0.066666670143604279 0.066666670143604279" numOctaves="3" seed="5149" />
<feDisplacementMap in="effect1_innerShadow_440_12373" scale="3" xChannelSelector="R" yChannelSelector="G" result="displacedImage" width="100%" height="100%" />
<feMerge result="effect2_texture_440_12373">
<feMergeNode in="displacedImage"/>
</feMerge>
</filter>
<filter id="filter5_g_440_12373" x="288.671" y="133.01" width="80.5889" height="60.9678" filterUnits="userSpaceOnUse" color-interpolation-filters="sRGB">
<feFlood flood-opacity="0" result="BackgroundImageFix"/>
<feBlend mode="normal" in="SourceGraphic" in2="BackgroundImageFix" result="shape"/>
<feTurbulence type="fractalNoise" baseFrequency="0.066666670143604279 0.066666670143604279" numOctaves="3" seed="5149" />
<feDisplacementMap in="shape" scale="3" xChannelSelector="R" yChannelSelector="G" result="displacedImage" width="100%" height="100%" />
<feMerge result="effect1_texture_440_12373">
<feMergeNode in="displacedImage"/>
</feMerge>
</filter>
<filter id="filter6_g_440_12373" x="301.582" y="186.252" width="31.0186" height="20.7764" filterUnits="userSpaceOnUse" color-interpolation-filters="sRGB">
<feFlood flood-opacity="0" result="BackgroundImageFix"/>
<feBlend mode="normal" in="SourceGraphic" in2="BackgroundImageFix" result="shape"/>
<feTurbulence type="fractalNoise" baseFrequency="0.066666677594184875 0.066666677594184875" numOctaves="3" seed="5149" />
<feDisplacementMap in="shape" scale="2.9999995231628418" xChannelSelector="R" yChannelSelector="G" result="displacedImage" width="100%" height="100%" />
<feMerge result="effect1_texture_440_12373">
<feMergeNode in="displacedImage"/>
</feMerge>
</filter>
</defs>
</svg>
