<svg width="385" height="366" viewBox="0 0 385 366" fill="none" xmlns="http://www.w3.org/2000/svg">
<g filter="url(#filter0_d_305_2501)">
<rect x="99" y="104.512" width="162" height="162" rx="50" fill="white"/>
<rect x="94.5" y="100.012" width="171" height="171" rx="54.5" stroke="#5A79F9" stroke-width="9"/>
<path d="M187.4 214.512V166.56C187.4 165.48 187.427 164.427 187.481 163.401C187.535 162.375 187.697 161.43 187.967 160.566L189.182 162.996C188.75 162.834 188.21 162.699 187.562 162.591C186.914 162.429 186.212 162.348 185.456 162.348C181.73 162.348 178.787 163.482 176.627 165.75C174.467 167.964 172.55 171.582 170.876 176.604L164.882 194.748L162.776 191.832H203.924V198.636H157.916V192.48L163.586 175.632C164.666 172.5 165.8 169.692 166.988 167.208C168.23 164.724 169.688 162.618 171.362 160.89C173.036 159.162 175.007 157.839 177.275 156.921C179.597 156.003 182.324 155.544 185.456 155.544C187.508 155.544 189.398 155.652 191.126 155.868C192.854 156.084 194.312 156.408 195.5 156.84L195.662 157.812C195.5 158.892 195.392 160.242 195.338 161.862C195.284 163.482 195.23 165.102 195.176 166.722C195.176 168.342 195.176 169.692 195.176 170.772V214.512H187.4Z" fill="#5A79F9"/>
</g>
<g filter="url(#filter1_d_305_2501)">
<g filter="url(#filter2_g_305_2501)">
<mask id="path-4-outside-1_305_2501" maskUnits="userSpaceOnUse" x="182.796" y="-5.79796" width="208.465" height="209.173" fill="black">
<rect fill="white" x="182.796" y="-5.79796" width="208.465" height="209.173"/>
<path d="M298.024 24.9989C303.542 21.8131 310.598 23.7036 313.784 29.2217L321.749 43.018C323.279 45.6678 325.799 47.6013 328.755 48.3932L346.742 53.213C352.897 54.8621 356.549 61.1884 354.9 67.343L350.08 85.3315C349.288 88.2867 349.703 91.4356 351.233 94.0853L359.846 109.005C363.032 114.523 361.141 121.579 355.623 124.765L340.705 133.378C338.055 134.908 336.121 137.428 335.329 140.384L331.056 156.329C329.752 161.199 325.519 164.499 320.759 164.849C319.992 166.081 319.168 167.191 318.253 168.208C313.674 173.293 307.604 176.797 300.911 178.22C293.303 179.837 284.539 177.49 267.011 172.793C249.484 168.097 240.72 165.748 234.94 160.543C229.855 155.965 226.35 149.894 224.928 143.202C224.643 141.863 224.483 140.488 224.435 139.037C220.492 136.353 218.477 131.381 219.782 126.513L223.981 110.839C224.773 107.884 224.359 104.734 222.829 102.085L214.017 86.8219C210.831 81.3038 212.722 74.2473 218.24 71.0614L233.503 62.2495C236.153 60.7197 238.086 58.2001 238.878 55.2448L243.625 37.527C245.274 31.3725 251.601 27.72 257.755 29.369L275.473 34.1165C278.429 34.9084 281.578 34.4941 284.228 32.9642L298.024 24.9989Z"/>
</mask>
<path d="M298.024 24.9989L294.024 18.0707L294.024 18.0707L298.024 24.9989ZM321.749 43.018L314.821 47.018L314.821 47.018L321.749 43.018ZM350.08 85.3315L342.353 83.2609L342.353 83.2611L350.08 85.3315ZM351.233 94.0853L344.304 98.0849L344.304 98.0853L351.233 94.0853ZM359.846 109.005L366.775 105.005L366.775 105.005L359.846 109.005ZM355.623 124.765L351.623 117.837L355.623 124.765ZM320.759 164.849L320.173 156.87L316.116 157.169L313.967 160.622L320.759 164.849ZM318.253 168.208L324.198 173.561L324.198 173.561L318.253 168.208ZM300.911 178.22L302.575 186.045L302.575 186.045L300.911 178.22ZM267.011 172.793L264.941 180.521L267.011 172.793ZM234.94 160.543L229.587 166.488L229.587 166.488L234.94 160.543ZM224.928 143.202L217.102 144.865L217.102 144.865L224.928 143.202ZM224.435 139.037L232.431 138.773L232.297 134.71L228.936 132.423L224.435 139.037ZM222.829 102.085L229.757 98.0845L229.757 98.0845L222.829 102.085ZM214.017 86.8219L220.945 82.8219L214.017 86.8219ZM218.24 71.0614L214.24 64.1332L218.24 71.0614ZM233.503 62.2495L237.503 69.1777L237.503 69.1777L233.503 62.2495ZM238.878 55.2448L246.605 57.3156L246.605 57.3153L238.878 55.2448ZM257.755 29.369L259.826 21.6416L259.826 21.6416L257.755 29.369ZM275.473 34.1165L273.403 41.8439L273.403 41.8439L275.473 34.1165ZM284.228 32.9642L280.228 26.036L284.228 32.9642ZM298.024 24.9989L302.024 31.9271C303.716 30.9504 305.879 31.53 306.855 33.2217L313.784 29.2217L320.712 25.2217C315.317 15.8772 303.369 12.6758 294.024 18.0707L298.024 24.9989ZM313.784 29.2217L306.855 33.2217L314.821 47.018L321.749 43.018L328.677 39.018L320.712 25.2217L313.784 29.2217ZM321.749 43.018L314.821 47.018C317.412 51.5058 321.68 54.7797 326.684 56.1207L328.755 48.3932L330.825 40.6658C329.919 40.4229 329.146 39.8299 328.677 39.018L321.749 43.018ZM328.755 48.3932L326.684 56.1207L344.672 60.9404L346.742 53.213L348.813 45.4856L330.825 40.6658L328.755 48.3932ZM346.742 53.213L344.672 60.9404C346.559 61.446 347.678 63.3856 347.173 65.2725L354.9 67.343L362.628 69.4136C365.42 58.9912 359.235 48.2782 348.813 45.4856L346.742 53.213ZM354.9 67.343L347.173 65.2725L342.353 83.2609L350.08 85.3315L357.808 87.402L362.628 69.4136L354.9 67.343ZM350.08 85.3315L342.353 83.2611C341.012 88.266 341.714 93.5982 344.304 98.0849L351.233 94.0853L358.161 90.0857C357.692 89.273 357.565 88.3075 357.808 87.4019L350.08 85.3315ZM351.233 94.0853L344.304 98.0853L352.918 113.005L359.846 109.005L366.775 105.005L358.161 90.0853L351.233 94.0853ZM359.846 109.005L352.918 113.005C353.895 114.696 353.315 116.86 351.623 117.837L355.623 124.765L359.623 131.693C368.968 126.298 372.169 114.349 366.775 105.005L359.846 109.005ZM355.623 124.765L351.623 117.837L336.705 126.45L340.705 133.378L344.705 140.306L359.623 131.693L355.623 124.765ZM340.705 133.378L336.705 126.45C332.219 129.04 328.943 133.307 327.602 138.313L335.329 140.384L343.056 142.454C343.299 141.549 343.892 140.776 344.705 140.306L340.705 133.378ZM335.329 140.384L327.602 138.313L323.329 154.258L331.056 156.329L338.784 158.399L343.056 142.454L335.329 140.384ZM331.056 156.329L323.329 154.258C322.933 155.736 321.646 156.762 320.173 156.87L320.759 164.849L321.346 172.827C329.391 172.236 336.57 166.662 338.784 158.399L331.056 156.329ZM320.759 164.849L313.967 160.622C313.424 161.495 312.877 162.222 312.307 162.855L318.253 168.208L324.198 173.561C325.459 172.161 326.561 170.667 327.552 169.075L320.759 164.849ZM318.253 168.208L312.308 162.855C308.86 166.684 304.288 169.323 299.248 170.395L300.911 178.22L302.575 186.045C310.92 184.271 318.489 179.901 324.198 173.561L318.253 168.208ZM300.911 178.22L299.248 170.395C296.888 170.896 293.96 170.887 289.115 170.004C284.178 169.104 277.973 167.448 269.082 165.066L267.011 172.793L264.941 180.521C273.577 182.835 280.517 184.701 286.247 185.745C292.068 186.805 297.326 187.161 302.575 186.045L300.911 178.22ZM267.011 172.793L269.082 165.066C260.191 162.684 253.989 161.015 249.264 159.326C244.627 157.668 242.086 156.212 240.293 154.598L234.94 160.543L229.587 166.488C233.574 170.078 238.305 172.4 243.877 174.392C249.361 176.352 256.304 178.207 264.941 180.521L267.011 172.793ZM234.94 160.543L240.293 154.598C236.464 151.15 233.824 146.578 232.753 141.538L224.928 143.202L217.102 144.865C218.876 153.21 223.247 160.779 229.587 166.488L234.94 160.543ZM224.928 143.202L232.753 141.538C232.575 140.7 232.465 139.797 232.431 138.773L224.435 139.037L216.439 139.3C216.501 141.18 216.712 143.026 217.102 144.865L224.928 143.202ZM224.435 139.037L228.936 132.423C227.714 131.591 227.113 130.06 227.509 128.583L219.782 126.513L212.054 124.442C209.841 132.702 213.269 141.115 219.934 145.651L224.435 139.037ZM219.782 126.513L227.509 128.583L231.709 112.91L223.981 110.839L216.254 108.769L212.054 124.442L219.782 126.513ZM223.981 110.839L231.709 112.91C233.05 107.905 232.348 102.572 229.757 98.0845L222.829 102.085L215.901 106.085C216.37 106.896 216.497 107.862 216.254 108.769L223.981 110.839ZM222.829 102.085L229.757 98.0845L220.945 82.8219L214.017 86.8219L207.089 90.8219L215.901 106.085L222.829 102.085ZM214.017 86.8219L220.945 82.8219C219.969 81.1301 220.548 78.9663 222.24 77.9896L218.24 71.0614L214.24 64.1332C204.896 69.5282 201.694 81.4775 207.089 90.8219L214.017 86.8219ZM218.24 71.0614L222.24 77.9896L237.503 69.1777L233.503 62.2495L229.503 55.3213L214.24 64.1332L218.24 71.0614ZM233.503 62.2495L237.503 69.1777C241.99 66.587 245.264 62.3201 246.605 57.3156L238.878 55.2448L231.151 53.174C230.908 54.0801 230.315 54.8524 229.503 55.3214L233.503 62.2495ZM238.878 55.2448L246.605 57.3153L251.353 39.5976L243.625 37.527L235.898 35.4565L231.15 53.1742L238.878 55.2448ZM243.625 37.527L251.353 39.5976C251.858 37.7109 253.798 36.5909 255.685 37.0965L257.755 29.369L259.826 21.6416C249.404 18.8492 238.691 25.0341 235.898 35.4565L243.625 37.527ZM257.755 29.369L255.685 37.0964L273.403 41.8439L275.473 34.1165L277.544 26.3891L259.826 21.6416L257.755 29.369ZM275.473 34.1165L273.403 41.8439C278.407 43.1847 283.74 42.4835 288.228 39.8924L284.228 32.9642L280.228 26.036C279.416 26.5047 278.45 26.632 277.544 26.3891L275.473 34.1165ZM284.228 32.9642L288.228 39.8924L302.024 31.9271L298.024 24.9989L294.024 18.0707L280.228 26.036L284.228 32.9642Z" fill="white" mask="url(#path-4-outside-1_305_2501)"/>
</g>
<g filter="url(#filter3_g_305_2501)">
<path d="M321.749 43.0182C323.279 45.668 325.799 47.6016 328.754 48.3935L346.743 53.2134C352.897 54.8626 356.55 61.1887 354.9 67.3433L350.08 85.3316C349.289 88.2871 349.703 91.4361 351.233 94.0859L359.846 109.005C363.032 114.523 361.141 121.579 355.623 124.765L340.705 133.378C338.055 134.908 336.121 137.428 335.329 140.384L331.057 156.329C329.408 162.484 323.081 166.136 316.927 164.487L227.94 140.643C221.785 138.994 218.133 132.668 219.782 126.513L223.982 110.839C224.774 107.884 224.359 104.735 222.829 102.085L214.017 86.8219C210.831 81.3038 212.722 74.2479 218.24 71.0621L233.503 62.2501C236.153 60.7202 238.086 58.2003 238.878 55.2447L243.626 37.5273C245.275 31.3727 251.601 27.7203 257.755 29.3694L275.473 34.1168C278.428 34.9087 281.578 34.4941 284.227 32.9642L298.024 24.9988C303.542 21.813 310.598 23.7036 313.784 29.2217L321.749 43.0182Z" fill="#5A79F9"/>
</g>
<g filter="url(#filter4_ig_305_2501)">
<rect x="243.777" y="59.2305" width="103.68" height="103.68" rx="32.4" transform="rotate(15 243.777 59.2305)" fill="#FFC6B7"/>
</g>
<g filter="url(#filter5_g_305_2501)">
<path d="M251.583 89.8346C252.941 84.763 253.621 82.2272 255.127 80.5546C256.452 79.0833 258.208 78.0692 260.145 77.6576C262.346 77.1896 264.882 77.8691 269.954 79.228C275.025 80.5869 277.561 81.2664 279.234 82.7724C280.705 84.0972 281.719 85.8537 282.131 87.7902C282.599 89.9918 281.919 92.5276 280.56 97.5992L276.678 112.088C275.319 117.16 274.64 119.695 273.134 121.368C271.809 122.839 270.052 123.853 268.116 124.265C265.914 124.733 263.378 124.054 258.307 122.695C253.235 121.336 250.699 120.656 249.027 119.15C247.556 117.825 246.541 116.069 246.13 114.132C245.662 111.931 246.341 109.395 247.7 104.323L251.583 89.8346Z" fill="white"/>
<path d="M292.876 100.899C294.234 95.8275 294.914 93.2917 296.42 91.619C297.745 90.1478 299.501 89.1336 301.438 88.722C303.639 88.2541 306.175 88.9335 311.247 90.2924V90.2924C316.318 91.6514 318.854 92.3308 320.527 93.8369C321.998 95.1616 323.012 96.9181 323.424 98.8547C323.892 101.056 323.212 103.592 321.853 108.664L317.971 123.153C316.612 128.224 315.933 130.76 314.427 132.433C313.102 133.904 311.345 134.918 309.409 135.33C307.207 135.797 304.671 135.118 299.6 133.759V133.759C294.528 132.4 291.992 131.721 290.32 130.215C288.849 128.89 287.834 127.133 287.423 125.197C286.955 122.995 287.634 120.46 288.993 115.388L292.876 100.899Z" fill="white"/>
<path d="M267.924 96.9333C270.46 97.6128 271.728 97.9524 272.564 98.7053C273.3 99.3677 273.807 100.246 274.013 101.215C274.247 102.315 273.907 103.583 273.227 106.119L271.286 113.363C270.607 115.899 270.267 117.167 269.514 118.003C268.852 118.739 267.973 119.246 267.005 119.452C265.904 119.686 264.636 119.346 262.101 118.667C259.565 117.987 258.297 117.648 257.461 116.895C256.725 116.232 256.218 115.354 256.012 114.385C255.778 113.285 256.118 112.017 256.797 109.481L257.479 106.936C257.703 106.102 257.815 105.684 258.135 105.489C258.455 105.294 258.897 105.39 259.779 105.581C260.778 105.798 261.489 105.862 262.141 105.723C263.11 105.518 263.988 105.01 264.651 104.275C265.404 103.438 265.743 102.171 266.423 99.6349L267.004 97.4672C267.111 97.0663 267.523 96.8259 267.924 96.9333V96.9333Z" fill="#4C4C4C"/>
<path d="M308.037 108.068C310.573 108.748 311.841 109.087 312.677 109.84C313.413 110.502 313.92 111.381 314.126 112.349C314.36 113.45 314.02 114.718 313.341 117.254L311.4 124.498C310.72 127.034 310.38 128.302 309.628 129.138C308.965 129.874 308.087 130.381 307.118 130.587C306.018 130.821 304.75 130.481 302.214 129.801C299.678 129.122 298.41 128.782 297.574 128.029C296.838 127.367 296.331 126.488 296.125 125.52C295.891 124.419 296.231 123.151 296.911 120.616L297.591 118.076C297.817 117.235 297.929 116.814 298.255 116.619C298.581 116.424 299.018 116.527 299.892 116.732C301.087 117.013 301.89 117.111 302.619 116.956C303.587 116.75 304.465 116.242 305.127 115.507C305.88 114.671 306.22 113.403 306.899 110.867L307.578 108.334C307.631 108.134 307.837 108.014 308.037 108.068V108.068Z" fill="#4C4C4C"/>
</g>
<g filter="url(#filter6_g_305_2501)">
<path d="M259.307 133.3C260.484 130.776 263.676 129.96 265.919 131.609L272.172 136.204C273.319 137.046 274.62 137.653 276.002 137.99L283.542 139.827C286.247 140.486 287.673 143.455 286.497 145.979V145.979C285.608 147.885 283.497 148.899 281.453 148.401L273.02 146.347C271.096 145.878 269.284 145.033 267.688 143.86L260.694 138.721C258.999 137.475 258.418 135.206 259.307 133.3V133.3Z" fill="white"/>
</g>
</g>
<defs>
<filter id="filter0_d_305_2501" x="0" y="5.51172" width="360" height="360" filterUnits="userSpaceOnUse" color-interpolation-filters="sRGB">
<feFlood flood-opacity="0" result="BackgroundImageFix"/>
<feColorMatrix in="SourceAlpha" type="matrix" values="0 0 0 0 0 0 0 0 0 0 0 0 0 0 0 0 0 0 127 0" result="hardAlpha"/>
<feOffset/>
<feGaussianBlur stdDeviation="45"/>
<feComposite in2="hardAlpha" operator="out"/>
<feColorMatrix type="matrix" values="0 0 0 0 1 0 0 0 0 1 0 0 0 0 1 0 0 0 1 0"/>
<feBlend mode="normal" in2="BackgroundImageFix" result="effect1_dropShadow_305_2501"/>
<feBlend mode="normal" in="SourceGraphic" in2="effect1_dropShadow_305_2501" result="shape"/>
</filter>
<filter id="filter1_d_305_2501" x="189.469" y="0.450195" width="194.926" height="201.279" filterUnits="userSpaceOnUse" color-interpolation-filters="sRGB">
<feFlood flood-opacity="0" result="BackgroundImageFix"/>
<feColorMatrix in="SourceAlpha" type="matrix" values="0 0 0 0 0 0 0 0 0 0 0 0 0 0 0 0 0 0 127 0" result="hardAlpha"/>
<feOffset/>
<feGaussianBlur stdDeviation="7.5"/>
<feComposite in2="hardAlpha" operator="out"/>
<feColorMatrix type="matrix" values="0 0 0 0 0 0 0 0 0 0 0 0 0 0 0 0 0 0 0.25 0"/>
<feBlend mode="normal" in2="BackgroundImageFix" result="effect1_dropShadow_305_2501"/>
<feBlend mode="normal" in="SourceGraphic" in2="effect1_dropShadow_305_2501" result="shape"/>
</filter>
<filter id="filter2_g_305_2501" x="202.969" y="13.9502" width="167.926" height="174.279" filterUnits="userSpaceOnUse" color-interpolation-filters="sRGB">
<feFlood flood-opacity="0" result="BackgroundImageFix"/>
<feBlend mode="normal" in="SourceGraphic" in2="BackgroundImageFix" result="shape"/>
<feTurbulence type="fractalNoise" baseFrequency="0.066666677594184875 0.066666677594184875" numOctaves="3" seed="5149" />
<feDisplacementMap in="shape" scale="2.9999995231628418" xChannelSelector="R" yChannelSelector="G" result="displacedImage" width="100%" height="100%" />
<feMerge result="effect1_texture_305_2501">
<feMergeNode in="displacedImage"/>
</feMerge>
</filter>
<filter id="filter3_g_305_2501" x="210.969" y="21.9512" width="151.926" height="144.433" filterUnits="userSpaceOnUse" color-interpolation-filters="sRGB">
<feFlood flood-opacity="0" result="BackgroundImageFix"/>
<feBlend mode="normal" in="SourceGraphic" in2="BackgroundImageFix" result="shape"/>
<feTurbulence type="fractalNoise" baseFrequency="0.066666670143604279 0.066666670143604279" numOctaves="3" seed="5149" />
<feDisplacementMap in="shape" scale="3" xChannelSelector="R" yChannelSelector="G" result="displacedImage" width="100%" height="100%" />
<feMerge result="effect1_texture_305_2501">
<feMergeNode in="displacedImage"/>
</feMerge>
</filter>
<filter id="filter4_ig_305_2501" x="222.922" y="65.2109" width="115.023" height="115.021" filterUnits="userSpaceOnUse" color-interpolation-filters="sRGB">
<feFlood flood-opacity="0" result="BackgroundImageFix"/>
<feBlend mode="normal" in="SourceGraphic" in2="BackgroundImageFix" result="shape"/>
<feColorMatrix in="SourceAlpha" type="matrix" values="0 0 0 0 0 0 0 0 0 0 0 0 0 0 0 0 0 0 127 0" result="hardAlpha"/>
<feOffset dy="1.5"/>
<feGaussianBlur stdDeviation="3.75"/>
<feComposite in2="hardAlpha" operator="arithmetic" k2="-1" k3="1"/>
<feColorMatrix type="matrix" values="0 0 0 0 0.352941 0 0 0 0 0.47451 0 0 0 0 0.976471 0 0 0 1 0"/>
<feBlend mode="normal" in2="shape" result="effect1_innerShadow_305_2501"/>
<feTurbulence type="fractalNoise" baseFrequency="0.066666670143604279 0.066666670143604279" numOctaves="3" seed="5149" />
<feDisplacementMap in="effect1_innerShadow_305_2501" scale="3" xChannelSelector="R" yChannelSelector="G" result="displacedImage" width="100%" height="100%" />
<feMerge result="effect2_texture_305_2501">
<feMergeNode in="displacedImage"/>
</feMerge>
</filter>
<filter id="filter5_g_305_2501" x="244.484" y="76.0098" width="80.5859" height="60.9668" filterUnits="userSpaceOnUse" color-interpolation-filters="sRGB">
<feFlood flood-opacity="0" result="BackgroundImageFix"/>
<feBlend mode="normal" in="SourceGraphic" in2="BackgroundImageFix" result="shape"/>
<feTurbulence type="fractalNoise" baseFrequency="0.066666670143604279 0.066666670143604279" numOctaves="3" seed="5149" />
<feDisplacementMap in="shape" scale="3" xChannelSelector="R" yChannelSelector="G" result="displacedImage" width="100%" height="100%" />
<feMerge result="effect1_texture_305_2501">
<feMergeNode in="displacedImage"/>
</feMerge>
</filter>
<filter id="filter6_g_305_2501" x="257.395" y="129.251" width="31.0195" height="20.7764" filterUnits="userSpaceOnUse" color-interpolation-filters="sRGB">
<feFlood flood-opacity="0" result="BackgroundImageFix"/>
<feBlend mode="normal" in="SourceGraphic" in2="BackgroundImageFix" result="shape"/>
<feTurbulence type="fractalNoise" baseFrequency="0.066666677594184875 0.066666677594184875" numOctaves="3" seed="5149" />
<feDisplacementMap in="shape" scale="2.9999995231628418" xChannelSelector="R" yChannelSelector="G" result="displacedImage" width="100%" height="100%" />
<feMerge result="effect1_texture_305_2501">
<feMergeNode in="displacedImage"/>
</feMerge>
</filter>
</defs>
</svg>
