<svg width="361" height="361" viewBox="0 0 361 361" fill="none" xmlns="http://www.w3.org/2000/svg">
<g filter="url(#filter0_d_305_2601)">
<rect x="99.8438" y="99.5117" width="162" height="162" rx="50" fill="url(#paint0_linear_305_2601)"/>
<rect x="95.3438" y="95.0117" width="171" height="171" rx="54.5" stroke="white" stroke-width="9"/>
<path d="M151.58 210.484C148.664 210.484 145.883 210.187 143.237 209.593C140.645 208.999 138.458 208.216 136.676 207.244V199.63H137.324C138.944 200.656 140.996 201.601 143.48 202.465C145.964 203.275 148.664 203.68 151.58 203.68C155.576 203.68 158.654 203.086 160.814 201.898C162.974 200.656 164.459 199.171 165.269 197.443C166.079 195.661 166.484 193.96 166.484 192.34C166.484 189.1 165.323 186.508 163.001 184.564C160.733 182.62 157.25 181.648 152.552 181.648H146.72L145.424 178.408L164.864 155.323L165.998 157.672H137.648V151.192H170.372L171.344 152.002C171.452 152.38 171.533 152.866 171.587 153.46C171.641 154 171.668 154.432 171.668 154.756C171.668 156.052 171.344 157.348 170.696 158.644C170.048 159.886 169.184 161.128 168.104 162.37L154.253 177.922L153.605 175.492C158.033 175.546 161.759 176.275 164.783 177.679C167.807 179.029 170.075 180.973 171.587 183.511C173.153 185.995 173.936 189.046 173.936 192.664C173.936 196.228 173.045 199.36 171.263 202.06C169.481 204.706 166.916 206.785 163.568 208.297C160.22 209.755 156.224 210.484 151.58 210.484ZM203.761 210.484C201.007 210.484 198.226 210.187 195.418 209.593C192.61 209.053 190.153 208.378 188.047 207.568L187.885 206.92C188.101 205.948 188.236 204.625 188.29 202.951C188.398 201.277 188.452 199.576 188.452 197.848C188.506 196.12 188.533 194.716 188.533 193.636V161.884C188.533 161.074 188.533 160.075 188.533 158.887C188.533 157.699 188.506 156.457 188.452 155.161C188.398 153.811 188.317 152.569 188.209 151.435C188.155 150.247 188.047 149.302 187.885 148.6L188.047 147.952H195.985V197.524C195.985 199.144 195.904 200.548 195.742 201.736C195.634 202.87 195.499 203.842 195.337 204.652L194.041 202.384C195.337 202.816 196.822 203.194 198.496 203.518C200.17 203.842 201.925 204.004 203.761 204.004C208.945 204.004 212.779 202.573 215.263 199.711C217.747 196.849 218.989 192.664 218.989 187.156C218.989 182.134 217.693 178.192 215.101 175.33C212.563 172.414 208.783 170.956 203.761 170.956C202.357 170.956 201.142 171.037 200.116 171.199C199.09 171.307 198.064 171.496 197.038 171.766C196.012 172.036 194.797 172.414 193.393 172.9V166.744C195.283 165.934 197.173 165.367 199.063 165.043C201.007 164.665 202.789 164.476 204.409 164.476C209.053 164.476 213.022 165.394 216.316 167.23C219.664 169.066 222.202 171.685 223.93 175.087C225.712 178.489 226.603 182.512 226.603 187.156C226.603 192.016 225.685 196.201 223.849 199.711C222.013 203.167 219.394 205.84 215.992 207.73C212.59 209.566 208.513 210.484 203.761 210.484Z" fill="white"/>
</g>
<defs>
<filter id="filter0_d_305_2601" x="0.84375" y="0.511719" width="360" height="360" filterUnits="userSpaceOnUse" color-interpolation-filters="sRGB">
<feFlood flood-opacity="0" result="BackgroundImageFix"/>
<feColorMatrix in="SourceAlpha" type="matrix" values="0 0 0 0 0 0 0 0 0 0 0 0 0 0 0 0 0 0 127 0" result="hardAlpha"/>
<feOffset/>
<feGaussianBlur stdDeviation="45"/>
<feComposite in2="hardAlpha" operator="out"/>
<feColorMatrix type="matrix" values="0 0 0 0 0.351909 0 0 0 0 0.475644 0 0 0 0 0.975962 0 0 0 1 0"/>
<feBlend mode="normal" in2="BackgroundImageFix" result="effect1_dropShadow_305_2601"/>
<feBlend mode="normal" in="SourceGraphic" in2="effect1_dropShadow_305_2601" result="shape"/>
</filter>
<linearGradient id="paint0_linear_305_2601" x1="99.8438" y1="180.512" x2="261.844" y2="180.512" gradientUnits="userSpaceOnUse">
<stop stop-color="#F67F1E"/>
<stop offset="1" stop-color="#EBC333"/>
</linearGradient>
</defs>
</svg>
