<svg width="500" height="500" viewBox="0 0 500 500" fill="none" xmlns="http://www.w3.org/2000/svg">
<g opacity="0.5" filter="url(#filter0_d_320_4375)">
<rect x="169" y="169" width="162" height="162" rx="50" fill="white"/>
<rect x="164.5" y="164.5" width="171" height="171" rx="54.5" stroke="#5A79F9" stroke-width="9"/>
<path d="M231.156 279C230.67 278.028 230.319 276.732 230.103 275.112C229.941 273.492 229.86 272.196 229.86 271.224C229.86 268.2 230.346 265.446 231.318 262.962C232.344 260.424 234.018 258.237 236.34 256.401C238.716 254.511 241.929 253.08 245.979 252.108L249.948 251.136C253.512 250.218 256.185 248.76 257.967 246.762C259.749 244.764 260.64 241.902 260.64 238.176C260.64 234.45 259.371 231.588 256.833 229.59C254.295 227.538 250.596 226.512 245.736 226.512C243.9 226.512 242.199 226.647 240.633 226.917C239.067 227.187 237.609 227.538 236.259 227.97C234.909 228.402 233.64 228.888 232.452 229.428H231.804V222.3C233.424 221.652 235.476 221.058 237.96 220.518C240.444 219.978 243.144 219.708 246.06 219.708C251.244 219.708 255.456 220.545 258.696 222.219C261.936 223.839 264.312 226.053 265.824 228.861C267.336 231.615 268.092 234.72 268.092 238.176C268.092 243.684 266.607 248.031 263.637 251.217C260.721 254.349 257.022 256.482 252.54 257.616L248.652 258.588C244.386 259.614 241.362 261.126 239.58 263.124C237.852 265.122 236.988 267.498 236.988 270.252C236.988 271.116 237.069 271.764 237.231 272.196C237.393 272.628 237.636 273.141 237.96 273.735L234.153 272.196H269.712V279H231.156Z" fill="#5A79F9"/>
</g>
<defs>
<filter id="filter0_d_320_4375" x="70" y="70" width="360" height="360" filterUnits="userSpaceOnUse" color-interpolation-filters="sRGB">
<feFlood flood-opacity="0" result="BackgroundImageFix"/>
<feColorMatrix in="SourceAlpha" type="matrix" values="0 0 0 0 0 0 0 0 0 0 0 0 0 0 0 0 0 0 127 0" result="hardAlpha"/>
<feOffset/>
<feGaussianBlur stdDeviation="45"/>
<feComposite in2="hardAlpha" operator="out"/>
<feColorMatrix type="matrix" values="0 0 0 0 1 0 0 0 0 1 0 0 0 0 1 0 0 0 1 0"/>
<feBlend mode="normal" in2="BackgroundImageFix" result="effect1_dropShadow_320_4375"/>
<feBlend mode="normal" in="SourceGraphic" in2="effect1_dropShadow_320_4375" result="shape"/>
</filter>
</defs>
</svg>
