<svg width="360" height="361" viewBox="0 0 360 361" fill="none" xmlns="http://www.w3.org/2000/svg">
<g filter="url(#filter0_d_305_2393)">
<rect x="99" y="99.5117" width="162" height="162" rx="50" fill="white"/>
<rect x="94.5" y="95.0117" width="171" height="171" rx="54.5" stroke="#5A79F9" stroke-width="9"/>
<path d="M161.156 209.512C160.67 208.54 160.319 207.244 160.103 205.624C159.941 204.004 159.86 202.708 159.86 201.736C159.86 198.712 160.346 195.958 161.318 193.474C162.344 190.936 164.018 188.749 166.34 186.913C168.716 185.023 171.929 183.592 175.979 182.62L179.948 181.648C183.512 180.73 186.185 179.272 187.967 177.274C189.749 175.276 190.64 172.414 190.64 168.688C190.64 164.962 189.371 162.1 186.833 160.102C184.295 158.05 180.596 157.024 175.736 157.024C173.9 157.024 172.199 157.159 170.633 157.429C169.067 157.699 167.609 158.05 166.259 158.482C164.909 158.914 163.64 159.4 162.452 159.94H161.804V152.812C163.424 152.164 165.476 151.57 167.96 151.03C170.444 150.49 173.144 150.22 176.06 150.22C181.244 150.22 185.456 151.057 188.696 152.731C191.936 154.351 194.312 156.565 195.824 159.373C197.336 162.127 198.092 165.232 198.092 168.688C198.092 174.196 196.607 178.543 193.637 181.729C190.721 184.861 187.022 186.994 182.54 188.128L178.652 189.1C174.386 190.126 171.362 191.638 169.58 193.636C167.852 195.634 166.988 198.01 166.988 200.764C166.988 201.628 167.069 202.276 167.231 202.708C167.393 203.14 167.636 203.653 167.96 204.247L164.153 202.708H199.712V209.512H161.156Z" fill="#5A79F9"/>
</g>
<defs>
<filter id="filter0_d_305_2393" x="0" y="0.511719" width="360" height="360" filterUnits="userSpaceOnUse" color-interpolation-filters="sRGB">
<feFlood flood-opacity="0" result="BackgroundImageFix"/>
<feColorMatrix in="SourceAlpha" type="matrix" values="0 0 0 0 0 0 0 0 0 0 0 0 0 0 0 0 0 0 127 0" result="hardAlpha"/>
<feOffset/>
<feGaussianBlur stdDeviation="45"/>
<feComposite in2="hardAlpha" operator="out"/>
<feColorMatrix type="matrix" values="0 0 0 0 1 0 0 0 0 1 0 0 0 0 1 0 0 0 1 0"/>
<feBlend mode="normal" in2="BackgroundImageFix" result="effect1_dropShadow_305_2393"/>
<feBlend mode="normal" in="SourceGraphic" in2="effect1_dropShadow_305_2393" result="shape"/>
</filter>
</defs>
</svg>
