<svg width="500" height="500" viewBox="0 0 500 500" fill="none" xmlns="http://www.w3.org/2000/svg">
<g filter="url(#filter0_d_320_4598)">
<rect x="109" y="219.512" width="162" height="162" rx="50" fill="white"/>
<rect x="104.5" y="215.012" width="171" height="171" rx="54.5" stroke="#5A79F9" stroke-width="9"/>
<path d="M170.184 319.63H170.832C172.29 320.494 174.342 321.385 176.988 322.303C179.634 323.221 182.658 323.68 186.06 323.68C190.056 323.68 193.161 323.086 195.375 321.898C197.589 320.71 199.128 319.198 199.992 317.362C200.856 315.526 201.288 313.636 201.288 311.692C201.288 308.128 200.154 305.401 197.886 303.511C195.618 301.621 192.216 300.676 187.68 300.676C184.224 300.676 181.335 300.973 179.013 301.567C176.745 302.161 174.882 302.62 173.424 302.944L172.776 302.62V286.42C172.776 285.34 172.749 283.909 172.695 282.127C172.695 280.345 172.641 278.59 172.533 276.862C172.479 275.134 172.344 273.784 172.128 272.812L172.29 272.164C173.532 271.84 175.071 271.597 176.907 271.435C178.743 271.273 181.038 271.192 183.792 271.192H206.472V277.996H176.988L179.985 276.214C180.039 276.97 180.093 277.861 180.147 278.887C180.201 279.913 180.228 280.912 180.228 281.884V298.003L178.365 295.249C179.769 294.979 181.308 294.736 182.982 294.52C184.71 294.304 186.384 294.196 188.004 294.196C195.132 294.196 200.424 295.735 203.88 298.813C207.336 301.891 209.064 306.184 209.064 311.692C209.064 315.472 208.119 318.766 206.229 321.574C204.393 324.382 201.747 326.569 198.291 328.135C194.889 329.701 190.812 330.484 186.06 330.484C182.82 330.484 179.796 330.187 176.988 329.593C174.234 328.999 171.966 328.216 170.184 327.244V319.63Z" fill="#5A79F9"/>
</g>
<g filter="url(#filter1_d_320_4598)">
<g filter="url(#filter2_g_320_4598)">
<mask id="path-4-outside-1_320_4598" maskUnits="userSpaceOnUse" x="192.796" y="109.202" width="208.465" height="209.173" fill="black">
<rect fill="white" x="192.796" y="109.202" width="208.465" height="209.173"/>
<path d="M308.023 139.999C313.541 136.813 320.597 138.703 323.783 144.221L331.748 158.018C333.278 160.667 335.798 162.601 338.754 163.393L356.743 168.213C362.898 169.862 366.55 176.189 364.901 182.343L360.081 200.333C359.289 203.288 359.703 206.438 361.233 209.087L369.846 224.006C373.032 229.524 371.141 236.579 365.624 239.765L350.706 248.377C348.056 249.907 346.122 252.427 345.33 255.383L341.057 271.33C339.752 276.2 335.518 279.5 330.758 279.849C329.991 281.082 329.168 282.192 328.253 283.209C323.674 288.293 317.604 291.798 310.911 293.221C303.303 294.838 294.539 292.49 277.011 287.793C259.484 283.097 250.72 280.749 244.94 275.544C239.855 270.966 236.35 264.895 234.928 258.202C234.643 256.864 234.484 255.489 234.436 254.038C230.492 251.354 228.478 246.382 229.782 241.514L233.982 225.839C234.774 222.884 234.359 219.734 232.829 217.084L224.017 201.822C220.831 196.304 222.722 189.248 228.24 186.062L243.503 177.249C246.153 175.72 248.087 173.2 248.879 170.244L253.626 152.527C255.276 146.373 261.602 142.72 267.756 144.369L285.472 149.116C288.428 149.908 291.577 149.494 294.227 147.964L308.023 139.999Z"/>
</mask>
<path d="M308.023 139.999L304.023 133.07L304.023 133.07L308.023 139.999ZM323.783 144.221L330.711 140.221L330.711 140.221L323.783 144.221ZM331.748 158.018L324.82 162.018L331.748 158.018ZM338.754 163.393L336.683 171.12L336.683 171.12L338.754 163.393ZM356.743 168.213L358.814 160.486L358.814 160.486L356.743 168.213ZM364.901 182.343L372.629 184.414L372.629 184.414L364.901 182.343ZM360.081 200.333L352.354 198.262L352.354 198.262L360.081 200.333ZM361.233 209.087L368.161 205.087L361.233 209.087ZM369.846 224.006L376.775 220.006L376.774 220.006L369.846 224.006ZM365.624 239.765L369.623 246.693L369.624 246.693L365.624 239.765ZM350.706 248.377L346.706 241.449L346.706 241.449L350.706 248.377ZM345.33 255.383L337.603 253.312L345.33 255.383ZM341.057 271.33L348.785 273.401L348.785 273.401L341.057 271.33ZM330.758 279.849L330.173 271.871L326.115 272.169L323.966 275.623L330.758 279.849ZM328.253 283.209L334.198 288.562L334.198 288.562L328.253 283.209ZM310.911 293.221L312.574 301.046L312.575 301.046L310.911 293.221ZM277.011 287.793L274.941 295.521L277.011 287.793ZM244.94 275.544L239.587 281.489L239.587 281.489L244.94 275.544ZM234.928 258.202L227.102 259.866L227.102 259.866L234.928 258.202ZM234.436 254.038L242.432 253.774L242.298 249.711L238.936 247.424L234.436 254.038ZM229.782 241.514L222.055 239.444L222.055 239.444L229.782 241.514ZM233.982 225.839L226.255 223.769L233.982 225.839ZM232.829 217.084L225.901 221.084L225.901 221.085L232.829 217.084ZM224.017 201.822L230.946 197.822L230.945 197.822L224.017 201.822ZM228.24 186.062L232.24 192.991L232.24 192.99L228.24 186.062ZM243.503 177.249L239.503 170.321L239.503 170.321L243.503 177.249ZM248.879 170.244L256.607 172.315L256.607 172.315L248.879 170.244ZM253.626 152.527L245.899 150.456L245.899 150.457L253.626 152.527ZM294.227 147.964L298.227 154.892L294.227 147.964ZM308.023 139.999L312.023 146.927C313.715 145.95 315.878 146.53 316.855 148.222L323.783 144.221L330.711 140.221C325.316 130.877 313.368 127.675 304.023 133.07L308.023 139.999ZM323.783 144.221L316.855 148.221L324.82 162.018L331.748 158.018L338.676 154.018L330.711 140.221L323.783 144.221ZM331.748 158.018L324.82 162.018C327.411 166.506 331.679 169.779 336.683 171.12L338.754 163.393L340.824 155.666C339.918 155.423 339.145 154.829 338.676 154.018L331.748 158.018ZM338.754 163.393L336.683 171.12L354.673 175.941L356.743 168.213L358.814 160.486L340.824 155.666L338.754 163.393ZM356.743 168.213L354.673 175.941C356.559 176.446 357.679 178.386 357.174 180.273L364.901 182.343L372.629 184.414C375.421 173.992 369.236 163.279 358.814 160.486L356.743 168.213ZM364.901 182.343L357.174 180.273L352.354 198.262L360.081 200.333L367.808 202.403L372.629 184.414L364.901 182.343ZM360.081 200.333L352.354 198.262C351.013 203.266 351.714 208.6 354.305 213.087L361.233 209.087L368.161 205.087C367.693 204.276 367.565 203.31 367.808 202.403L360.081 200.333ZM361.233 209.087L354.305 213.087L362.918 228.006L369.846 224.006L376.774 220.006L368.161 205.087L361.233 209.087ZM369.846 224.006L362.918 228.005C363.895 229.697 363.315 231.86 361.624 232.837L365.624 239.765L369.624 246.693C378.968 241.298 382.169 229.35 376.775 220.006L369.846 224.006ZM365.624 239.765L361.624 232.837L346.706 241.449L350.706 248.377L354.705 255.306L369.623 246.693L365.624 239.765ZM350.706 248.377L346.706 241.449C342.218 244.04 338.944 248.308 337.603 253.312L345.33 255.383L353.058 257.453C353.301 256.547 353.894 255.774 354.705 255.305L350.706 248.377ZM345.33 255.383L337.603 253.312L333.33 269.26L341.057 271.33L348.785 273.401L353.058 257.453L345.33 255.383ZM341.057 271.33L333.33 269.259C332.934 270.736 331.647 271.763 330.173 271.871L330.758 279.849L331.344 287.828C339.389 287.237 346.57 281.664 348.785 273.401L341.057 271.33ZM330.758 279.849L323.966 275.623C323.421 276.499 322.875 277.226 322.307 277.856L328.253 283.209L334.198 288.562C335.461 287.159 336.562 285.664 337.55 284.076L330.758 279.849ZM328.253 283.209L322.307 277.856C318.86 281.685 314.288 284.324 309.248 285.396L310.911 293.221L312.575 301.046C320.92 299.272 328.489 294.902 334.198 288.562L328.253 283.209ZM310.911 293.221L309.248 285.396C306.888 285.897 303.96 285.887 299.115 285.004C294.178 284.105 287.973 282.448 279.082 280.066L277.011 287.793L274.941 295.521C283.577 297.835 290.517 299.701 296.246 300.745C302.068 301.806 307.326 302.162 312.574 301.046L310.911 293.221ZM277.011 287.793L279.082 280.066C270.191 277.683 263.989 276.015 259.263 274.326C254.626 272.668 252.085 271.213 250.293 269.599L244.94 275.544L239.587 281.489C243.574 285.08 248.306 287.401 253.878 289.392C259.361 291.353 266.305 293.207 274.941 295.521L277.011 287.793ZM244.94 275.544L250.293 269.599C246.464 266.151 243.824 261.579 242.753 256.539L234.928 258.202L227.102 259.866C228.876 268.211 233.246 275.78 239.587 281.489L244.94 275.544ZM234.928 258.202L242.753 256.539C242.575 255.705 242.465 254.801 242.432 253.774L234.436 254.038L226.44 254.302C226.502 256.177 226.711 258.023 227.102 259.866L234.928 258.202ZM234.436 254.038L238.936 247.424C237.715 246.593 237.114 245.062 237.51 243.584L229.782 241.514L222.055 239.444C219.842 247.702 223.269 256.116 229.936 260.652L234.436 254.038ZM229.782 241.514L237.51 243.585L241.71 227.91L233.982 225.839L226.255 223.769L222.055 239.444L229.782 241.514ZM233.982 225.839L241.71 227.91C243.051 222.904 242.348 217.571 239.757 213.084L232.829 217.084L225.901 221.085C226.371 221.898 226.498 222.864 226.255 223.769L233.982 225.839ZM232.829 217.084L239.757 213.084L230.946 197.822L224.017 201.822L217.089 205.822L225.901 221.084L232.829 217.084ZM224.017 201.822L230.945 197.822C229.969 196.13 230.548 193.967 232.24 192.991L228.24 186.062L224.24 179.134C214.896 184.529 211.694 196.477 217.089 205.822L224.017 201.822ZM228.24 186.062L232.24 192.99L247.503 184.178L243.503 177.249L239.503 170.321L224.24 179.134L228.24 186.062ZM243.503 177.249L247.503 184.178C251.989 181.587 255.265 177.321 256.607 172.315L248.879 170.244L241.152 168.173C240.909 169.078 240.316 169.852 239.503 170.321L243.503 177.249ZM248.879 170.244L256.607 172.315L261.354 154.598L253.626 152.527L245.899 150.457L241.152 168.173L248.879 170.244ZM253.626 152.527L261.354 154.598C261.859 152.711 263.799 151.591 265.686 152.097L267.756 144.369L269.827 136.642C259.405 133.849 248.692 140.035 245.899 150.456L253.626 152.527ZM267.756 144.369L265.686 152.097L283.402 156.844L285.472 149.116L287.543 141.389L269.827 136.642L267.756 144.369ZM285.472 149.116L283.402 156.844C288.406 158.185 293.739 157.483 298.227 154.892L294.227 147.964L290.227 141.036C289.415 141.504 288.449 141.632 287.543 141.389L285.472 149.116ZM294.227 147.964L298.227 154.892L312.023 146.927L308.023 139.999L304.023 133.07L290.227 141.036L294.227 147.964Z" fill="white" mask="url(#path-4-outside-1_320_4598)"/>
</g>
<g filter="url(#filter3_g_320_4598)">
<path d="M331.748 158.017C333.277 160.667 335.797 162.6 338.753 163.392L356.743 168.213C362.898 169.862 366.55 176.188 364.901 182.342L360.08 200.332C359.288 203.288 359.703 206.437 361.233 209.087L369.846 224.005C373.032 229.523 371.141 236.579 365.623 239.765L350.705 248.378C348.055 249.908 346.121 252.428 345.33 255.384L341.057 271.329C339.408 277.484 333.082 281.136 326.927 279.487L237.94 255.643C231.785 253.994 228.133 247.668 229.782 241.513L233.982 225.839C234.774 222.884 234.359 219.735 232.829 217.085L224.017 201.822C220.831 196.304 222.722 189.248 228.24 186.062L243.503 177.249C246.153 175.719 248.087 173.199 248.879 170.244L253.626 152.526C255.275 146.372 261.601 142.719 267.756 144.369L285.473 149.116C288.429 149.908 291.578 149.493 294.228 147.963L308.023 139.999C313.541 136.813 320.597 138.703 323.783 144.221L331.748 158.017Z" fill="#5A79F9"/>
</g>
<g filter="url(#filter4_ig_320_4598)">
<rect x="253.777" y="174.23" width="103.68" height="103.68" rx="32.4" transform="rotate(15 253.777 174.23)" fill="#FFC6B7"/>
</g>
<g filter="url(#filter5_g_320_4598)">
<path d="M261.583 204.835C262.941 199.763 263.621 197.227 265.127 195.555C266.452 194.083 268.208 193.069 270.145 192.658C272.346 192.19 274.882 192.869 279.954 194.228C285.025 195.587 287.561 196.266 289.234 197.772C290.705 199.097 291.719 200.854 292.131 202.79C292.599 204.992 291.919 207.528 290.56 212.599L286.678 227.088C285.319 232.16 284.64 234.695 283.134 236.368C281.809 237.839 280.052 238.853 278.116 239.265C275.914 239.733 273.378 239.054 268.307 237.695C263.235 236.336 260.699 235.656 259.027 234.15C257.556 232.825 256.541 231.069 256.13 229.132C255.662 226.931 256.341 224.395 257.7 219.323L261.583 204.835Z" fill="white"/>
<path d="M302.876 215.899C304.234 210.827 304.914 208.292 306.42 206.619C307.745 205.148 309.501 204.134 311.438 203.722C313.639 203.254 316.175 203.934 321.247 205.292V205.292C326.318 206.651 328.854 207.331 330.527 208.837C331.998 210.162 333.012 211.918 333.424 213.855C333.892 216.056 333.212 218.592 331.853 223.664L327.971 238.153C326.612 243.224 325.933 245.76 324.427 247.433C323.102 248.904 321.345 249.918 319.409 250.33C317.207 250.797 314.671 250.118 309.6 248.759V248.759C304.528 247.4 301.992 246.721 300.32 245.215C298.849 243.89 297.834 242.133 297.423 240.197C296.955 237.995 297.634 235.46 298.993 230.388L302.876 215.899Z" fill="white"/>
<path d="M277.924 211.933C280.46 212.613 281.729 212.953 282.565 213.706C283.3 214.368 283.807 215.246 284.013 216.215C284.247 217.315 283.907 218.583 283.227 221.119L281.286 228.363C280.607 230.899 280.267 232.167 279.514 233.003C278.852 233.739 277.974 234.246 277.006 234.452C275.905 234.686 274.636 234.346 272.101 233.667C269.565 232.987 268.297 232.648 267.461 231.895C266.725 231.232 266.219 230.354 266.013 229.386C265.779 228.285 266.118 227.017 266.797 224.481L267.479 221.936C267.703 221.102 267.815 220.684 268.135 220.489C268.455 220.294 268.897 220.39 269.779 220.581C270.779 220.798 271.49 220.862 272.142 220.724C273.111 220.518 273.988 220.01 274.651 219.275C275.404 218.438 275.744 217.171 276.424 214.635L277.005 212.466C277.112 212.066 277.524 211.826 277.924 211.933V211.933Z" fill="#4C4C4C"/>
<path d="M318.037 223.068C320.573 223.748 321.842 224.087 322.678 224.84C323.414 225.503 323.92 226.381 324.126 227.349C324.36 228.45 324.02 229.718 323.341 232.254L321.4 239.498C320.72 242.034 320.381 243.302 319.628 244.138C318.965 244.874 318.087 245.381 317.119 245.587C316.018 245.821 314.75 245.481 312.214 244.801C309.678 244.122 308.41 243.782 307.574 243.029C306.839 242.367 306.332 241.489 306.126 240.52C305.892 239.42 306.231 238.152 306.911 235.616L307.591 233.076C307.817 232.235 307.929 231.814 308.255 231.619C308.581 231.424 309.018 231.527 309.892 231.732C311.087 232.013 311.89 232.111 312.619 231.956C313.587 231.75 314.466 231.243 315.128 230.507C315.881 229.671 316.221 228.403 316.9 225.867L317.579 223.334C317.633 223.134 317.838 223.015 318.037 223.068V223.068Z" fill="#4C4C4C"/>
</g>
<g filter="url(#filter6_g_320_4598)">
<path d="M269.307 248.3C270.484 245.776 273.676 244.96 275.919 246.609L282.172 251.204C283.319 252.046 284.62 252.653 286.002 252.99L293.542 254.827C296.247 255.486 297.673 258.455 296.497 260.979V260.979C295.608 262.885 293.497 263.899 291.453 263.401L283.02 261.347C281.096 260.878 279.284 260.033 277.688 258.86L270.694 253.721C268.999 252.475 268.418 250.206 269.307 248.3V248.3Z" fill="white"/>
</g>
</g>
<defs>
<filter id="filter0_d_320_4598" x="10" y="120.512" width="360" height="360" filterUnits="userSpaceOnUse" color-interpolation-filters="sRGB">
<feFlood flood-opacity="0" result="BackgroundImageFix"/>
<feColorMatrix in="SourceAlpha" type="matrix" values="0 0 0 0 0 0 0 0 0 0 0 0 0 0 0 0 0 0 127 0" result="hardAlpha"/>
<feOffset/>
<feGaussianBlur stdDeviation="45"/>
<feComposite in2="hardAlpha" operator="out"/>
<feColorMatrix type="matrix" values="0 0 0 0 1 0 0 0 0 1 0 0 0 0 1 0 0 0 1 0"/>
<feBlend mode="normal" in2="BackgroundImageFix" result="effect1_dropShadow_320_4598"/>
<feBlend mode="normal" in="SourceGraphic" in2="effect1_dropShadow_320_4598" result="shape"/>
</filter>
<filter id="filter1_d_320_4598" x="199.469" y="115.45" width="194.926" height="201.28" filterUnits="userSpaceOnUse" color-interpolation-filters="sRGB">
<feFlood flood-opacity="0" result="BackgroundImageFix"/>
<feColorMatrix in="SourceAlpha" type="matrix" values="0 0 0 0 0 0 0 0 0 0 0 0 0 0 0 0 0 0 127 0" result="hardAlpha"/>
<feOffset/>
<feGaussianBlur stdDeviation="7.5"/>
<feComposite in2="hardAlpha" operator="out"/>
<feColorMatrix type="matrix" values="0 0 0 0 0 0 0 0 0 0 0 0 0 0 0 0 0 0 0.25 0"/>
<feBlend mode="normal" in2="BackgroundImageFix" result="effect1_dropShadow_320_4598"/>
<feBlend mode="normal" in="SourceGraphic" in2="effect1_dropShadow_320_4598" result="shape"/>
</filter>
<filter id="filter2_g_320_4598" x="212.969" y="128.95" width="167.926" height="174.28" filterUnits="userSpaceOnUse" color-interpolation-filters="sRGB">
<feFlood flood-opacity="0" result="BackgroundImageFix"/>
<feBlend mode="normal" in="SourceGraphic" in2="BackgroundImageFix" result="shape"/>
<feTurbulence type="fractalNoise" baseFrequency="0.066666677594184875 0.066666677594184875" numOctaves="3" seed="5149" />
<feDisplacementMap in="shape" scale="2.9999995231628418" xChannelSelector="R" yChannelSelector="G" result="displacedImage" width="100%" height="100%" />
<feMerge result="effect1_texture_320_4598">
<feMergeNode in="displacedImage"/>
</feMerge>
</filter>
<filter id="filter3_g_320_4598" x="220.969" y="136.951" width="151.926" height="144.433" filterUnits="userSpaceOnUse" color-interpolation-filters="sRGB">
<feFlood flood-opacity="0" result="BackgroundImageFix"/>
<feBlend mode="normal" in="SourceGraphic" in2="BackgroundImageFix" result="shape"/>
<feTurbulence type="fractalNoise" baseFrequency="0.066666670143604279 0.066666670143604279" numOctaves="3" seed="5149" />
<feDisplacementMap in="shape" scale="3" xChannelSelector="R" yChannelSelector="G" result="displacedImage" width="100%" height="100%" />
<feMerge result="effect1_texture_320_4598">
<feMergeNode in="displacedImage"/>
</feMerge>
</filter>
<filter id="filter4_ig_320_4598" x="232.922" y="180.211" width="115.023" height="115.021" filterUnits="userSpaceOnUse" color-interpolation-filters="sRGB">
<feFlood flood-opacity="0" result="BackgroundImageFix"/>
<feBlend mode="normal" in="SourceGraphic" in2="BackgroundImageFix" result="shape"/>
<feColorMatrix in="SourceAlpha" type="matrix" values="0 0 0 0 0 0 0 0 0 0 0 0 0 0 0 0 0 0 127 0" result="hardAlpha"/>
<feOffset dy="1.5"/>
<feGaussianBlur stdDeviation="3.75"/>
<feComposite in2="hardAlpha" operator="arithmetic" k2="-1" k3="1"/>
<feColorMatrix type="matrix" values="0 0 0 0 0.352941 0 0 0 0 0.47451 0 0 0 0 0.976471 0 0 0 1 0"/>
<feBlend mode="normal" in2="shape" result="effect1_innerShadow_320_4598"/>
<feTurbulence type="fractalNoise" baseFrequency="0.066666670143604279 0.066666670143604279" numOctaves="3" seed="5149" />
<feDisplacementMap in="effect1_innerShadow_320_4598" scale="3" xChannelSelector="R" yChannelSelector="G" result="displacedImage" width="100%" height="100%" />
<feMerge result="effect2_texture_320_4598">
<feMergeNode in="displacedImage"/>
</feMerge>
</filter>
<filter id="filter5_g_320_4598" x="254.484" y="191.01" width="80.5859" height="60.9668" filterUnits="userSpaceOnUse" color-interpolation-filters="sRGB">
<feFlood flood-opacity="0" result="BackgroundImageFix"/>
<feBlend mode="normal" in="SourceGraphic" in2="BackgroundImageFix" result="shape"/>
<feTurbulence type="fractalNoise" baseFrequency="0.066666670143604279 0.066666670143604279" numOctaves="3" seed="5149" />
<feDisplacementMap in="shape" scale="3" xChannelSelector="R" yChannelSelector="G" result="displacedImage" width="100%" height="100%" />
<feMerge result="effect1_texture_320_4598">
<feMergeNode in="displacedImage"/>
</feMerge>
</filter>
<filter id="filter6_g_320_4598" x="267.395" y="244.251" width="31.0195" height="20.7764" filterUnits="userSpaceOnUse" color-interpolation-filters="sRGB">
<feFlood flood-opacity="0" result="BackgroundImageFix"/>
<feBlend mode="normal" in="SourceGraphic" in2="BackgroundImageFix" result="shape"/>
<feTurbulence type="fractalNoise" baseFrequency="0.066666677594184875 0.066666677594184875" numOctaves="3" seed="5149" />
<feDisplacementMap in="shape" scale="2.9999995231628418" xChannelSelector="R" yChannelSelector="G" result="displacedImage" width="100%" height="100%" />
<feMerge result="effect1_texture_320_4598">
<feMergeNode in="displacedImage"/>
</feMerge>
</filter>
</defs>
</svg>
