<svg width="360" height="361" viewBox="0 0 360 361" fill="none" xmlns="http://www.w3.org/2000/svg">
<g filter="url(#filter0_d_305_2499)">
<rect x="99" y="99.5117" width="162" height="162" rx="50" fill="white"/>
<rect x="94.5" y="95.0117" width="171" height="171" rx="54.5" stroke="#5A79F9" stroke-width="9"/>
<path d="M187.4 209.512V161.56C187.4 160.48 187.427 159.427 187.481 158.401C187.535 157.375 187.697 156.43 187.967 155.566L189.182 157.996C188.75 157.834 188.21 157.699 187.562 157.591C186.914 157.429 186.212 157.348 185.456 157.348C181.73 157.348 178.787 158.482 176.627 160.75C174.467 162.964 172.55 166.582 170.876 171.604L164.882 189.748L162.776 186.832H203.924V193.636H157.916V187.48L163.586 170.632C164.666 167.5 165.8 164.692 166.988 162.208C168.23 159.724 169.688 157.618 171.362 155.89C173.036 154.162 175.007 152.839 177.275 151.921C179.597 151.003 182.324 150.544 185.456 150.544C187.508 150.544 189.398 150.652 191.126 150.868C192.854 151.084 194.312 151.408 195.5 151.84L195.662 152.812C195.5 153.892 195.392 155.242 195.338 156.862C195.284 158.482 195.23 160.102 195.176 161.722C195.176 163.342 195.176 164.692 195.176 165.772V209.512H187.4Z" fill="#5A79F9"/>
</g>
<defs>
<filter id="filter0_d_305_2499" x="0" y="0.511719" width="360" height="360" filterUnits="userSpaceOnUse" color-interpolation-filters="sRGB">
<feFlood flood-opacity="0" result="BackgroundImageFix"/>
<feColorMatrix in="SourceAlpha" type="matrix" values="0 0 0 0 0 0 0 0 0 0 0 0 0 0 0 0 0 0 127 0" result="hardAlpha"/>
<feOffset/>
<feGaussianBlur stdDeviation="45"/>
<feComposite in2="hardAlpha" operator="out"/>
<feColorMatrix type="matrix" values="0 0 0 0 1 0 0 0 0 1 0 0 0 0 1 0 0 0 1 0"/>
<feBlend mode="normal" in2="BackgroundImageFix" result="effect1_dropShadow_305_2499"/>
<feBlend mode="normal" in="SourceGraphic" in2="effect1_dropShadow_305_2499" result="shape"/>
</filter>
</defs>
</svg>
