<svg width="360" height="361" viewBox="0 0 360 361" fill="none" xmlns="http://www.w3.org/2000/svg">
<g filter="url(#filter0_d_305_2338)">
<rect x="99" y="99.5117" width="162" height="162" rx="50" fill="white"/>
<rect x="94.5" y="95.0117" width="171" height="171" rx="54.5" stroke="#5A79F9" stroke-width="9"/>
<path d="M177.356 208.54V164.476C177.356 163.612 177.383 162.586 177.437 161.398C177.491 160.21 177.545 159.184 177.599 158.32C177.707 157.402 177.788 157.024 177.842 157.186L180.758 157.672H162.128V152.164C162.884 151.894 164.072 151.651 165.692 151.435C167.366 151.165 169.202 150.949 171.2 150.787C173.252 150.625 175.196 150.544 177.032 150.544C178.976 150.544 180.677 150.652 182.135 150.868C183.593 151.03 184.754 151.246 185.618 151.516L185.78 152.488C185.564 153.46 185.402 154.756 185.294 156.376C185.24 157.996 185.186 159.643 185.132 161.317C185.132 162.991 185.132 164.368 185.132 165.448V208.54H177.356ZM160.832 209.512V202.708H199.712V209.512H160.832Z" fill="#5A79F9"/>
</g>
<defs>
<filter id="filter0_d_305_2338" x="0" y="0.511719" width="360" height="360" filterUnits="userSpaceOnUse" color-interpolation-filters="sRGB">
<feFlood flood-opacity="0" result="BackgroundImageFix"/>
<feColorMatrix in="SourceAlpha" type="matrix" values="0 0 0 0 0 0 0 0 0 0 0 0 0 0 0 0 0 0 127 0" result="hardAlpha"/>
<feOffset/>
<feGaussianBlur stdDeviation="45"/>
<feComposite in2="hardAlpha" operator="out"/>
<feColorMatrix type="matrix" values="0 0 0 0 1 0 0 0 0 1 0 0 0 0 1 0 0 0 1 0"/>
<feBlend mode="normal" in2="BackgroundImageFix" result="effect1_dropShadow_305_2338"/>
<feBlend mode="normal" in="SourceGraphic" in2="effect1_dropShadow_305_2338" result="shape"/>
</filter>
</defs>
</svg>
