<svg width="500" height="500" viewBox="0 0 500 500" fill="none" xmlns="http://www.w3.org/2000/svg">
<g opacity="0.5" filter="url(#filter0_d_320_4540)">
<rect x="169" y="169" width="162" height="162" rx="50" fill="white"/>
<rect x="164.5" y="164.5" width="171" height="171" rx="54.5" stroke="#5A79F9" stroke-width="9"/>
<path d="M257.4 279V231.048C257.4 229.968 257.427 228.915 257.481 227.889C257.535 226.863 257.697 225.918 257.967 225.054L259.182 227.484C258.75 227.322 258.21 227.187 257.562 227.079C256.914 226.917 256.212 226.836 255.456 226.836C251.73 226.836 248.787 227.97 246.627 230.238C244.467 232.452 242.55 236.07 240.876 241.092L234.882 259.236L232.776 256.32H273.924V263.124H227.916V256.968L233.586 240.12C234.666 236.988 235.8 234.18 236.988 231.696C238.23 229.212 239.688 227.106 241.362 225.378C243.036 223.65 245.007 222.327 247.275 221.409C249.597 220.491 252.324 220.032 255.456 220.032C257.508 220.032 259.398 220.14 261.126 220.356C262.854 220.572 264.312 220.896 265.5 221.328L265.662 222.3C265.5 223.38 265.392 224.73 265.338 226.35C265.284 227.97 265.23 229.59 265.176 231.21C265.176 232.83 265.176 234.18 265.176 235.26V279H257.4Z" fill="#5A79F9"/>
</g>
<defs>
<filter id="filter0_d_320_4540" x="70" y="70" width="360" height="360" filterUnits="userSpaceOnUse" color-interpolation-filters="sRGB">
<feFlood flood-opacity="0" result="BackgroundImageFix"/>
<feColorMatrix in="SourceAlpha" type="matrix" values="0 0 0 0 0 0 0 0 0 0 0 0 0 0 0 0 0 0 127 0" result="hardAlpha"/>
<feOffset/>
<feGaussianBlur stdDeviation="45"/>
<feComposite in2="hardAlpha" operator="out"/>
<feColorMatrix type="matrix" values="0 0 0 0 1 0 0 0 0 1 0 0 0 0 1 0 0 0 1 0"/>
<feBlend mode="normal" in2="BackgroundImageFix" result="effect1_dropShadow_320_4540"/>
<feBlend mode="normal" in="SourceGraphic" in2="effect1_dropShadow_320_4540" result="shape"/>
</filter>
</defs>
</svg>
