<svg width="500" height="500" viewBox="0 0 500 500" fill="none" xmlns="http://www.w3.org/2000/svg">
<g filter="url(#filter0_d_440_12420)">
<rect x="169" y="169" width="162" height="162" rx="50" fill="white"/>
<rect x="164.5" y="164.5" width="171" height="171" rx="54.5" stroke="#5A79F9" stroke-width="9"/>
<path d="M257.4 279V231.048C257.4 229.968 257.427 228.915 257.481 227.889C257.535 226.863 257.697 225.918 257.967 225.054L259.182 227.484C258.75 227.322 258.21 227.187 257.562 227.079C256.914 226.917 256.212 226.836 255.456 226.836C251.73 226.836 248.787 227.97 246.627 230.238C244.467 232.452 242.55 236.07 240.876 241.092L234.882 259.236L232.776 256.32H273.924V263.124H227.916V256.968L233.586 240.12C234.666 236.988 235.8 234.18 236.988 231.696C238.23 229.212 239.688 227.106 241.362 225.378C243.036 223.65 245.007 222.327 247.275 221.409C249.597 220.491 252.324 220.032 255.456 220.032C257.508 220.032 259.398 220.14 261.126 220.356C262.854 220.572 264.312 220.896 265.5 221.328L265.662 222.3C265.5 223.38 265.392 224.73 265.338 226.35C265.284 227.97 265.23 229.59 265.176 231.21C265.176 232.83 265.176 234.18 265.176 235.26V279H257.4Z" fill="#5A79F9"/>
</g>
<g filter="url(#filter1_d_440_12420)">
<g filter="url(#filter2_g_440_12420)">
<mask id="path-4-outside-1_440_12420" maskUnits="userSpaceOnUse" x="226.986" y="51.203" width="208.465" height="209.173" fill="black">
<rect fill="white" x="226.986" y="51.203" width="208.465" height="209.173"/>
<path d="M342.214 81.9997C347.732 78.8138 354.788 80.7046 357.974 86.2227L365.939 100.018C367.469 102.668 369.989 104.601 372.944 105.393L390.933 110.213C397.087 111.862 400.74 118.188 399.091 124.343L394.271 142.332C393.479 145.288 393.893 148.437 395.423 151.086L404.036 166.004C407.222 171.523 405.331 178.579 399.813 181.765L384.895 190.378C382.245 191.908 380.312 194.428 379.52 197.384L375.247 213.33C373.942 218.2 369.708 221.5 364.949 221.849C364.182 223.082 363.358 224.192 362.443 225.209C357.865 230.294 351.794 233.798 345.102 235.221C337.493 236.838 328.729 234.49 311.202 229.793C293.675 225.097 284.911 222.749 279.13 217.544C274.045 212.966 270.541 206.895 269.118 200.203C268.834 198.864 268.674 197.489 268.627 196.038C264.682 193.355 262.668 188.382 263.972 183.514L268.172 167.839C268.964 164.884 268.55 161.734 267.02 159.085L258.208 143.822C255.022 138.304 256.913 131.247 262.431 128.061L277.694 119.25C280.343 117.72 282.277 115.2 283.069 112.245L287.816 94.5271C289.465 88.3725 295.791 84.72 301.946 86.3691L319.665 91.1168C322.62 91.9086 325.769 91.494 328.419 89.9643L342.214 81.9997Z"/>
</mask>
<path d="M342.214 81.9997L338.214 75.0715L342.214 81.9997ZM365.939 100.018L359.011 104.018L359.011 104.018L365.939 100.018ZM394.271 142.332L386.543 140.262L386.543 140.262L394.271 142.332ZM395.423 151.086L388.495 155.086L388.495 155.086L395.423 151.086ZM399.813 181.765L403.813 188.693L399.813 181.765ZM384.895 190.378L380.895 183.45L380.895 183.45L384.895 190.378ZM364.949 221.849L364.363 213.871L360.306 214.169L358.157 217.623L364.949 221.849ZM362.443 225.209L368.388 230.562L368.388 230.562L362.443 225.209ZM345.102 235.221L346.765 243.046L346.765 243.046L345.102 235.221ZM311.202 229.793L309.131 237.521L311.202 229.793ZM279.13 217.544L273.777 223.489L273.777 223.489L279.13 217.544ZM269.118 200.203L261.293 201.866L261.293 201.866L269.118 200.203ZM268.627 196.038L276.622 195.774L276.488 191.711L273.127 189.424L268.627 196.038ZM263.972 183.514L256.245 181.443L263.972 183.514ZM268.172 167.839L275.899 169.91L268.172 167.839ZM267.02 159.085L273.948 155.085L273.948 155.085L267.02 159.085ZM258.208 143.822L251.28 147.822L258.208 143.822ZM262.431 128.061L258.431 121.133L262.431 128.061ZM277.694 119.25L281.694 126.178L281.694 126.178L277.694 119.25ZM283.069 112.245L290.796 114.316L290.796 114.315L283.069 112.245ZM287.816 94.5271L280.089 92.4565L287.816 94.5271ZM319.665 91.1168L317.594 98.8442L317.594 98.8443L319.665 91.1168ZM328.419 89.9643L332.418 96.8926L332.419 96.8925L328.419 89.9643ZM342.214 81.9997L346.214 88.9279C347.905 87.9511 350.069 88.5309 351.046 90.2227L357.974 86.2227L364.902 82.2227C359.507 72.8783 347.558 69.6765 338.214 75.0715L342.214 81.9997ZM357.974 86.2227L351.046 90.2227L359.011 104.018L365.939 100.018L372.867 96.0178L364.902 82.2227L357.974 86.2227ZM365.939 100.018L359.011 104.018C361.602 108.505 365.869 111.78 370.874 113.12L372.944 105.393L375.015 97.6656C374.108 97.4227 373.336 96.8296 372.867 96.0177L365.939 100.018ZM372.944 105.393L370.874 113.12L388.862 117.94L390.933 110.213L393.003 102.486L375.015 97.6656L372.944 105.393ZM390.933 110.213L388.862 117.94C390.749 118.446 391.869 120.386 391.363 122.273L399.091 124.343L406.818 126.414C409.611 115.991 403.426 105.278 393.003 102.486L390.933 110.213ZM399.091 124.343L391.363 122.273L386.543 140.262L394.271 142.332L401.998 144.403L406.818 126.414L399.091 124.343ZM394.271 142.332L386.543 140.262C385.202 145.267 385.904 150.599 388.495 155.086L395.423 151.086L402.351 147.087C401.882 146.274 401.755 145.309 401.998 144.403L394.271 142.332ZM395.423 151.086L388.495 155.086L397.108 170.004L404.036 166.004L410.964 162.004L402.351 147.086L395.423 151.086ZM404.036 166.004L397.108 170.004C398.085 171.696 397.505 173.86 395.813 174.837L399.813 181.765L403.813 188.693C413.158 183.298 416.359 171.349 410.964 162.004L404.036 166.004ZM399.813 181.765L395.813 174.837L380.895 183.45L384.895 190.378L388.895 197.306L403.813 188.693L399.813 181.765ZM384.895 190.378L380.895 183.45C376.407 186.041 373.133 190.309 371.792 195.313L379.52 197.384L387.247 199.454C387.49 198.548 388.083 197.775 388.895 197.306L384.895 190.378ZM379.52 197.384L371.792 195.313L367.519 211.259L375.247 213.33L382.974 215.4L387.247 199.454L379.52 197.384ZM375.247 213.33L367.519 211.259C367.124 212.736 365.837 213.763 364.363 213.871L364.949 221.849L365.535 229.828C373.58 229.237 380.76 223.663 382.974 215.4L375.247 213.33ZM364.949 221.849L358.157 217.623C357.611 218.499 357.065 219.226 356.498 219.856L362.443 225.209L368.388 230.562C369.651 229.159 370.753 227.664 371.741 226.076L364.949 221.849ZM362.443 225.209L356.498 219.856C353.05 223.685 348.479 226.324 343.438 227.396L345.102 235.221L346.765 243.046C355.11 241.272 362.68 236.902 368.388 230.562L362.443 225.209ZM345.102 235.221L343.438 227.396C341.079 227.897 338.151 227.887 333.306 227.004C328.369 226.105 322.164 224.448 313.273 222.066L311.202 229.793L309.131 237.521C317.768 239.835 324.708 241.701 330.437 242.745C336.258 243.806 341.516 244.162 346.765 243.046L345.102 235.221ZM311.202 229.793L313.273 222.066C304.381 219.684 298.179 218.015 293.454 216.326C288.817 214.669 286.276 213.213 284.483 211.599L279.13 217.544L273.777 223.489C277.765 227.08 282.496 229.401 288.068 231.392C293.552 233.353 300.495 235.207 309.131 237.521L311.202 229.793ZM279.13 217.544L284.483 211.599C280.654 208.151 278.015 203.579 276.943 198.539L269.118 200.203L261.293 201.866C263.067 210.211 267.437 217.78 273.777 223.489L279.13 217.544ZM269.118 200.203L276.943 198.539C276.766 197.705 276.656 196.802 276.622 195.774L268.627 196.038L260.631 196.302C260.693 198.177 260.901 200.023 261.293 201.866L269.118 200.203ZM268.627 196.038L273.127 189.424C271.905 188.592 271.304 187.061 271.699 185.584L263.972 183.514L256.245 181.443C254.031 189.704 257.46 198.117 264.126 202.652L268.627 196.038ZM263.972 183.514L271.699 185.584L275.899 169.91L268.172 167.839L260.445 165.769L256.245 181.443L263.972 183.514ZM268.172 167.839L275.899 169.91C277.24 164.905 276.539 159.572 273.948 155.085L267.02 159.085L260.092 163.084C260.56 163.896 260.688 164.862 260.445 165.769L268.172 167.839ZM267.02 159.085L273.948 155.085L265.136 139.822L258.208 143.822L251.28 147.822L260.092 163.085L267.02 159.085ZM258.208 143.822L265.136 139.822C264.159 138.13 264.739 135.966 266.431 134.99L262.431 128.061L258.431 121.133C249.086 126.528 245.885 138.478 251.28 147.822L258.208 143.822ZM262.431 128.061L266.431 134.99L281.694 126.178L277.694 119.25L273.694 112.321L258.431 121.133L262.431 128.061ZM277.694 119.25L281.694 126.178C286.181 123.587 289.455 119.32 290.796 114.316L283.069 112.245L275.341 110.174C275.098 111.08 274.506 111.852 273.693 112.321L277.694 119.25ZM283.069 112.245L290.796 114.315L295.543 96.5976L287.816 94.5271L280.089 92.4565L275.341 110.174L283.069 112.245ZM287.816 94.5271L295.543 96.5976C296.049 94.7107 297.989 93.5909 299.875 94.0965L301.946 86.3691L304.017 78.6417C293.594 75.849 282.881 82.0342 280.089 92.4565L287.816 94.5271ZM301.946 86.3691L299.875 94.0965L317.594 98.8442L319.665 91.1168L321.735 83.3894L304.017 78.6417L301.946 86.3691ZM319.665 91.1168L317.594 98.8443C322.599 100.185 327.931 99.483 332.418 96.8926L328.419 89.9643L324.419 83.036C323.606 83.505 322.641 83.6321 321.735 83.3893L319.665 91.1168ZM328.419 89.9643L332.419 96.8925L346.214 88.9279L342.214 81.9997L338.214 75.0715L324.419 83.0361L328.419 89.9643Z" fill="white" mask="url(#path-4-outside-1_440_12420)"/>
</g>
<g filter="url(#filter3_g_440_12420)">
<path d="M365.938 100.018C367.468 102.668 369.988 104.601 372.943 105.393L390.933 110.213C397.088 111.863 400.74 118.189 399.091 124.343L394.271 142.332C393.479 145.288 393.894 148.437 395.423 151.087L404.037 166.005C407.222 171.523 405.332 178.579 399.814 181.765L384.895 190.378C382.246 191.908 380.312 194.428 379.52 197.384L375.247 213.33C373.598 219.485 367.272 223.137 361.117 221.488L272.13 197.644C265.976 195.995 262.323 189.669 263.972 183.514L268.172 167.839C268.964 164.884 268.55 161.735 267.02 159.085L258.208 143.822C255.022 138.304 256.913 131.248 262.431 128.062L277.694 119.25C280.343 117.72 282.277 115.2 283.069 112.245L287.816 94.5273C289.465 88.3727 295.792 84.7203 301.946 86.3695L319.664 91.1168C322.619 91.9088 325.768 91.4942 328.418 89.9643L342.213 81.9996C347.731 78.8137 354.787 80.7043 357.973 86.2224L365.938 100.018Z" fill="#5A79F9"/>
</g>
<g filter="url(#filter4_ig_440_12420)">
<rect x="287.966" y="116.231" width="103.68" height="103.68" rx="32.4" transform="rotate(15 287.966 116.231)" fill="#FFC6B7"/>
</g>
<g filter="url(#filter5_g_440_12420)">
<path d="M295.772 146.835C297.131 141.763 297.81 139.227 299.316 137.555C300.641 136.083 302.398 135.069 304.334 134.658C306.536 134.19 309.072 134.869 314.143 136.228C319.215 137.587 321.751 138.266 323.423 139.772C324.894 141.097 325.909 142.854 326.32 144.79C326.788 146.992 326.109 149.528 324.75 154.599L320.868 169.088C319.509 174.16 318.829 176.695 317.323 178.368C315.998 179.839 314.242 180.853 312.305 181.265C310.104 181.733 307.568 181.054 302.496 179.695C297.425 178.336 294.889 177.656 293.216 176.15C291.745 174.825 290.731 173.069 290.319 171.132C289.851 168.931 290.531 166.395 291.89 161.323L295.772 146.835Z" fill="white"/>
<path d="M337.065 157.9C338.424 152.828 339.103 150.293 340.609 148.62C341.934 147.149 343.691 146.135 345.627 145.723C347.829 145.255 350.365 145.934 355.436 147.293V147.293C360.508 148.652 363.044 149.332 364.716 150.838C366.187 152.163 367.202 153.919 367.613 155.856C368.081 158.057 367.402 160.593 366.043 165.665L362.16 180.153C360.802 185.225 360.122 187.761 358.616 189.433C357.291 190.905 355.535 191.919 353.598 192.331C351.397 192.798 348.861 192.119 343.789 190.76V190.76C338.718 189.401 336.182 188.722 334.509 187.216C333.038 185.891 332.024 184.134 331.612 182.198C331.144 179.996 331.824 177.46 333.183 172.389L337.065 157.9Z" fill="white"/>
<path d="M305.122 154.751C304.443 157.286 304.103 158.554 304.337 159.655C304.543 160.623 305.05 161.502 305.785 162.164C306.622 162.917 307.89 163.257 310.425 163.936V163.936C310.886 164.06 311.116 164.122 311.272 164.248C311.452 164.394 311.57 164.598 311.607 164.828C311.638 165.025 311.577 165.253 311.455 165.71L310.475 169.364C309.796 171.9 309.456 173.168 308.703 174.005C308.041 174.74 307.162 175.247 306.194 175.453C305.093 175.687 303.826 175.347 301.29 174.667C298.754 173.988 297.486 173.648 296.65 172.895C295.914 172.233 295.407 171.355 295.201 170.387C294.967 169.286 295.307 168.017 295.987 165.482L297.928 158.237C298.607 155.702 298.947 154.434 299.7 153.597C300.362 152.862 301.241 152.355 302.209 152.149C302.695 152.046 303.213 152.055 303.859 152.156C304.7 152.288 305.121 152.354 305.349 152.704C305.577 153.054 305.457 153.501 305.218 154.395L305.122 154.751Z" fill="#4C4C4C"/>
<path d="M345.601 165.986C344.921 168.522 344.581 169.79 344.815 170.89C345.021 171.858 345.529 172.736 346.264 173.399C347.101 174.152 348.368 174.492 350.904 175.172V175.172C351.025 175.204 351.086 175.22 351.134 175.239C351.544 175.399 351.787 175.819 351.72 176.254C351.712 176.305 351.697 176.364 351.665 176.482L350.589 180.496C349.91 183.032 349.57 184.3 348.817 185.136C348.155 185.872 347.276 186.379 346.308 186.585C345.207 186.819 343.939 186.479 341.404 185.8C338.868 185.12 337.6 184.78 336.764 184.028C336.028 183.365 335.521 182.486 335.315 181.518C335.081 180.417 335.421 179.15 336.1 176.614L338.042 169.37C338.721 166.834 339.061 165.566 339.814 164.73C340.476 163.994 341.355 163.487 342.323 163.281C342.901 163.158 343.525 163.195 344.356 163.356C345.2 163.519 345.622 163.601 345.838 163.947C346.054 164.292 345.936 164.733 345.701 165.613L345.601 165.986Z" fill="#4C4C4C"/>
</g>
<g filter="url(#filter6_g_440_12420)">
<path d="M303.496 190.301C304.673 187.777 307.864 186.961 310.108 188.61L316.361 193.205C317.507 194.047 318.809 194.654 320.191 194.991L327.73 196.828C330.436 197.487 331.862 200.456 330.685 202.98V202.98C329.796 204.886 327.685 205.9 325.641 205.402L317.208 203.348C315.284 202.879 313.472 202.034 311.876 200.861L304.882 195.722C303.187 194.476 302.607 192.207 303.496 190.301V190.301Z" fill="white"/>
</g>
</g>
<defs>
<filter id="filter0_d_440_12420" x="70" y="70" width="360" height="360" filterUnits="userSpaceOnUse" color-interpolation-filters="sRGB">
<feFlood flood-opacity="0" result="BackgroundImageFix"/>
<feColorMatrix in="SourceAlpha" type="matrix" values="0 0 0 0 0 0 0 0 0 0 0 0 0 0 0 0 0 0 127 0" result="hardAlpha"/>
<feOffset/>
<feGaussianBlur stdDeviation="45"/>
<feComposite in2="hardAlpha" operator="out"/>
<feColorMatrix type="matrix" values="0 0 0 0 1 0 0 0 0 1 0 0 0 0 1 0 0 0 1 0"/>
<feBlend mode="normal" in2="BackgroundImageFix" result="effect1_dropShadow_440_12420"/>
<feBlend mode="normal" in="SourceGraphic" in2="effect1_dropShadow_440_12420" result="shape"/>
</filter>
<filter id="filter1_d_440_12420" x="233.659" y="57.4512" width="194.926" height="201.279" filterUnits="userSpaceOnUse" color-interpolation-filters="sRGB">
<feFlood flood-opacity="0" result="BackgroundImageFix"/>
<feColorMatrix in="SourceAlpha" type="matrix" values="0 0 0 0 0 0 0 0 0 0 0 0 0 0 0 0 0 0 127 0" result="hardAlpha"/>
<feOffset/>
<feGaussianBlur stdDeviation="7.5"/>
<feComposite in2="hardAlpha" operator="out"/>
<feColorMatrix type="matrix" values="0 0 0 0 0 0 0 0 0 0 0 0 0 0 0 0 0 0 0.25 0"/>
<feBlend mode="normal" in2="BackgroundImageFix" result="effect1_dropShadow_440_12420"/>
<feBlend mode="normal" in="SourceGraphic" in2="effect1_dropShadow_440_12420" result="shape"/>
</filter>
<filter id="filter2_g_440_12420" x="247.159" y="70.9512" width="167.926" height="174.279" filterUnits="userSpaceOnUse" color-interpolation-filters="sRGB">
<feFlood flood-opacity="0" result="BackgroundImageFix"/>
<feBlend mode="normal" in="SourceGraphic" in2="BackgroundImageFix" result="shape"/>
<feTurbulence type="fractalNoise" baseFrequency="0.066666677594184875 0.066666677594184875" numOctaves="3" seed="5149" />
<feDisplacementMap in="shape" scale="2.9999995231628418" xChannelSelector="R" yChannelSelector="G" result="displacedImage" width="100%" height="100%" />
<feMerge result="effect1_texture_440_12420">
<feMergeNode in="displacedImage"/>
</feMerge>
</filter>
<filter id="filter3_g_440_12420" x="255.16" y="78.9521" width="151.924" height="144.433" filterUnits="userSpaceOnUse" color-interpolation-filters="sRGB">
<feFlood flood-opacity="0" result="BackgroundImageFix"/>
<feBlend mode="normal" in="SourceGraphic" in2="BackgroundImageFix" result="shape"/>
<feTurbulence type="fractalNoise" baseFrequency="0.066666670143604279 0.066666670143604279" numOctaves="3" seed="5149" />
<feDisplacementMap in="shape" scale="3" xChannelSelector="R" yChannelSelector="G" result="displacedImage" width="100%" height="100%" />
<feMerge result="effect1_texture_440_12420">
<feMergeNode in="displacedImage"/>
</feMerge>
</filter>
<filter id="filter4_ig_440_12420" x="267.112" y="122.212" width="115.021" height="115.021" filterUnits="userSpaceOnUse" color-interpolation-filters="sRGB">
<feFlood flood-opacity="0" result="BackgroundImageFix"/>
<feBlend mode="normal" in="SourceGraphic" in2="BackgroundImageFix" result="shape"/>
<feColorMatrix in="SourceAlpha" type="matrix" values="0 0 0 0 0 0 0 0 0 0 0 0 0 0 0 0 0 0 127 0" result="hardAlpha"/>
<feOffset dy="1.5"/>
<feGaussianBlur stdDeviation="3.75"/>
<feComposite in2="hardAlpha" operator="arithmetic" k2="-1" k3="1"/>
<feColorMatrix type="matrix" values="0 0 0 0 0.352941 0 0 0 0 0.47451 0 0 0 0 0.976471 0 0 0 1 0"/>
<feBlend mode="normal" in2="shape" result="effect1_innerShadow_440_12420"/>
<feTurbulence type="fractalNoise" baseFrequency="0.066666670143604279 0.066666670143604279" numOctaves="3" seed="5149" />
<feDisplacementMap in="effect1_innerShadow_440_12420" scale="3" xChannelSelector="R" yChannelSelector="G" result="displacedImage" width="100%" height="100%" />
<feMerge result="effect2_texture_440_12420">
<feMergeNode in="displacedImage"/>
</feMerge>
</filter>
<filter id="filter5_g_440_12420" x="288.672" y="133.01" width="80.5889" height="60.9678" filterUnits="userSpaceOnUse" color-interpolation-filters="sRGB">
<feFlood flood-opacity="0" result="BackgroundImageFix"/>
<feBlend mode="normal" in="SourceGraphic" in2="BackgroundImageFix" result="shape"/>
<feTurbulence type="fractalNoise" baseFrequency="0.066666670143604279 0.066666670143604279" numOctaves="3" seed="5149" />
<feDisplacementMap in="shape" scale="3" xChannelSelector="R" yChannelSelector="G" result="displacedImage" width="100%" height="100%" />
<feMerge result="effect1_texture_440_12420">
<feMergeNode in="displacedImage"/>
</feMerge>
</filter>
<filter id="filter6_g_440_12420" x="301.582" y="186.252" width="31.0186" height="20.7764" filterUnits="userSpaceOnUse" color-interpolation-filters="sRGB">
<feFlood flood-opacity="0" result="BackgroundImageFix"/>
<feBlend mode="normal" in="SourceGraphic" in2="BackgroundImageFix" result="shape"/>
<feTurbulence type="fractalNoise" baseFrequency="0.066666677594184875 0.066666677594184875" numOctaves="3" seed="5149" />
<feDisplacementMap in="shape" scale="2.9999995231628418" xChannelSelector="R" yChannelSelector="G" result="displacedImage" width="100%" height="100%" />
<feMerge result="effect1_texture_440_12420">
<feMergeNode in="displacedImage"/>
</feMerge>
</filter>
</defs>
</svg>
