<svg width="500" height="500" viewBox="0 0 500 500" fill="none" xmlns="http://www.w3.org/2000/svg">
<g opacity="0.5" filter="url(#filter0_d_320_4595)">
<rect x="169" y="169" width="162" height="162" rx="50" fill="white"/>
<rect x="164.5" y="164.5" width="171" height="171" rx="54.5" stroke="#5A79F9" stroke-width="9"/>
<path d="M230.184 269.118H230.832C232.29 269.982 234.342 270.873 236.988 271.791C239.634 272.709 242.658 273.168 246.06 273.168C250.056 273.168 253.161 272.574 255.375 271.386C257.589 270.198 259.128 268.686 259.992 266.85C260.856 265.014 261.288 263.124 261.288 261.18C261.288 257.616 260.154 254.889 257.886 252.999C255.618 251.109 252.216 250.164 247.68 250.164C244.224 250.164 241.335 250.461 239.013 251.055C236.745 251.649 234.882 252.108 233.424 252.432L232.776 252.108V235.908C232.776 234.828 232.749 233.397 232.695 231.615C232.695 229.833 232.641 228.078 232.533 226.35C232.479 224.622 232.344 223.272 232.128 222.3L232.29 221.652C233.532 221.328 235.071 221.085 236.907 220.923C238.743 220.761 241.038 220.68 243.792 220.68H266.472V227.484H236.988L239.985 225.702C240.039 226.458 240.093 227.349 240.147 228.375C240.201 229.401 240.228 230.4 240.228 231.372V247.491L238.365 244.737C239.769 244.467 241.308 244.224 242.982 244.008C244.71 243.792 246.384 243.684 248.004 243.684C255.132 243.684 260.424 245.223 263.88 248.301C267.336 251.379 269.064 255.672 269.064 261.18C269.064 264.96 268.119 268.254 266.229 271.062C264.393 273.87 261.747 276.057 258.291 277.623C254.889 279.189 250.812 279.972 246.06 279.972C242.82 279.972 239.796 279.675 236.988 279.081C234.234 278.487 231.966 277.704 230.184 276.732V269.118Z" fill="#5A79F9"/>
</g>
<defs>
<filter id="filter0_d_320_4595" x="70" y="70" width="360" height="360" filterUnits="userSpaceOnUse" color-interpolation-filters="sRGB">
<feFlood flood-opacity="0" result="BackgroundImageFix"/>
<feColorMatrix in="SourceAlpha" type="matrix" values="0 0 0 0 0 0 0 0 0 0 0 0 0 0 0 0 0 0 127 0" result="hardAlpha"/>
<feOffset/>
<feGaussianBlur stdDeviation="45"/>
<feComposite in2="hardAlpha" operator="out"/>
<feColorMatrix type="matrix" values="0 0 0 0 1 0 0 0 0 1 0 0 0 0 1 0 0 0 1 0"/>
<feBlend mode="normal" in2="BackgroundImageFix" result="effect1_dropShadow_320_4595"/>
<feBlend mode="normal" in="SourceGraphic" in2="effect1_dropShadow_320_4595" result="shape"/>
</filter>
</defs>
</svg>
