<svg width="361" height="361" viewBox="0 0 361 361" fill="none" xmlns="http://www.w3.org/2000/svg">
<g filter="url(#filter0_d_305_2442)">
<rect x="99.8438" y="99.5117" width="162" height="162" rx="50" fill="url(#paint0_linear_305_2442)"/>
<rect x="95.3438" y="95.0117" width="171" height="171" rx="54.5" stroke="white" stroke-width="9"/>
<path d="M162 209.512C161.514 208.54 161.163 207.244 160.947 205.624C160.785 204.004 160.704 202.708 160.704 201.736C160.704 198.712 161.19 195.958 162.162 193.474C163.188 190.936 164.862 188.749 167.184 186.913C169.56 185.023 172.773 183.592 176.823 182.62L180.792 181.648C184.356 180.73 187.029 179.272 188.811 177.274C190.593 175.276 191.484 172.414 191.484 168.688C191.484 164.962 190.215 162.1 187.677 160.102C185.139 158.05 181.44 157.024 176.58 157.024C174.744 157.024 173.043 157.159 171.477 157.429C169.911 157.699 168.453 158.05 167.103 158.482C165.753 158.914 164.484 159.4 163.296 159.94H162.648V152.812C164.268 152.164 166.32 151.57 168.804 151.03C171.288 150.49 173.988 150.22 176.904 150.22C182.088 150.22 186.3 151.057 189.54 152.731C192.78 154.351 195.156 156.565 196.668 159.373C198.18 162.127 198.936 165.232 198.936 168.688C198.936 174.196 197.451 178.543 194.481 181.729C191.565 184.861 187.866 186.994 183.384 188.128L179.496 189.1C175.23 190.126 172.206 191.638 170.424 193.636C168.696 195.634 167.832 198.01 167.832 200.764C167.832 201.628 167.913 202.276 168.075 202.708C168.237 203.14 168.48 203.653 168.804 204.247L164.997 202.708H200.556V209.512H162Z" fill="white"/>
</g>
<defs>
<filter id="filter0_d_305_2442" x="0.84375" y="0.511719" width="360" height="360" filterUnits="userSpaceOnUse" color-interpolation-filters="sRGB">
<feFlood flood-opacity="0" result="BackgroundImageFix"/>
<feColorMatrix in="SourceAlpha" type="matrix" values="0 0 0 0 0 0 0 0 0 0 0 0 0 0 0 0 0 0 127 0" result="hardAlpha"/>
<feOffset/>
<feGaussianBlur stdDeviation="45"/>
<feComposite in2="hardAlpha" operator="out"/>
<feColorMatrix type="matrix" values="0 0 0 0 0.351909 0 0 0 0 0.475644 0 0 0 0 0.975962 0 0 0 1 0"/>
<feBlend mode="normal" in2="BackgroundImageFix" result="effect1_dropShadow_305_2442"/>
<feBlend mode="normal" in="SourceGraphic" in2="effect1_dropShadow_305_2442" result="shape"/>
</filter>
<linearGradient id="paint0_linear_305_2442" x1="99.8438" y1="180.512" x2="261.844" y2="180.512" gradientUnits="userSpaceOnUse">
<stop stop-color="#F67F1E"/>
<stop offset="1" stop-color="#EBC333"/>
</linearGradient>
</defs>
</svg>
