<svg width="500" height="500" viewBox="0 0 500 500" fill="none" xmlns="http://www.w3.org/2000/svg">
<g opacity="0.5" filter="url(#filter0_d_320_4650)">
<rect x="169" y="169" width="162" height="162" rx="50" fill="white"/>
<rect x="164.5" y="164.5" width="171" height="171" rx="54.5" stroke="#5A79F9" stroke-width="9"/>
<path d="M250.596 279.972C246.816 279.972 243.576 279.297 240.876 277.947C238.176 276.543 235.989 274.545 234.315 271.953C232.695 269.361 231.48 266.283 230.67 262.719C229.914 259.155 229.536 255.186 229.536 250.812C229.536 246.006 230.103 241.713 231.237 237.933C232.371 234.099 234.045 230.832 236.259 228.132C238.527 225.378 241.335 223.299 244.683 221.895C248.085 220.437 252 219.708 256.428 219.708C258.696 219.708 260.613 219.87 262.179 220.194C263.745 220.464 265.176 220.842 266.472 221.328V228.456H265.824C264.69 227.97 263.394 227.538 261.936 227.16C260.478 226.728 258.534 226.512 256.104 226.512C252.864 226.512 250.056 227.052 247.68 228.132C245.304 229.158 243.36 230.724 241.848 232.83C240.336 234.882 239.202 237.393 238.446 240.363C237.69 243.279 237.312 246.654 237.312 250.488C237.312 255.564 237.717 259.803 238.527 263.205C239.391 266.607 240.795 269.172 242.739 270.9C244.737 272.628 247.464 273.492 250.92 273.492C253.836 273.492 256.185 272.898 257.967 271.71C259.803 270.468 261.126 268.848 261.936 266.85C262.8 264.798 263.232 262.584 263.232 260.208C263.232 256.32 262.179 253.242 260.073 250.974C258.021 248.706 254.97 247.572 250.92 247.572C247.356 247.572 244.413 248.301 242.091 249.759C239.823 251.163 237.906 252.918 236.34 255.024H233.424V247.41H236.664C237.96 245.844 239.823 244.413 242.253 243.117C244.683 241.767 248.004 241.092 252.216 241.092C255.78 241.092 258.939 241.821 261.693 243.279C264.501 244.683 266.688 246.816 268.254 249.678C269.874 252.486 270.684 255.996 270.684 260.208C270.684 263.88 269.901 267.228 268.335 270.252C266.823 273.222 264.555 275.598 261.531 277.38C258.561 279.108 254.916 279.972 250.596 279.972Z" fill="#5A79F9"/>
</g>
<defs>
<filter id="filter0_d_320_4650" x="70" y="70" width="360" height="360" filterUnits="userSpaceOnUse" color-interpolation-filters="sRGB">
<feFlood flood-opacity="0" result="BackgroundImageFix"/>
<feColorMatrix in="SourceAlpha" type="matrix" values="0 0 0 0 0 0 0 0 0 0 0 0 0 0 0 0 0 0 127 0" result="hardAlpha"/>
<feOffset/>
<feGaussianBlur stdDeviation="45"/>
<feComposite in2="hardAlpha" operator="out"/>
<feColorMatrix type="matrix" values="0 0 0 0 1 0 0 0 0 1 0 0 0 0 1 0 0 0 1 0"/>
<feBlend mode="normal" in2="BackgroundImageFix" result="effect1_dropShadow_320_4650"/>
<feBlend mode="normal" in="SourceGraphic" in2="effect1_dropShadow_320_4650" result="shape"/>
</filter>
</defs>
</svg>
