<svg width="500" height="500" viewBox="0 0 500 500" fill="none" xmlns="http://www.w3.org/2000/svg">
<g filter="url(#filter0_d_440_12279)">
<rect x="169" y="169" width="162" height="162" rx="50" fill="white"/>
<rect x="164.5" y="164.5" width="171" height="171" rx="54.5" stroke="#5A79F9" stroke-width="9"/>
<path d="M231.156 279C230.67 278.028 230.319 276.732 230.103 275.112C229.941 273.492 229.86 272.196 229.86 271.224C229.86 268.2 230.346 265.446 231.318 262.962C232.344 260.424 234.018 258.237 236.34 256.401C238.716 254.511 241.929 253.08 245.979 252.108L249.948 251.136C253.512 250.218 256.185 248.76 257.967 246.762C259.749 244.764 260.64 241.902 260.64 238.176C260.64 234.45 259.371 231.588 256.833 229.59C254.295 227.538 250.596 226.512 245.736 226.512C243.9 226.512 242.199 226.647 240.633 226.917C239.067 227.187 237.609 227.538 236.259 227.97C234.909 228.402 233.64 228.888 232.452 229.428H231.804V222.3C233.424 221.652 235.476 221.058 237.96 220.518C240.444 219.978 243.144 219.708 246.06 219.708C251.244 219.708 255.456 220.545 258.696 222.219C261.936 223.839 264.312 226.053 265.824 228.861C267.336 231.615 268.092 234.72 268.092 238.176C268.092 243.684 266.607 248.031 263.637 251.217C260.721 254.349 257.022 256.482 252.54 257.616L248.652 258.588C244.386 259.614 241.362 261.126 239.58 263.124C237.852 265.122 236.988 267.498 236.988 270.252C236.988 271.116 237.069 271.764 237.231 272.196C237.393 272.628 237.636 273.141 237.96 273.735L234.153 272.196H269.712V279H231.156Z" fill="#5A79F9"/>
</g>
<g filter="url(#filter1_d_440_12279)">
<g filter="url(#filter2_g_440_12279)">
<mask id="path-4-outside-1_440_12279" maskUnits="userSpaceOnUse" x="226.986" y="51.202" width="208.465" height="209.173" fill="black">
<rect fill="white" x="226.986" y="51.202" width="208.465" height="209.173"/>
<path d="M342.215 81.9987C347.732 78.8132 354.788 80.7037 357.974 86.2214L365.939 100.018C367.469 102.668 369.989 104.602 372.945 105.394L390.933 110.214C397.087 111.863 400.739 118.188 399.091 124.343L394.271 142.331C393.479 145.287 393.894 148.436 395.424 151.086L404.037 166.006C407.223 171.524 405.332 178.579 399.815 181.765L384.895 190.379C382.246 191.909 380.311 194.429 379.519 197.384L375.247 213.33C373.942 218.199 369.709 221.499 364.949 221.849C364.183 223.082 363.358 224.192 362.443 225.209C357.865 230.293 351.794 233.798 345.101 235.221C337.493 236.838 328.729 234.49 311.202 229.793C293.675 225.097 284.91 222.748 279.13 217.544C274.045 212.965 270.54 206.895 269.118 200.202C268.833 198.864 268.674 197.489 268.626 196.038C264.683 193.354 262.668 188.382 263.973 183.514L268.172 167.84C268.964 164.885 268.55 161.735 267.02 159.085L258.208 143.822C255.022 138.304 256.912 131.248 262.43 128.062L277.694 119.25C280.344 117.72 282.278 115.199 283.069 112.244L287.817 94.527C289.466 88.3728 295.792 84.7211 301.946 86.37L319.663 91.1172C322.619 91.9091 325.768 91.4939 328.418 89.964L342.215 81.9987Z"/>
</mask>
<path d="M342.215 81.9987L338.215 75.0704L338.215 75.0705L342.215 81.9987ZM357.974 86.2214L364.902 82.2214L364.902 82.2213L357.974 86.2214ZM365.939 100.018L359.011 104.018L365.939 100.018ZM372.945 105.394L370.874 113.121L372.945 105.394ZM390.933 110.214L393.004 102.487L393.004 102.487L390.933 110.214ZM399.091 124.343L406.818 126.413L406.818 126.413L399.091 124.343ZM395.424 151.086L402.352 147.086L395.424 151.086ZM404.037 166.006L410.966 162.006L410.966 162.006L404.037 166.006ZM399.815 181.765L403.815 188.693L403.815 188.693L399.815 181.765ZM384.895 190.379L380.895 183.451L384.895 190.379ZM379.519 197.384L371.792 195.314L371.792 195.314L379.519 197.384ZM375.247 213.33L382.974 215.4L382.974 215.4L375.247 213.33ZM364.949 221.849L364.363 213.871L360.306 214.169L358.157 217.623L364.949 221.849ZM362.443 225.209L368.388 230.562L368.388 230.562L362.443 225.209ZM345.101 235.221L346.765 243.046L346.765 243.046L345.101 235.221ZM311.202 229.793L309.131 237.521L311.202 229.793ZM279.13 217.544L273.777 223.489L273.777 223.489L279.13 217.544ZM269.118 200.202L261.293 201.866L261.293 201.866L269.118 200.202ZM268.626 196.038L276.622 195.774L276.488 191.711L273.127 189.424L268.626 196.038ZM263.973 183.514L256.245 181.443L256.245 181.444L263.973 183.514ZM268.172 167.84L275.9 169.911L275.9 169.911L268.172 167.84ZM267.02 159.085L260.092 163.085L267.02 159.085ZM258.208 143.822L251.279 147.821L251.279 147.822L258.208 143.822ZM262.43 128.062L258.43 121.134L258.43 121.134L262.43 128.062ZM277.694 119.25L281.694 126.178L277.694 119.25ZM283.069 112.244L290.797 114.314L283.069 112.244ZM287.817 94.527L280.089 92.4562L280.089 92.4565L287.817 94.527ZM301.946 86.37L304.017 78.6426L304.017 78.6426L301.946 86.37ZM319.663 91.1172L317.593 98.8446L317.593 98.8446L319.663 91.1172ZM328.418 89.964L324.418 83.0358L328.418 89.964ZM342.215 81.9987L346.214 88.927C347.906 87.9503 350.069 88.5301 351.046 90.2216L357.974 86.2214L364.902 82.2213C359.507 72.8772 347.559 69.676 338.215 75.0704L342.215 81.9987ZM357.974 86.2214L351.046 90.2214L359.011 104.018L365.939 100.018L372.868 96.0178L364.902 82.2214L357.974 86.2214ZM365.939 100.018L359.011 104.018C361.601 108.504 365.868 111.78 370.874 113.121L372.945 105.394L375.015 97.6666C374.11 97.4241 373.337 96.8311 372.868 96.0178L365.939 100.018ZM372.945 105.394L370.874 113.121L388.863 117.941L390.933 110.214L393.004 102.487L375.015 97.6666L372.945 105.394ZM390.933 110.214L388.862 117.941C390.749 118.447 391.869 120.386 391.363 122.273L399.091 124.343L406.818 126.413C409.61 115.991 403.426 105.28 393.004 102.487L390.933 110.214ZM399.091 124.343L391.363 122.272L386.543 140.261L394.271 142.331L401.998 144.402L406.818 126.413L399.091 124.343ZM394.271 142.331L386.543 140.261C385.202 145.267 385.905 150.6 388.496 155.086L395.424 151.086L402.352 147.086C401.882 146.273 401.755 145.307 401.998 144.402L394.271 142.331ZM395.424 151.086L388.496 155.086L397.109 170.006L404.037 166.006L410.966 162.006L402.352 147.086L395.424 151.086ZM404.037 166.006L397.109 170.006C398.086 171.697 397.506 173.86 395.815 174.837L399.815 181.765L403.815 188.693C413.159 183.298 416.36 171.35 410.966 162.006L404.037 166.006ZM399.815 181.765L395.815 174.837L380.895 183.451L384.895 190.379L388.895 197.307L403.815 188.693L399.815 181.765ZM384.895 190.379L380.895 183.451C376.409 186.041 373.133 190.308 371.792 195.314L379.519 197.384L387.247 199.455C387.489 198.55 388.082 197.777 388.895 197.307L384.895 190.379ZM379.519 197.384L371.792 195.314L367.519 211.259L375.247 213.33L382.974 215.4L387.247 199.455L379.519 197.384ZM375.247 213.33L367.519 211.259C367.123 212.737 365.836 213.763 364.363 213.871L364.949 221.849L365.536 229.828C373.581 229.236 380.76 223.662 382.974 215.4L375.247 213.33ZM364.949 221.849L358.157 217.623C357.614 218.496 357.067 219.223 356.498 219.856L362.443 225.209L368.388 230.562C369.649 229.161 370.752 227.667 371.742 226.076L364.949 221.849ZM362.443 225.209L356.498 219.856C353.05 223.685 348.478 226.324 343.438 227.396L345.101 235.221L346.765 243.046C355.11 241.272 362.679 236.902 368.388 230.562L362.443 225.209ZM345.101 235.221L343.438 227.395C341.078 227.897 338.15 227.887 333.306 227.004C328.369 226.104 322.163 224.448 313.272 222.066L311.202 229.793L309.131 237.521C317.767 239.835 324.708 241.701 330.437 242.745C336.258 243.806 341.516 244.161 346.765 243.046L345.101 235.221ZM311.202 229.793L313.272 222.066C304.381 219.683 298.179 218.015 293.454 216.326C288.817 214.668 286.276 213.213 284.483 211.598L279.13 217.544L273.777 223.489C277.765 227.079 282.496 229.4 288.068 231.392C293.552 233.352 300.495 235.206 309.131 237.521L311.202 229.793ZM279.13 217.544L284.483 211.599C280.654 208.151 278.014 203.579 276.943 198.539L269.118 200.202L261.293 201.866C263.066 210.211 267.437 217.78 273.777 223.489L279.13 217.544ZM269.118 200.202L276.943 198.539C276.766 197.704 276.656 196.801 276.622 195.774L268.626 196.038L260.631 196.301C260.692 198.177 260.901 200.023 261.293 201.866L269.118 200.202ZM268.626 196.038L273.127 189.424C271.905 188.593 271.305 187.061 271.7 185.584L263.973 183.514L256.245 181.444C254.032 189.703 257.46 198.116 264.126 202.652L268.626 196.038ZM263.973 183.514L271.7 185.584L275.9 169.911L268.172 167.84L260.445 165.77L256.245 181.443L263.973 183.514ZM268.172 167.84L275.9 169.911C277.241 164.906 276.539 159.573 273.948 155.085L267.02 159.085L260.092 163.085C260.561 163.897 260.688 164.863 260.445 165.77L268.172 167.84ZM267.02 159.085L273.948 155.085L265.136 139.822L258.208 143.822L251.279 147.822L260.092 163.085L267.02 159.085ZM258.208 143.822L265.136 139.822C264.159 138.13 264.739 135.967 266.43 134.99L262.43 128.062L258.43 121.134C249.086 126.529 245.885 138.477 251.279 147.821L258.208 143.822ZM262.43 128.062L266.43 134.99L281.694 126.178L277.694 119.25L273.694 112.321L258.43 121.134L262.43 128.062ZM277.694 119.25L281.694 126.178C286.182 123.587 289.456 119.319 290.797 114.314L283.069 112.244L275.342 110.173C275.099 111.08 274.506 111.853 273.694 112.321L277.694 119.25ZM283.069 112.244L290.797 114.314L295.544 96.5976L287.817 94.527L280.089 92.4565L275.342 110.173L283.069 112.244ZM287.817 94.527L295.544 96.5979C296.049 94.7118 297.989 93.5918 299.876 94.0975L301.946 86.37L304.017 78.6426C293.596 75.8504 282.882 82.0338 280.089 92.4562L287.817 94.527ZM301.946 86.37L299.876 94.0974L317.593 98.8446L319.663 91.1172L321.734 83.3898L304.017 78.6426L301.946 86.37ZM319.663 91.1172L317.593 98.8446C322.599 100.186 327.932 99.4824 332.418 96.8922L328.418 89.964L324.418 83.0358C323.605 83.5054 322.639 83.6323 321.734 83.3898L319.663 91.1172ZM328.418 89.964L332.418 96.8922L346.215 88.9269L342.215 81.9987L338.215 75.0705L324.418 83.0358L328.418 89.964Z" fill="white" mask="url(#path-4-outside-1_440_12279)"/>
</g>
<g filter="url(#filter3_g_440_12279)">
<path d="M365.939 100.018C367.469 102.668 369.988 104.601 372.944 105.393L390.933 110.213C397.088 111.863 400.74 118.189 399.091 124.343L394.271 142.332C393.479 145.288 393.894 148.437 395.423 151.087L404.037 166.005C407.222 171.523 405.332 178.579 399.814 181.765L384.895 190.378C382.245 191.908 380.312 194.428 379.52 197.384L375.247 213.33C373.598 219.484 367.272 223.137 361.117 221.487L272.13 197.643C265.976 195.994 262.323 189.668 263.972 183.513L268.172 167.839C268.964 164.884 268.55 161.735 267.02 159.085L258.208 143.822C255.022 138.304 256.912 131.248 262.43 128.062L277.694 119.249C280.344 117.719 282.277 115.199 283.069 112.244L287.816 94.5273C289.465 88.3728 295.791 84.7203 301.946 86.3695L319.663 91.1166C322.618 91.9085 325.767 91.4939 328.417 89.964L342.213 81.9986C347.732 78.8128 354.787 80.7034 357.973 86.2215L365.939 100.018Z" fill="#5A79F9"/>
</g>
<g filter="url(#filter4_ig_440_12279)">
<rect x="287.967" y="116.23" width="103.68" height="103.68" rx="32.4" transform="rotate(15 287.967 116.23)" fill="#FFC6B7"/>
</g>
<g filter="url(#filter5_g_440_12279)">
<path d="M295.772 146.835C297.131 141.763 297.81 139.227 299.316 137.555C300.641 136.083 302.398 135.069 304.334 134.658C306.536 134.19 309.072 134.869 314.143 136.228C319.215 137.587 321.751 138.266 323.423 139.772C324.894 141.097 325.909 142.854 326.32 144.79C326.788 146.992 326.109 149.528 324.75 154.599L320.868 169.088C319.509 174.16 318.829 176.695 317.323 178.368C315.998 179.839 314.242 180.853 312.305 181.265C310.104 181.733 307.568 181.054 302.496 179.695C297.425 178.336 294.889 177.656 293.216 176.15C291.745 174.825 290.731 173.069 290.319 171.132C289.851 168.931 290.531 166.395 291.89 161.323L295.772 146.835Z" fill="white"/>
<path d="M337.065 157.9C338.424 152.828 339.103 150.293 340.609 148.62C341.934 147.149 343.691 146.135 345.627 145.723C347.829 145.255 350.365 145.934 355.436 147.293V147.293C360.508 148.652 363.044 149.332 364.716 150.838C366.187 152.163 367.202 153.919 367.613 155.856C368.081 158.057 367.402 160.593 366.043 165.665L362.16 180.153C360.802 185.225 360.122 187.761 358.616 189.433C357.291 190.905 355.535 191.919 353.598 192.331C351.397 192.798 348.861 192.119 343.789 190.76V190.76C338.718 189.401 336.182 188.722 334.509 187.216C333.038 185.891 332.024 184.134 331.612 182.198C331.144 179.996 331.824 177.46 333.183 172.389L337.065 157.9Z" fill="white"/>
<path d="M305.122 154.751C304.443 157.286 304.103 158.554 304.337 159.655C304.543 160.623 305.05 161.502 305.785 162.164C306.622 162.917 307.89 163.257 310.425 163.936V163.936C310.886 164.06 311.116 164.122 311.272 164.248C311.452 164.394 311.57 164.598 311.607 164.828C311.638 165.025 311.577 165.253 311.455 165.71L310.475 169.364C309.796 171.9 309.456 173.168 308.703 174.005C308.041 174.74 307.162 175.247 306.194 175.453C305.093 175.687 303.826 175.347 301.29 174.667C298.754 173.988 297.486 173.648 296.65 172.895C295.914 172.233 295.407 171.355 295.201 170.387C294.967 169.286 295.307 168.017 295.987 165.482L297.928 158.237C298.607 155.702 298.947 154.434 299.7 153.597C300.362 152.862 301.241 152.355 302.209 152.149C302.695 152.046 303.213 152.055 303.859 152.156C304.7 152.288 305.121 152.354 305.349 152.704C305.577 153.054 305.457 153.501 305.218 154.395L305.122 154.751Z" fill="#4C4C4C"/>
<path d="M345.601 165.985C344.921 168.521 344.582 169.789 344.816 170.889C345.021 171.858 345.529 172.736 346.264 173.399C347.101 174.151 348.369 174.491 350.904 175.171V175.171C351.025 175.203 351.086 175.219 351.134 175.238C351.544 175.398 351.787 175.818 351.72 176.253C351.713 176.304 351.697 176.363 351.665 176.482L350.59 180.495C349.91 183.031 349.57 184.299 348.818 185.135C348.155 185.871 347.277 186.378 346.308 186.584C345.207 186.818 343.94 186.478 341.404 185.799C338.868 185.119 337.6 184.78 336.764 184.027C336.028 183.364 335.521 182.486 335.315 181.517C335.082 180.417 335.421 179.148 336.101 176.613L338.042 169.369C338.721 166.833 339.061 165.565 339.814 164.729C340.476 163.993 341.355 163.487 342.323 163.281C342.901 163.158 343.525 163.195 344.356 163.356C345.2 163.519 345.622 163.601 345.838 163.947C346.054 164.292 345.936 164.733 345.701 165.613L345.601 165.985Z" fill="#4C4C4C"/>
</g>
<g filter="url(#filter6_g_440_12279)">
<path d="M303.497 190.3C304.674 187.776 307.865 186.96 310.109 188.609L316.362 193.204C317.508 194.046 318.81 194.653 320.192 194.99L327.731 196.827C330.437 197.486 331.863 200.455 330.686 202.979V202.979C329.797 204.885 327.686 205.899 325.642 205.401L317.209 203.347C315.285 202.878 313.473 202.033 311.877 200.86L304.883 195.721C303.188 194.475 302.608 192.206 303.497 190.3V190.3Z" fill="white"/>
</g>
</g>
<defs>
<filter id="filter0_d_440_12279" x="70" y="70" width="360" height="360" filterUnits="userSpaceOnUse" color-interpolation-filters="sRGB">
<feFlood flood-opacity="0" result="BackgroundImageFix"/>
<feColorMatrix in="SourceAlpha" type="matrix" values="0 0 0 0 0 0 0 0 0 0 0 0 0 0 0 0 0 0 127 0" result="hardAlpha"/>
<feOffset/>
<feGaussianBlur stdDeviation="45"/>
<feComposite in2="hardAlpha" operator="out"/>
<feColorMatrix type="matrix" values="0 0 0 0 1 0 0 0 0 1 0 0 0 0 1 0 0 0 1 0"/>
<feBlend mode="normal" in2="BackgroundImageFix" result="effect1_dropShadow_440_12279"/>
<feBlend mode="normal" in="SourceGraphic" in2="effect1_dropShadow_440_12279" result="shape"/>
</filter>
<filter id="filter1_d_440_12279" x="233.659" y="57.4502" width="194.927" height="201.279" filterUnits="userSpaceOnUse" color-interpolation-filters="sRGB">
<feFlood flood-opacity="0" result="BackgroundImageFix"/>
<feColorMatrix in="SourceAlpha" type="matrix" values="0 0 0 0 0 0 0 0 0 0 0 0 0 0 0 0 0 0 127 0" result="hardAlpha"/>
<feOffset/>
<feGaussianBlur stdDeviation="7.5"/>
<feComposite in2="hardAlpha" operator="out"/>
<feColorMatrix type="matrix" values="0 0 0 0 0 0 0 0 0 0 0 0 0 0 0 0 0 0 0.25 0"/>
<feBlend mode="normal" in2="BackgroundImageFix" result="effect1_dropShadow_440_12279"/>
<feBlend mode="normal" in="SourceGraphic" in2="effect1_dropShadow_440_12279" result="shape"/>
</filter>
<filter id="filter2_g_440_12279" x="247.159" y="70.9502" width="167.927" height="174.279" filterUnits="userSpaceOnUse" color-interpolation-filters="sRGB">
<feFlood flood-opacity="0" result="BackgroundImageFix"/>
<feBlend mode="normal" in="SourceGraphic" in2="BackgroundImageFix" result="shape"/>
<feTurbulence type="fractalNoise" baseFrequency="0.066666677594184875 0.066666677594184875" numOctaves="3" seed="5149" />
<feDisplacementMap in="shape" scale="2.9999995231628418" xChannelSelector="R" yChannelSelector="G" result="displacedImage" width="100%" height="100%" />
<feMerge result="effect1_texture_440_12279">
<feMergeNode in="displacedImage"/>
</feMerge>
</filter>
<filter id="filter3_g_440_12279" x="255.16" y="78.9512" width="151.924" height="144.433" filterUnits="userSpaceOnUse" color-interpolation-filters="sRGB">
<feFlood flood-opacity="0" result="BackgroundImageFix"/>
<feBlend mode="normal" in="SourceGraphic" in2="BackgroundImageFix" result="shape"/>
<feTurbulence type="fractalNoise" baseFrequency="0.066666670143604279 0.066666670143604279" numOctaves="3" seed="5149" />
<feDisplacementMap in="shape" scale="3" xChannelSelector="R" yChannelSelector="G" result="displacedImage" width="100%" height="100%" />
<feMerge result="effect1_texture_440_12279">
<feMergeNode in="displacedImage"/>
</feMerge>
</filter>
<filter id="filter4_ig_440_12279" x="267.113" y="122.211" width="115.021" height="115.021" filterUnits="userSpaceOnUse" color-interpolation-filters="sRGB">
<feFlood flood-opacity="0" result="BackgroundImageFix"/>
<feBlend mode="normal" in="SourceGraphic" in2="BackgroundImageFix" result="shape"/>
<feColorMatrix in="SourceAlpha" type="matrix" values="0 0 0 0 0 0 0 0 0 0 0 0 0 0 0 0 0 0 127 0" result="hardAlpha"/>
<feOffset dy="1.5"/>
<feGaussianBlur stdDeviation="3.75"/>
<feComposite in2="hardAlpha" operator="arithmetic" k2="-1" k3="1"/>
<feColorMatrix type="matrix" values="0 0 0 0 0.352941 0 0 0 0 0.47451 0 0 0 0 0.976471 0 0 0 1 0"/>
<feBlend mode="normal" in2="shape" result="effect1_innerShadow_440_12279"/>
<feTurbulence type="fractalNoise" baseFrequency="0.066666670143604279 0.066666670143604279" numOctaves="3" seed="5149" />
<feDisplacementMap in="effect1_innerShadow_440_12279" scale="3" xChannelSelector="R" yChannelSelector="G" result="displacedImage" width="100%" height="100%" />
<feMerge result="effect2_texture_440_12279">
<feMergeNode in="displacedImage"/>
</feMerge>
</filter>
<filter id="filter5_g_440_12279" x="288.672" y="133.01" width="80.5889" height="60.9678" filterUnits="userSpaceOnUse" color-interpolation-filters="sRGB">
<feFlood flood-opacity="0" result="BackgroundImageFix"/>
<feBlend mode="normal" in="SourceGraphic" in2="BackgroundImageFix" result="shape"/>
<feTurbulence type="fractalNoise" baseFrequency="0.066666670143604279 0.066666670143604279" numOctaves="3" seed="5149" />
<feDisplacementMap in="shape" scale="3" xChannelSelector="R" yChannelSelector="G" result="displacedImage" width="100%" height="100%" />
<feMerge result="effect1_texture_440_12279">
<feMergeNode in="displacedImage"/>
</feMerge>
</filter>
<filter id="filter6_g_440_12279" x="301.583" y="186.251" width="31.0186" height="20.7764" filterUnits="userSpaceOnUse" color-interpolation-filters="sRGB">
<feFlood flood-opacity="0" result="BackgroundImageFix"/>
<feBlend mode="normal" in="SourceGraphic" in2="BackgroundImageFix" result="shape"/>
<feTurbulence type="fractalNoise" baseFrequency="0.066666677594184875 0.066666677594184875" numOctaves="3" seed="5149" />
<feDisplacementMap in="shape" scale="2.9999995231628418" xChannelSelector="R" yChannelSelector="G" result="displacedImage" width="100%" height="100%" />
<feMerge result="effect1_texture_440_12279">
<feMergeNode in="displacedImage"/>
</feMerge>
</filter>
</defs>
</svg>
