<svg width="500" height="500" viewBox="0 0 500 500" fill="none" xmlns="http://www.w3.org/2000/svg">
<g filter="url(#filter0_d_320_4543)">
<rect x="109" y="219.512" width="162" height="162" rx="50" fill="white"/>
<rect x="104.5" y="215.012" width="171" height="171" rx="54.5" stroke="#5A79F9" stroke-width="9"/>
<path d="M197.4 329.512V281.56C197.4 280.48 197.427 279.427 197.481 278.401C197.535 277.375 197.697 276.43 197.967 275.566L199.182 277.996C198.75 277.834 198.21 277.699 197.562 277.591C196.914 277.429 196.212 277.348 195.456 277.348C191.73 277.348 188.787 278.482 186.627 280.75C184.467 282.964 182.55 286.582 180.876 291.604L174.882 309.748L172.776 306.832H213.924V313.636H167.916V307.48L173.586 290.632C174.666 287.5 175.8 284.692 176.988 282.208C178.23 279.724 179.688 277.618 181.362 275.89C183.036 274.162 185.007 272.839 187.275 271.921C189.597 271.003 192.324 270.544 195.456 270.544C197.508 270.544 199.398 270.652 201.126 270.868C202.854 271.084 204.312 271.408 205.5 271.84L205.662 272.812C205.5 273.892 205.392 275.242 205.338 276.862C205.284 278.482 205.23 280.102 205.176 281.722C205.176 283.342 205.176 284.692 205.176 285.772V329.512H197.4Z" fill="#5A79F9"/>
</g>
<g filter="url(#filter1_d_320_4543)">
<g filter="url(#filter2_g_320_4543)">
<mask id="path-4-outside-1_320_4543" maskUnits="userSpaceOnUse" x="192.796" y="109.202" width="208.465" height="209.173" fill="black">
<rect fill="white" x="192.796" y="109.202" width="208.465" height="209.173"/>
<path d="M308.023 139.999C313.541 136.813 320.598 138.704 323.784 144.222L331.748 158.018C333.278 160.667 335.798 162.601 338.753 163.393L356.742 168.213C362.897 169.862 366.549 176.188 364.9 182.343L360.08 200.331C359.288 203.287 359.703 206.436 361.232 209.086L369.845 224.004C373.031 229.522 371.141 236.578 365.623 239.764L350.704 248.378C348.055 249.908 346.121 252.427 345.329 255.383L341.056 271.33C339.751 276.2 335.518 279.5 330.758 279.849C329.991 281.081 329.168 282.192 328.253 283.208C323.674 288.293 317.603 291.798 310.91 293.221C303.302 294.838 294.538 292.49 277.011 287.793C259.484 283.097 250.72 280.748 244.939 275.544C239.855 270.966 236.35 264.894 234.928 258.202C234.643 256.863 234.483 255.49 234.436 254.039C230.491 251.355 228.477 246.382 229.781 241.514L233.982 225.838C234.773 222.883 234.359 219.734 232.829 217.084L224.017 201.821C220.832 196.303 222.722 189.247 228.24 186.061L243.503 177.249C246.153 175.72 248.086 173.199 248.878 170.244L253.625 152.527C255.274 146.372 261.601 142.72 267.755 144.369L285.474 149.117C288.429 149.908 291.578 149.494 294.228 147.964L308.023 139.999Z"/>
</mask>
<path d="M308.023 139.999L304.023 133.07L304.023 133.071L308.023 139.999ZM323.784 144.222L330.712 140.222L330.712 140.222L323.784 144.222ZM331.748 158.018L324.82 162.017L324.82 162.018L331.748 158.018ZM338.753 163.393L336.682 171.12L336.682 171.12L338.753 163.393ZM356.742 168.213L358.813 160.486L356.742 168.213ZM364.9 182.343L372.628 184.414L364.9 182.343ZM360.08 200.331L352.353 198.261L360.08 200.331ZM361.232 209.086L354.304 213.086L354.304 213.086L361.232 209.086ZM369.845 224.004L362.917 228.004L369.845 224.004ZM365.623 239.764L361.623 232.836L361.622 232.836L365.623 239.764ZM350.704 248.378L354.705 255.306L354.705 255.306L350.704 248.378ZM345.329 255.383L337.602 253.312L337.602 253.312L345.329 255.383ZM341.056 271.33L348.784 273.4L348.784 273.4L341.056 271.33ZM330.758 279.849L330.172 271.871L326.115 272.169L323.966 275.623L330.758 279.849ZM328.253 283.208L334.198 288.561L334.198 288.561L328.253 283.208ZM310.91 293.221L312.573 301.046L312.573 301.046L310.91 293.221ZM277.011 287.793L274.941 295.521L277.011 287.793ZM244.939 275.544L239.586 281.489L239.587 281.489L244.939 275.544ZM234.928 258.202L227.102 259.865L227.102 259.865L234.928 258.202ZM234.436 254.039L242.431 253.775L242.297 249.711L238.935 247.424L234.436 254.039ZM229.781 241.514L222.054 239.443L222.054 239.443L229.781 241.514ZM233.982 225.838L241.709 227.909L241.709 227.909L233.982 225.838ZM232.829 217.084L225.901 221.084L225.901 221.084L232.829 217.084ZM224.017 201.821L230.946 197.821L230.946 197.821L224.017 201.821ZM228.24 186.061L232.24 192.99L228.24 186.061ZM243.503 177.249L247.503 184.178L247.503 184.178L243.503 177.249ZM267.755 144.369L269.826 136.642L267.755 144.369ZM285.474 149.117L283.403 156.844L283.404 156.844L285.474 149.117ZM294.228 147.964L298.228 154.893L298.228 154.892L294.228 147.964ZM308.023 139.999L312.023 146.927C313.715 145.95 315.879 146.53 316.855 148.222L323.784 144.222L330.712 140.222C325.317 130.877 313.368 127.675 304.023 133.07L308.023 139.999ZM323.784 144.222L316.855 148.221L324.82 162.017L331.748 158.018L338.676 154.018L330.712 140.222L323.784 144.222ZM331.748 158.018L324.82 162.018C327.411 166.505 331.677 169.779 336.682 171.12L338.753 163.393L340.824 155.665C339.918 155.423 339.145 154.83 338.676 154.017L331.748 158.018ZM338.753 163.393L336.682 171.12L354.672 175.94L356.742 168.213L358.813 160.486L340.823 155.665L338.753 163.393ZM356.742 168.213L354.672 175.94C356.558 176.446 357.678 178.386 357.173 180.272L364.9 182.343L372.628 184.414C375.42 173.991 369.235 163.278 358.813 160.486L356.742 168.213ZM364.9 182.343L357.173 180.272L352.353 198.261L360.08 200.331L367.808 202.402L372.628 184.414L364.9 182.343ZM360.08 200.331L352.353 198.261C351.012 203.265 351.713 208.598 354.304 213.086L361.232 209.086L368.161 205.086C367.692 204.274 367.565 203.309 367.808 202.402L360.08 200.331ZM361.232 209.086L354.304 213.086L362.917 228.004L369.845 224.004L376.774 220.004L368.161 205.086L361.232 209.086ZM369.845 224.004L362.917 228.004C363.894 229.696 363.314 231.859 361.623 232.836L365.623 239.764L369.623 246.692C378.967 241.297 382.169 229.349 376.774 220.004L369.845 224.004ZM365.623 239.764L361.622 232.836L346.704 241.45L350.704 248.378L354.705 255.306L369.623 246.692L365.623 239.764ZM350.704 248.378L346.704 241.45C342.217 244.04 338.943 248.307 337.602 253.312L345.329 255.383L353.057 257.453C353.299 256.548 353.892 255.775 354.705 255.306L350.704 248.378ZM345.329 255.383L337.602 253.312L333.329 269.259L341.056 271.33L348.784 273.4L353.057 257.453L345.329 255.383ZM341.056 271.33L333.329 269.259C332.933 270.736 331.646 271.763 330.172 271.871L330.758 279.849L331.344 287.828C339.389 287.237 346.569 281.663 348.784 273.4L341.056 271.33ZM330.758 279.849L323.966 275.623C323.421 276.498 322.876 277.224 322.307 277.855L328.253 283.208L334.198 288.561C335.46 287.159 336.561 285.665 337.55 284.076L330.758 279.849ZM328.253 283.208L322.308 277.855C318.86 281.684 314.287 284.324 309.247 285.395L310.91 293.221L312.573 301.046C320.919 299.272 328.489 294.901 334.198 288.561L328.253 283.208ZM310.91 293.221L309.247 285.395C306.887 285.897 303.959 285.887 299.114 285.004C294.178 284.104 287.973 282.448 279.082 280.066L277.011 287.793L274.941 295.521C283.577 297.835 290.517 299.701 296.246 300.745C302.067 301.806 307.325 302.161 312.573 301.046L310.91 293.221ZM277.011 287.793L279.082 280.066C270.191 277.684 263.989 276.015 259.263 274.326C254.626 272.668 252.085 271.213 250.292 269.599L244.939 275.544L239.587 281.489C243.574 285.079 248.306 287.401 253.878 289.392C259.361 291.353 266.305 293.207 274.941 295.521L277.011 287.793ZM244.939 275.544L250.293 269.599C246.464 266.151 243.824 261.579 242.753 256.538L234.928 258.202L227.102 259.865C228.876 268.209 233.246 275.78 239.586 281.489L244.939 275.544ZM234.928 258.202L242.753 256.538C242.575 255.702 242.465 254.799 242.431 253.775L234.436 254.039L226.44 254.303C226.502 256.18 226.711 258.025 227.102 259.865L234.928 258.202ZM234.436 254.039L238.935 247.424C237.714 246.594 237.113 245.062 237.509 243.584L229.781 241.514L222.054 239.443C219.841 247.703 223.268 256.117 229.936 260.653L234.436 254.039ZM229.781 241.514L237.509 243.584L241.709 227.909L233.982 225.838L226.254 223.768L222.054 239.443L229.781 241.514ZM233.982 225.838L241.709 227.909C243.05 222.904 242.348 217.572 239.757 213.085L232.829 217.084L225.901 221.084C226.37 221.897 226.497 222.862 226.254 223.768L233.982 225.838ZM232.829 217.084L239.757 213.085L230.946 197.821L224.017 201.821L217.089 205.821L225.901 221.084L232.829 217.084ZM224.017 201.821L230.946 197.821C229.969 196.129 230.549 193.966 232.24 192.99L228.24 186.061L224.24 179.133C214.896 184.528 211.694 196.477 217.089 205.821L224.017 201.821ZM228.24 186.061L232.24 192.99L247.503 184.178L243.503 177.249L239.503 170.321L224.24 179.133L228.24 186.061ZM243.503 177.249L247.503 184.178C251.991 181.587 255.265 177.319 256.606 172.314L248.878 170.244L241.151 168.173C240.908 169.08 240.315 169.853 239.503 170.321L243.503 177.249ZM248.878 170.244L256.606 172.314L261.353 154.598L253.625 152.527L245.898 150.456L241.151 168.173L248.878 170.244ZM253.625 152.527L261.353 154.598C261.858 152.711 263.798 151.591 265.685 152.096L267.755 144.369L269.826 136.642C259.404 133.849 248.691 140.034 245.898 150.456L253.625 152.527ZM267.755 144.369L265.685 152.096L283.403 156.844L285.474 149.117L287.545 141.389L269.826 136.642L267.755 144.369ZM285.474 149.117L283.404 156.844C288.408 158.185 293.741 157.483 298.228 154.893L294.228 147.964L290.228 141.036C289.416 141.505 288.45 141.632 287.544 141.389L285.474 149.117ZM294.228 147.964L298.228 154.892L312.024 146.927L308.023 139.999L304.023 133.071L290.228 141.036L294.228 147.964Z" fill="white" mask="url(#path-4-outside-1_320_4543)"/>
</g>
<g filter="url(#filter3_g_320_4543)">
<path d="M331.748 158.017C333.278 160.667 335.798 162.6 338.754 163.392L356.743 168.212C362.897 169.862 366.55 176.188 364.901 182.342L360.081 200.331C359.289 203.287 359.703 206.436 361.233 209.086L369.846 224.004C373.032 229.522 371.141 236.578 365.623 239.764L350.705 248.377C348.055 249.907 346.122 252.427 345.33 255.383L341.057 271.329C339.408 277.484 333.081 281.136 326.927 279.487L237.94 255.643C231.785 253.994 228.133 247.668 229.782 241.513L233.982 225.838C234.774 222.883 234.359 219.734 232.829 217.084L224.017 201.821C220.832 196.303 222.722 189.247 228.24 186.061L243.503 177.249C246.153 175.719 248.087 173.199 248.878 170.244L253.626 152.526C255.275 146.372 261.601 142.719 267.756 144.368L285.474 149.116C288.43 149.908 291.579 149.493 294.229 147.964L308.024 139.999C313.542 136.813 320.598 138.704 323.784 144.222L331.748 158.017Z" fill="#5A79F9"/>
</g>
<g filter="url(#filter4_ig_320_4543)">
<rect x="253.777" y="174.23" width="103.68" height="103.68" rx="32.4" transform="rotate(15 253.777 174.23)" fill="#FFC6B7"/>
</g>
<g filter="url(#filter5_g_320_4543)">
<path d="M261.583 204.835C262.941 199.763 263.621 197.227 265.127 195.555C266.452 194.083 268.208 193.069 270.145 192.658C272.346 192.19 274.882 192.869 279.954 194.228C285.025 195.587 287.561 196.266 289.234 197.772C290.705 199.097 291.719 200.854 292.131 202.79C292.599 204.992 291.919 207.528 290.56 212.599L286.678 227.088C285.319 232.16 284.64 234.695 283.134 236.368C281.809 237.839 280.052 238.853 278.116 239.265C275.914 239.733 273.378 239.054 268.307 237.695C263.235 236.336 260.699 235.656 259.027 234.15C257.556 232.825 256.541 231.069 256.13 229.132C255.662 226.931 256.341 224.395 257.7 219.323L261.583 204.835Z" fill="white"/>
<path d="M302.876 215.899C304.234 210.827 304.914 208.292 306.42 206.619C307.745 205.148 309.501 204.134 311.438 203.722C313.639 203.254 316.175 203.934 321.247 205.292V205.292C326.318 206.651 328.854 207.331 330.527 208.837C331.998 210.162 333.012 211.918 333.424 213.855C333.892 216.056 333.212 218.592 331.853 223.664L327.971 238.153C326.612 243.224 325.933 245.76 324.427 247.433C323.102 248.904 321.345 249.918 319.409 250.33C317.207 250.797 314.671 250.118 309.6 248.759V248.759C304.528 247.4 301.992 246.721 300.32 245.215C298.849 243.89 297.834 242.133 297.423 240.197C296.955 237.995 297.634 235.46 298.993 230.388L302.876 215.899Z" fill="white"/>
<path d="M277.924 211.933C280.46 212.613 281.729 212.953 282.565 213.706C283.3 214.368 283.807 215.246 284.013 216.215C284.247 217.315 283.907 218.583 283.227 221.119L281.286 228.363C280.607 230.899 280.267 232.167 279.514 233.003C278.852 233.739 277.974 234.246 277.006 234.452C275.905 234.686 274.636 234.346 272.101 233.667C269.565 232.987 268.297 232.648 267.461 231.895C266.725 231.232 266.219 230.354 266.013 229.386C265.779 228.285 266.118 227.017 266.797 224.481L267.479 221.936C267.703 221.102 267.815 220.684 268.135 220.489C268.455 220.294 268.897 220.39 269.779 220.581C270.779 220.798 271.49 220.862 272.142 220.724C273.111 220.518 273.988 220.01 274.651 219.275C275.404 218.438 275.744 217.171 276.424 214.635L277.005 212.466C277.112 212.066 277.524 211.826 277.924 211.933V211.933Z" fill="#4C4C4C"/>
<path d="M318.037 223.068C320.573 223.748 321.842 224.087 322.678 224.84C323.414 225.503 323.92 226.381 324.126 227.349C324.36 228.45 324.02 229.718 323.341 232.254L321.4 239.498C320.72 242.034 320.381 243.302 319.628 244.138C318.965 244.874 318.087 245.381 317.119 245.587C316.018 245.821 314.75 245.481 312.214 244.801C309.678 244.122 308.41 243.782 307.574 243.029C306.839 242.367 306.332 241.489 306.126 240.52C305.892 239.42 306.231 238.152 306.911 235.616L307.591 233.076C307.817 232.235 307.929 231.814 308.255 231.619C308.581 231.424 309.018 231.527 309.892 231.732C311.087 232.013 311.89 232.111 312.619 231.956C313.587 231.75 314.466 231.243 315.128 230.507C315.881 229.671 316.221 228.403 316.9 225.867L317.579 223.334C317.633 223.134 317.838 223.015 318.037 223.068V223.068Z" fill="#4C4C4C"/>
</g>
<g filter="url(#filter6_g_320_4543)">
<path d="M269.307 248.3C270.484 245.776 273.676 244.96 275.919 246.609L282.172 251.204C283.319 252.046 284.62 252.653 286.002 252.99L293.542 254.827C296.247 255.486 297.673 258.455 296.497 260.979V260.979C295.608 262.885 293.497 263.899 291.453 263.401L283.02 261.347C281.096 260.878 279.284 260.033 277.688 258.86L270.694 253.721C268.999 252.475 268.418 250.206 269.307 248.3V248.3Z" fill="white"/>
</g>
</g>
<defs>
<filter id="filter0_d_320_4543" x="10" y="120.512" width="360" height="360" filterUnits="userSpaceOnUse" color-interpolation-filters="sRGB">
<feFlood flood-opacity="0" result="BackgroundImageFix"/>
<feColorMatrix in="SourceAlpha" type="matrix" values="0 0 0 0 0 0 0 0 0 0 0 0 0 0 0 0 0 0 127 0" result="hardAlpha"/>
<feOffset/>
<feGaussianBlur stdDeviation="45"/>
<feComposite in2="hardAlpha" operator="out"/>
<feColorMatrix type="matrix" values="0 0 0 0 1 0 0 0 0 1 0 0 0 0 1 0 0 0 1 0"/>
<feBlend mode="normal" in2="BackgroundImageFix" result="effect1_dropShadow_320_4543"/>
<feBlend mode="normal" in="SourceGraphic" in2="effect1_dropShadow_320_4543" result="shape"/>
</filter>
<filter id="filter1_d_320_4543" x="199.469" y="115.45" width="194.926" height="201.279" filterUnits="userSpaceOnUse" color-interpolation-filters="sRGB">
<feFlood flood-opacity="0" result="BackgroundImageFix"/>
<feColorMatrix in="SourceAlpha" type="matrix" values="0 0 0 0 0 0 0 0 0 0 0 0 0 0 0 0 0 0 127 0" result="hardAlpha"/>
<feOffset/>
<feGaussianBlur stdDeviation="7.5"/>
<feComposite in2="hardAlpha" operator="out"/>
<feColorMatrix type="matrix" values="0 0 0 0 0 0 0 0 0 0 0 0 0 0 0 0 0 0 0.25 0"/>
<feBlend mode="normal" in2="BackgroundImageFix" result="effect1_dropShadow_320_4543"/>
<feBlend mode="normal" in="SourceGraphic" in2="effect1_dropShadow_320_4543" result="shape"/>
</filter>
<filter id="filter2_g_320_4543" x="212.969" y="128.95" width="167.926" height="174.279" filterUnits="userSpaceOnUse" color-interpolation-filters="sRGB">
<feFlood flood-opacity="0" result="BackgroundImageFix"/>
<feBlend mode="normal" in="SourceGraphic" in2="BackgroundImageFix" result="shape"/>
<feTurbulence type="fractalNoise" baseFrequency="0.066666677594184875 0.066666677594184875" numOctaves="3" seed="5149" />
<feDisplacementMap in="shape" scale="2.9999995231628418" xChannelSelector="R" yChannelSelector="G" result="displacedImage" width="100%" height="100%" />
<feMerge result="effect1_texture_320_4543">
<feMergeNode in="displacedImage"/>
</feMerge>
</filter>
<filter id="filter3_g_320_4543" x="220.969" y="136.951" width="151.926" height="144.433" filterUnits="userSpaceOnUse" color-interpolation-filters="sRGB">
<feFlood flood-opacity="0" result="BackgroundImageFix"/>
<feBlend mode="normal" in="SourceGraphic" in2="BackgroundImageFix" result="shape"/>
<feTurbulence type="fractalNoise" baseFrequency="0.066666670143604279 0.066666670143604279" numOctaves="3" seed="5149" />
<feDisplacementMap in="shape" scale="3" xChannelSelector="R" yChannelSelector="G" result="displacedImage" width="100%" height="100%" />
<feMerge result="effect1_texture_320_4543">
<feMergeNode in="displacedImage"/>
</feMerge>
</filter>
<filter id="filter4_ig_320_4543" x="232.922" y="180.211" width="115.023" height="115.021" filterUnits="userSpaceOnUse" color-interpolation-filters="sRGB">
<feFlood flood-opacity="0" result="BackgroundImageFix"/>
<feBlend mode="normal" in="SourceGraphic" in2="BackgroundImageFix" result="shape"/>
<feColorMatrix in="SourceAlpha" type="matrix" values="0 0 0 0 0 0 0 0 0 0 0 0 0 0 0 0 0 0 127 0" result="hardAlpha"/>
<feOffset dy="1.5"/>
<feGaussianBlur stdDeviation="3.75"/>
<feComposite in2="hardAlpha" operator="arithmetic" k2="-1" k3="1"/>
<feColorMatrix type="matrix" values="0 0 0 0 0.352941 0 0 0 0 0.47451 0 0 0 0 0.976471 0 0 0 1 0"/>
<feBlend mode="normal" in2="shape" result="effect1_innerShadow_320_4543"/>
<feTurbulence type="fractalNoise" baseFrequency="0.066666670143604279 0.066666670143604279" numOctaves="3" seed="5149" />
<feDisplacementMap in="effect1_innerShadow_320_4543" scale="3" xChannelSelector="R" yChannelSelector="G" result="displacedImage" width="100%" height="100%" />
<feMerge result="effect2_texture_320_4543">
<feMergeNode in="displacedImage"/>
</feMerge>
</filter>
<filter id="filter5_g_320_4543" x="254.484" y="191.01" width="80.5859" height="60.9668" filterUnits="userSpaceOnUse" color-interpolation-filters="sRGB">
<feFlood flood-opacity="0" result="BackgroundImageFix"/>
<feBlend mode="normal" in="SourceGraphic" in2="BackgroundImageFix" result="shape"/>
<feTurbulence type="fractalNoise" baseFrequency="0.066666670143604279 0.066666670143604279" numOctaves="3" seed="5149" />
<feDisplacementMap in="shape" scale="3" xChannelSelector="R" yChannelSelector="G" result="displacedImage" width="100%" height="100%" />
<feMerge result="effect1_texture_320_4543">
<feMergeNode in="displacedImage"/>
</feMerge>
</filter>
<filter id="filter6_g_320_4543" x="267.395" y="244.251" width="31.0195" height="20.7764" filterUnits="userSpaceOnUse" color-interpolation-filters="sRGB">
<feFlood flood-opacity="0" result="BackgroundImageFix"/>
<feBlend mode="normal" in="SourceGraphic" in2="BackgroundImageFix" result="shape"/>
<feTurbulence type="fractalNoise" baseFrequency="0.066666677594184875 0.066666677594184875" numOctaves="3" seed="5149" />
<feDisplacementMap in="shape" scale="2.9999995231628418" xChannelSelector="R" yChannelSelector="G" result="displacedImage" width="100%" height="100%" />
<feMerge result="effect1_texture_320_4543">
<feMergeNode in="displacedImage"/>
</feMerge>
</filter>
</defs>
</svg>
