<svg width="500" height="500" viewBox="0 0 500 500" fill="none" xmlns="http://www.w3.org/2000/svg">
<g filter="url(#filter0_d_320_4488)">
<rect x="109" y="219.512" width="162" height="162" rx="50" fill="white"/>
<rect x="104.5" y="215.012" width="171" height="171" rx="54.5" stroke="#5A79F9" stroke-width="9"/>
<path d="M160.736 330.484C157.82 330.484 155.039 330.187 152.393 329.593C149.801 328.999 147.614 328.216 145.832 327.244V319.63H146.48C148.1 320.656 150.152 321.601 152.636 322.465C155.12 323.275 157.82 323.68 160.736 323.68C164.732 323.68 167.81 323.086 169.97 321.898C172.13 320.656 173.615 319.171 174.425 317.443C175.235 315.661 175.64 313.96 175.64 312.34C175.64 309.1 174.479 306.508 172.157 304.564C169.889 302.62 166.406 301.648 161.708 301.648H155.876L154.58 298.408L174.02 275.323L175.154 277.672H146.804V271.192H179.528L180.5 272.002C180.608 272.38 180.689 272.866 180.743 273.46C180.797 274 180.824 274.432 180.824 274.756C180.824 276.052 180.5 277.348 179.852 278.644C179.204 279.886 178.34 281.128 177.26 282.37L163.409 297.922L162.761 295.492C167.189 295.546 170.915 296.275 173.939 297.679C176.963 299.029 179.231 300.973 180.743 303.511C182.309 305.995 183.092 309.046 183.092 312.664C183.092 316.228 182.201 319.36 180.419 322.06C178.637 324.706 176.072 326.785 172.724 328.297C169.376 329.755 165.38 330.484 160.736 330.484ZM212.917 330.484C210.163 330.484 207.382 330.187 204.574 329.593C201.766 329.053 199.309 328.378 197.203 327.568L197.041 326.92C197.257 325.948 197.392 324.625 197.446 322.951C197.554 321.277 197.608 319.576 197.608 317.848C197.662 316.12 197.689 314.716 197.689 313.636V281.884C197.689 281.074 197.689 280.075 197.689 278.887C197.689 277.699 197.662 276.457 197.608 275.161C197.554 273.811 197.473 272.569 197.365 271.435C197.311 270.247 197.203 269.302 197.041 268.6L197.203 267.952H205.141V317.524C205.141 319.144 205.06 320.548 204.898 321.736C204.79 322.87 204.655 323.842 204.493 324.652L203.197 322.384C204.493 322.816 205.978 323.194 207.652 323.518C209.326 323.842 211.081 324.004 212.917 324.004C218.101 324.004 221.935 322.573 224.419 319.711C226.903 316.849 228.145 312.664 228.145 307.156C228.145 302.134 226.849 298.192 224.257 295.33C221.719 292.414 217.939 290.956 212.917 290.956C211.513 290.956 210.298 291.037 209.272 291.199C208.246 291.307 207.22 291.496 206.194 291.766C205.168 292.036 203.953 292.414 202.549 292.9V286.744C204.439 285.934 206.329 285.367 208.219 285.043C210.163 284.665 211.945 284.476 213.565 284.476C218.209 284.476 222.178 285.394 225.472 287.23C228.82 289.066 231.358 291.685 233.086 295.087C234.868 298.489 235.759 302.512 235.759 307.156C235.759 312.016 234.841 316.201 233.005 319.711C231.169 323.167 228.55 325.84 225.148 327.73C221.746 329.566 217.669 330.484 212.917 330.484Z" fill="#5A79F9"/>
</g>
<g filter="url(#filter1_d_320_4488)">
<g filter="url(#filter2_g_320_4488)">
<mask id="path-4-outside-1_320_4488" maskUnits="userSpaceOnUse" x="192.796" y="109.202" width="208.465" height="209.173" fill="black">
<rect fill="white" x="192.796" y="109.202" width="208.465" height="209.173"/>
<path d="M308.024 139.999C313.542 136.813 320.597 138.704 323.783 144.222L331.748 158.017C333.278 160.666 335.798 162.6 338.754 163.392L356.744 168.212C362.898 169.862 366.551 176.188 364.902 182.342L360.081 200.333C359.29 203.288 359.704 206.437 361.234 209.087L369.847 224.005C373.033 229.523 371.142 236.579 365.624 239.765L350.706 248.377C348.056 249.907 346.123 252.427 345.331 255.383L341.058 271.329C339.753 276.2 335.519 279.499 330.759 279.849C329.992 281.081 329.168 282.192 328.253 283.208C323.675 288.293 317.604 291.797 310.912 293.22C303.303 294.837 294.539 292.49 277.012 287.793C259.484 283.097 250.721 280.748 244.94 275.543C239.856 270.965 236.351 264.894 234.928 258.202C234.644 256.863 234.483 255.488 234.436 254.037C230.492 251.353 228.479 246.381 229.783 241.513L233.983 225.84C234.775 222.884 234.36 219.735 232.83 217.085L224.018 201.822C220.832 196.304 222.722 189.247 228.24 186.061L243.504 177.249C246.153 175.719 248.088 173.2 248.88 170.244L253.627 152.526C255.276 146.372 261.602 142.719 267.757 144.368L285.474 149.116C288.429 149.908 291.579 149.493 294.229 147.963L308.024 139.999Z"/>
</mask>
<path d="M308.024 139.999L312.024 146.927L308.024 139.999ZM323.783 144.222L330.711 140.222L330.711 140.221L323.783 144.222ZM331.748 158.017L324.82 162.017L331.748 158.017ZM338.754 163.392L336.683 171.119L336.683 171.119L338.754 163.392ZM356.744 168.212L358.815 160.485L358.814 160.485L356.744 168.212ZM360.081 200.333L352.354 198.262L352.354 198.263L360.081 200.333ZM361.234 209.087L354.306 213.087L354.306 213.087L361.234 209.087ZM369.847 224.005L362.919 228.005L369.847 224.005ZM365.624 239.765L369.624 246.694L369.624 246.694L365.624 239.765ZM350.706 248.377L346.706 241.449L346.706 241.449L350.706 248.377ZM345.331 255.383L337.603 253.312L345.331 255.383ZM341.058 271.329L348.785 273.4L341.058 271.329ZM330.759 279.849L330.173 271.87L326.116 272.168L323.967 275.622L330.759 279.849ZM328.253 283.208L334.198 288.561L334.198 288.561L328.253 283.208ZM310.912 293.22L312.575 301.045L312.575 301.045L310.912 293.22ZM277.012 287.793L274.941 295.521L277.012 287.793ZM244.94 275.543L239.587 281.488L239.587 281.488L244.94 275.543ZM234.928 258.202L227.103 259.865L227.103 259.865L234.928 258.202ZM234.436 254.037L242.431 253.773L242.297 249.71L238.937 247.423L234.436 254.037ZM229.783 241.513L237.51 243.584L229.783 241.513ZM233.983 225.84L226.255 223.769L233.983 225.84ZM232.83 217.085L225.901 221.085L225.901 221.085L232.83 217.085ZM224.018 201.822L230.946 197.822L230.946 197.822L224.018 201.822ZM228.24 186.061L224.24 179.133L224.24 179.133L228.24 186.061ZM243.504 177.249L239.504 170.32L243.504 177.249ZM248.88 170.244L256.607 172.315L256.607 172.315L248.88 170.244ZM253.627 152.526L261.354 154.597L253.627 152.526ZM267.757 144.368L269.828 136.641L267.757 144.368ZM285.474 149.116L283.403 156.843L285.474 149.116ZM294.229 147.963L290.229 141.035L294.229 147.963ZM308.024 139.999L312.024 146.927C313.715 145.95 315.878 146.53 316.855 148.222L323.783 144.222L330.711 140.221C325.316 130.877 313.368 127.676 304.024 133.071L308.024 139.999ZM323.783 144.222L316.855 148.222L324.82 162.017L331.748 158.017L338.676 154.017L330.711 140.222L323.783 144.222ZM331.748 158.017L324.82 162.017C327.411 166.505 331.679 169.778 336.683 171.119L338.754 163.392L340.824 155.665C339.917 155.422 339.145 154.828 338.676 154.017L331.748 158.017ZM338.754 163.392L336.683 171.119L354.673 175.94L356.744 168.212L358.814 160.485L340.824 155.665L338.754 163.392ZM356.744 168.212L354.673 175.94C356.56 176.445 357.68 178.385 357.174 180.272L364.902 182.342L372.629 184.413C375.422 173.991 369.237 163.278 358.815 160.485L356.744 168.212ZM364.902 182.342L357.174 180.272L352.354 198.262L360.081 200.333L367.809 202.403L372.629 184.413L364.902 182.342ZM360.081 200.333L352.354 198.263C351.013 203.267 351.715 208.599 354.306 213.087L361.234 209.087L368.162 205.087C367.693 204.274 367.566 203.309 367.809 202.403L360.081 200.333ZM361.234 209.087L354.306 213.087L362.919 228.005L369.847 224.005L376.775 220.005L368.162 205.087L361.234 209.087ZM369.847 224.005L362.919 228.005C363.896 229.697 363.316 231.86 361.624 232.837L365.624 239.765L369.624 246.694C378.968 241.299 382.17 229.349 376.775 220.005L369.847 224.005ZM365.624 239.765L361.624 232.837L346.706 241.449L350.706 248.377L354.706 255.306L369.624 246.694L365.624 239.765ZM350.706 248.377L346.706 241.449C342.218 244.04 338.944 248.308 337.603 253.312L345.331 255.383L353.058 257.454C353.301 256.547 353.894 255.774 354.706 255.306L350.706 248.377ZM345.331 255.383L337.603 253.312L333.331 269.259L341.058 271.329L348.785 273.4L353.058 257.454L345.331 255.383ZM341.058 271.329L333.331 269.259C332.935 270.735 331.648 271.762 330.173 271.87L330.759 279.849L331.345 287.827C339.389 287.236 346.571 281.664 348.785 273.4L341.058 271.329ZM330.759 279.849L323.967 275.622C323.421 276.498 322.876 277.225 322.308 277.855L328.253 283.208L334.198 288.561C335.461 287.158 336.563 285.663 337.551 284.075L330.759 279.849ZM328.253 283.208L322.308 277.855C318.86 281.684 314.289 284.324 309.248 285.395L310.912 293.22L312.575 301.045C320.92 299.271 328.49 294.901 334.198 288.561L328.253 283.208ZM310.912 293.22L309.249 285.395C306.888 285.897 303.96 285.887 299.115 285.004C294.179 284.104 287.973 282.448 279.082 280.066L277.012 287.793L274.941 295.521C283.578 297.835 290.518 299.701 296.247 300.745C302.069 301.806 307.327 302.161 312.575 301.045L310.912 293.22ZM277.012 287.793L279.082 280.066C270.191 277.684 263.989 276.015 259.264 274.326C254.627 272.668 252.086 271.212 250.293 269.598L244.94 275.543L239.587 281.488C243.575 285.079 248.306 287.4 253.878 289.392C259.361 291.352 266.305 293.207 274.941 295.521L277.012 287.793ZM244.94 275.543L250.293 269.598C246.464 266.15 243.825 261.579 242.753 256.538L234.928 258.202L227.103 259.865C228.877 268.21 233.247 275.779 239.587 281.488L244.94 275.543ZM234.928 258.202L242.753 256.538C242.575 255.7 242.465 254.797 242.431 253.773L234.436 254.037L226.44 254.3C226.502 256.18 226.712 258.026 227.103 259.865L234.928 258.202ZM234.436 254.037L238.937 247.423C237.716 246.592 237.115 245.061 237.51 243.584L229.783 241.513L222.056 239.443C219.843 247.701 223.269 256.114 229.935 260.651L234.436 254.037ZM229.783 241.513L237.51 243.584L241.71 227.91L233.983 225.84L226.255 223.769L222.056 239.443L229.783 241.513ZM233.983 225.84L241.71 227.91C243.052 222.904 242.348 217.571 239.758 213.085L232.83 217.085L225.901 221.085C226.371 221.898 226.498 222.864 226.255 223.769L233.983 225.84ZM232.83 217.085L239.758 213.085L230.946 197.822L224.018 201.822L217.089 205.822L225.901 221.085L232.83 217.085ZM224.018 201.822L230.946 197.822C229.969 196.129 230.549 193.966 232.24 192.989L228.24 186.061L224.24 179.133C214.895 184.529 211.695 196.479 217.09 205.822L224.018 201.822ZM228.24 186.061L232.24 192.99L247.504 184.177L243.504 177.249L239.504 170.32L224.24 179.133L228.24 186.061ZM243.504 177.249L247.504 184.177C251.989 181.587 255.265 177.321 256.607 172.315L248.88 170.244L241.152 168.173C240.91 169.078 240.317 169.851 239.504 170.32L243.504 177.249ZM248.88 170.244L256.607 172.315L261.354 154.597L253.627 152.526L245.9 150.456L241.152 168.174L248.88 170.244ZM253.627 152.526L261.354 154.597C261.86 152.71 263.8 151.59 265.686 152.096L267.757 144.368L269.828 136.641C259.405 133.848 248.692 140.034 245.9 150.456L253.627 152.526ZM267.757 144.368L265.686 152.096L283.403 156.843L285.474 149.116L287.544 141.388L269.828 136.641L267.757 144.368ZM285.474 149.116L283.403 156.843C288.408 158.184 293.741 157.483 298.229 154.892L294.229 147.963L290.229 141.035C289.417 141.504 288.451 141.631 287.544 141.388L285.474 149.116ZM294.229 147.963L298.229 154.892L312.024 146.927L308.024 139.999L304.024 133.071L290.229 141.035L294.229 147.963Z" fill="white" mask="url(#path-4-outside-1_320_4488)"/>
</g>
<g filter="url(#filter3_g_320_4488)">
<path d="M331.748 158.017C333.278 160.667 335.798 162.6 338.754 163.392L356.744 168.213C362.898 169.862 366.551 176.188 364.902 182.343L360.081 200.333C359.289 203.288 359.704 206.437 361.234 209.087L369.847 224.005C373.033 229.524 371.142 236.579 365.624 239.765L350.706 248.378C348.056 249.908 346.122 252.428 345.33 255.384L341.058 271.33C339.408 277.484 333.082 281.137 326.928 279.488L237.941 255.644C231.786 253.994 228.134 247.668 229.783 241.514L233.982 225.84C234.774 222.885 234.36 219.736 232.83 217.086L224.017 201.822C220.831 196.304 222.722 189.248 228.24 186.062L243.504 177.249C246.154 175.719 248.087 173.2 248.879 170.244L253.627 152.527C255.276 146.372 261.602 142.72 267.757 144.369L285.474 149.116C288.43 149.908 291.579 149.493 294.229 147.964L308.024 139.999C313.542 136.813 320.598 138.704 323.784 144.222L331.748 158.017Z" fill="#5A79F9"/>
</g>
<g filter="url(#filter4_ig_320_4488)">
<rect x="253.777" y="174.23" width="103.68" height="103.68" rx="32.4" transform="rotate(15 253.777 174.23)" fill="#FFC6B7"/>
</g>
<g filter="url(#filter5_g_320_4488)">
<path d="M261.583 204.835C262.941 199.763 263.621 197.227 265.127 195.555C266.452 194.083 268.208 193.069 270.145 192.658C272.346 192.19 274.882 192.869 279.954 194.228C285.025 195.587 287.561 196.266 289.234 197.772C290.705 199.097 291.719 200.854 292.131 202.79C292.599 204.992 291.919 207.528 290.56 212.599L286.678 227.088C285.319 232.16 284.64 234.695 283.134 236.368C281.809 237.839 280.052 238.853 278.116 239.265C275.914 239.733 273.378 239.054 268.307 237.695C263.235 236.336 260.699 235.656 259.027 234.15C257.556 232.825 256.541 231.069 256.13 229.132C255.662 226.931 256.341 224.395 257.7 219.323L261.583 204.835Z" fill="white"/>
<path d="M302.876 215.899C304.234 210.827 304.914 208.292 306.42 206.619C307.745 205.148 309.501 204.134 311.438 203.722C313.639 203.254 316.175 203.934 321.247 205.292V205.292C326.318 206.651 328.854 207.331 330.527 208.837C331.998 210.162 333.012 211.918 333.424 213.855C333.892 216.056 333.212 218.592 331.853 223.664L327.971 238.153C326.612 243.224 325.933 245.76 324.427 247.433C323.102 248.904 321.345 249.918 319.409 250.33C317.207 250.797 314.671 250.118 309.6 248.759V248.759C304.528 247.4 301.992 246.721 300.32 245.215C298.849 243.89 297.834 242.133 297.423 240.197C296.955 237.995 297.634 235.46 298.993 230.388L302.876 215.899Z" fill="white"/>
<path d="M277.924 211.933C280.46 212.613 281.729 212.953 282.565 213.706C283.3 214.368 283.807 215.246 284.013 216.215C284.247 217.315 283.907 218.583 283.227 221.119L281.286 228.363C280.607 230.899 280.267 232.167 279.514 233.003C278.852 233.739 277.974 234.246 277.006 234.452C275.905 234.686 274.636 234.346 272.101 233.667C269.565 232.987 268.297 232.648 267.461 231.895C266.725 231.232 266.219 230.354 266.013 229.386C265.779 228.285 266.118 227.017 266.797 224.481L267.479 221.936C267.703 221.102 267.815 220.684 268.135 220.489C268.455 220.294 268.897 220.39 269.779 220.581C270.779 220.798 271.49 220.862 272.142 220.724C273.111 220.518 273.988 220.01 274.651 219.275C275.404 218.438 275.744 217.171 276.424 214.635L277.005 212.466C277.112 212.066 277.524 211.826 277.924 211.933V211.933Z" fill="#4C4C4C"/>
<path d="M318.037 223.068C320.573 223.748 321.842 224.087 322.678 224.84C323.414 225.503 323.92 226.381 324.126 227.349C324.36 228.45 324.02 229.718 323.341 232.254L321.4 239.498C320.72 242.034 320.381 243.302 319.628 244.138C318.965 244.874 318.087 245.381 317.119 245.587C316.018 245.821 314.75 245.481 312.214 244.801C309.678 244.122 308.41 243.782 307.574 243.029C306.839 242.367 306.332 241.489 306.126 240.52C305.892 239.42 306.231 238.152 306.911 235.616L307.591 233.076C307.817 232.235 307.929 231.814 308.255 231.619C308.581 231.424 309.018 231.527 309.892 231.732C311.087 232.013 311.89 232.111 312.619 231.956C313.587 231.75 314.466 231.243 315.128 230.507C315.881 229.671 316.221 228.403 316.9 225.867L317.579 223.334C317.633 223.134 317.838 223.015 318.037 223.068V223.068Z" fill="#4C4C4C"/>
</g>
<g filter="url(#filter6_g_320_4488)">
<path d="M269.307 248.3C270.484 245.776 273.676 244.96 275.919 246.609L282.172 251.204C283.319 252.046 284.62 252.653 286.002 252.99L293.542 254.827C296.247 255.486 297.673 258.455 296.497 260.979V260.979C295.608 262.885 293.497 263.899 291.453 263.401L283.02 261.347C281.096 260.878 279.284 260.033 277.688 258.86L270.694 253.721C268.999 252.475 268.418 250.206 269.307 248.3V248.3Z" fill="white"/>
</g>
</g>
<defs>
<filter id="filter0_d_320_4488" x="10" y="120.512" width="360" height="360" filterUnits="userSpaceOnUse" color-interpolation-filters="sRGB">
<feFlood flood-opacity="0" result="BackgroundImageFix"/>
<feColorMatrix in="SourceAlpha" type="matrix" values="0 0 0 0 0 0 0 0 0 0 0 0 0 0 0 0 0 0 127 0" result="hardAlpha"/>
<feOffset/>
<feGaussianBlur stdDeviation="45"/>
<feComposite in2="hardAlpha" operator="out"/>
<feColorMatrix type="matrix" values="0 0 0 0 1 0 0 0 0 1 0 0 0 0 1 0 0 0 1 0"/>
<feBlend mode="normal" in2="BackgroundImageFix" result="effect1_dropShadow_320_4488"/>
<feBlend mode="normal" in="SourceGraphic" in2="effect1_dropShadow_320_4488" result="shape"/>
</filter>
<filter id="filter1_d_320_4488" x="199.469" y="115.45" width="194.926" height="201.279" filterUnits="userSpaceOnUse" color-interpolation-filters="sRGB">
<feFlood flood-opacity="0" result="BackgroundImageFix"/>
<feColorMatrix in="SourceAlpha" type="matrix" values="0 0 0 0 0 0 0 0 0 0 0 0 0 0 0 0 0 0 127 0" result="hardAlpha"/>
<feOffset/>
<feGaussianBlur stdDeviation="7.5"/>
<feComposite in2="hardAlpha" operator="out"/>
<feColorMatrix type="matrix" values="0 0 0 0 0 0 0 0 0 0 0 0 0 0 0 0 0 0 0.25 0"/>
<feBlend mode="normal" in2="BackgroundImageFix" result="effect1_dropShadow_320_4488"/>
<feBlend mode="normal" in="SourceGraphic" in2="effect1_dropShadow_320_4488" result="shape"/>
</filter>
<filter id="filter2_g_320_4488" x="212.969" y="128.95" width="167.926" height="174.279" filterUnits="userSpaceOnUse" color-interpolation-filters="sRGB">
<feFlood flood-opacity="0" result="BackgroundImageFix"/>
<feBlend mode="normal" in="SourceGraphic" in2="BackgroundImageFix" result="shape"/>
<feTurbulence type="fractalNoise" baseFrequency="0.066666677594184875 0.066666677594184875" numOctaves="3" seed="5149" />
<feDisplacementMap in="shape" scale="2.9999995231628418" xChannelSelector="R" yChannelSelector="G" result="displacedImage" width="100%" height="100%" />
<feMerge result="effect1_texture_320_4488">
<feMergeNode in="displacedImage"/>
</feMerge>
</filter>
<filter id="filter3_g_320_4488" x="220.969" y="136.951" width="151.926" height="144.433" filterUnits="userSpaceOnUse" color-interpolation-filters="sRGB">
<feFlood flood-opacity="0" result="BackgroundImageFix"/>
<feBlend mode="normal" in="SourceGraphic" in2="BackgroundImageFix" result="shape"/>
<feTurbulence type="fractalNoise" baseFrequency="0.066666670143604279 0.066666670143604279" numOctaves="3" seed="5149" />
<feDisplacementMap in="shape" scale="3" xChannelSelector="R" yChannelSelector="G" result="displacedImage" width="100%" height="100%" />
<feMerge result="effect1_texture_320_4488">
<feMergeNode in="displacedImage"/>
</feMerge>
</filter>
<filter id="filter4_ig_320_4488" x="232.922" y="180.211" width="115.023" height="115.021" filterUnits="userSpaceOnUse" color-interpolation-filters="sRGB">
<feFlood flood-opacity="0" result="BackgroundImageFix"/>
<feBlend mode="normal" in="SourceGraphic" in2="BackgroundImageFix" result="shape"/>
<feColorMatrix in="SourceAlpha" type="matrix" values="0 0 0 0 0 0 0 0 0 0 0 0 0 0 0 0 0 0 127 0" result="hardAlpha"/>
<feOffset dy="1.5"/>
<feGaussianBlur stdDeviation="3.75"/>
<feComposite in2="hardAlpha" operator="arithmetic" k2="-1" k3="1"/>
<feColorMatrix type="matrix" values="0 0 0 0 0.352941 0 0 0 0 0.47451 0 0 0 0 0.976471 0 0 0 1 0"/>
<feBlend mode="normal" in2="shape" result="effect1_innerShadow_320_4488"/>
<feTurbulence type="fractalNoise" baseFrequency="0.066666670143604279 0.066666670143604279" numOctaves="3" seed="5149" />
<feDisplacementMap in="effect1_innerShadow_320_4488" scale="3" xChannelSelector="R" yChannelSelector="G" result="displacedImage" width="100%" height="100%" />
<feMerge result="effect2_texture_320_4488">
<feMergeNode in="displacedImage"/>
</feMerge>
</filter>
<filter id="filter5_g_320_4488" x="254.484" y="191.01" width="80.5859" height="60.9668" filterUnits="userSpaceOnUse" color-interpolation-filters="sRGB">
<feFlood flood-opacity="0" result="BackgroundImageFix"/>
<feBlend mode="normal" in="SourceGraphic" in2="BackgroundImageFix" result="shape"/>
<feTurbulence type="fractalNoise" baseFrequency="0.066666670143604279 0.066666670143604279" numOctaves="3" seed="5149" />
<feDisplacementMap in="shape" scale="3" xChannelSelector="R" yChannelSelector="G" result="displacedImage" width="100%" height="100%" />
<feMerge result="effect1_texture_320_4488">
<feMergeNode in="displacedImage"/>
</feMerge>
</filter>
<filter id="filter6_g_320_4488" x="267.395" y="244.251" width="31.0195" height="20.7764" filterUnits="userSpaceOnUse" color-interpolation-filters="sRGB">
<feFlood flood-opacity="0" result="BackgroundImageFix"/>
<feBlend mode="normal" in="SourceGraphic" in2="BackgroundImageFix" result="shape"/>
<feTurbulence type="fractalNoise" baseFrequency="0.066666677594184875 0.066666677594184875" numOctaves="3" seed="5149" />
<feDisplacementMap in="shape" scale="2.9999995231628418" xChannelSelector="R" yChannelSelector="G" result="displacedImage" width="100%" height="100%" />
<feMerge result="effect1_texture_320_4488">
<feMergeNode in="displacedImage"/>
</feMerge>
</filter>
</defs>
</svg>
