<svg width="500" height="500" viewBox="0 0 500 500" fill="none" xmlns="http://www.w3.org/2000/svg">
<g filter="url(#filter0_d_440_3386)">
<rect x="169" y="169" width="162" height="162" rx="50" fill="white"/>
<rect x="164.5" y="164.5" width="171" height="171" rx="54.5" stroke="#5A79F9" stroke-width="9"/>
<path d="M247.356 278.028V233.964C247.356 233.1 247.383 232.074 247.437 230.886C247.491 229.698 247.545 228.672 247.599 227.808C247.707 226.89 247.788 226.512 247.842 226.674L250.758 227.16H232.128V221.652C232.884 221.382 234.072 221.139 235.692 220.923C237.366 220.653 239.202 220.437 241.2 220.275C243.252 220.113 245.196 220.032 247.032 220.032C248.976 220.032 250.677 220.14 252.135 220.356C253.593 220.518 254.754 220.734 255.618 221.004L255.78 221.976C255.564 222.948 255.402 224.244 255.294 225.864C255.24 227.484 255.186 229.131 255.132 230.805C255.132 232.479 255.132 233.856 255.132 234.936V278.028H247.356ZM230.832 279V272.196H269.712V279H230.832Z" fill="#5A79F9"/>
</g>
<g filter="url(#filter1_d_440_3386)">
<g filter="url(#filter2_g_440_3386)">
<mask id="path-4-outside-1_440_3386" maskUnits="userSpaceOnUse" x="226.985" y="51.202" width="208.465" height="209.173" fill="black">
<rect fill="white" x="226.985" y="51.202" width="208.465" height="209.173"/>
<path d="M342.213 81.9987C347.731 78.8128 354.786 80.7034 357.972 86.2214L365.938 100.017C367.468 102.666 369.987 104.6 372.942 105.392L390.933 110.212C397.087 111.861 400.74 118.188 399.091 124.342L394.271 142.331C393.479 145.286 393.893 148.436 395.423 151.086L404.036 166.004C407.222 171.522 405.331 178.578 399.813 181.764L384.895 190.377C382.245 191.907 380.312 194.427 379.52 197.382L375.247 213.329C373.942 218.199 369.708 221.499 364.949 221.849C364.182 223.081 363.357 224.191 362.442 225.208C357.864 230.293 351.793 233.797 345.101 235.22C337.492 236.837 328.728 234.489 311.201 229.792C293.674 225.096 284.91 222.748 279.129 217.543C274.045 212.965 270.54 206.894 269.117 200.202C268.833 198.863 268.673 197.488 268.625 196.037C264.682 193.353 262.668 188.381 263.972 183.513L268.172 167.838C268.964 164.882 268.549 161.733 267.02 159.084L258.207 143.821C255.021 138.303 256.912 131.246 262.43 128.06L277.693 119.249C280.343 117.719 282.277 115.199 283.069 112.243L287.816 94.5263C289.465 88.3717 295.791 84.7192 301.946 86.3683L319.663 91.1155C322.618 91.9075 325.768 91.4931 328.418 89.9633L342.213 81.9987Z"/>
</mask>
<path d="M342.213 81.9987L338.213 75.0704L342.213 81.9987ZM357.972 86.2214L351.044 90.2214L351.044 90.2217L357.972 86.2214ZM365.938 100.017L372.866 96.0165L372.866 96.0165L365.938 100.017ZM372.942 105.392L370.872 113.119L370.872 113.119L372.942 105.392ZM390.933 110.212L393.003 102.485L393.003 102.485L390.933 110.212ZM395.423 151.086L388.495 155.085L388.495 155.086L395.423 151.086ZM404.036 166.004L397.108 170.004L404.036 166.004ZM399.813 181.764L395.813 174.836L399.813 181.764ZM384.895 190.377L380.895 183.449L380.895 183.449L384.895 190.377ZM379.52 197.382L371.793 195.311L371.792 195.311L379.52 197.382ZM375.247 213.329L382.974 215.4L375.247 213.329ZM364.949 221.849L364.362 213.87L360.306 214.168L358.156 217.622L364.949 221.849ZM362.442 225.208L368.387 230.561L368.387 230.561L362.442 225.208ZM345.101 235.22L346.764 243.045L346.764 243.045L345.101 235.22ZM311.201 229.792L309.13 237.52L311.201 229.792ZM279.129 217.543L273.776 223.488L273.776 223.488L279.129 217.543ZM269.117 200.202L261.292 201.865L261.292 201.865L269.117 200.202ZM268.625 196.037L276.621 195.773L276.487 191.71L273.126 189.423L268.625 196.037ZM263.972 183.513L256.245 181.443L263.972 183.513ZM268.172 167.838L275.9 169.908L275.9 169.908L268.172 167.838ZM267.02 159.084L273.948 155.084L273.948 155.084L267.02 159.084ZM258.207 143.821L251.279 147.821L251.279 147.821L258.207 143.821ZM262.43 128.06L258.43 121.132L258.43 121.132L262.43 128.06ZM277.693 119.249L281.693 126.177L281.694 126.177L277.693 119.249ZM283.069 112.243L290.796 114.314L283.069 112.243ZM287.816 94.5263L280.089 92.4558L287.816 94.5263ZM301.946 86.3683L304.016 78.6409L301.946 86.3683ZM319.663 91.1155L317.592 98.843L319.663 91.1155ZM328.418 89.9633L332.417 96.8915L332.418 96.8915L328.418 89.9633ZM342.213 81.9987L346.213 88.9269C347.904 87.9502 350.067 88.5297 351.044 90.2214L357.972 86.2214L364.9 82.2214C359.505 72.8771 347.557 69.6755 338.213 75.0704L342.213 81.9987ZM357.972 86.2214L351.044 90.2217L359.01 104.017L365.938 100.017L372.866 96.0165L364.9 82.2211L357.972 86.2214ZM365.938 100.017L359.01 104.017C361.6 108.504 365.867 111.778 370.872 113.119L372.942 105.392L375.013 97.6644C374.107 97.4217 373.335 96.8291 372.866 96.0165L365.938 100.017ZM372.942 105.392L370.872 113.119L388.862 117.94L390.933 110.212L393.003 102.485L375.013 97.6644L372.942 105.392ZM390.933 110.212L388.862 117.94C390.749 118.445 391.869 120.385 391.363 122.272L399.091 124.342L406.818 126.413C409.611 115.991 403.426 105.278 393.003 102.485L390.933 110.212ZM399.091 124.342L391.363 122.272L386.543 140.26L394.271 142.331L401.998 144.401L406.818 126.413L399.091 124.342ZM394.271 142.331L386.543 140.26C385.202 145.265 385.904 150.598 388.495 155.085L395.423 151.086L402.351 147.086C401.883 146.274 401.755 145.308 401.998 144.401L394.271 142.331ZM395.423 151.086L388.495 155.086L397.108 170.004L404.036 166.004L410.964 162.004L402.351 147.086L395.423 151.086ZM404.036 166.004L397.108 170.004C398.085 171.695 397.505 173.859 395.813 174.836L399.813 181.764L403.813 188.692C413.157 183.297 416.359 171.348 410.964 162.004L404.036 166.004ZM399.813 181.764L395.813 174.836L380.895 183.449L384.895 190.377L388.895 197.305L403.813 188.692L399.813 181.764ZM384.895 190.377L380.895 183.449C376.408 186.04 373.134 190.307 371.793 195.311L379.52 197.382L387.247 199.453C387.49 198.547 388.083 197.774 388.895 197.305L384.895 190.377ZM379.52 197.382L371.792 195.311L367.519 211.259L375.247 213.329L382.974 215.4L387.247 199.453L379.52 197.382ZM375.247 213.329L367.519 211.259C367.124 212.735 365.837 213.762 364.362 213.87L364.949 221.849L365.535 229.827C373.58 229.236 380.76 223.663 382.974 215.4L375.247 213.329ZM364.949 221.849L358.156 217.622C357.613 218.495 357.067 219.222 356.497 219.855L362.442 225.208L368.387 230.561C369.648 229.161 370.751 227.667 371.741 226.075L364.949 221.849ZM362.442 225.208L356.497 219.855C353.049 223.684 348.477 226.324 343.437 227.395L345.101 235.22L346.764 243.045C355.109 241.271 362.679 236.901 368.387 230.561L362.442 225.208ZM345.101 235.22L343.437 227.395C341.078 227.896 338.15 227.886 333.305 227.003C328.368 226.104 322.163 224.447 313.272 222.065L311.201 229.792L309.13 237.52C317.767 239.834 324.707 241.7 330.436 242.744C336.257 243.805 341.515 244.161 346.764 243.045L345.101 235.22ZM311.201 229.792L313.272 222.065C304.38 219.683 298.178 218.014 293.453 216.325C288.816 214.668 286.275 213.212 284.482 211.598L279.129 217.543L273.776 223.488C277.764 227.079 282.495 229.4 288.067 231.391C293.551 233.352 300.494 235.206 309.13 237.52L311.201 229.792ZM279.129 217.543L284.482 211.598C280.653 208.15 278.014 203.578 276.942 198.538L269.117 200.202L261.292 201.865C263.066 210.21 267.436 217.779 273.776 223.488L279.129 217.543ZM269.117 200.202L276.942 198.538C276.765 197.704 276.655 196.801 276.621 195.773L268.625 196.037L260.63 196.301C260.692 198.176 260.9 200.022 261.292 201.865L269.117 200.202ZM268.625 196.037L273.126 189.423C271.904 188.592 271.304 187.06 271.699 185.584L263.972 183.513L256.245 181.443C254.031 189.702 257.459 198.115 264.125 202.651L268.625 196.037ZM263.972 183.513L271.699 185.584L275.9 169.908L268.172 167.838L260.445 165.767L256.245 181.443L263.972 183.513ZM268.172 167.838L275.9 169.908C277.241 164.903 276.538 159.571 273.948 155.084L267.02 159.084L260.091 163.084C260.56 163.896 260.687 164.861 260.445 165.767L268.172 167.838ZM267.02 159.084L273.948 155.084L265.135 139.821L258.207 143.821L251.279 147.821L260.092 163.084L267.02 159.084ZM258.207 143.821L265.135 139.821C264.158 138.129 264.738 135.965 266.43 134.989L262.43 128.06L258.43 121.132C249.086 126.527 245.884 138.476 251.279 147.821L258.207 143.821ZM262.43 128.06L266.43 134.989L281.693 126.177L277.693 119.249L273.694 112.32L258.43 121.132L262.43 128.06ZM277.693 119.249L281.694 126.177C286.181 123.586 289.455 119.318 290.796 114.314L283.069 112.243L275.341 110.173C275.098 111.079 274.505 111.852 273.693 112.321L277.693 119.249ZM283.069 112.243L290.796 114.314L295.543 96.5969L287.816 94.5263L280.089 92.4558L275.341 110.173L283.069 112.243ZM287.816 94.5263L295.543 96.5969C296.049 94.71 297.989 93.5902 299.875 94.0957L301.946 86.3683L304.016 78.6409C293.594 75.8483 282.881 82.0334 280.089 92.4558L287.816 94.5263ZM301.946 86.3683L299.875 94.0957L317.592 98.843L319.663 91.1155L321.733 83.3881L304.016 78.6409L301.946 86.3683ZM319.663 91.1155L317.592 98.843C322.597 100.184 327.93 99.4824 332.417 96.8915L328.418 89.9633L324.418 83.035C323.606 83.5038 322.64 83.631 321.733 83.3881L319.663 91.1155ZM328.418 89.9633L332.418 96.8915L346.213 88.9269L342.213 81.9987L338.213 75.0704L324.418 83.0351L328.418 89.9633Z" fill="white" mask="url(#path-4-outside-1_440_3386)"/>
</g>
<g filter="url(#filter3_g_440_3386)">
<path d="M365.938 100.017C367.468 102.667 369.988 104.6 372.943 105.392L390.932 110.212C397.087 111.862 400.739 118.188 399.09 124.342L394.27 142.331C393.478 145.286 393.893 148.435 395.423 151.085L404.037 166.005C407.222 171.523 405.332 178.579 399.814 181.764L384.894 190.378C382.244 191.908 380.311 194.428 379.519 197.384L375.246 213.329C373.597 219.484 367.271 223.136 361.116 221.487L272.13 197.644C265.976 195.994 262.323 189.668 263.972 183.514L268.172 167.839C268.964 164.884 268.549 161.735 267.02 159.085L258.207 143.821C255.021 138.303 256.912 131.247 262.43 128.061L277.694 119.248C280.344 117.719 282.277 115.199 283.069 112.243L287.816 94.5266C289.465 88.372 295.792 84.7196 301.946 86.3687L319.664 91.1161C322.619 91.908 325.768 91.4934 328.418 89.9635L342.213 81.9988C347.731 78.813 354.787 80.7036 357.973 86.2217L365.938 100.017Z" fill="#5A79F9"/>
</g>
<g filter="url(#filter4_ig_440_3386)">
<rect x="287.966" y="116.23" width="103.68" height="103.68" rx="32.4" transform="rotate(15 287.966 116.23)" fill="#FFC6B7"/>
</g>
<g filter="url(#filter5_g_440_3386)">
<path d="M295.771 146.835C297.13 141.763 297.809 139.227 299.315 137.555C300.64 136.083 302.397 135.069 304.333 134.658C306.535 134.19 309.071 134.869 314.142 136.228C319.214 137.587 321.75 138.266 323.422 139.772C324.893 141.097 325.908 142.854 326.319 144.79C326.787 146.992 326.108 149.528 324.749 154.599L320.867 169.088C319.508 174.16 318.828 176.695 317.322 178.368C315.997 179.839 314.241 180.853 312.304 181.265C310.103 181.733 307.567 181.054 302.495 179.695C297.424 178.336 294.888 177.656 293.215 176.15C291.744 174.825 290.73 173.069 290.318 171.132C289.85 168.931 290.53 166.395 291.889 161.323L295.771 146.835Z" fill="white"/>
<path d="M337.064 157.9C338.423 152.828 339.102 150.293 340.608 148.62C341.933 147.149 343.69 146.135 345.626 145.723C347.828 145.255 350.364 145.934 355.435 147.293V147.293C360.507 148.652 363.043 149.332 364.715 150.838C366.186 152.163 367.201 153.919 367.612 155.856C368.08 158.057 367.401 160.593 366.042 165.665L362.159 180.153C360.801 185.225 360.121 187.761 358.615 189.433C357.29 190.905 355.534 191.919 353.597 192.331C351.396 192.798 348.86 192.119 343.788 190.76V190.76C338.717 189.401 336.181 188.722 334.508 187.216C333.037 185.891 332.023 184.134 331.611 182.198C331.143 179.996 331.823 177.46 333.182 172.389L337.064 157.9Z" fill="white"/>
<path d="M305.121 154.751C304.442 157.286 304.102 158.554 304.336 159.655C304.542 160.623 305.049 161.502 305.785 162.164C306.621 162.917 307.889 163.257 310.424 163.936V163.936C310.885 164.06 311.115 164.122 311.271 164.248C311.451 164.394 311.569 164.598 311.606 164.828C311.637 165.025 311.576 165.253 311.454 165.71L310.475 169.364C309.795 171.9 309.455 173.168 308.702 174.005C308.04 174.74 307.161 175.247 306.193 175.453C305.092 175.687 303.825 175.347 301.289 174.667C298.753 173.988 297.485 173.648 296.649 172.895C295.913 172.233 295.406 171.355 295.2 170.387C294.966 169.286 295.306 168.017 295.986 165.482L297.927 158.237C298.606 155.702 298.946 154.434 299.699 153.597C300.361 152.862 301.24 152.355 302.208 152.149C302.694 152.046 303.212 152.055 303.858 152.156C304.699 152.288 305.12 152.354 305.348 152.704C305.576 153.054 305.456 153.501 305.217 154.395L305.121 154.751Z" fill="#4C4C4C"/>
<path d="M345.6 165.986C344.92 168.522 344.58 169.79 344.814 170.89C345.02 171.858 345.528 172.736 346.263 173.399C347.1 174.152 348.367 174.492 350.903 175.172V175.172C351.024 175.204 351.085 175.22 351.133 175.239C351.543 175.399 351.786 175.819 351.719 176.254C351.711 176.305 351.696 176.364 351.664 176.482L350.588 180.496C349.909 183.032 349.569 184.3 348.816 185.136C348.154 185.872 347.275 186.379 346.307 186.585C345.206 186.819 343.938 186.479 341.403 185.8C338.867 185.12 337.599 184.78 336.763 184.028C336.027 183.365 335.52 182.486 335.314 181.518C335.08 180.417 335.42 179.15 336.099 176.614L338.041 169.37C338.72 166.834 339.06 165.566 339.813 164.73C340.475 163.994 341.354 163.487 342.322 163.281C342.9 163.158 343.524 163.195 344.355 163.356C345.199 163.519 345.621 163.601 345.837 163.947C346.053 164.292 345.935 164.733 345.7 165.613L345.6 165.986Z" fill="#4C4C4C"/>
</g>
<g filter="url(#filter6_g_440_3386)">
<path d="M303.496 190.3C304.673 187.776 307.864 186.96 310.108 188.609L316.361 193.204C317.507 194.046 318.809 194.653 320.191 194.99L327.73 196.827C330.436 197.486 331.862 200.455 330.685 202.979V202.979C329.796 204.885 327.685 205.899 325.641 205.401L317.208 203.347C315.284 202.878 313.472 202.033 311.876 200.86L304.882 195.721C303.187 194.475 302.607 192.206 303.496 190.3V190.3Z" fill="white"/>
</g>
</g>
<defs>
<filter id="filter0_d_440_3386" x="70" y="70" width="360" height="360" filterUnits="userSpaceOnUse" color-interpolation-filters="sRGB">
<feFlood flood-opacity="0" result="BackgroundImageFix"/>
<feColorMatrix in="SourceAlpha" type="matrix" values="0 0 0 0 0 0 0 0 0 0 0 0 0 0 0 0 0 0 127 0" result="hardAlpha"/>
<feOffset/>
<feGaussianBlur stdDeviation="45"/>
<feComposite in2="hardAlpha" operator="out"/>
<feColorMatrix type="matrix" values="0 0 0 0 1 0 0 0 0 1 0 0 0 0 1 0 0 0 1 0"/>
<feBlend mode="normal" in2="BackgroundImageFix" result="effect1_dropShadow_440_3386"/>
<feBlend mode="normal" in="SourceGraphic" in2="effect1_dropShadow_440_3386" result="shape"/>
</filter>
<filter id="filter1_d_440_3386" x="233.658" y="57.4502" width="194.927" height="201.279" filterUnits="userSpaceOnUse" color-interpolation-filters="sRGB">
<feFlood flood-opacity="0" result="BackgroundImageFix"/>
<feColorMatrix in="SourceAlpha" type="matrix" values="0 0 0 0 0 0 0 0 0 0 0 0 0 0 0 0 0 0 127 0" result="hardAlpha"/>
<feOffset/>
<feGaussianBlur stdDeviation="7.5"/>
<feComposite in2="hardAlpha" operator="out"/>
<feColorMatrix type="matrix" values="0 0 0 0 0 0 0 0 0 0 0 0 0 0 0 0 0 0 0.25 0"/>
<feBlend mode="normal" in2="BackgroundImageFix" result="effect1_dropShadow_440_3386"/>
<feBlend mode="normal" in="SourceGraphic" in2="effect1_dropShadow_440_3386" result="shape"/>
</filter>
<filter id="filter2_g_440_3386" x="247.158" y="70.9502" width="167.927" height="174.279" filterUnits="userSpaceOnUse" color-interpolation-filters="sRGB">
<feFlood flood-opacity="0" result="BackgroundImageFix"/>
<feBlend mode="normal" in="SourceGraphic" in2="BackgroundImageFix" result="shape"/>
<feTurbulence type="fractalNoise" baseFrequency="0.066666677594184875 0.066666677594184875" numOctaves="3" seed="5149" />
<feDisplacementMap in="shape" scale="2.9999995231628418" xChannelSelector="R" yChannelSelector="G" result="displacedImage" width="100%" height="100%" />
<feMerge result="effect1_texture_440_3386">
<feMergeNode in="displacedImage"/>
</feMerge>
</filter>
<filter id="filter3_g_440_3386" x="255.159" y="78.9512" width="151.925" height="144.433" filterUnits="userSpaceOnUse" color-interpolation-filters="sRGB">
<feFlood flood-opacity="0" result="BackgroundImageFix"/>
<feBlend mode="normal" in="SourceGraphic" in2="BackgroundImageFix" result="shape"/>
<feTurbulence type="fractalNoise" baseFrequency="0.066666670143604279 0.066666670143604279" numOctaves="3" seed="5149" />
<feDisplacementMap in="shape" scale="3" xChannelSelector="R" yChannelSelector="G" result="displacedImage" width="100%" height="100%" />
<feMerge result="effect1_texture_440_3386">
<feMergeNode in="displacedImage"/>
</feMerge>
</filter>
<filter id="filter4_ig_440_3386" x="267.112" y="122.211" width="115.021" height="115.021" filterUnits="userSpaceOnUse" color-interpolation-filters="sRGB">
<feFlood flood-opacity="0" result="BackgroundImageFix"/>
<feBlend mode="normal" in="SourceGraphic" in2="BackgroundImageFix" result="shape"/>
<feColorMatrix in="SourceAlpha" type="matrix" values="0 0 0 0 0 0 0 0 0 0 0 0 0 0 0 0 0 0 127 0" result="hardAlpha"/>
<feOffset dy="1.5"/>
<feGaussianBlur stdDeviation="3.75"/>
<feComposite in2="hardAlpha" operator="arithmetic" k2="-1" k3="1"/>
<feColorMatrix type="matrix" values="0 0 0 0 0.352941 0 0 0 0 0.47451 0 0 0 0 0.976471 0 0 0 1 0"/>
<feBlend mode="normal" in2="shape" result="effect1_innerShadow_440_3386"/>
<feTurbulence type="fractalNoise" baseFrequency="0.066666670143604279 0.066666670143604279" numOctaves="3" seed="5149" />
<feDisplacementMap in="effect1_innerShadow_440_3386" scale="3" xChannelSelector="R" yChannelSelector="G" result="displacedImage" width="100%" height="100%" />
<feMerge result="effect2_texture_440_3386">
<feMergeNode in="displacedImage"/>
</feMerge>
</filter>
<filter id="filter5_g_440_3386" x="288.671" y="133.01" width="80.5889" height="60.9678" filterUnits="userSpaceOnUse" color-interpolation-filters="sRGB">
<feFlood flood-opacity="0" result="BackgroundImageFix"/>
<feBlend mode="normal" in="SourceGraphic" in2="BackgroundImageFix" result="shape"/>
<feTurbulence type="fractalNoise" baseFrequency="0.066666670143604279 0.066666670143604279" numOctaves="3" seed="5149" />
<feDisplacementMap in="shape" scale="3" xChannelSelector="R" yChannelSelector="G" result="displacedImage" width="100%" height="100%" />
<feMerge result="effect1_texture_440_3386">
<feMergeNode in="displacedImage"/>
</feMerge>
</filter>
<filter id="filter6_g_440_3386" x="301.582" y="186.251" width="31.0186" height="20.7764" filterUnits="userSpaceOnUse" color-interpolation-filters="sRGB">
<feFlood flood-opacity="0" result="BackgroundImageFix"/>
<feBlend mode="normal" in="SourceGraphic" in2="BackgroundImageFix" result="shape"/>
<feTurbulence type="fractalNoise" baseFrequency="0.066666677594184875 0.066666677594184875" numOctaves="3" seed="5149" />
<feDisplacementMap in="shape" scale="2.9999995231628418" xChannelSelector="R" yChannelSelector="G" result="displacedImage" width="100%" height="100%" />
<feMerge result="effect1_texture_440_3386">
<feMergeNode in="displacedImage"/>
</feMerge>
</filter>
</defs>
</svg>
