<svg width="361" height="361" viewBox="0 0 361 361" fill="none" xmlns="http://www.w3.org/2000/svg">
<g filter="url(#filter0_d_305_2654)">
<rect x="99.8438" y="99.5117" width="162" height="162" rx="50" fill="url(#paint0_linear_305_2654)"/>
<rect x="95.3438" y="95.0117" width="171" height="171" rx="54.5" stroke="white" stroke-width="9"/>
<path d="M161.028 199.63H161.676C163.134 200.494 165.186 201.385 167.832 202.303C170.478 203.221 173.502 203.68 176.904 203.68C180.9 203.68 184.005 203.086 186.219 201.898C188.433 200.71 189.972 199.198 190.836 197.362C191.7 195.526 192.132 193.636 192.132 191.692C192.132 188.128 190.998 185.401 188.73 183.511C186.462 181.621 183.06 180.676 178.524 180.676C175.068 180.676 172.179 180.973 169.857 181.567C167.589 182.161 165.726 182.62 164.268 182.944L163.62 182.62V166.42C163.62 165.34 163.593 163.909 163.539 162.127C163.539 160.345 163.485 158.59 163.377 156.862C163.323 155.134 163.188 153.784 162.972 152.812L163.134 152.164C164.376 151.84 165.915 151.597 167.751 151.435C169.587 151.273 171.882 151.192 174.636 151.192H197.316V157.996H167.832L170.829 156.214C170.883 156.97 170.937 157.861 170.991 158.887C171.045 159.913 171.072 160.912 171.072 161.884V178.003L169.209 175.249C170.613 174.979 172.152 174.736 173.826 174.52C175.554 174.304 177.228 174.196 178.848 174.196C185.976 174.196 191.268 175.735 194.724 178.813C198.18 181.891 199.908 186.184 199.908 191.692C199.908 195.472 198.963 198.766 197.073 201.574C195.237 204.382 192.591 206.569 189.135 208.135C185.733 209.701 181.656 210.484 176.904 210.484C173.664 210.484 170.64 210.187 167.832 209.593C165.078 208.999 162.81 208.216 161.028 207.244V199.63Z" fill="white"/>
</g>
<defs>
<filter id="filter0_d_305_2654" x="0.84375" y="0.511719" width="360" height="360" filterUnits="userSpaceOnUse" color-interpolation-filters="sRGB">
<feFlood flood-opacity="0" result="BackgroundImageFix"/>
<feColorMatrix in="SourceAlpha" type="matrix" values="0 0 0 0 0 0 0 0 0 0 0 0 0 0 0 0 0 0 127 0" result="hardAlpha"/>
<feOffset/>
<feGaussianBlur stdDeviation="45"/>
<feComposite in2="hardAlpha" operator="out"/>
<feColorMatrix type="matrix" values="0 0 0 0 0.351909 0 0 0 0 0.475644 0 0 0 0 0.975962 0 0 0 1 0"/>
<feBlend mode="normal" in2="BackgroundImageFix" result="effect1_dropShadow_305_2654"/>
<feBlend mode="normal" in="SourceGraphic" in2="effect1_dropShadow_305_2654" result="shape"/>
</filter>
<linearGradient id="paint0_linear_305_2654" x1="99.8438" y1="180.512" x2="261.844" y2="180.512" gradientUnits="userSpaceOnUse">
<stop stop-color="#F67F1E"/>
<stop offset="1" stop-color="#EBC333"/>
</linearGradient>
</defs>
</svg>
