<svg width="500" height="500" viewBox="0 0 500 500" fill="none" xmlns="http://www.w3.org/2000/svg">
<g filter="url(#filter0_d_440_12514)">
<rect x="169" y="169" width="162" height="162" rx="50" fill="white"/>
<rect x="164.5" y="164.5" width="171" height="171" rx="54.5" stroke="#5A79F9" stroke-width="9"/>
<path d="M250.596 279.972C246.816 279.972 243.576 279.297 240.876 277.947C238.176 276.543 235.989 274.545 234.315 271.953C232.695 269.361 231.48 266.283 230.67 262.719C229.914 259.155 229.536 255.186 229.536 250.812C229.536 246.006 230.103 241.713 231.237 237.933C232.371 234.099 234.045 230.832 236.259 228.132C238.527 225.378 241.335 223.299 244.683 221.895C248.085 220.437 252 219.708 256.428 219.708C258.696 219.708 260.613 219.87 262.179 220.194C263.745 220.464 265.176 220.842 266.472 221.328V228.456H265.824C264.69 227.97 263.394 227.538 261.936 227.16C260.478 226.728 258.534 226.512 256.104 226.512C252.864 226.512 250.056 227.052 247.68 228.132C245.304 229.158 243.36 230.724 241.848 232.83C240.336 234.882 239.202 237.393 238.446 240.363C237.69 243.279 237.312 246.654 237.312 250.488C237.312 255.564 237.717 259.803 238.527 263.205C239.391 266.607 240.795 269.172 242.739 270.9C244.737 272.628 247.464 273.492 250.92 273.492C253.836 273.492 256.185 272.898 257.967 271.71C259.803 270.468 261.126 268.848 261.936 266.85C262.8 264.798 263.232 262.584 263.232 260.208C263.232 256.32 262.179 253.242 260.073 250.974C258.021 248.706 254.97 247.572 250.92 247.572C247.356 247.572 244.413 248.301 242.091 249.759C239.823 251.163 237.906 252.918 236.34 255.024H233.424V247.41H236.664C237.96 245.844 239.823 244.413 242.253 243.117C244.683 241.767 248.004 241.092 252.216 241.092C255.78 241.092 258.939 241.821 261.693 243.279C264.501 244.683 266.688 246.816 268.254 249.678C269.874 252.486 270.684 255.996 270.684 260.208C270.684 263.88 269.901 267.228 268.335 270.252C266.823 273.222 264.555 275.598 261.531 277.38C258.561 279.108 254.916 279.972 250.596 279.972Z" fill="#5A79F9"/>
</g>
<g filter="url(#filter1_d_440_12514)">
<g filter="url(#filter2_g_440_12514)">
<mask id="path-4-outside-1_440_12514" maskUnits="userSpaceOnUse" x="226.986" y="51.202" width="208.465" height="209.173" fill="black">
<rect fill="white" x="226.986" y="51.202" width="208.465" height="209.173"/>
<path d="M342.214 81.9987C347.732 78.8128 354.788 80.7036 357.974 86.2217L365.939 100.017C367.469 102.667 369.989 104.6 372.944 105.392L390.933 110.212C397.087 111.861 400.74 118.188 399.091 124.342L394.271 142.332C393.479 145.287 393.893 148.436 395.423 151.085L404.036 166.004C407.222 171.522 405.331 178.578 399.813 181.764L384.895 190.377C382.245 191.907 380.312 194.427 379.52 197.383L375.247 213.329C373.942 218.199 369.709 221.499 364.95 221.849C364.183 223.081 363.358 224.191 362.443 225.208C357.865 230.293 351.794 233.797 345.102 235.22C337.493 236.837 328.729 234.489 311.202 229.792C293.675 225.096 284.911 222.748 279.13 217.543C274.045 212.965 270.541 206.894 269.118 200.202C268.834 198.863 268.673 197.488 268.626 196.037C264.682 193.353 262.668 188.381 263.972 183.513L268.172 167.838C268.964 164.883 268.55 161.733 267.02 159.084L258.208 143.821C255.022 138.303 256.913 131.246 262.431 128.06L277.694 119.249C280.343 117.719 282.277 115.199 283.069 112.244L287.816 94.5261C289.465 88.3715 295.791 84.719 301.946 86.3681L319.665 91.1158C322.62 91.9076 325.769 91.493 328.419 89.9633L342.214 81.9987Z"/>
</mask>
<path d="M342.214 81.9987L346.214 88.9269L342.214 81.9987ZM357.974 86.2217L364.902 82.2217L357.974 86.2217ZM365.939 100.017L359.011 104.017L359.011 104.017L365.939 100.017ZM372.944 105.392L375.015 97.6647L372.944 105.392ZM390.933 110.212L388.862 117.939L390.933 110.212ZM399.091 124.342L406.818 126.413L406.818 126.413L399.091 124.342ZM394.271 142.332L386.543 140.261L386.543 140.261L394.271 142.332ZM395.423 151.085L388.495 155.085L388.495 155.085L395.423 151.085ZM404.036 166.004L397.108 170.004L404.036 166.004ZM399.813 181.764L403.813 188.692L399.813 181.764ZM384.895 190.377L380.895 183.449L380.895 183.449L384.895 190.377ZM379.52 197.383L371.792 195.312L379.52 197.383ZM375.247 213.329L382.974 215.399L375.247 213.329ZM364.95 221.849L364.363 213.87L360.306 214.169L358.157 217.622L364.95 221.849ZM362.443 225.208L368.388 230.561L368.388 230.561L362.443 225.208ZM345.102 235.22L346.765 243.045L346.765 243.045L345.102 235.22ZM311.202 229.792L309.131 237.52L311.202 229.792ZM279.13 217.543L273.777 223.488L273.777 223.488L279.13 217.543ZM269.118 200.202L261.293 201.865L261.293 201.865L269.118 200.202ZM268.626 196.037L276.621 195.773L276.487 191.71L273.126 189.423L268.626 196.037ZM263.972 183.513L256.245 181.442L263.972 183.513ZM268.172 167.838L275.899 169.909L268.172 167.838ZM267.02 159.084L273.948 155.084L273.948 155.084L267.02 159.084ZM258.208 143.821L251.28 147.821L258.208 143.821ZM262.431 128.06L266.431 134.989L262.431 128.06ZM277.694 119.249L281.694 126.177L281.694 126.177L277.694 119.249ZM283.069 112.244L290.796 114.315L290.796 114.314L283.069 112.244ZM287.816 94.5261L280.089 92.4555L280.089 92.4555L287.816 94.5261ZM301.946 86.3681L299.875 94.0955L301.946 86.3681ZM319.665 91.1158L317.594 98.8432L317.594 98.8433L319.665 91.1158ZM328.419 89.9633L332.418 96.8916L332.419 96.8915L328.419 89.9633ZM342.214 81.9987L346.214 88.9269C347.905 87.9502 350.069 88.53 351.046 90.2217L357.974 86.2217L364.902 82.2217C359.507 72.8773 347.558 69.6755 338.214 75.0705L342.214 81.9987ZM357.974 86.2217L351.046 90.2217L359.011 104.017L365.939 100.017L372.867 96.0168L364.902 82.2217L357.974 86.2217ZM365.939 100.017L359.011 104.017C361.602 108.505 365.869 111.779 370.874 113.119L372.944 105.392L375.015 97.6647C374.108 97.4217 373.336 96.8287 372.867 96.0167L365.939 100.017ZM372.944 105.392L370.874 113.119L388.862 117.939L390.933 110.212L393.003 102.485L375.015 97.6647L372.944 105.392ZM390.933 110.212L388.862 117.939C390.749 118.445 391.869 120.385 391.363 122.272L399.091 124.342L406.818 126.413C409.611 115.99 403.426 105.277 393.003 102.485L390.933 110.212ZM399.091 124.342L391.363 122.272L386.543 140.261L394.271 142.332L401.998 144.402L406.818 126.413L399.091 124.342ZM394.271 142.332L386.543 140.261C385.202 145.266 385.905 150.598 388.495 155.085L395.423 151.085L402.351 147.086C401.882 146.273 401.755 145.308 401.998 144.402L394.271 142.332ZM395.423 151.085L388.495 155.085L397.108 170.004L404.036 166.004L410.964 162.004L402.351 147.085L395.423 151.085ZM404.036 166.004L397.108 170.004C398.085 171.695 397.505 173.859 395.813 174.836L399.813 181.764L403.813 188.692C413.158 183.297 416.359 171.348 410.964 162.004L404.036 166.004ZM399.813 181.764L395.813 174.836L380.895 183.449L384.895 190.377L388.895 197.305L403.813 188.692L399.813 181.764ZM384.895 190.377L380.895 183.449C376.407 186.04 373.133 190.308 371.792 195.312L379.52 197.383L387.247 199.453C387.49 198.547 388.083 197.774 388.895 197.305L384.895 190.377ZM379.52 197.383L371.792 195.312L367.519 211.258L375.247 213.329L382.974 215.399L387.247 199.453L379.52 197.383ZM375.247 213.329L367.519 211.258C367.124 212.736 365.837 213.762 364.363 213.87L364.95 221.849L365.537 229.827C373.581 229.235 380.76 223.662 382.974 215.399L375.247 213.329ZM364.95 221.849L358.157 217.622C357.614 218.495 357.068 219.222 356.498 219.855L362.443 225.208L368.388 230.561C369.649 229.161 370.752 227.667 371.742 226.075L364.95 221.849ZM362.443 225.208L356.498 219.855C353.05 223.684 348.479 226.323 343.438 227.395L345.102 235.22L346.765 243.045C355.11 241.271 362.68 236.901 368.388 230.561L362.443 225.208ZM345.102 235.22L343.438 227.395C341.079 227.896 338.151 227.886 333.306 227.003C328.369 226.104 322.164 224.447 313.273 222.065L311.202 229.792L309.131 237.52C317.768 239.834 324.708 241.7 330.437 242.744C336.258 243.805 341.516 244.161 346.765 243.045L345.102 235.22ZM311.202 229.792L313.273 222.065C304.381 219.683 298.179 218.014 293.454 216.325C288.817 214.668 286.276 213.212 284.483 211.598L279.13 217.543L273.777 223.488C277.765 227.079 282.496 229.4 288.068 231.391C293.552 233.352 300.495 235.206 309.131 237.52L311.202 229.792ZM279.13 217.543L284.483 211.598C280.654 208.15 278.015 203.578 276.943 198.538L269.118 200.202L261.293 201.865C263.067 210.21 267.437 217.779 273.777 223.488L279.13 217.543ZM269.118 200.202L276.943 198.538C276.765 197.7 276.655 196.797 276.621 195.773L268.626 196.037L260.63 196.3C260.692 198.18 260.902 200.025 261.293 201.865L269.118 200.202ZM268.626 196.037L273.126 189.423C271.905 188.591 271.304 187.06 271.699 185.583L263.972 183.513L256.245 181.442C254.032 189.702 257.459 198.115 264.125 202.651L268.626 196.037ZM263.972 183.513L271.699 185.583L275.899 169.909L268.172 167.838L260.445 165.768L256.245 181.442L263.972 183.513ZM268.172 167.838L275.899 169.909C277.24 164.904 276.539 159.571 273.948 155.084L267.02 159.084L260.092 163.084C260.56 163.895 260.688 164.861 260.445 165.768L268.172 167.838ZM267.02 159.084L273.948 155.084L265.136 139.821L258.208 143.821L251.28 147.821L260.092 163.084L267.02 159.084ZM258.208 143.821L265.136 139.821C264.159 138.129 264.739 135.965 266.431 134.989L262.431 128.06L258.431 121.132C249.086 126.527 245.885 138.477 251.28 147.821L258.208 143.821ZM262.431 128.06L266.431 134.989L281.694 126.177L277.694 119.249L273.694 112.32L258.431 121.132L262.431 128.06ZM277.694 119.249L281.694 126.177C286.181 123.586 289.455 119.319 290.796 114.315L283.069 112.244L275.341 110.173C275.098 111.079 274.506 111.851 273.693 112.32L277.694 119.249ZM283.069 112.244L290.796 114.314L295.543 96.5966L287.816 94.5261L280.089 92.4555L275.341 110.173L283.069 112.244ZM287.816 94.5261L295.543 96.5966C296.049 94.7098 297.989 93.5899 299.875 94.0955L301.946 86.3681L304.017 78.6407C293.594 75.8481 282.881 82.0332 280.089 92.4555L287.816 94.5261ZM301.946 86.3681L299.875 94.0955L317.594 98.8432L319.665 91.1158L321.735 83.3884L304.017 78.6407L301.946 86.3681ZM319.665 91.1158L317.594 98.8433C322.599 100.184 327.931 99.482 332.418 96.8916L328.419 89.9633L324.419 83.035C323.606 83.504 322.641 83.6311 321.735 83.3884L319.665 91.1158ZM328.419 89.9633L332.419 96.8915L346.214 88.9269L342.214 81.9987L338.214 75.0705L324.419 83.0351L328.419 89.9633Z" fill="white" mask="url(#path-4-outside-1_440_12514)"/>
</g>
<g filter="url(#filter3_g_440_12514)">
<path d="M365.938 100.017C367.468 102.667 369.988 104.6 372.943 105.392L390.933 110.212C397.088 111.862 400.74 118.188 399.091 124.342L394.271 142.331C393.479 145.287 393.894 148.436 395.423 151.086L404.037 166.004C407.222 171.522 405.332 178.578 399.814 181.764L384.895 190.377C382.246 191.907 380.312 194.427 379.52 197.383L375.247 213.329C373.598 219.484 367.272 223.136 361.117 221.487L272.13 197.643C265.976 195.994 262.323 189.668 263.972 183.513L268.172 167.838C268.964 164.883 268.55 161.734 267.02 159.084L258.208 143.821C255.022 138.303 256.913 131.247 262.431 128.061L277.694 119.249C280.343 117.719 282.277 115.199 283.069 112.244L287.816 94.5264C289.465 88.3718 295.792 84.7194 301.946 86.3685L319.664 91.1158C322.619 91.9078 325.768 91.4932 328.418 89.9633L342.213 81.9986C347.731 78.8127 354.787 80.7034 357.973 86.2214L365.938 100.017Z" fill="#5A79F9"/>
</g>
<g filter="url(#filter4_ig_440_12514)">
<rect x="287.966" y="116.23" width="103.68" height="103.68" rx="32.4" transform="rotate(15 287.966 116.23)" fill="#FFC6B7"/>
</g>
<g filter="url(#filter5_g_440_12514)">
<path d="M295.772 146.835C297.131 141.763 297.81 139.227 299.316 137.555C300.641 136.083 302.398 135.069 304.334 134.658C306.536 134.19 309.072 134.869 314.143 136.228C319.215 137.587 321.751 138.266 323.423 139.772C324.894 141.097 325.909 142.854 326.32 144.79C326.788 146.992 326.109 149.528 324.75 154.599L320.868 169.088C319.509 174.16 318.829 176.695 317.323 178.368C315.998 179.839 314.242 180.853 312.305 181.265C310.104 181.733 307.568 181.054 302.496 179.695C297.425 178.336 294.889 177.656 293.216 176.15C291.745 174.825 290.731 173.069 290.319 171.132C289.851 168.931 290.531 166.395 291.89 161.323L295.772 146.835Z" fill="white"/>
<path d="M337.065 157.9C338.424 152.828 339.103 150.293 340.609 148.62C341.934 147.149 343.691 146.135 345.627 145.723C347.829 145.255 350.365 145.934 355.436 147.293V147.293C360.508 148.652 363.044 149.332 364.716 150.838C366.187 152.163 367.202 153.919 367.613 155.856C368.081 158.057 367.402 160.593 366.043 165.665L362.16 180.153C360.802 185.225 360.122 187.761 358.616 189.433C357.291 190.905 355.535 191.919 353.598 192.331C351.397 192.798 348.861 192.119 343.789 190.76V190.76C338.718 189.401 336.182 188.722 334.509 187.216C333.038 185.891 332.024 184.134 331.612 182.198C331.144 179.996 331.824 177.46 333.183 172.389L337.065 157.9Z" fill="white"/>
<path d="M305.122 154.751C304.443 157.286 304.103 158.554 304.337 159.655C304.543 160.623 305.05 161.502 305.785 162.164C306.622 162.917 307.89 163.257 310.425 163.936V163.936C310.886 164.06 311.116 164.122 311.272 164.248C311.452 164.394 311.57 164.598 311.607 164.828C311.638 165.025 311.577 165.253 311.455 165.71L310.475 169.364C309.796 171.9 309.456 173.168 308.703 174.005C308.041 174.74 307.162 175.247 306.194 175.453C305.093 175.687 303.826 175.347 301.29 174.667C298.754 173.988 297.486 173.648 296.65 172.895C295.914 172.233 295.407 171.355 295.201 170.387C294.967 169.286 295.307 168.017 295.987 165.482L297.928 158.237C298.607 155.702 298.947 154.434 299.7 153.597C300.362 152.862 301.241 152.355 302.209 152.149C302.695 152.046 303.213 152.055 303.859 152.156C304.7 152.288 305.121 152.354 305.349 152.704C305.577 153.054 305.457 153.501 305.218 154.395L305.122 154.751Z" fill="#4C4C4C"/>
<path d="M345.601 165.986C344.921 168.522 344.581 169.79 344.815 170.89C345.021 171.858 345.529 172.736 346.264 173.399C347.101 174.152 348.368 174.492 350.904 175.172V175.172C351.025 175.204 351.086 175.22 351.134 175.239C351.544 175.399 351.787 175.819 351.72 176.254C351.712 176.305 351.697 176.364 351.665 176.482L350.589 180.496C349.91 183.032 349.57 184.3 348.817 185.136C348.155 185.872 347.276 186.379 346.308 186.585C345.207 186.819 343.939 186.479 341.404 185.8C338.868 185.12 337.6 184.78 336.764 184.028C336.028 183.365 335.521 182.486 335.315 181.518C335.081 180.417 335.421 179.15 336.1 176.614L338.042 169.37C338.721 166.834 339.061 165.566 339.814 164.73C340.476 163.994 341.355 163.487 342.323 163.281C342.901 163.158 343.525 163.195 344.356 163.356C345.2 163.519 345.622 163.601 345.838 163.947C346.054 164.292 345.936 164.733 345.701 165.613L345.601 165.986Z" fill="#4C4C4C"/>
</g>
<g filter="url(#filter6_g_440_12514)">
<path d="M303.496 190.3C304.673 187.776 307.864 186.96 310.108 188.609L316.361 193.204C317.507 194.046 318.809 194.653 320.191 194.99L327.73 196.827C330.436 197.486 331.862 200.455 330.685 202.979V202.979C329.796 204.885 327.685 205.899 325.641 205.401L317.208 203.347C315.284 202.878 313.472 202.033 311.876 200.86L304.882 195.721C303.187 194.475 302.607 192.206 303.496 190.3V190.3Z" fill="white"/>
</g>
</g>
<defs>
<filter id="filter0_d_440_12514" x="70" y="70" width="360" height="360" filterUnits="userSpaceOnUse" color-interpolation-filters="sRGB">
<feFlood flood-opacity="0" result="BackgroundImageFix"/>
<feColorMatrix in="SourceAlpha" type="matrix" values="0 0 0 0 0 0 0 0 0 0 0 0 0 0 0 0 0 0 127 0" result="hardAlpha"/>
<feOffset/>
<feGaussianBlur stdDeviation="45"/>
<feComposite in2="hardAlpha" operator="out"/>
<feColorMatrix type="matrix" values="0 0 0 0 1 0 0 0 0 1 0 0 0 0 1 0 0 0 1 0"/>
<feBlend mode="normal" in2="BackgroundImageFix" result="effect1_dropShadow_440_12514"/>
<feBlend mode="normal" in="SourceGraphic" in2="effect1_dropShadow_440_12514" result="shape"/>
</filter>
<filter id="filter1_d_440_12514" x="233.659" y="57.4502" width="194.926" height="201.279" filterUnits="userSpaceOnUse" color-interpolation-filters="sRGB">
<feFlood flood-opacity="0" result="BackgroundImageFix"/>
<feColorMatrix in="SourceAlpha" type="matrix" values="0 0 0 0 0 0 0 0 0 0 0 0 0 0 0 0 0 0 127 0" result="hardAlpha"/>
<feOffset/>
<feGaussianBlur stdDeviation="7.5"/>
<feComposite in2="hardAlpha" operator="out"/>
<feColorMatrix type="matrix" values="0 0 0 0 0 0 0 0 0 0 0 0 0 0 0 0 0 0 0.25 0"/>
<feBlend mode="normal" in2="BackgroundImageFix" result="effect1_dropShadow_440_12514"/>
<feBlend mode="normal" in="SourceGraphic" in2="effect1_dropShadow_440_12514" result="shape"/>
</filter>
<filter id="filter2_g_440_12514" x="247.159" y="70.9502" width="167.926" height="174.279" filterUnits="userSpaceOnUse" color-interpolation-filters="sRGB">
<feFlood flood-opacity="0" result="BackgroundImageFix"/>
<feBlend mode="normal" in="SourceGraphic" in2="BackgroundImageFix" result="shape"/>
<feTurbulence type="fractalNoise" baseFrequency="0.066666677594184875 0.066666677594184875" numOctaves="3" seed="5149" />
<feDisplacementMap in="shape" scale="2.9999995231628418" xChannelSelector="R" yChannelSelector="G" result="displacedImage" width="100%" height="100%" />
<feMerge result="effect1_texture_440_12514">
<feMergeNode in="displacedImage"/>
</feMerge>
</filter>
<filter id="filter3_g_440_12514" x="255.16" y="78.9512" width="151.924" height="144.433" filterUnits="userSpaceOnUse" color-interpolation-filters="sRGB">
<feFlood flood-opacity="0" result="BackgroundImageFix"/>
<feBlend mode="normal" in="SourceGraphic" in2="BackgroundImageFix" result="shape"/>
<feTurbulence type="fractalNoise" baseFrequency="0.066666670143604279 0.066666670143604279" numOctaves="3" seed="5149" />
<feDisplacementMap in="shape" scale="3" xChannelSelector="R" yChannelSelector="G" result="displacedImage" width="100%" height="100%" />
<feMerge result="effect1_texture_440_12514">
<feMergeNode in="displacedImage"/>
</feMerge>
</filter>
<filter id="filter4_ig_440_12514" x="267.112" y="122.211" width="115.021" height="115.021" filterUnits="userSpaceOnUse" color-interpolation-filters="sRGB">
<feFlood flood-opacity="0" result="BackgroundImageFix"/>
<feBlend mode="normal" in="SourceGraphic" in2="BackgroundImageFix" result="shape"/>
<feColorMatrix in="SourceAlpha" type="matrix" values="0 0 0 0 0 0 0 0 0 0 0 0 0 0 0 0 0 0 127 0" result="hardAlpha"/>
<feOffset dy="1.5"/>
<feGaussianBlur stdDeviation="3.75"/>
<feComposite in2="hardAlpha" operator="arithmetic" k2="-1" k3="1"/>
<feColorMatrix type="matrix" values="0 0 0 0 0.352941 0 0 0 0 0.47451 0 0 0 0 0.976471 0 0 0 1 0"/>
<feBlend mode="normal" in2="shape" result="effect1_innerShadow_440_12514"/>
<feTurbulence type="fractalNoise" baseFrequency="0.066666670143604279 0.066666670143604279" numOctaves="3" seed="5149" />
<feDisplacementMap in="effect1_innerShadow_440_12514" scale="3" xChannelSelector="R" yChannelSelector="G" result="displacedImage" width="100%" height="100%" />
<feMerge result="effect2_texture_440_12514">
<feMergeNode in="displacedImage"/>
</feMerge>
</filter>
<filter id="filter5_g_440_12514" x="288.672" y="133.01" width="80.5889" height="60.9678" filterUnits="userSpaceOnUse" color-interpolation-filters="sRGB">
<feFlood flood-opacity="0" result="BackgroundImageFix"/>
<feBlend mode="normal" in="SourceGraphic" in2="BackgroundImageFix" result="shape"/>
<feTurbulence type="fractalNoise" baseFrequency="0.066666670143604279 0.066666670143604279" numOctaves="3" seed="5149" />
<feDisplacementMap in="shape" scale="3" xChannelSelector="R" yChannelSelector="G" result="displacedImage" width="100%" height="100%" />
<feMerge result="effect1_texture_440_12514">
<feMergeNode in="displacedImage"/>
</feMerge>
</filter>
<filter id="filter6_g_440_12514" x="301.582" y="186.251" width="31.0186" height="20.7764" filterUnits="userSpaceOnUse" color-interpolation-filters="sRGB">
<feFlood flood-opacity="0" result="BackgroundImageFix"/>
<feBlend mode="normal" in="SourceGraphic" in2="BackgroundImageFix" result="shape"/>
<feTurbulence type="fractalNoise" baseFrequency="0.066666677594184875 0.066666677594184875" numOctaves="3" seed="5149" />
<feDisplacementMap in="shape" scale="2.9999995231628418" xChannelSelector="R" yChannelSelector="G" result="displacedImage" width="100%" height="100%" />
<feMerge result="effect1_texture_440_12514">
<feMergeNode in="displacedImage"/>
</feMerge>
</filter>
</defs>
</svg>
