<svg width="385" height="366" viewBox="0 0 385 366" fill="none" xmlns="http://www.w3.org/2000/svg">
<g filter="url(#filter0_d_305_2448)">
<rect x="99" y="104.512" width="162" height="162" rx="50" fill="white"/>
<rect x="94.5" y="100.012" width="171" height="171" rx="54.5" stroke="#5A79F9" stroke-width="9"/>
<path d="M151.736 215.484C148.82 215.484 146.039 215.187 143.393 214.593C140.801 213.999 138.614 213.216 136.832 212.244V204.63H137.48C139.1 205.656 141.152 206.601 143.636 207.465C146.12 208.275 148.82 208.68 151.736 208.68C155.732 208.68 158.81 208.086 160.97 206.898C163.13 205.656 164.615 204.171 165.425 202.443C166.235 200.661 166.64 198.96 166.64 197.34C166.64 194.1 165.479 191.508 163.157 189.564C160.889 187.62 157.406 186.648 152.708 186.648H146.876L145.58 183.408L165.02 160.323L166.154 162.672H137.804V156.192H170.528L171.5 157.002C171.608 157.38 171.689 157.866 171.743 158.46C171.797 159 171.824 159.432 171.824 159.756C171.824 161.052 171.5 162.348 170.852 163.644C170.204 164.886 169.34 166.128 168.26 167.37L154.409 182.922L153.761 180.492C158.189 180.546 161.915 181.275 164.939 182.679C167.963 184.029 170.231 185.973 171.743 188.511C173.309 190.995 174.092 194.046 174.092 197.664C174.092 201.228 173.201 204.36 171.419 207.06C169.637 209.706 167.072 211.785 163.724 213.297C160.376 214.755 156.38 215.484 151.736 215.484ZM204.079 215.484C197.761 215.484 193.009 214.35 189.823 212.082C186.691 209.76 185.125 206.25 185.125 201.552C185.125 198.42 185.881 195.828 187.393 193.776C188.959 191.724 191.146 190.185 193.954 189.159C196.816 188.133 200.191 187.62 204.079 187.62C207.103 187.62 209.614 187.89 211.612 188.43C213.664 188.916 215.419 189.402 216.877 189.888V195.72C215.419 195.234 213.61 194.802 211.45 194.424C209.29 193.992 207.265 193.776 205.375 193.776C201.001 193.776 197.734 194.343 195.574 195.477C193.468 196.611 192.415 198.636 192.415 201.552C192.415 204.306 193.441 206.304 195.493 207.546C197.545 208.734 200.515 209.328 204.403 209.328C206.563 209.328 208.642 209.166 210.64 208.842C212.638 208.464 214.501 207.978 216.229 207.384L214.771 209.571C214.663 209.139 214.555 208.653 214.447 208.113C214.393 207.573 214.339 207.006 214.285 206.412C214.231 205.818 214.177 205.197 214.123 204.549C214.123 203.901 214.123 203.226 214.123 202.524V187.944C214.123 184.488 213.637 181.923 212.665 180.249C211.747 178.521 210.343 177.387 208.453 176.847C206.617 176.253 204.295 175.956 201.487 175.956C199.381 175.956 197.221 176.226 195.007 176.766C192.847 177.306 191.119 177.9 189.823 178.548H189.175V171.906C191.119 171.096 193.279 170.502 195.655 170.124C198.085 169.692 200.353 169.476 202.459 169.476C205.159 169.476 207.643 169.719 209.911 170.205C212.233 170.691 214.258 171.582 215.986 172.878C217.768 174.12 219.145 175.929 220.117 178.305C221.089 180.681 221.575 183.786 221.575 187.62V198.312C221.575 199.392 221.575 200.796 221.575 202.524C221.629 204.252 221.683 205.953 221.737 207.627C221.845 209.301 222.007 210.624 222.223 211.596L222.061 212.244C220.279 212.892 218.308 213.459 216.148 213.945C213.988 214.431 211.828 214.809 209.668 215.079C207.562 215.349 205.699 215.484 204.079 215.484Z" fill="#5A79F9"/>
</g>
<g filter="url(#filter1_d_305_2448)">
<g filter="url(#filter2_g_305_2448)">
<mask id="path-4-outside-1_305_2448" maskUnits="userSpaceOnUse" x="182.796" y="-5.79796" width="208.465" height="209.173" fill="black">
<rect fill="white" x="182.796" y="-5.79796" width="208.465" height="209.173"/>
<path d="M298.023 24.9987C303.541 21.8129 310.598 23.7036 313.784 29.2217L321.748 43.0168C323.278 45.6666 325.797 47.6008 328.753 48.3927L346.743 53.2132C352.898 54.8623 356.55 61.1879 354.901 67.3423L350.081 85.3317C349.289 88.2873 349.703 91.4366 351.233 94.0865L359.846 109.005C363.032 114.523 361.142 121.578 355.624 124.764L340.705 133.377C338.056 134.907 336.122 137.427 335.33 140.383L331.057 156.33C329.752 161.2 325.519 164.5 320.759 164.85C319.992 166.082 319.168 167.192 318.253 168.208C313.674 173.293 307.604 176.797 300.911 178.22C293.303 179.837 284.539 177.49 267.011 172.793C249.484 168.097 240.72 165.748 234.94 160.543C229.855 155.965 226.35 149.894 224.928 143.202C224.643 141.863 224.484 140.489 224.436 139.038C220.492 136.354 218.478 131.382 219.782 126.514L223.982 110.84C224.774 107.884 224.36 104.735 222.83 102.085L214.017 86.8209C210.832 81.3029 212.722 74.2473 218.24 71.0614L233.504 62.2488C236.154 60.7189 238.087 58.1986 238.879 55.2431L243.627 37.5263C245.276 31.372 251.602 27.7202 257.756 29.3693L275.473 34.1165C278.429 34.9084 281.578 34.4932 284.228 32.9633L298.023 24.9987Z"/>
</mask>
<path d="M298.023 24.9987L294.023 18.0704L294.023 18.0705L298.023 24.9987ZM313.784 29.2217L320.712 25.2217L313.784 29.2217ZM321.748 43.0168L314.82 47.0168L321.748 43.0168ZM328.753 48.3927L326.682 56.1201L326.682 56.1201L328.753 48.3927ZM346.743 53.2132L348.814 45.4858L348.814 45.4858L346.743 53.2132ZM354.901 67.3423L362.629 69.4129L362.629 69.4126L354.901 67.3423ZM355.624 124.764L359.624 131.692L359.624 131.692L355.624 124.764ZM340.705 133.377L344.705 140.305L340.705 133.377ZM335.33 140.383L327.603 138.312L327.603 138.312L335.33 140.383ZM331.057 156.33L338.785 158.401L338.785 158.401L331.057 156.33ZM320.759 164.85L320.173 156.871L316.116 157.169L313.967 160.623L320.759 164.85ZM318.253 168.208L324.198 173.561L324.198 173.561L318.253 168.208ZM300.911 178.22L302.575 186.045L302.575 186.045L300.911 178.22ZM267.011 172.793L264.941 180.521L267.011 172.793ZM234.94 160.543L229.587 166.488L229.587 166.488L234.94 160.543ZM224.928 143.202L217.102 144.865L217.102 144.865L224.928 143.202ZM224.436 139.038L232.431 138.774L232.297 134.711L228.936 132.424L224.436 139.038ZM219.782 126.514L212.055 124.444L212.055 124.444L219.782 126.514ZM223.982 110.84L231.71 112.91L231.71 112.91L223.982 110.84ZM222.83 102.085L215.902 106.085L222.83 102.085ZM214.017 86.8209L220.946 82.8209L214.017 86.8209ZM218.24 71.0614L214.24 64.1332L218.24 71.0614ZM233.504 62.2488L237.504 69.177L237.504 69.177L233.504 62.2488ZM238.879 55.2431L231.152 53.1726L238.879 55.2431ZM243.627 37.5263L235.899 35.4555L235.899 35.4558L243.627 37.5263ZM257.756 29.3693L259.827 21.6419L257.756 29.3693ZM275.473 34.1165L273.403 41.8439L275.473 34.1165ZM298.023 24.9987L302.023 31.9269C303.715 30.9502 305.879 31.53 306.855 33.2217L313.784 29.2217L320.712 25.2217C315.317 15.8772 303.368 12.6756 294.023 18.0704L298.023 24.9987ZM313.784 29.2217L306.855 33.2217L314.82 47.0168L321.748 43.0168L328.676 39.0168L320.712 25.2217L313.784 29.2217ZM321.748 43.0168L314.82 47.0168C317.41 51.5026 321.676 54.7785 326.682 56.1201L328.753 48.3927L330.824 40.6654C329.919 40.423 329.146 39.8306 328.676 39.0168L321.748 43.0168ZM328.753 48.3927L326.682 56.1201L344.673 60.9407L346.743 53.2132L348.814 45.4858L330.823 40.6653L328.753 48.3927ZM346.743 53.2132L344.673 60.9406C346.56 61.4463 347.679 63.3857 347.174 65.2721L354.901 67.3423L362.629 69.4126C365.421 58.99 359.235 48.2783 348.814 45.4858L346.743 53.2132ZM354.901 67.3423L347.174 65.2718L342.354 83.2612L350.081 85.3317L357.809 87.4023L362.629 69.4129L354.901 67.3423ZM350.081 85.3317L342.354 83.2612C341.013 88.2656 341.714 93.5986 344.305 98.0865L351.233 94.0865L358.162 90.0865C357.693 89.2746 357.566 88.309 357.809 87.4023L350.081 85.3317ZM351.233 94.0865L344.305 98.0865L352.918 113.005L359.846 109.005L366.775 105.005L358.162 90.0865L351.233 94.0865ZM359.846 109.005L352.918 113.005C353.895 114.696 353.315 116.859 351.624 117.836L355.624 124.764L359.624 131.692C368.968 126.297 372.17 114.349 366.775 105.005L359.846 109.005ZM355.624 124.764L351.624 117.836L336.705 126.449L340.705 133.377L344.705 140.305L359.624 131.692L355.624 124.764ZM340.705 133.377L336.705 126.449C332.218 129.04 328.944 133.308 327.603 138.312L335.33 140.383L343.058 142.454C343.301 141.547 343.894 140.774 344.705 140.305L340.705 133.377ZM335.33 140.383L327.603 138.312L323.33 154.26L331.057 156.33L338.785 158.401L343.058 142.453L335.33 140.383ZM331.057 156.33L323.33 154.259C322.934 155.737 321.647 156.763 320.173 156.871L320.759 164.85L321.345 172.828C329.39 172.237 336.57 166.663 338.785 158.401L331.057 156.33ZM320.759 164.85L313.967 160.623C313.424 161.495 312.878 162.221 312.307 162.855L318.253 168.208L324.198 173.561C325.458 172.162 326.56 170.669 327.551 169.076L320.759 164.85ZM318.253 168.208L312.308 162.855C308.86 166.684 304.288 169.323 299.248 170.395L300.911 178.22L302.575 186.045C310.92 184.271 318.489 179.901 324.198 173.561L318.253 168.208ZM300.911 178.22L299.248 170.395C296.888 170.896 293.96 170.887 289.115 170.004C284.178 169.104 277.973 167.448 269.082 165.066L267.011 172.793L264.941 180.521C273.577 182.835 280.517 184.701 286.247 185.745C292.068 186.805 297.326 187.161 302.575 186.045L300.911 178.22ZM267.011 172.793L269.082 165.066C260.191 162.684 253.989 161.015 249.264 159.326C244.627 157.668 242.086 156.212 240.293 154.598L234.94 160.543L229.587 166.488C233.574 170.078 238.305 172.4 243.877 174.392C249.361 176.352 256.304 178.207 264.941 180.521L267.011 172.793ZM234.94 160.543L240.293 154.598C236.464 151.15 233.824 146.578 232.753 141.538L224.928 143.202L217.102 144.865C218.876 153.21 223.247 160.779 229.587 166.488L234.94 160.543ZM224.928 143.202L232.753 141.538C232.575 140.703 232.465 139.8 232.431 138.774L224.436 139.038L216.44 139.302C216.502 141.178 216.711 143.024 217.102 144.865L224.928 143.202ZM224.436 139.038L228.936 132.424C227.715 131.593 227.114 130.061 227.51 128.584L219.782 126.514L212.055 124.444C209.842 132.703 213.269 141.116 219.935 145.652L224.436 139.038ZM219.782 126.514L227.51 128.585L231.71 112.91L223.982 110.84L216.255 108.769L212.055 124.444L219.782 126.514ZM223.982 110.84L231.71 112.91C233.051 107.906 232.349 102.573 229.758 98.0848L222.83 102.085L215.902 106.085C216.371 106.897 216.498 107.862 216.255 108.769L223.982 110.84ZM222.83 102.085L229.758 98.0848L220.946 82.8209L214.017 86.8209L207.089 90.8209L215.902 106.085L222.83 102.085ZM214.017 86.8209L220.946 82.8209C219.969 81.1292 220.548 78.9663 222.24 77.9896L218.24 71.0614L214.24 64.1332C204.896 69.5282 201.694 81.4765 207.089 90.8209L214.017 86.8209ZM218.24 71.0614L222.24 77.9896L237.504 69.177L233.504 62.2488L229.504 55.3206L214.24 64.1332L218.24 71.0614ZM233.504 62.2488L237.504 69.177C241.992 66.586 245.266 62.3181 246.607 57.3137L238.879 55.2431L231.152 53.1726C230.909 54.0792 230.316 54.8519 229.504 55.3207L233.504 62.2488ZM238.879 55.2431L246.607 57.3137L251.354 39.5969L243.627 37.5263L235.899 35.4558L231.152 53.1726L238.879 55.2431ZM243.627 37.5263L251.354 39.5972C251.859 37.7108 253.798 36.591 255.686 37.0967L257.756 29.3693L259.827 21.6419C249.405 18.8494 238.692 25.0332 235.899 35.4555L243.627 37.5263ZM257.756 29.3693L255.686 37.0967L273.403 41.8439L275.473 34.1165L277.544 26.3891L259.827 21.6419L257.756 29.3693ZM275.473 34.1165L273.403 41.8439C278.409 43.1853 283.742 42.4817 288.228 39.8915L284.228 32.9633L280.228 26.0351C279.415 26.5047 278.449 26.6316 277.544 26.3891L275.473 34.1165ZM284.228 32.9633L288.228 39.8915L302.023 31.9269L298.023 24.9987L294.023 18.0705L280.228 26.0351L284.228 32.9633Z" fill="white" mask="url(#path-4-outside-1_305_2448)"/>
</g>
<g filter="url(#filter3_g_305_2448)">
<path d="M321.748 43.0169C323.278 45.6668 325.798 47.6004 328.754 48.3923L346.744 53.2127C352.898 54.8619 356.551 61.188 354.902 67.3426L350.081 85.3317C349.29 88.2873 349.704 91.4363 351.234 94.0862L359.847 109.005C363.033 114.523 361.142 121.579 355.624 124.764L340.706 133.377C338.056 134.907 336.122 137.427 335.331 140.383L331.058 156.33C329.408 162.484 323.082 166.137 316.928 164.488L227.941 140.644C221.786 138.994 218.134 132.668 219.783 126.514L223.983 110.839C224.775 107.884 224.36 104.735 222.83 102.085L214.017 86.8209C210.832 81.3029 212.722 74.247 218.24 71.0611L233.504 62.2484C236.154 60.7185 238.088 58.1986 238.88 55.2431L243.627 37.5266C245.276 31.372 251.602 27.7196 257.757 29.3687L275.474 34.1161C278.43 34.908 281.579 34.4935 284.229 32.9636L298.024 24.9988C303.542 21.813 310.598 23.7036 313.784 29.2217L321.748 43.0169Z" fill="#5A79F9"/>
</g>
<g filter="url(#filter4_ig_305_2448)">
<rect x="243.777" y="59.2305" width="103.68" height="103.68" rx="32.4" transform="rotate(15 243.777 59.2305)" fill="#FFC6B7"/>
</g>
<g filter="url(#filter5_g_305_2448)">
<path d="M251.583 89.8346C252.941 84.763 253.621 82.2272 255.127 80.5546C256.452 79.0833 258.208 78.0692 260.145 77.6576C262.346 77.1896 264.882 77.8691 269.954 79.228C275.025 80.5869 277.561 81.2664 279.234 82.7724C280.705 84.0972 281.719 85.8537 282.131 87.7902C282.599 89.9918 281.919 92.5276 280.56 97.5992L276.678 112.088C275.319 117.16 274.64 119.695 273.134 121.368C271.809 122.839 270.052 123.853 268.116 124.265C265.914 124.733 263.378 124.054 258.307 122.695C253.235 121.336 250.699 120.656 249.027 119.15C247.556 117.825 246.541 116.069 246.13 114.132C245.662 111.931 246.341 109.395 247.7 104.323L251.583 89.8346Z" fill="white"/>
<path d="M292.876 100.899C294.234 95.8275 294.914 93.2917 296.42 91.619C297.745 90.1478 299.501 89.1336 301.438 88.722C303.639 88.2541 306.175 88.9335 311.247 90.2924V90.2924C316.318 91.6514 318.854 92.3308 320.527 93.8369C321.998 95.1616 323.012 96.9181 323.424 98.8547C323.892 101.056 323.212 103.592 321.853 108.664L317.971 123.153C316.612 128.224 315.933 130.76 314.427 132.433C313.102 133.904 311.345 134.918 309.409 135.33C307.207 135.797 304.671 135.118 299.6 133.759V133.759C294.528 132.4 291.992 131.721 290.32 130.215C288.849 128.89 287.834 127.133 287.423 125.197C286.955 122.995 287.634 120.46 288.993 115.388L292.876 100.899Z" fill="white"/>
<path d="M267.924 96.9333C270.46 97.6128 271.728 97.9524 272.564 98.7053C273.3 99.3677 273.807 100.246 274.013 101.215C274.247 102.315 273.907 103.583 273.227 106.119L271.286 113.363C270.607 115.899 270.267 117.167 269.514 118.003C268.852 118.739 267.973 119.246 267.005 119.452C265.904 119.686 264.636 119.346 262.101 118.667C259.565 117.987 258.297 117.648 257.461 116.895C256.725 116.232 256.218 115.354 256.012 114.385C255.778 113.285 256.118 112.017 256.797 109.481L257.479 106.936C257.703 106.102 257.815 105.684 258.135 105.489C258.455 105.294 258.897 105.39 259.779 105.581C260.778 105.798 261.489 105.862 262.141 105.723C263.11 105.518 263.988 105.01 264.651 104.275C265.404 103.438 265.743 102.171 266.423 99.6349L267.004 97.4672C267.111 97.0663 267.523 96.8259 267.924 96.9333V96.9333Z" fill="#4C4C4C"/>
<path d="M308.037 108.068C310.573 108.748 311.841 109.087 312.677 109.84C313.413 110.502 313.92 111.381 314.126 112.349C314.36 113.45 314.02 114.718 313.341 117.254L311.4 124.498C310.72 127.034 310.38 128.302 309.628 129.138C308.965 129.874 308.087 130.381 307.118 130.587C306.018 130.821 304.75 130.481 302.214 129.801C299.678 129.122 298.41 128.782 297.574 128.029C296.838 127.367 296.331 126.488 296.125 125.52C295.891 124.419 296.231 123.151 296.911 120.616L297.591 118.076C297.817 117.235 297.929 116.814 298.255 116.619C298.581 116.424 299.018 116.527 299.892 116.732C301.087 117.013 301.89 117.111 302.619 116.956C303.587 116.75 304.465 116.242 305.127 115.507C305.88 114.671 306.22 113.403 306.899 110.867L307.578 108.334C307.631 108.134 307.837 108.014 308.037 108.068V108.068Z" fill="#4C4C4C"/>
</g>
<g filter="url(#filter6_g_305_2448)">
<path d="M259.307 133.3C260.484 130.776 263.676 129.96 265.919 131.609L272.172 136.204C273.319 137.046 274.62 137.653 276.002 137.99L283.542 139.827C286.247 140.486 287.673 143.455 286.497 145.979V145.979C285.608 147.885 283.497 148.899 281.453 148.401L273.02 146.347C271.096 145.878 269.284 145.033 267.688 143.86L260.694 138.721C258.999 137.475 258.418 135.206 259.307 133.3V133.3Z" fill="white"/>
</g>
</g>
<defs>
<filter id="filter0_d_305_2448" x="0" y="5.51172" width="360" height="360" filterUnits="userSpaceOnUse" color-interpolation-filters="sRGB">
<feFlood flood-opacity="0" result="BackgroundImageFix"/>
<feColorMatrix in="SourceAlpha" type="matrix" values="0 0 0 0 0 0 0 0 0 0 0 0 0 0 0 0 0 0 127 0" result="hardAlpha"/>
<feOffset/>
<feGaussianBlur stdDeviation="45"/>
<feComposite in2="hardAlpha" operator="out"/>
<feColorMatrix type="matrix" values="0 0 0 0 1 0 0 0 0 1 0 0 0 0 1 0 0 0 1 0"/>
<feBlend mode="normal" in2="BackgroundImageFix" result="effect1_dropShadow_305_2448"/>
<feBlend mode="normal" in="SourceGraphic" in2="effect1_dropShadow_305_2448" result="shape"/>
</filter>
<filter id="filter1_d_305_2448" x="189.469" y="0.450195" width="194.926" height="201.279" filterUnits="userSpaceOnUse" color-interpolation-filters="sRGB">
<feFlood flood-opacity="0" result="BackgroundImageFix"/>
<feColorMatrix in="SourceAlpha" type="matrix" values="0 0 0 0 0 0 0 0 0 0 0 0 0 0 0 0 0 0 127 0" result="hardAlpha"/>
<feOffset/>
<feGaussianBlur stdDeviation="7.5"/>
<feComposite in2="hardAlpha" operator="out"/>
<feColorMatrix type="matrix" values="0 0 0 0 0 0 0 0 0 0 0 0 0 0 0 0 0 0 0.25 0"/>
<feBlend mode="normal" in2="BackgroundImageFix" result="effect1_dropShadow_305_2448"/>
<feBlend mode="normal" in="SourceGraphic" in2="effect1_dropShadow_305_2448" result="shape"/>
</filter>
<filter id="filter2_g_305_2448" x="202.969" y="13.9502" width="167.926" height="174.279" filterUnits="userSpaceOnUse" color-interpolation-filters="sRGB">
<feFlood flood-opacity="0" result="BackgroundImageFix"/>
<feBlend mode="normal" in="SourceGraphic" in2="BackgroundImageFix" result="shape"/>
<feTurbulence type="fractalNoise" baseFrequency="0.066666677594184875 0.066666677594184875" numOctaves="3" seed="5149" />
<feDisplacementMap in="shape" scale="2.9999995231628418" xChannelSelector="R" yChannelSelector="G" result="displacedImage" width="100%" height="100%" />
<feMerge result="effect1_texture_305_2448">
<feMergeNode in="displacedImage"/>
</feMerge>
</filter>
<filter id="filter3_g_305_2448" x="210.969" y="21.9512" width="151.926" height="144.433" filterUnits="userSpaceOnUse" color-interpolation-filters="sRGB">
<feFlood flood-opacity="0" result="BackgroundImageFix"/>
<feBlend mode="normal" in="SourceGraphic" in2="BackgroundImageFix" result="shape"/>
<feTurbulence type="fractalNoise" baseFrequency="0.066666670143604279 0.066666670143604279" numOctaves="3" seed="5149" />
<feDisplacementMap in="shape" scale="3" xChannelSelector="R" yChannelSelector="G" result="displacedImage" width="100%" height="100%" />
<feMerge result="effect1_texture_305_2448">
<feMergeNode in="displacedImage"/>
</feMerge>
</filter>
<filter id="filter4_ig_305_2448" x="222.922" y="65.2109" width="115.023" height="115.021" filterUnits="userSpaceOnUse" color-interpolation-filters="sRGB">
<feFlood flood-opacity="0" result="BackgroundImageFix"/>
<feBlend mode="normal" in="SourceGraphic" in2="BackgroundImageFix" result="shape"/>
<feColorMatrix in="SourceAlpha" type="matrix" values="0 0 0 0 0 0 0 0 0 0 0 0 0 0 0 0 0 0 127 0" result="hardAlpha"/>
<feOffset dy="1.5"/>
<feGaussianBlur stdDeviation="3.75"/>
<feComposite in2="hardAlpha" operator="arithmetic" k2="-1" k3="1"/>
<feColorMatrix type="matrix" values="0 0 0 0 0.352941 0 0 0 0 0.47451 0 0 0 0 0.976471 0 0 0 1 0"/>
<feBlend mode="normal" in2="shape" result="effect1_innerShadow_305_2448"/>
<feTurbulence type="fractalNoise" baseFrequency="0.066666670143604279 0.066666670143604279" numOctaves="3" seed="5149" />
<feDisplacementMap in="effect1_innerShadow_305_2448" scale="3" xChannelSelector="R" yChannelSelector="G" result="displacedImage" width="100%" height="100%" />
<feMerge result="effect2_texture_305_2448">
<feMergeNode in="displacedImage"/>
</feMerge>
</filter>
<filter id="filter5_g_305_2448" x="244.484" y="76.0098" width="80.5859" height="60.9668" filterUnits="userSpaceOnUse" color-interpolation-filters="sRGB">
<feFlood flood-opacity="0" result="BackgroundImageFix"/>
<feBlend mode="normal" in="SourceGraphic" in2="BackgroundImageFix" result="shape"/>
<feTurbulence type="fractalNoise" baseFrequency="0.066666670143604279 0.066666670143604279" numOctaves="3" seed="5149" />
<feDisplacementMap in="shape" scale="3" xChannelSelector="R" yChannelSelector="G" result="displacedImage" width="100%" height="100%" />
<feMerge result="effect1_texture_305_2448">
<feMergeNode in="displacedImage"/>
</feMerge>
</filter>
<filter id="filter6_g_305_2448" x="257.395" y="129.251" width="31.0195" height="20.7764" filterUnits="userSpaceOnUse" color-interpolation-filters="sRGB">
<feFlood flood-opacity="0" result="BackgroundImageFix"/>
<feBlend mode="normal" in="SourceGraphic" in2="BackgroundImageFix" result="shape"/>
<feTurbulence type="fractalNoise" baseFrequency="0.066666677594184875 0.066666677594184875" numOctaves="3" seed="5149" />
<feDisplacementMap in="shape" scale="2.9999995231628418" xChannelSelector="R" yChannelSelector="G" result="displacedImage" width="100%" height="100%" />
<feMerge result="effect1_texture_305_2448">
<feMergeNode in="displacedImage"/>
</feMerge>
</filter>
</defs>
</svg>
