<svg width="360" height="361" viewBox="0 0 360 361" fill="none" xmlns="http://www.w3.org/2000/svg">
<g filter="url(#filter0_d_305_2552)">
<rect x="99" y="99.5117" width="162" height="162" rx="50" fill="white"/>
<rect x="94.5" y="95.0117" width="171" height="171" rx="54.5" stroke="#5A79F9" stroke-width="9"/>
<path d="M150.736 210.484C147.82 210.484 145.039 210.187 142.393 209.593C139.801 208.999 137.614 208.216 135.832 207.244V199.63H136.48C138.1 200.656 140.152 201.601 142.636 202.465C145.12 203.275 147.82 203.68 150.736 203.68C154.732 203.68 157.81 203.086 159.97 201.898C162.13 200.656 163.615 199.171 164.425 197.443C165.235 195.661 165.64 193.96 165.64 192.34C165.64 189.1 164.479 186.508 162.157 184.564C159.889 182.62 156.406 181.648 151.708 181.648H145.876L144.58 178.408L164.02 155.323L165.154 157.672H136.804V151.192H169.528L170.5 152.002C170.608 152.38 170.689 152.866 170.743 153.46C170.797 154 170.824 154.432 170.824 154.756C170.824 156.052 170.5 157.348 169.852 158.644C169.204 159.886 168.34 161.128 167.26 162.37L153.409 177.922L152.761 175.492C157.189 175.546 160.915 176.275 163.939 177.679C166.963 179.029 169.231 180.973 170.743 183.511C172.309 185.995 173.092 189.046 173.092 192.664C173.092 196.228 172.201 199.36 170.419 202.06C168.637 204.706 166.072 206.785 162.724 208.297C159.376 209.755 155.38 210.484 150.736 210.484ZM202.917 210.484C200.163 210.484 197.382 210.187 194.574 209.593C191.766 209.053 189.309 208.378 187.203 207.568L187.041 206.92C187.257 205.948 187.392 204.625 187.446 202.951C187.554 201.277 187.608 199.576 187.608 197.848C187.662 196.12 187.689 194.716 187.689 193.636V161.884C187.689 161.074 187.689 160.075 187.689 158.887C187.689 157.699 187.662 156.457 187.608 155.161C187.554 153.811 187.473 152.569 187.365 151.435C187.311 150.247 187.203 149.302 187.041 148.6L187.203 147.952H195.141V197.524C195.141 199.144 195.06 200.548 194.898 201.736C194.79 202.87 194.655 203.842 194.493 204.652L193.197 202.384C194.493 202.816 195.978 203.194 197.652 203.518C199.326 203.842 201.081 204.004 202.917 204.004C208.101 204.004 211.935 202.573 214.419 199.711C216.903 196.849 218.145 192.664 218.145 187.156C218.145 182.134 216.849 178.192 214.257 175.33C211.719 172.414 207.939 170.956 202.917 170.956C201.513 170.956 200.298 171.037 199.272 171.199C198.246 171.307 197.22 171.496 196.194 171.766C195.168 172.036 193.953 172.414 192.549 172.9V166.744C194.439 165.934 196.329 165.367 198.219 165.043C200.163 164.665 201.945 164.476 203.565 164.476C208.209 164.476 212.178 165.394 215.472 167.23C218.82 169.066 221.358 171.685 223.086 175.087C224.868 178.489 225.759 182.512 225.759 187.156C225.759 192.016 224.841 196.201 223.005 199.711C221.169 203.167 218.55 205.84 215.148 207.73C211.746 209.566 207.669 210.484 202.917 210.484Z" fill="#5A79F9"/>
</g>
<defs>
<filter id="filter0_d_305_2552" x="0" y="0.511719" width="360" height="360" filterUnits="userSpaceOnUse" color-interpolation-filters="sRGB">
<feFlood flood-opacity="0" result="BackgroundImageFix"/>
<feColorMatrix in="SourceAlpha" type="matrix" values="0 0 0 0 0 0 0 0 0 0 0 0 0 0 0 0 0 0 127 0" result="hardAlpha"/>
<feOffset/>
<feGaussianBlur stdDeviation="45"/>
<feComposite in2="hardAlpha" operator="out"/>
<feColorMatrix type="matrix" values="0 0 0 0 1 0 0 0 0 1 0 0 0 0 1 0 0 0 1 0"/>
<feBlend mode="normal" in2="BackgroundImageFix" result="effect1_dropShadow_305_2552"/>
<feBlend mode="normal" in="SourceGraphic" in2="effect1_dropShadow_305_2552" result="shape"/>
</filter>
</defs>
</svg>
