<svg width="500" height="500" viewBox="0 0 500 500" fill="none" xmlns="http://www.w3.org/2000/svg">
<g filter="url(#filter0_d_320_4653)">
<rect x="109" y="219.512" width="162" height="162" rx="50" fill="white"/>
<rect x="104.5" y="215.012" width="171" height="171" rx="54.5" stroke="#5A79F9" stroke-width="9"/>
<path d="M190.596 330.484C186.816 330.484 183.576 329.809 180.876 328.459C178.176 327.055 175.989 325.057 174.315 322.465C172.695 319.873 171.48 316.795 170.67 313.231C169.914 309.667 169.536 305.698 169.536 301.324C169.536 296.518 170.103 292.225 171.237 288.445C172.371 284.611 174.045 281.344 176.259 278.644C178.527 275.89 181.335 273.811 184.683 272.407C188.085 270.949 192 270.22 196.428 270.22C198.696 270.22 200.613 270.382 202.179 270.706C203.745 270.976 205.176 271.354 206.472 271.84V278.968H205.824C204.69 278.482 203.394 278.05 201.936 277.672C200.478 277.24 198.534 277.024 196.104 277.024C192.864 277.024 190.056 277.564 187.68 278.644C185.304 279.67 183.36 281.236 181.848 283.342C180.336 285.394 179.202 287.905 178.446 290.875C177.69 293.791 177.312 297.166 177.312 301C177.312 306.076 177.717 310.315 178.527 313.717C179.391 317.119 180.795 319.684 182.739 321.412C184.737 323.14 187.464 324.004 190.92 324.004C193.836 324.004 196.185 323.41 197.967 322.222C199.803 320.98 201.126 319.36 201.936 317.362C202.8 315.31 203.232 313.096 203.232 310.72C203.232 306.832 202.179 303.754 200.073 301.486C198.021 299.218 194.97 298.084 190.92 298.084C187.356 298.084 184.413 298.813 182.091 300.271C179.823 301.675 177.906 303.43 176.34 305.536H173.424V297.922H176.664C177.96 296.356 179.823 294.925 182.253 293.629C184.683 292.279 188.004 291.604 192.216 291.604C195.78 291.604 198.939 292.333 201.693 293.791C204.501 295.195 206.688 297.328 208.254 300.19C209.874 302.998 210.684 306.508 210.684 310.72C210.684 314.392 209.901 317.74 208.335 320.764C206.823 323.734 204.555 326.11 201.531 327.892C198.561 329.62 194.916 330.484 190.596 330.484Z" fill="#5A79F9"/>
</g>
<g filter="url(#filter1_d_320_4653)">
<g filter="url(#filter2_g_320_4653)">
<mask id="path-4-outside-1_320_4653" maskUnits="userSpaceOnUse" x="192.796" y="109.202" width="208.465" height="209.173" fill="black">
<rect fill="white" x="192.796" y="109.202" width="208.465" height="209.173"/>
<path d="M308.023 139.999C313.541 136.813 320.597 138.703 323.783 144.221L331.747 158.017C333.277 160.666 335.798 162.6 338.753 163.392L356.743 168.212C362.898 169.862 366.55 176.188 364.901 182.342L360.081 200.331C359.289 203.286 359.704 206.436 361.234 209.086L369.847 224.004C373.033 229.522 371.142 236.578 365.624 239.764L350.705 248.377C348.056 249.907 346.122 252.427 345.33 255.382L341.057 271.329C339.753 276.199 335.519 279.499 330.759 279.849C329.992 281.081 329.168 282.192 328.253 283.208C323.674 288.293 317.604 291.797 310.911 293.22C303.303 294.837 294.539 292.489 277.012 287.792C259.484 283.096 250.72 280.748 244.94 275.543C239.855 270.965 236.35 264.894 234.928 258.202C234.643 256.863 234.484 255.489 234.436 254.038C230.492 251.354 228.478 246.381 229.783 241.513L233.983 225.838C234.775 222.882 234.359 219.733 232.829 217.084L224.017 201.821C220.832 196.303 222.722 189.246 228.24 186.06L243.503 177.249C246.153 175.719 248.087 173.199 248.879 170.243L253.627 152.526C255.276 146.372 261.601 142.719 267.756 144.368L285.473 149.116C288.429 149.908 291.578 149.493 294.228 147.963L308.023 139.999Z"/>
</mask>
<path d="M308.023 139.999L312.023 146.927L308.023 139.999ZM331.747 158.017L324.819 162.017L331.747 158.017ZM338.753 163.392L336.682 171.119L336.682 171.119L338.753 163.392ZM356.743 168.212L358.814 160.485L358.814 160.485L356.743 168.212ZM364.901 182.342L372.629 184.413L364.901 182.342ZM360.081 200.331L352.354 198.26L360.081 200.331ZM361.234 209.086L368.162 205.086L361.234 209.086ZM369.847 224.004L362.918 228.004L369.847 224.004ZM365.624 239.764L369.624 246.692L365.624 239.764ZM350.705 248.377L346.705 241.449L346.705 241.449L350.705 248.377ZM345.33 255.382L337.603 253.311L337.603 253.311L345.33 255.382ZM330.759 279.849L330.173 271.87L326.116 272.168L323.967 275.622L330.759 279.849ZM328.253 283.208L334.198 288.561L334.198 288.561L328.253 283.208ZM310.911 293.22L312.575 301.045L312.575 301.045L310.911 293.22ZM277.012 287.792L274.941 295.52L277.012 287.792ZM244.94 275.543L239.587 281.488L239.587 281.488L244.94 275.543ZM234.928 258.202L227.102 259.865L227.103 259.865L234.928 258.202ZM234.436 254.038L242.431 253.774L242.297 249.711L238.936 247.424L234.436 254.038ZM233.983 225.838L241.71 227.908L241.71 227.908L233.983 225.838ZM232.829 217.084L239.758 213.084L232.829 217.084ZM224.017 201.821L217.089 205.821L224.017 201.821ZM228.24 186.06L224.24 179.132L228.24 186.06ZM243.503 177.249L247.503 184.177L243.503 177.249ZM248.879 170.243L241.152 168.173L248.879 170.243ZM253.627 152.526L261.354 154.597L253.627 152.526ZM267.756 144.368L269.826 136.641L269.826 136.641L267.756 144.368ZM294.228 147.963L298.228 154.892L298.228 154.892L294.228 147.963ZM308.023 139.999L312.023 146.927C313.715 145.95 315.878 146.53 316.855 148.221L323.783 144.221L330.711 140.221C325.316 130.877 313.368 127.675 304.023 133.07L308.023 139.999ZM323.783 144.221L316.855 148.221L324.819 162.017L331.747 158.017L338.676 154.017L330.711 140.221L323.783 144.221ZM331.747 158.017L324.819 162.017C327.41 166.504 331.678 169.778 336.682 171.119L338.753 163.392L340.824 155.664C339.917 155.421 339.144 154.828 338.676 154.017L331.747 158.017ZM338.753 163.392L336.682 171.119L354.673 175.94L356.743 168.212L358.814 160.485L340.824 155.664L338.753 163.392ZM356.743 168.212L354.673 175.94C356.56 176.445 357.679 178.385 357.174 180.272L364.901 182.342L372.629 184.413C375.421 173.99 369.236 163.278 358.814 160.485L356.743 168.212ZM364.901 182.342L357.174 180.272L352.354 198.26L360.081 200.331L367.809 202.401L372.629 184.413L364.901 182.342ZM360.081 200.331L352.354 198.26C351.013 203.265 351.714 208.598 354.305 213.086L361.234 209.086L368.162 205.086C367.693 204.274 367.566 203.308 367.809 202.401L360.081 200.331ZM361.234 209.086L354.305 213.086L362.918 228.004L369.847 224.004L376.775 220.004L368.162 205.086L361.234 209.086ZM369.847 224.004L362.918 228.004C363.895 229.695 363.315 231.859 361.624 232.836L365.624 239.764L369.624 246.692C378.968 241.297 382.17 229.348 376.775 220.004L369.847 224.004ZM365.624 239.764L361.624 232.836L346.705 241.449L350.705 248.377L354.705 255.305L369.624 246.692L365.624 239.764ZM350.705 248.377L346.705 241.449C342.218 244.04 338.944 248.307 337.603 253.311L345.33 255.382L353.058 257.453C353.301 256.547 353.893 255.774 354.705 255.305L350.705 248.377ZM345.33 255.382L337.603 253.311L333.33 269.259L341.057 271.329L348.785 273.4L353.058 257.453L345.33 255.382ZM341.057 271.329L333.33 269.259C332.934 270.735 331.647 271.762 330.173 271.87L330.759 279.849L331.346 287.827C339.39 287.236 346.571 281.663 348.785 273.4L341.057 271.329ZM330.759 279.849L323.967 275.622C323.424 276.495 322.877 277.222 322.308 277.855L328.253 283.208L334.198 288.561C335.459 287.161 336.561 285.667 337.552 284.075L330.759 279.849ZM328.253 283.208L322.308 277.855C318.86 281.684 314.288 284.324 309.248 285.395L310.911 293.22L312.575 301.045C320.92 299.271 328.489 294.901 334.198 288.561L328.253 283.208ZM310.911 293.22L309.248 285.395C306.888 285.896 303.96 285.886 299.115 285.003C294.179 284.104 287.973 282.447 279.082 280.065L277.012 287.792L274.941 295.52C283.577 297.834 290.517 299.7 296.247 300.744C302.068 301.805 307.326 302.161 312.575 301.045L310.911 293.22ZM277.012 287.792L279.082 280.065C270.191 277.683 263.989 276.014 259.263 274.325C254.626 272.668 252.086 271.212 250.293 269.598L244.94 275.543L239.587 281.488C243.574 285.079 248.306 287.4 253.878 289.391C259.361 291.352 266.305 293.206 274.941 295.52L277.012 287.792ZM244.94 275.543L250.293 269.598C246.464 266.15 243.824 261.578 242.753 256.538L234.928 258.202L227.103 259.865C228.876 268.21 233.246 275.779 239.587 281.488L244.94 275.543ZM234.928 258.202L242.753 256.538C242.575 255.703 242.465 254.8 242.431 253.774L234.436 254.038L226.44 254.302C226.502 256.178 226.711 258.024 227.102 259.865L234.928 258.202ZM234.436 254.038L238.936 247.424C237.715 246.593 237.114 245.062 237.51 243.584L229.783 241.513L222.055 239.443C219.842 247.701 223.268 256.116 229.936 260.652L234.436 254.038ZM229.783 241.513L237.51 243.584L241.71 227.908L233.983 225.838L226.255 223.767L222.055 239.443L229.783 241.513ZM233.983 225.838L241.71 227.908C243.052 222.902 242.347 217.569 239.758 213.084L232.829 217.084L225.901 221.084C226.371 221.897 226.498 222.863 226.255 223.767L233.983 225.838ZM232.829 217.084L239.758 213.084L230.946 197.821L224.017 201.821L217.089 205.821L225.901 221.084L232.829 217.084ZM224.017 201.821L230.946 197.821C229.969 196.129 230.549 193.965 232.24 192.989L228.24 186.06L224.24 179.132C214.896 184.527 211.694 196.477 217.089 205.821L224.017 201.821ZM228.24 186.06L232.24 192.989L247.503 184.177L243.503 177.249L239.503 170.32L224.24 179.132L228.24 186.06ZM243.503 177.249L247.503 184.177C251.989 181.587 255.265 177.32 256.607 172.314L248.879 170.243L241.152 168.173C240.909 169.078 240.316 169.851 239.503 170.32L243.503 177.249ZM248.879 170.243L256.607 172.314L261.354 154.597L253.627 152.526L245.899 150.456L241.152 168.173L248.879 170.243ZM253.627 152.526L261.354 154.597C261.86 152.71 263.799 151.59 265.685 152.096L267.756 144.368L269.826 136.641C259.403 133.848 248.692 140.034 245.899 150.456L253.627 152.526ZM267.756 144.368L265.685 152.096L283.403 156.843L285.473 149.116L287.544 141.388L269.826 136.641L267.756 144.368ZM285.473 149.116L283.403 156.843C288.407 158.184 293.74 157.483 298.228 154.892L294.228 147.963L290.228 141.035C289.416 141.504 288.451 141.631 287.544 141.388L285.473 149.116ZM294.228 147.963L298.228 154.892L312.023 146.927L308.023 139.999L304.023 133.07L290.228 141.035L294.228 147.963Z" fill="white" mask="url(#path-4-outside-1_320_4653)"/>
</g>
<g filter="url(#filter3_g_320_4653)">
<path d="M331.748 158.017C333.278 160.667 335.798 162.6 338.754 163.392L356.743 168.212C362.897 169.862 366.55 176.188 364.901 182.342L360.081 200.331C359.289 203.286 359.703 206.435 361.233 209.085L369.847 224.005C373.033 229.523 371.142 236.579 365.624 239.764L350.705 248.378C348.055 249.908 346.121 252.428 345.329 255.384L341.057 271.329C339.408 277.484 333.081 281.136 326.927 279.487L237.941 255.644C231.786 253.994 228.134 247.668 229.783 241.514L233.983 225.839C234.775 222.884 234.36 219.735 232.83 217.085L224.017 201.821C220.832 196.303 222.722 189.247 228.24 186.061L243.504 177.248C246.154 175.719 248.088 173.199 248.88 170.243L253.627 152.527C255.276 146.372 261.602 142.72 267.757 144.369L285.474 149.116C288.43 149.908 291.579 149.493 294.229 147.964L308.024 139.999C313.542 136.813 320.598 138.704 323.784 144.222L331.748 158.017Z" fill="#5A79F9"/>
</g>
<g filter="url(#filter4_ig_320_4653)">
<rect x="253.777" y="174.23" width="103.68" height="103.68" rx="32.4" transform="rotate(15 253.777 174.23)" fill="#FFC6B7"/>
</g>
<g filter="url(#filter5_g_320_4653)">
<path d="M261.583 204.835C262.941 199.763 263.621 197.227 265.127 195.555C266.452 194.083 268.208 193.069 270.145 192.658C272.346 192.19 274.882 192.869 279.954 194.228C285.025 195.587 287.561 196.266 289.234 197.772C290.705 199.097 291.719 200.854 292.131 202.79C292.599 204.992 291.919 207.528 290.56 212.599L286.678 227.088C285.319 232.16 284.64 234.695 283.134 236.368C281.809 237.839 280.052 238.853 278.116 239.265C275.914 239.733 273.378 239.054 268.307 237.695C263.235 236.336 260.699 235.656 259.027 234.15C257.556 232.825 256.541 231.069 256.13 229.132C255.662 226.931 256.341 224.395 257.7 219.323L261.583 204.835Z" fill="white"/>
<path d="M302.876 215.899C304.234 210.827 304.914 208.292 306.42 206.619C307.745 205.148 309.501 204.134 311.438 203.722C313.639 203.254 316.175 203.934 321.247 205.292V205.292C326.318 206.651 328.854 207.331 330.527 208.837C331.998 210.162 333.012 211.918 333.424 213.855C333.892 216.056 333.212 218.592 331.853 223.664L327.971 238.153C326.612 243.224 325.933 245.76 324.427 247.433C323.102 248.904 321.345 249.918 319.409 250.33C317.207 250.797 314.671 250.118 309.6 248.759V248.759C304.528 247.4 301.992 246.721 300.32 245.215C298.849 243.89 297.834 242.133 297.423 240.197C296.955 237.995 297.634 235.46 298.993 230.388L302.876 215.899Z" fill="white"/>
<path d="M277.924 211.933C280.46 212.613 281.729 212.953 282.565 213.706C283.3 214.368 283.807 215.246 284.013 216.215C284.247 217.315 283.907 218.583 283.227 221.119L281.286 228.363C280.607 230.899 280.267 232.167 279.514 233.003C278.852 233.739 277.974 234.246 277.006 234.452C275.905 234.686 274.636 234.346 272.101 233.667C269.565 232.987 268.297 232.648 267.461 231.895C266.725 231.232 266.219 230.354 266.013 229.386C265.779 228.285 266.118 227.017 266.797 224.481L267.479 221.936C267.703 221.102 267.815 220.684 268.135 220.489C268.455 220.294 268.897 220.39 269.779 220.581C270.779 220.798 271.49 220.862 272.142 220.724C273.111 220.518 273.988 220.01 274.651 219.275C275.404 218.438 275.744 217.171 276.424 214.635L277.005 212.466C277.112 212.066 277.524 211.826 277.924 211.933V211.933Z" fill="#4C4C4C"/>
<path d="M318.037 223.068C320.573 223.748 321.842 224.087 322.678 224.84C323.414 225.503 323.92 226.381 324.126 227.349C324.36 228.45 324.02 229.718 323.341 232.254L321.4 239.498C320.72 242.034 320.381 243.302 319.628 244.138C318.965 244.874 318.087 245.381 317.119 245.587C316.018 245.821 314.75 245.481 312.214 244.801C309.678 244.122 308.41 243.782 307.574 243.029C306.839 242.367 306.332 241.489 306.126 240.52C305.892 239.42 306.231 238.152 306.911 235.616L307.591 233.076C307.817 232.235 307.929 231.814 308.255 231.619C308.581 231.424 309.018 231.527 309.892 231.732C311.087 232.013 311.89 232.111 312.619 231.956C313.587 231.75 314.466 231.243 315.128 230.507C315.881 229.671 316.221 228.403 316.9 225.867L317.579 223.334C317.633 223.134 317.838 223.015 318.037 223.068V223.068Z" fill="#4C4C4C"/>
</g>
<g filter="url(#filter6_g_320_4653)">
<path d="M269.307 248.3C270.484 245.776 273.676 244.96 275.919 246.609L282.172 251.204C283.319 252.046 284.62 252.653 286.002 252.99L293.542 254.827C296.247 255.486 297.673 258.455 296.497 260.979V260.979C295.608 262.885 293.497 263.899 291.453 263.401L283.02 261.347C281.096 260.878 279.284 260.033 277.688 258.86L270.694 253.721C268.999 252.475 268.418 250.206 269.307 248.3V248.3Z" fill="white"/>
</g>
</g>
<defs>
<filter id="filter0_d_320_4653" x="10" y="120.512" width="360" height="360" filterUnits="userSpaceOnUse" color-interpolation-filters="sRGB">
<feFlood flood-opacity="0" result="BackgroundImageFix"/>
<feColorMatrix in="SourceAlpha" type="matrix" values="0 0 0 0 0 0 0 0 0 0 0 0 0 0 0 0 0 0 127 0" result="hardAlpha"/>
<feOffset/>
<feGaussianBlur stdDeviation="45"/>
<feComposite in2="hardAlpha" operator="out"/>
<feColorMatrix type="matrix" values="0 0 0 0 1 0 0 0 0 1 0 0 0 0 1 0 0 0 1 0"/>
<feBlend mode="normal" in2="BackgroundImageFix" result="effect1_dropShadow_320_4653"/>
<feBlend mode="normal" in="SourceGraphic" in2="effect1_dropShadow_320_4653" result="shape"/>
</filter>
<filter id="filter1_d_320_4653" x="199.469" y="115.45" width="194.926" height="201.279" filterUnits="userSpaceOnUse" color-interpolation-filters="sRGB">
<feFlood flood-opacity="0" result="BackgroundImageFix"/>
<feColorMatrix in="SourceAlpha" type="matrix" values="0 0 0 0 0 0 0 0 0 0 0 0 0 0 0 0 0 0 127 0" result="hardAlpha"/>
<feOffset/>
<feGaussianBlur stdDeviation="7.5"/>
<feComposite in2="hardAlpha" operator="out"/>
<feColorMatrix type="matrix" values="0 0 0 0 0 0 0 0 0 0 0 0 0 0 0 0 0 0 0.25 0"/>
<feBlend mode="normal" in2="BackgroundImageFix" result="effect1_dropShadow_320_4653"/>
<feBlend mode="normal" in="SourceGraphic" in2="effect1_dropShadow_320_4653" result="shape"/>
</filter>
<filter id="filter2_g_320_4653" x="212.969" y="128.95" width="167.926" height="174.279" filterUnits="userSpaceOnUse" color-interpolation-filters="sRGB">
<feFlood flood-opacity="0" result="BackgroundImageFix"/>
<feBlend mode="normal" in="SourceGraphic" in2="BackgroundImageFix" result="shape"/>
<feTurbulence type="fractalNoise" baseFrequency="0.066666677594184875 0.066666677594184875" numOctaves="3" seed="5149" />
<feDisplacementMap in="shape" scale="2.9999995231628418" xChannelSelector="R" yChannelSelector="G" result="displacedImage" width="100%" height="100%" />
<feMerge result="effect1_texture_320_4653">
<feMergeNode in="displacedImage"/>
</feMerge>
</filter>
<filter id="filter3_g_320_4653" x="220.969" y="136.951" width="151.926" height="144.433" filterUnits="userSpaceOnUse" color-interpolation-filters="sRGB">
<feFlood flood-opacity="0" result="BackgroundImageFix"/>
<feBlend mode="normal" in="SourceGraphic" in2="BackgroundImageFix" result="shape"/>
<feTurbulence type="fractalNoise" baseFrequency="0.066666670143604279 0.066666670143604279" numOctaves="3" seed="5149" />
<feDisplacementMap in="shape" scale="3" xChannelSelector="R" yChannelSelector="G" result="displacedImage" width="100%" height="100%" />
<feMerge result="effect1_texture_320_4653">
<feMergeNode in="displacedImage"/>
</feMerge>
</filter>
<filter id="filter4_ig_320_4653" x="232.922" y="180.211" width="115.023" height="115.021" filterUnits="userSpaceOnUse" color-interpolation-filters="sRGB">
<feFlood flood-opacity="0" result="BackgroundImageFix"/>
<feBlend mode="normal" in="SourceGraphic" in2="BackgroundImageFix" result="shape"/>
<feColorMatrix in="SourceAlpha" type="matrix" values="0 0 0 0 0 0 0 0 0 0 0 0 0 0 0 0 0 0 127 0" result="hardAlpha"/>
<feOffset dy="1.5"/>
<feGaussianBlur stdDeviation="3.75"/>
<feComposite in2="hardAlpha" operator="arithmetic" k2="-1" k3="1"/>
<feColorMatrix type="matrix" values="0 0 0 0 0.352941 0 0 0 0 0.47451 0 0 0 0 0.976471 0 0 0 1 0"/>
<feBlend mode="normal" in2="shape" result="effect1_innerShadow_320_4653"/>
<feTurbulence type="fractalNoise" baseFrequency="0.066666670143604279 0.066666670143604279" numOctaves="3" seed="5149" />
<feDisplacementMap in="effect1_innerShadow_320_4653" scale="3" xChannelSelector="R" yChannelSelector="G" result="displacedImage" width="100%" height="100%" />
<feMerge result="effect2_texture_320_4653">
<feMergeNode in="displacedImage"/>
</feMerge>
</filter>
<filter id="filter5_g_320_4653" x="254.484" y="191.01" width="80.5859" height="60.9668" filterUnits="userSpaceOnUse" color-interpolation-filters="sRGB">
<feFlood flood-opacity="0" result="BackgroundImageFix"/>
<feBlend mode="normal" in="SourceGraphic" in2="BackgroundImageFix" result="shape"/>
<feTurbulence type="fractalNoise" baseFrequency="0.066666670143604279 0.066666670143604279" numOctaves="3" seed="5149" />
<feDisplacementMap in="shape" scale="3" xChannelSelector="R" yChannelSelector="G" result="displacedImage" width="100%" height="100%" />
<feMerge result="effect1_texture_320_4653">
<feMergeNode in="displacedImage"/>
</feMerge>
</filter>
<filter id="filter6_g_320_4653" x="267.395" y="244.251" width="31.0195" height="20.7764" filterUnits="userSpaceOnUse" color-interpolation-filters="sRGB">
<feFlood flood-opacity="0" result="BackgroundImageFix"/>
<feBlend mode="normal" in="SourceGraphic" in2="BackgroundImageFix" result="shape"/>
<feTurbulence type="fractalNoise" baseFrequency="0.066666677594184875 0.066666677594184875" numOctaves="3" seed="5149" />
<feDisplacementMap in="shape" scale="2.9999995231628418" xChannelSelector="R" yChannelSelector="G" result="displacedImage" width="100%" height="100%" />
<feMerge result="effect1_texture_320_4653">
<feMergeNode in="displacedImage"/>
</feMerge>
</filter>
</defs>
</svg>
