<svg width="360" height="361" viewBox="0 0 360 361" fill="none" xmlns="http://www.w3.org/2000/svg">
<g filter="url(#filter0_d_305_2446)">
<rect x="99" y="99.5117" width="162" height="162" rx="50" fill="white"/>
<rect x="94.5" y="95.0117" width="171" height="171" rx="54.5" stroke="#5A79F9" stroke-width="9"/>
<path d="M151.736 210.484C148.82 210.484 146.039 210.187 143.393 209.593C140.801 208.999 138.614 208.216 136.832 207.244V199.63H137.48C139.1 200.656 141.152 201.601 143.636 202.465C146.12 203.275 148.82 203.68 151.736 203.68C155.732 203.68 158.81 203.086 160.97 201.898C163.13 200.656 164.615 199.171 165.425 197.443C166.235 195.661 166.64 193.96 166.64 192.34C166.64 189.1 165.479 186.508 163.157 184.564C160.889 182.62 157.406 181.648 152.708 181.648H146.876L145.58 178.408L165.02 155.323L166.154 157.672H137.804V151.192H170.528L171.5 152.002C171.608 152.38 171.689 152.866 171.743 153.46C171.797 154 171.824 154.432 171.824 154.756C171.824 156.052 171.5 157.348 170.852 158.644C170.204 159.886 169.34 161.128 168.26 162.37L154.409 177.922L153.761 175.492C158.189 175.546 161.915 176.275 164.939 177.679C167.963 179.029 170.231 180.973 171.743 183.511C173.309 185.995 174.092 189.046 174.092 192.664C174.092 196.228 173.201 199.36 171.419 202.06C169.637 204.706 167.072 206.785 163.724 208.297C160.376 209.755 156.38 210.484 151.736 210.484ZM204.079 210.484C197.761 210.484 193.009 209.35 189.823 207.082C186.691 204.76 185.125 201.25 185.125 196.552C185.125 193.42 185.881 190.828 187.393 188.776C188.959 186.724 191.146 185.185 193.954 184.159C196.816 183.133 200.191 182.62 204.079 182.62C207.103 182.62 209.614 182.89 211.612 183.43C213.664 183.916 215.419 184.402 216.877 184.888V190.72C215.419 190.234 213.61 189.802 211.45 189.424C209.29 188.992 207.265 188.776 205.375 188.776C201.001 188.776 197.734 189.343 195.574 190.477C193.468 191.611 192.415 193.636 192.415 196.552C192.415 199.306 193.441 201.304 195.493 202.546C197.545 203.734 200.515 204.328 204.403 204.328C206.563 204.328 208.642 204.166 210.64 203.842C212.638 203.464 214.501 202.978 216.229 202.384L214.771 204.571C214.663 204.139 214.555 203.653 214.447 203.113C214.393 202.573 214.339 202.006 214.285 201.412C214.231 200.818 214.177 200.197 214.123 199.549C214.123 198.901 214.123 198.226 214.123 197.524V182.944C214.123 179.488 213.637 176.923 212.665 175.249C211.747 173.521 210.343 172.387 208.453 171.847C206.617 171.253 204.295 170.956 201.487 170.956C199.381 170.956 197.221 171.226 195.007 171.766C192.847 172.306 191.119 172.9 189.823 173.548H189.175V166.906C191.119 166.096 193.279 165.502 195.655 165.124C198.085 164.692 200.353 164.476 202.459 164.476C205.159 164.476 207.643 164.719 209.911 165.205C212.233 165.691 214.258 166.582 215.986 167.878C217.768 169.12 219.145 170.929 220.117 173.305C221.089 175.681 221.575 178.786 221.575 182.62V193.312C221.575 194.392 221.575 195.796 221.575 197.524C221.629 199.252 221.683 200.953 221.737 202.627C221.845 204.301 222.007 205.624 222.223 206.596L222.061 207.244C220.279 207.892 218.308 208.459 216.148 208.945C213.988 209.431 211.828 209.809 209.668 210.079C207.562 210.349 205.699 210.484 204.079 210.484Z" fill="#5A79F9"/>
</g>
<defs>
<filter id="filter0_d_305_2446" x="0" y="0.511719" width="360" height="360" filterUnits="userSpaceOnUse" color-interpolation-filters="sRGB">
<feFlood flood-opacity="0" result="BackgroundImageFix"/>
<feColorMatrix in="SourceAlpha" type="matrix" values="0 0 0 0 0 0 0 0 0 0 0 0 0 0 0 0 0 0 127 0" result="hardAlpha"/>
<feOffset/>
<feGaussianBlur stdDeviation="45"/>
<feComposite in2="hardAlpha" operator="out"/>
<feColorMatrix type="matrix" values="0 0 0 0 1 0 0 0 0 1 0 0 0 0 1 0 0 0 1 0"/>
<feBlend mode="normal" in2="BackgroundImageFix" result="effect1_dropShadow_305_2446"/>
<feBlend mode="normal" in="SourceGraphic" in2="effect1_dropShadow_305_2446" result="shape"/>
</filter>
</defs>
</svg>
