<svg width="500" height="500" viewBox="0 0 500 500" fill="none" xmlns="http://www.w3.org/2000/svg">
<g filter="url(#filter0_d_320_4272)">
<rect x="109" y="219.513" width="162" height="162" rx="50" fill="white"/>
<rect x="104.5" y="215.013" width="171" height="171" rx="54.5" stroke="#5A79F9" stroke-width="9"/>
<path d="M187.356 328.541V284.477C187.356 283.613 187.383 282.587 187.437 281.399C187.491 280.211 187.545 279.185 187.599 278.321C187.707 277.403 187.788 277.025 187.842 277.187L190.758 277.673H172.128V272.165C172.884 271.895 174.072 271.652 175.692 271.436C177.366 271.166 179.202 270.95 181.2 270.788C183.252 270.626 185.196 270.545 187.032 270.545C188.976 270.545 190.677 270.653 192.135 270.869C193.593 271.031 194.754 271.247 195.618 271.517L195.78 272.489C195.564 273.461 195.402 274.757 195.294 276.377C195.24 277.997 195.186 279.644 195.132 281.318C195.132 282.992 195.132 284.369 195.132 285.449V328.541H187.356ZM170.832 329.513V322.709H209.712V329.513H170.832Z" fill="#5A79F9"/>
</g>
<g filter="url(#filter1_d_320_4272)">
<g filter="url(#filter2_g_320_4272)">
<mask id="path-4-outside-1_320_4272" maskUnits="userSpaceOnUse" x="192.796" y="109.202" width="208.465" height="209.173" fill="black">
<rect fill="white" x="192.796" y="109.202" width="208.465" height="209.173"/>
<path d="M308.023 139.999C313.541 136.813 320.598 138.704 323.784 144.222L331.749 158.018C333.279 160.668 335.798 162.602 338.753 163.394L356.742 168.214C362.896 169.863 366.549 176.189 364.9 182.343L360.08 200.331C359.288 203.287 359.703 206.436 361.232 209.086L369.846 224.006C373.032 229.524 371.14 236.579 365.622 239.765L350.704 248.378C348.054 249.908 346.121 252.428 345.329 255.384L341.056 271.331C339.751 276.201 335.517 279.501 330.758 279.85C329.991 281.082 329.167 282.192 328.252 283.209C323.673 288.293 317.603 291.798 310.91 293.221C303.302 294.838 294.538 292.489 277.01 287.793C259.483 283.097 250.72 280.749 244.939 275.544C239.855 270.966 236.349 264.895 234.926 258.202C234.642 256.864 234.483 255.49 234.435 254.039C230.491 251.355 228.477 246.383 229.781 241.515L233.981 225.839C234.773 222.884 234.359 219.734 232.829 217.085L224.017 201.822C220.831 196.304 222.722 189.248 228.24 186.062L243.503 177.25C246.152 175.721 248.086 173.2 248.878 170.245L253.625 152.527C255.275 146.373 261.601 142.721 267.755 144.37L285.472 149.117C288.427 149.909 291.577 149.494 294.227 147.964L308.023 139.999Z"/>
</mask>
<path d="M308.023 139.999L304.023 133.07L304.023 133.07L308.023 139.999ZM331.749 158.018L324.821 162.018L331.749 158.018ZM338.753 163.394L336.683 171.121L336.683 171.121L338.753 163.394ZM356.742 168.214L358.813 160.487L358.813 160.487L356.742 168.214ZM364.9 182.343L372.628 184.414L372.628 184.413L364.9 182.343ZM361.232 209.086L354.304 213.086L354.304 213.086L361.232 209.086ZM369.846 224.006L376.775 220.006L376.774 220.006L369.846 224.006ZM365.622 239.765L361.622 232.837L365.622 239.765ZM350.704 248.378L354.704 255.306L350.704 248.378ZM345.329 255.384L337.602 253.313L337.602 253.313L345.329 255.384ZM341.056 271.331L348.783 273.402L348.783 273.401L341.056 271.331ZM330.758 279.85L330.172 271.872L326.115 272.17L323.966 275.623L330.758 279.85ZM328.252 283.209L334.197 288.562L334.197 288.562L328.252 283.209ZM310.91 293.221L312.573 301.046L312.573 301.046L310.91 293.221ZM277.01 287.793L274.94 295.52L277.01 287.793ZM244.939 275.544L239.586 281.489L239.587 281.489L244.939 275.544ZM234.926 258.202L227.101 259.865L227.101 259.866L234.926 258.202ZM234.435 254.039L242.43 253.775L242.296 249.711L238.935 247.424L234.435 254.039ZM229.781 241.515L222.054 239.444L222.054 239.444L229.781 241.515ZM233.981 225.839L241.709 227.91L241.709 227.91L233.981 225.839ZM232.829 217.085L225.901 221.085L232.829 217.085ZM224.017 201.822L230.945 197.822L224.017 201.822ZM228.24 186.062L224.24 179.134L228.24 186.062ZM243.503 177.25L247.503 184.179L247.503 184.179L243.503 177.25ZM253.625 152.527L245.898 150.456L245.898 150.456L253.625 152.527ZM267.755 144.37L265.685 152.097L267.755 144.37ZM285.472 149.117L287.542 141.39L285.472 149.117ZM294.227 147.964L298.227 154.892L294.227 147.964ZM308.023 139.999L312.023 146.927C313.715 145.95 315.879 146.53 316.855 148.222L323.784 144.222L330.712 140.222C325.317 130.877 313.368 127.676 304.023 133.07L308.023 139.999ZM323.784 144.222L316.855 148.222L324.821 162.018L331.749 158.018L338.677 154.018L330.712 140.222L323.784 144.222ZM331.749 158.018L324.821 162.018C327.411 166.504 331.676 169.78 336.683 171.121L338.753 163.394L340.824 155.667C339.92 155.424 339.147 154.832 338.677 154.018L331.749 158.018ZM338.753 163.394L336.683 171.121L354.671 175.941L356.742 168.214L358.813 160.487L340.824 155.667L338.753 163.394ZM356.742 168.214L354.671 175.941C356.559 176.447 357.678 178.386 357.173 180.273L364.9 182.343L372.628 184.413C375.42 173.991 369.234 163.279 358.813 160.487L356.742 168.214ZM364.9 182.343L357.173 180.272L352.353 198.261L360.08 200.331L367.808 202.402L372.628 184.414L364.9 182.343ZM360.08 200.331L352.353 198.261C351.012 203.265 351.713 208.598 354.304 213.086L361.232 209.086L368.161 205.086C367.692 204.274 367.565 203.309 367.808 202.402L360.08 200.331ZM361.232 209.086L354.304 213.086L362.918 228.006L369.846 224.006L376.774 220.006L368.161 205.086L361.232 209.086ZM369.846 224.006L362.918 228.005C363.894 229.696 363.315 231.86 361.622 232.837L365.622 239.765L369.622 246.693C378.966 241.299 382.169 229.351 376.775 220.006L369.846 224.006ZM365.622 239.765L361.622 232.837L346.704 241.45L350.704 248.378L354.704 255.306L369.622 246.693L365.622 239.765ZM350.704 248.378L346.704 241.45C342.216 244.041 338.943 248.309 337.602 253.313L345.329 255.384L353.056 257.454C353.299 256.547 353.892 255.775 354.704 255.306L350.704 248.378ZM345.329 255.384L337.602 253.313L333.329 269.26L341.056 271.331L348.783 273.401L353.056 257.454L345.329 255.384ZM341.056 271.331L333.329 269.26C332.933 270.737 331.646 271.763 330.172 271.872L330.758 279.85L331.344 287.829C339.389 287.238 346.569 281.664 348.783 273.402L341.056 271.331ZM330.758 279.85L323.966 275.623C323.423 276.496 322.877 277.222 322.306 277.856L328.252 283.209L334.197 288.562C335.456 287.163 336.559 285.669 337.55 284.077L330.758 279.85ZM328.252 283.209L322.306 277.856C318.858 281.685 314.287 284.324 309.247 285.395L310.91 293.221L312.573 301.046C320.919 299.272 328.488 294.902 334.197 288.562L328.252 283.209ZM310.91 293.221L309.247 285.395C306.887 285.897 303.959 285.887 299.114 285.004C294.177 284.104 287.972 282.448 279.081 280.066L277.01 287.793L274.94 295.52C283.576 297.835 290.516 299.701 296.245 300.745C302.067 301.806 307.325 302.161 312.573 301.046L310.91 293.221ZM277.01 287.793L279.081 280.066C270.19 277.683 263.988 276.015 259.263 274.326C254.626 272.668 252.085 271.213 250.292 269.599L244.939 275.544L239.587 281.489C243.574 285.08 248.305 287.4 253.877 289.392C259.361 291.352 266.304 293.206 274.94 295.52L277.01 287.793ZM244.939 275.544L250.293 269.599C246.463 266.15 243.823 261.579 242.752 256.539L234.926 258.202L227.101 259.866C228.875 268.211 233.247 275.781 239.586 281.489L244.939 275.544ZM234.926 258.202L242.752 256.539C242.574 255.703 242.464 254.801 242.43 253.775L234.435 254.039L226.439 254.302C226.501 256.179 226.71 258.024 227.101 259.865L234.926 258.202ZM234.435 254.039L238.935 247.424C237.714 246.593 237.113 245.062 237.509 243.585L229.781 241.515L222.054 239.444C219.841 247.703 223.268 256.117 229.934 260.653L234.435 254.039ZM229.781 241.515L237.509 243.585L241.709 227.91L233.981 225.839L226.254 223.769L222.054 239.444L229.781 241.515ZM233.981 225.839L241.709 227.91C243.05 222.905 242.348 217.572 239.757 213.085L232.829 217.085L225.901 221.085C226.37 221.896 226.497 222.862 226.254 223.769L233.981 225.839ZM232.829 217.085L239.757 213.085L230.945 197.822L224.017 201.822L217.089 205.822L225.901 221.085L232.829 217.085ZM224.017 201.822L230.945 197.822C229.969 196.13 230.548 193.967 232.24 192.991L228.24 186.062L224.24 179.134C214.896 184.529 211.694 196.477 217.089 205.822L224.017 201.822ZM228.24 186.062L232.24 192.991L247.503 184.179L243.503 177.25L239.503 170.322L224.24 179.134L228.24 186.062ZM243.503 177.25L247.503 184.179C251.99 181.588 255.264 177.32 256.605 172.315L248.878 170.245L241.15 168.174C240.908 169.081 240.314 169.854 239.503 170.322L243.503 177.25ZM248.878 170.245L256.605 172.315L261.353 154.598L253.625 152.527L245.898 150.456L241.15 168.174L248.878 170.245ZM253.625 152.527L261.353 154.598C261.858 152.712 263.797 151.592 265.685 152.097L267.755 144.37L269.826 136.643C259.404 133.85 248.691 140.034 245.898 150.456L253.625 152.527ZM267.755 144.37L265.685 152.097L283.401 156.845L285.472 149.117L287.542 141.39L269.826 136.643L267.755 144.37ZM285.472 149.117L283.401 156.845C288.407 158.186 293.741 157.482 298.227 154.892L294.227 147.964L290.227 141.036C289.414 141.505 288.447 141.632 287.542 141.39L285.472 149.117ZM294.227 147.964L298.227 154.892L312.023 146.927L308.023 139.999L304.023 133.07L290.227 141.036L294.227 147.964Z" fill="white" mask="url(#path-4-outside-1_320_4272)"/>
</g>
<g filter="url(#filter3_g_320_4272)">
<path d="M331.749 158.018C333.279 160.668 335.799 162.602 338.754 163.394L356.743 168.213C362.897 169.863 366.55 176.189 364.9 182.343L360.08 200.332C359.289 203.287 359.703 206.436 361.233 209.086L369.846 224.005C373.032 229.523 371.141 236.579 365.623 239.765L350.705 248.378C348.055 249.908 346.121 252.428 345.329 255.384L341.056 271.33C339.407 277.485 333.081 281.137 326.927 279.488L237.939 255.644C231.785 253.995 228.132 247.669 229.782 241.514L233.982 225.839C234.774 222.884 234.359 219.735 232.829 217.085L224.017 201.822C220.831 196.304 222.722 189.248 228.24 186.062L243.503 177.25C246.153 175.72 248.086 173.2 248.878 170.245L253.626 152.527C255.275 146.373 261.601 142.72 267.755 144.369L285.473 149.117C288.428 149.909 291.578 149.494 294.227 147.964L308.024 139.999C313.542 136.813 320.598 138.704 323.784 144.222L331.749 158.018Z" fill="#5A79F9"/>
</g>
<g filter="url(#filter4_ig_320_4272)">
<rect x="253.777" y="174.231" width="103.68" height="103.68" rx="32.4" transform="rotate(15 253.777 174.231)" fill="#FFC6B7"/>
</g>
<g filter="url(#filter5_g_320_4272)">
<path d="M261.583 204.836C262.941 199.764 263.621 197.228 265.127 195.556C266.452 194.084 268.208 193.07 270.145 192.659C272.346 192.191 274.882 192.87 279.954 194.229C285.025 195.588 287.561 196.267 289.234 197.773C290.705 199.098 291.719 200.855 292.131 202.791C292.599 204.993 291.919 207.529 290.56 212.6L286.678 227.089C285.319 232.161 284.64 234.696 283.134 236.369C281.809 237.84 280.052 238.854 278.116 239.266C275.914 239.734 273.378 239.055 268.307 237.696C263.235 236.337 260.699 235.657 259.027 234.151C257.556 232.826 256.541 231.07 256.13 229.133C255.662 226.932 256.341 224.396 257.7 219.324L261.583 204.836Z" fill="white"/>
<path d="M302.876 215.9C304.234 210.828 304.914 208.293 306.42 206.62C307.745 205.149 309.501 204.135 311.438 203.723C313.639 203.255 316.175 203.934 321.247 205.293V205.293C326.318 206.652 328.854 207.332 330.527 208.838C331.998 210.163 333.012 211.919 333.424 213.856C333.892 216.057 333.212 218.593 331.853 223.665L327.971 238.153C326.612 243.225 325.933 245.761 324.427 247.433C323.102 248.905 321.345 249.919 319.409 250.331C317.207 250.798 314.671 250.119 309.6 248.76V248.76C304.528 247.401 301.992 246.722 300.32 245.216C298.849 243.891 297.834 242.134 297.423 240.198C296.955 237.996 297.634 235.46 298.993 230.389L302.876 215.9Z" fill="white"/>
<path d="M277.924 211.934C280.46 212.614 281.729 212.954 282.565 213.707C283.3 214.369 283.807 215.247 284.013 216.216C284.247 217.316 283.907 218.584 283.227 221.12L281.286 228.364C280.607 230.9 280.267 232.168 279.514 233.004C278.852 233.74 277.974 234.247 277.006 234.453C275.905 234.687 274.636 234.347 272.101 233.668C269.565 232.988 268.297 232.649 267.461 231.896C266.725 231.233 266.219 230.355 266.013 229.387C265.779 228.286 266.118 227.018 266.797 224.482L267.479 221.937C267.703 221.103 267.815 220.685 268.135 220.49C268.455 220.295 268.897 220.39 269.779 220.582C270.779 220.799 271.49 220.863 272.142 220.725C273.111 220.519 273.988 220.011 274.651 219.276C275.404 218.439 275.744 217.172 276.424 214.636L277.005 212.467C277.112 212.067 277.524 211.827 277.924 211.934V211.934Z" fill="#4C4C4C"/>
<path d="M318.037 223.069C320.573 223.749 321.842 224.088 322.678 224.841C323.414 225.504 323.92 226.382 324.126 227.35C324.36 228.451 324.02 229.719 323.341 232.255L321.4 239.499C320.72 242.035 320.381 243.303 319.628 244.139C318.965 244.875 318.087 245.382 317.119 245.588C316.018 245.822 314.75 245.482 312.214 244.802C309.678 244.123 308.41 243.783 307.574 243.03C306.839 242.368 306.332 241.49 306.126 240.521C305.892 239.421 306.231 238.152 306.911 235.617L307.591 233.077C307.817 232.235 307.929 231.815 308.255 231.62C308.581 231.425 309.018 231.528 309.892 231.733C311.087 232.014 311.89 232.112 312.619 231.957C313.587 231.751 314.466 231.244 315.128 230.508C315.881 229.672 316.221 228.404 316.9 225.868L317.579 223.334C317.633 223.135 317.838 223.016 318.037 223.069V223.069Z" fill="#4C4C4C"/>
</g>
<g filter="url(#filter6_g_320_4272)">
<path d="M269.307 248.301C270.484 245.777 273.676 244.961 275.919 246.61L282.172 251.205C283.319 252.047 284.62 252.654 286.002 252.991L293.542 254.828C296.247 255.487 297.673 258.456 296.497 260.98V260.98C295.608 262.886 293.497 263.9 291.453 263.402L283.02 261.348C281.096 260.879 279.284 260.034 277.688 258.861L270.694 253.722C268.999 252.476 268.418 250.207 269.307 248.301V248.301Z" fill="white"/>
</g>
</g>
<defs>
<filter id="filter0_d_320_4272" x="10" y="120.513" width="360" height="360" filterUnits="userSpaceOnUse" color-interpolation-filters="sRGB">
<feFlood flood-opacity="0" result="BackgroundImageFix"/>
<feColorMatrix in="SourceAlpha" type="matrix" values="0 0 0 0 0 0 0 0 0 0 0 0 0 0 0 0 0 0 127 0" result="hardAlpha"/>
<feOffset/>
<feGaussianBlur stdDeviation="45"/>
<feComposite in2="hardAlpha" operator="out"/>
<feColorMatrix type="matrix" values="0 0 0 0 1 0 0 0 0 1 0 0 0 0 1 0 0 0 1 0"/>
<feBlend mode="normal" in2="BackgroundImageFix" result="effect1_dropShadow_320_4272"/>
<feBlend mode="normal" in="SourceGraphic" in2="effect1_dropShadow_320_4272" result="shape"/>
</filter>
<filter id="filter1_d_320_4272" x="199.469" y="115.45" width="194.926" height="201.279" filterUnits="userSpaceOnUse" color-interpolation-filters="sRGB">
<feFlood flood-opacity="0" result="BackgroundImageFix"/>
<feColorMatrix in="SourceAlpha" type="matrix" values="0 0 0 0 0 0 0 0 0 0 0 0 0 0 0 0 0 0 127 0" result="hardAlpha"/>
<feOffset/>
<feGaussianBlur stdDeviation="7.5"/>
<feComposite in2="hardAlpha" operator="out"/>
<feColorMatrix type="matrix" values="0 0 0 0 0 0 0 0 0 0 0 0 0 0 0 0 0 0 0.25 0"/>
<feBlend mode="normal" in2="BackgroundImageFix" result="effect1_dropShadow_320_4272"/>
<feBlend mode="normal" in="SourceGraphic" in2="effect1_dropShadow_320_4272" result="shape"/>
</filter>
<filter id="filter2_g_320_4272" x="212.969" y="128.95" width="167.926" height="174.279" filterUnits="userSpaceOnUse" color-interpolation-filters="sRGB">
<feFlood flood-opacity="0" result="BackgroundImageFix"/>
<feBlend mode="normal" in="SourceGraphic" in2="BackgroundImageFix" result="shape"/>
<feTurbulence type="fractalNoise" baseFrequency="0.066666677594184875 0.066666677594184875" numOctaves="3" seed="5149" />
<feDisplacementMap in="shape" scale="2.9999995231628418" xChannelSelector="R" yChannelSelector="G" result="displacedImage" width="100%" height="100%" />
<feMerge result="effect1_texture_320_4272">
<feMergeNode in="displacedImage"/>
</feMerge>
</filter>
<filter id="filter3_g_320_4272" x="220.969" y="136.951" width="151.926" height="144.433" filterUnits="userSpaceOnUse" color-interpolation-filters="sRGB">
<feFlood flood-opacity="0" result="BackgroundImageFix"/>
<feBlend mode="normal" in="SourceGraphic" in2="BackgroundImageFix" result="shape"/>
<feTurbulence type="fractalNoise" baseFrequency="0.066666670143604279 0.066666670143604279" numOctaves="3" seed="5149" />
<feDisplacementMap in="shape" scale="3" xChannelSelector="R" yChannelSelector="G" result="displacedImage" width="100%" height="100%" />
<feMerge result="effect1_texture_320_4272">
<feMergeNode in="displacedImage"/>
</feMerge>
</filter>
<filter id="filter4_ig_320_4272" x="232.922" y="180.212" width="115.023" height="115.021" filterUnits="userSpaceOnUse" color-interpolation-filters="sRGB">
<feFlood flood-opacity="0" result="BackgroundImageFix"/>
<feBlend mode="normal" in="SourceGraphic" in2="BackgroundImageFix" result="shape"/>
<feColorMatrix in="SourceAlpha" type="matrix" values="0 0 0 0 0 0 0 0 0 0 0 0 0 0 0 0 0 0 127 0" result="hardAlpha"/>
<feOffset dy="1.5"/>
<feGaussianBlur stdDeviation="3.75"/>
<feComposite in2="hardAlpha" operator="arithmetic" k2="-1" k3="1"/>
<feColorMatrix type="matrix" values="0 0 0 0 0.352941 0 0 0 0 0.47451 0 0 0 0 0.976471 0 0 0 1 0"/>
<feBlend mode="normal" in2="shape" result="effect1_innerShadow_320_4272"/>
<feTurbulence type="fractalNoise" baseFrequency="0.066666670143604279 0.066666670143604279" numOctaves="3" seed="5149" />
<feDisplacementMap in="effect1_innerShadow_320_4272" scale="3" xChannelSelector="R" yChannelSelector="G" result="displacedImage" width="100%" height="100%" />
<feMerge result="effect2_texture_320_4272">
<feMergeNode in="displacedImage"/>
</feMerge>
</filter>
<filter id="filter5_g_320_4272" x="254.484" y="191.011" width="80.5859" height="60.9668" filterUnits="userSpaceOnUse" color-interpolation-filters="sRGB">
<feFlood flood-opacity="0" result="BackgroundImageFix"/>
<feBlend mode="normal" in="SourceGraphic" in2="BackgroundImageFix" result="shape"/>
<feTurbulence type="fractalNoise" baseFrequency="0.066666670143604279 0.066666670143604279" numOctaves="3" seed="5149" />
<feDisplacementMap in="shape" scale="3" xChannelSelector="R" yChannelSelector="G" result="displacedImage" width="100%" height="100%" />
<feMerge result="effect1_texture_320_4272">
<feMergeNode in="displacedImage"/>
</feMerge>
</filter>
<filter id="filter6_g_320_4272" x="267.395" y="244.252" width="31.0195" height="20.7764" filterUnits="userSpaceOnUse" color-interpolation-filters="sRGB">
<feFlood flood-opacity="0" result="BackgroundImageFix"/>
<feBlend mode="normal" in="SourceGraphic" in2="BackgroundImageFix" result="shape"/>
<feTurbulence type="fractalNoise" baseFrequency="0.066666677594184875 0.066666677594184875" numOctaves="3" seed="5149" />
<feDisplacementMap in="shape" scale="2.9999995231628418" xChannelSelector="R" yChannelSelector="G" result="displacedImage" width="100%" height="100%" />
<feMerge result="effect1_texture_320_4272">
<feMergeNode in="displacedImage"/>
</feMerge>
</filter>
</defs>
</svg>
