<svg width="385" height="366" viewBox="0 0 385 366" fill="none" xmlns="http://www.w3.org/2000/svg">
<g filter="url(#filter0_d_305_2660)">
<rect x="99" y="104.512" width="162" height="162" rx="50" fill="white"/>
<rect x="94.5" y="100.012" width="171" height="171" rx="54.5" stroke="#5A79F9" stroke-width="9"/>
<path d="M180.596 215.484C176.816 215.484 173.576 214.809 170.876 213.459C168.176 212.055 165.989 210.057 164.315 207.465C162.695 204.873 161.48 201.795 160.67 198.231C159.914 194.667 159.536 190.698 159.536 186.324C159.536 181.518 160.103 177.225 161.237 173.445C162.371 169.611 164.045 166.344 166.259 163.644C168.527 160.89 171.335 158.811 174.683 157.407C178.085 155.949 182 155.22 186.428 155.22C188.696 155.22 190.613 155.382 192.179 155.706C193.745 155.976 195.176 156.354 196.472 156.84V163.968H195.824C194.69 163.482 193.394 163.05 191.936 162.672C190.478 162.24 188.534 162.024 186.104 162.024C182.864 162.024 180.056 162.564 177.68 163.644C175.304 164.67 173.36 166.236 171.848 168.342C170.336 170.394 169.202 172.905 168.446 175.875C167.69 178.791 167.312 182.166 167.312 186C167.312 191.076 167.717 195.315 168.527 198.717C169.391 202.119 170.795 204.684 172.739 206.412C174.737 208.14 177.464 209.004 180.92 209.004C183.836 209.004 186.185 208.41 187.967 207.222C189.803 205.98 191.126 204.36 191.936 202.362C192.8 200.31 193.232 198.096 193.232 195.72C193.232 191.832 192.179 188.754 190.073 186.486C188.021 184.218 184.97 183.084 180.92 183.084C177.356 183.084 174.413 183.813 172.091 185.271C169.823 186.675 167.906 188.43 166.34 190.536H163.424V182.922H166.664C167.96 181.356 169.823 179.925 172.253 178.629C174.683 177.279 178.004 176.604 182.216 176.604C185.78 176.604 188.939 177.333 191.693 178.791C194.501 180.195 196.688 182.328 198.254 185.19C199.874 187.998 200.684 191.508 200.684 195.72C200.684 199.392 199.901 202.74 198.335 205.764C196.823 208.734 194.555 211.11 191.531 212.892C188.561 214.62 184.916 215.484 180.596 215.484Z" fill="#5A79F9"/>
</g>
<g filter="url(#filter1_d_305_2660)">
<g filter="url(#filter2_g_305_2660)">
<mask id="path-4-outside-1_305_2660" maskUnits="userSpaceOnUse" x="182.796" y="-5.79698" width="208.465" height="209.173" fill="black">
<rect fill="white" x="182.796" y="-5.79698" width="208.465" height="209.173"/>
<path d="M298.024 24.9999C303.542 21.8141 310.598 23.7046 313.784 29.2226L321.749 43.019C323.279 45.6688 325.799 47.6023 328.755 48.3942L346.742 53.214C352.897 54.8631 356.549 61.1894 354.9 67.344L350.08 85.3325C349.288 88.2877 349.703 91.4366 351.233 94.0863L359.846 109.006C363.032 114.524 361.141 121.58 355.623 124.766L340.704 133.379C338.055 134.909 336.121 137.428 335.329 140.384L331.056 156.33C329.752 161.2 325.519 164.5 320.759 164.85C319.992 166.082 319.168 167.192 318.253 168.209C313.674 173.294 307.604 176.798 300.911 178.221C293.303 179.838 284.539 177.491 267.011 172.794C249.484 168.098 240.72 165.749 234.94 160.544C229.855 155.966 226.35 149.895 224.928 143.203C224.643 141.864 224.483 140.489 224.435 139.038C220.492 136.354 218.477 131.382 219.782 126.514L223.982 110.839C224.773 107.884 224.359 104.735 222.829 102.086L214.017 86.8228C210.831 81.3048 212.722 74.2482 218.24 71.0624L233.503 62.2505C236.153 60.7207 238.086 58.2011 238.878 55.2457L243.625 37.528C245.274 31.3734 251.601 27.721 257.755 29.37L275.473 34.1175C278.428 34.9093 281.577 34.4946 284.227 32.9649L298.024 24.9999Z"/>
</mask>
<path d="M298.024 24.9999L302.024 31.9283L302.024 31.9281L298.024 24.9999ZM313.784 29.2226L320.712 25.2226L313.784 29.2226ZM321.749 43.019L314.821 47.019L314.821 47.019L321.749 43.019ZM350.08 85.3325L342.353 83.2619L342.353 83.2621L350.08 85.3325ZM351.233 94.0863L344.304 98.0859L344.305 98.0863L351.233 94.0863ZM359.846 109.006L366.775 105.006L366.775 105.006L359.846 109.006ZM355.623 124.766L359.623 131.694L359.623 131.694L355.623 124.766ZM340.704 133.379L336.705 126.451L336.704 126.451L340.704 133.379ZM335.329 140.384L327.602 138.313L327.602 138.313L335.329 140.384ZM320.759 164.85L320.173 156.871L316.116 157.17L313.967 160.623L320.759 164.85ZM318.253 168.209L324.198 173.562L324.198 173.562L318.253 168.209ZM300.911 178.221L302.575 186.046L302.575 186.046L300.911 178.221ZM267.011 172.794L264.941 180.522L267.011 172.794ZM234.94 160.544L229.587 166.489L229.587 166.489L234.94 160.544ZM224.928 143.203L217.102 144.866L217.102 144.866L224.928 143.203ZM224.435 139.038L232.431 138.774L232.297 134.711L228.936 132.424L224.435 139.038ZM223.982 110.839L231.709 112.91L231.709 112.91L223.982 110.839ZM222.829 102.086L229.757 98.0856L229.757 98.0855L222.829 102.086ZM214.017 86.8228L207.089 90.8228L214.017 86.8228ZM218.24 71.0624L222.24 77.9906L218.24 71.0624ZM233.503 62.2505L237.503 69.1787L237.503 69.1787L233.503 62.2505ZM238.878 55.2457L246.605 57.3166L246.605 57.3163L238.878 55.2457ZM257.755 29.37L259.826 21.6426L259.826 21.6426L257.755 29.37ZM275.473 34.1175L273.403 41.8449L273.403 41.8449L275.473 34.1175ZM284.227 32.9649L280.227 26.0366L280.227 26.0366L284.227 32.9649ZM298.024 24.9999L302.024 31.9281C303.716 30.9514 305.879 31.531 306.855 33.2226L313.784 29.2226L320.712 25.2226C315.317 15.8782 303.369 12.6768 294.024 18.0717L298.024 24.9999ZM313.784 29.2226L306.855 33.2226L314.821 47.019L321.749 43.019L328.677 39.019L320.712 25.2226L313.784 29.2226ZM321.749 43.019L314.821 47.019C317.412 51.5067 321.68 54.7807 326.684 56.1216L328.755 48.3942L330.825 40.6668C329.919 40.4239 329.146 39.8308 328.677 39.0189L321.749 43.019ZM328.755 48.3942L326.684 56.1216L344.672 60.9414L346.742 53.214L348.813 45.4866L330.825 40.6668L328.755 48.3942ZM346.742 53.214L344.672 60.9414C346.559 61.447 347.678 63.3866 347.173 65.2734L354.9 67.344L362.628 69.4145C365.42 58.9922 359.235 48.2792 348.813 45.4866L346.742 53.214ZM354.9 67.344L347.173 65.2734L342.353 83.2619L350.08 85.3325L357.808 87.403L362.628 69.4145L354.9 67.344ZM350.08 85.3325L342.353 83.2621C341.012 88.2669 341.714 93.5992 344.304 98.0859L351.233 94.0863L358.161 90.0866C357.692 89.274 357.565 88.3085 357.808 87.4028L350.08 85.3325ZM351.233 94.0863L344.305 98.0863L352.918 113.006L359.846 109.006L366.775 105.006L358.161 90.0863L351.233 94.0863ZM359.846 109.006L352.918 113.006C353.895 114.697 353.315 116.861 351.623 117.838L355.623 124.766L359.623 131.694C368.968 126.299 372.169 114.35 366.775 105.006L359.846 109.006ZM355.623 124.766L351.624 117.838L336.705 126.451L340.704 133.379L344.704 140.307L359.623 131.694L355.623 124.766ZM340.704 133.379L336.704 126.451C332.217 129.041 328.943 133.308 327.602 138.313L335.329 140.384L343.057 142.455C343.299 141.549 343.892 140.776 344.705 140.307L340.704 133.379ZM335.329 140.384L327.602 138.313L323.329 154.259L331.056 156.33L338.784 158.4L343.057 142.454L335.329 140.384ZM331.056 156.33L323.329 154.259C322.933 155.737 321.646 156.763 320.173 156.871L320.759 164.85L321.346 172.828C329.391 172.236 336.57 166.663 338.784 158.4L331.056 156.33ZM320.759 164.85L313.967 160.623C313.424 161.496 312.877 162.223 312.307 162.856L318.253 168.209L324.198 173.562C325.459 172.162 326.561 170.668 327.552 169.076L320.759 164.85ZM318.253 168.209L312.308 162.856C308.86 166.685 304.288 169.324 299.248 170.396L300.911 178.221L302.575 186.046C310.92 184.272 318.489 179.902 324.198 173.562L318.253 168.209ZM300.911 178.221L299.248 170.396C296.888 170.897 293.96 170.888 289.115 170.005C284.178 169.105 277.973 167.449 269.082 165.067L267.011 172.794L264.941 180.522C273.577 182.836 280.517 184.702 286.247 185.746C292.068 186.806 297.326 187.162 302.575 186.046L300.911 178.221ZM267.011 172.794L269.082 165.067C260.191 162.685 253.989 161.016 249.264 159.327C244.627 157.669 242.086 156.213 240.293 154.599L234.94 160.544L229.587 166.489C233.574 170.079 238.305 172.401 243.877 174.393C249.361 176.353 256.304 178.208 264.941 180.522L267.011 172.794ZM234.94 160.544L240.293 154.599C236.464 151.151 233.824 146.579 232.753 141.539L224.928 143.203L217.102 144.866C218.876 153.211 223.247 160.78 229.587 166.489L234.94 160.544ZM224.928 143.203L232.753 141.539C232.575 140.701 232.465 139.798 232.431 138.774L224.435 139.038L216.439 139.301C216.501 141.181 216.712 143.027 217.102 144.866L224.928 143.203ZM224.435 139.038L228.936 132.424C227.714 131.592 227.113 130.061 227.509 128.584L219.782 126.514L212.054 124.443C209.841 132.703 213.269 141.116 219.934 145.652L224.435 139.038ZM219.782 126.514L227.509 128.584L231.709 112.91L223.982 110.839L216.254 108.769L212.054 124.443L219.782 126.514ZM223.982 110.839L231.709 112.91C233.05 107.905 232.348 102.573 229.757 98.0856L222.829 102.086L215.901 106.085C216.37 106.898 216.497 107.863 216.254 108.769L223.982 110.839ZM222.829 102.086L229.757 98.0855L220.945 82.8228L214.017 86.8228L207.089 90.8228L215.901 106.086L222.829 102.086ZM214.017 86.8228L220.945 82.8228C219.969 81.1311 220.548 78.9673 222.24 77.9906L218.24 71.0624L214.24 64.1342C204.896 69.5292 201.694 81.4784 207.089 90.8228L214.017 86.8228ZM218.24 71.0624L222.24 77.9906L237.503 69.1787L233.503 62.2505L229.503 55.3223L214.24 64.1342L218.24 71.0624ZM233.503 62.2505L237.503 69.1787C241.99 66.5879 245.264 62.3211 246.605 57.3166L238.878 55.2457L231.151 53.1749C230.908 54.081 230.315 54.8534 229.503 55.3223L233.503 62.2505ZM238.878 55.2457L246.605 57.3163L251.353 39.5985L243.625 37.528L235.898 35.4574L231.15 53.1752L238.878 55.2457ZM243.625 37.528L251.353 39.5985C251.858 37.7118 253.798 36.5919 255.685 37.0974L257.755 29.37L259.826 21.6426C249.404 18.8501 238.691 25.0351 235.898 35.4574L243.625 37.528ZM257.755 29.37L255.685 37.0974L273.403 41.8449L275.473 34.1175L277.544 26.3901L259.826 21.6426L257.755 29.37ZM275.473 34.1175L273.403 41.8449C278.408 43.1859 283.74 42.4835 288.227 39.8933L284.227 32.9649L280.227 26.0366C279.415 26.5057 278.449 26.6327 277.544 26.39L275.473 34.1175ZM284.227 32.9649L288.227 39.8933L302.024 31.9283L298.024 24.9999L294.024 18.0715L280.227 26.0366L284.227 32.9649Z" fill="white" mask="url(#path-4-outside-1_305_2660)"/>
</g>
<g filter="url(#filter3_g_305_2660)">
<path d="M321.749 43.0182C323.279 45.668 325.799 47.6016 328.754 48.3935L346.743 53.2134C352.897 54.8626 356.55 61.1887 354.9 67.3433L350.08 85.3316C349.289 88.2871 349.703 91.4361 351.233 94.0859L359.846 109.005C363.032 114.523 361.141 121.579 355.623 124.765L340.705 133.378C338.055 134.908 336.121 137.428 335.329 140.384L331.057 156.329C329.408 162.484 323.081 166.136 316.927 164.487L227.94 140.643C221.785 138.994 218.133 132.668 219.782 126.513L223.982 110.839C224.774 107.884 224.359 104.735 222.829 102.085L214.017 86.8219C210.831 81.3038 212.722 74.2479 218.24 71.0621L233.503 62.2501C236.153 60.7202 238.086 58.2003 238.878 55.2447L243.626 37.5273C245.275 31.3727 251.601 27.7203 257.755 29.3694L275.473 34.1168C278.428 34.9087 281.578 34.4941 284.227 32.9642L298.024 24.9988C303.542 21.813 310.598 23.7036 313.784 29.2217L321.749 43.0182Z" fill="#5A79F9"/>
</g>
<g filter="url(#filter4_ig_305_2660)">
<rect x="243.777" y="59.2305" width="103.68" height="103.68" rx="32.4" transform="rotate(15 243.777 59.2305)" fill="#FFC6B7"/>
</g>
<g filter="url(#filter5_g_305_2660)">
<path d="M251.583 89.8346C252.941 84.763 253.621 82.2272 255.127 80.5546C256.452 79.0833 258.208 78.0692 260.145 77.6576C262.346 77.1896 264.882 77.8691 269.954 79.228C275.025 80.5869 277.561 81.2664 279.234 82.7724C280.705 84.0972 281.719 85.8537 282.131 87.7902C282.599 89.9918 281.919 92.5276 280.56 97.5992L276.678 112.088C275.319 117.16 274.64 119.695 273.134 121.368C271.809 122.839 270.052 123.853 268.116 124.265C265.914 124.733 263.378 124.054 258.307 122.695C253.235 121.336 250.699 120.656 249.027 119.15C247.556 117.825 246.541 116.069 246.13 114.132C245.662 111.931 246.341 109.395 247.7 104.323L251.583 89.8346Z" fill="white"/>
<path d="M292.876 100.899C294.234 95.8275 294.914 93.2917 296.42 91.619C297.745 90.1478 299.501 89.1336 301.438 88.722C303.639 88.2541 306.175 88.9335 311.247 90.2924V90.2924C316.318 91.6514 318.854 92.3308 320.527 93.8369C321.998 95.1616 323.012 96.9181 323.424 98.8547C323.892 101.056 323.212 103.592 321.853 108.664L317.971 123.153C316.612 128.224 315.933 130.76 314.427 132.433C313.102 133.904 311.345 134.918 309.409 135.33C307.207 135.797 304.671 135.118 299.6 133.759V133.759C294.528 132.4 291.992 131.721 290.32 130.215C288.849 128.89 287.834 127.133 287.423 125.197C286.955 122.995 287.634 120.46 288.993 115.388L292.876 100.899Z" fill="white"/>
<path d="M267.924 96.9333C270.46 97.6128 271.728 97.9524 272.564 98.7053C273.3 99.3677 273.807 100.246 274.013 101.215C274.247 102.315 273.907 103.583 273.227 106.119L271.286 113.363C270.607 115.899 270.267 117.167 269.514 118.003C268.852 118.739 267.973 119.246 267.005 119.452C265.904 119.686 264.636 119.346 262.101 118.667C259.565 117.987 258.297 117.648 257.461 116.895C256.725 116.232 256.218 115.354 256.012 114.385C255.778 113.285 256.118 112.017 256.797 109.481L257.479 106.936C257.703 106.102 257.815 105.684 258.135 105.489C258.455 105.294 258.897 105.39 259.779 105.581C260.778 105.798 261.489 105.862 262.141 105.723C263.11 105.518 263.988 105.01 264.651 104.275C265.404 103.438 265.743 102.171 266.423 99.6349L267.004 97.4672C267.111 97.0663 267.523 96.8259 267.924 96.9333V96.9333Z" fill="#4C4C4C"/>
<path d="M308.037 108.068C310.573 108.748 311.841 109.087 312.677 109.84C313.413 110.502 313.92 111.381 314.126 112.349C314.36 113.45 314.02 114.718 313.341 117.254L311.4 124.498C310.72 127.034 310.38 128.302 309.628 129.138C308.965 129.874 308.087 130.381 307.118 130.587C306.018 130.821 304.75 130.481 302.214 129.801C299.678 129.122 298.41 128.782 297.574 128.029C296.838 127.367 296.331 126.488 296.125 125.52C295.891 124.419 296.231 123.151 296.911 120.616L297.591 118.076C297.817 117.235 297.929 116.814 298.255 116.619C298.581 116.424 299.018 116.527 299.892 116.732C301.087 117.013 301.89 117.111 302.619 116.956C303.587 116.75 304.465 116.242 305.127 115.507C305.88 114.671 306.22 113.403 306.899 110.867L307.578 108.334C307.631 108.134 307.837 108.014 308.037 108.068V108.068Z" fill="#4C4C4C"/>
</g>
<g filter="url(#filter6_g_305_2660)">
<path d="M259.307 133.3C260.484 130.776 263.676 129.96 265.919 131.609L272.172 136.204C273.319 137.046 274.62 137.653 276.002 137.99L283.542 139.827C286.247 140.486 287.673 143.455 286.497 145.979V145.979C285.608 147.885 283.497 148.899 281.453 148.401L273.02 146.347C271.096 145.878 269.284 145.033 267.688 143.86L260.694 138.721C258.999 137.475 258.418 135.206 259.307 133.3V133.3Z" fill="white"/>
</g>
</g>
<defs>
<filter id="filter0_d_305_2660" x="0" y="5.51172" width="360" height="360" filterUnits="userSpaceOnUse" color-interpolation-filters="sRGB">
<feFlood flood-opacity="0" result="BackgroundImageFix"/>
<feColorMatrix in="SourceAlpha" type="matrix" values="0 0 0 0 0 0 0 0 0 0 0 0 0 0 0 0 0 0 127 0" result="hardAlpha"/>
<feOffset/>
<feGaussianBlur stdDeviation="45"/>
<feComposite in2="hardAlpha" operator="out"/>
<feColorMatrix type="matrix" values="0 0 0 0 1 0 0 0 0 1 0 0 0 0 1 0 0 0 1 0"/>
<feBlend mode="normal" in2="BackgroundImageFix" result="effect1_dropShadow_305_2660"/>
<feBlend mode="normal" in="SourceGraphic" in2="effect1_dropShadow_305_2660" result="shape"/>
</filter>
<filter id="filter1_d_305_2660" x="189.469" y="0.451172" width="194.926" height="201.279" filterUnits="userSpaceOnUse" color-interpolation-filters="sRGB">
<feFlood flood-opacity="0" result="BackgroundImageFix"/>
<feColorMatrix in="SourceAlpha" type="matrix" values="0 0 0 0 0 0 0 0 0 0 0 0 0 0 0 0 0 0 127 0" result="hardAlpha"/>
<feOffset/>
<feGaussianBlur stdDeviation="7.5"/>
<feComposite in2="hardAlpha" operator="out"/>
<feColorMatrix type="matrix" values="0 0 0 0 0 0 0 0 0 0 0 0 0 0 0 0 0 0 0.25 0"/>
<feBlend mode="normal" in2="BackgroundImageFix" result="effect1_dropShadow_305_2660"/>
<feBlend mode="normal" in="SourceGraphic" in2="effect1_dropShadow_305_2660" result="shape"/>
</filter>
<filter id="filter2_g_305_2660" x="202.969" y="13.9512" width="167.926" height="174.279" filterUnits="userSpaceOnUse" color-interpolation-filters="sRGB">
<feFlood flood-opacity="0" result="BackgroundImageFix"/>
<feBlend mode="normal" in="SourceGraphic" in2="BackgroundImageFix" result="shape"/>
<feTurbulence type="fractalNoise" baseFrequency="0.066666677594184875 0.066666677594184875" numOctaves="3" seed="5149" />
<feDisplacementMap in="shape" scale="2.9999995231628418" xChannelSelector="R" yChannelSelector="G" result="displacedImage" width="100%" height="100%" />
<feMerge result="effect1_texture_305_2660">
<feMergeNode in="displacedImage"/>
</feMerge>
</filter>
<filter id="filter3_g_305_2660" x="210.969" y="21.9512" width="151.926" height="144.433" filterUnits="userSpaceOnUse" color-interpolation-filters="sRGB">
<feFlood flood-opacity="0" result="BackgroundImageFix"/>
<feBlend mode="normal" in="SourceGraphic" in2="BackgroundImageFix" result="shape"/>
<feTurbulence type="fractalNoise" baseFrequency="0.066666670143604279 0.066666670143604279" numOctaves="3" seed="5149" />
<feDisplacementMap in="shape" scale="3" xChannelSelector="R" yChannelSelector="G" result="displacedImage" width="100%" height="100%" />
<feMerge result="effect1_texture_305_2660">
<feMergeNode in="displacedImage"/>
</feMerge>
</filter>
<filter id="filter4_ig_305_2660" x="222.922" y="65.2109" width="115.023" height="115.021" filterUnits="userSpaceOnUse" color-interpolation-filters="sRGB">
<feFlood flood-opacity="0" result="BackgroundImageFix"/>
<feBlend mode="normal" in="SourceGraphic" in2="BackgroundImageFix" result="shape"/>
<feColorMatrix in="SourceAlpha" type="matrix" values="0 0 0 0 0 0 0 0 0 0 0 0 0 0 0 0 0 0 127 0" result="hardAlpha"/>
<feOffset dy="1.5"/>
<feGaussianBlur stdDeviation="3.75"/>
<feComposite in2="hardAlpha" operator="arithmetic" k2="-1" k3="1"/>
<feColorMatrix type="matrix" values="0 0 0 0 0.352941 0 0 0 0 0.47451 0 0 0 0 0.976471 0 0 0 1 0"/>
<feBlend mode="normal" in2="shape" result="effect1_innerShadow_305_2660"/>
<feTurbulence type="fractalNoise" baseFrequency="0.066666670143604279 0.066666670143604279" numOctaves="3" seed="5149" />
<feDisplacementMap in="effect1_innerShadow_305_2660" scale="3" xChannelSelector="R" yChannelSelector="G" result="displacedImage" width="100%" height="100%" />
<feMerge result="effect2_texture_305_2660">
<feMergeNode in="displacedImage"/>
</feMerge>
</filter>
<filter id="filter5_g_305_2660" x="244.484" y="76.0098" width="80.5859" height="60.9668" filterUnits="userSpaceOnUse" color-interpolation-filters="sRGB">
<feFlood flood-opacity="0" result="BackgroundImageFix"/>
<feBlend mode="normal" in="SourceGraphic" in2="BackgroundImageFix" result="shape"/>
<feTurbulence type="fractalNoise" baseFrequency="0.066666670143604279 0.066666670143604279" numOctaves="3" seed="5149" />
<feDisplacementMap in="shape" scale="3" xChannelSelector="R" yChannelSelector="G" result="displacedImage" width="100%" height="100%" />
<feMerge result="effect1_texture_305_2660">
<feMergeNode in="displacedImage"/>
</feMerge>
</filter>
<filter id="filter6_g_305_2660" x="257.395" y="129.251" width="31.0195" height="20.7764" filterUnits="userSpaceOnUse" color-interpolation-filters="sRGB">
<feFlood flood-opacity="0" result="BackgroundImageFix"/>
<feBlend mode="normal" in="SourceGraphic" in2="BackgroundImageFix" result="shape"/>
<feTurbulence type="fractalNoise" baseFrequency="0.066666677594184875 0.066666677594184875" numOctaves="3" seed="5149" />
<feDisplacementMap in="shape" scale="2.9999995231628418" xChannelSelector="R" yChannelSelector="G" result="displacedImage" width="100%" height="100%" />
<feMerge result="effect1_texture_305_2660">
<feMergeNode in="displacedImage"/>
</feMerge>
</filter>
</defs>
</svg>
