<svg width="385" height="366" viewBox="0 0 385 366" fill="none" xmlns="http://www.w3.org/2000/svg">
<g filter="url(#filter0_d_305_2607)">
<rect x="99" y="104.512" width="162" height="162" rx="50" fill="white"/>
<rect x="94.5" y="100.012" width="171" height="171" rx="54.5" stroke="#5A79F9" stroke-width="9"/>
<path d="M160.184 204.63H160.832C162.29 205.494 164.342 206.385 166.988 207.303C169.634 208.221 172.658 208.68 176.06 208.68C180.056 208.68 183.161 208.086 185.375 206.898C187.589 205.71 189.128 204.198 189.992 202.362C190.856 200.526 191.288 198.636 191.288 196.692C191.288 193.128 190.154 190.401 187.886 188.511C185.618 186.621 182.216 185.676 177.68 185.676C174.224 185.676 171.335 185.973 169.013 186.567C166.745 187.161 164.882 187.62 163.424 187.944L162.776 187.62V171.42C162.776 170.34 162.749 168.909 162.695 167.127C162.695 165.345 162.641 163.59 162.533 161.862C162.479 160.134 162.344 158.784 162.128 157.812L162.29 157.164C163.532 156.84 165.071 156.597 166.907 156.435C168.743 156.273 171.038 156.192 173.792 156.192H196.472V162.996H166.988L169.985 161.214C170.039 161.97 170.093 162.861 170.147 163.887C170.201 164.913 170.228 165.912 170.228 166.884V183.003L168.365 180.249C169.769 179.979 171.308 179.736 172.982 179.52C174.71 179.304 176.384 179.196 178.004 179.196C185.132 179.196 190.424 180.735 193.88 183.813C197.336 186.891 199.064 191.184 199.064 196.692C199.064 200.472 198.119 203.766 196.229 206.574C194.393 209.382 191.747 211.569 188.291 213.135C184.889 214.701 180.812 215.484 176.06 215.484C172.82 215.484 169.796 215.187 166.988 214.593C164.234 213.999 161.966 213.216 160.184 212.244V204.63Z" fill="#5A79F9"/>
</g>
<g filter="url(#filter1_d_305_2607)">
<g filter="url(#filter2_g_305_2607)">
<mask id="path-4-outside-1_305_2607" maskUnits="userSpaceOnUse" x="182.796" y="-5.79796" width="208.465" height="209.173" fill="black">
<rect fill="white" x="182.796" y="-5.79796" width="208.465" height="209.173"/>
<path d="M298.023 24.9984C303.541 21.8127 310.597 23.7034 313.782 29.2212L321.748 43.0165C323.278 45.6663 325.797 47.6005 328.753 48.3925L346.743 53.213C352.897 54.8621 356.55 61.1876 354.901 67.3421L350.081 85.3315C349.289 88.287 349.703 91.4364 351.233 94.0862L359.846 109.004C363.032 114.522 361.141 121.578 355.623 124.764L340.705 133.377C338.055 134.907 336.122 137.427 335.33 140.383L331.057 156.33C329.752 161.2 325.518 164.5 320.759 164.849C319.992 166.082 319.168 167.191 318.252 168.208C313.674 173.292 307.604 176.797 300.911 178.22C293.303 179.837 284.538 177.49 267.011 172.793C249.484 168.097 240.72 165.748 234.939 160.543C229.855 155.964 226.35 149.894 224.927 143.201C224.643 141.863 224.483 140.489 224.436 139.038C220.492 136.354 218.478 131.382 219.782 126.514L223.982 110.838C224.774 107.883 224.36 104.733 222.83 102.084L214.017 86.8207C210.832 81.3028 212.722 74.2471 218.24 71.0612L233.504 62.2495C236.153 60.7196 238.087 58.1993 238.879 55.2438L243.626 37.5261C245.276 31.3717 251.602 27.72 257.756 29.3691L275.473 34.1163C278.428 34.9082 281.578 34.4929 284.228 32.963L298.023 24.9984Z"/>
</mask>
<path d="M298.023 24.9984L294.023 18.0702L294.023 18.0702L298.023 24.9984ZM313.782 29.2212L306.854 33.2214L306.854 33.2215L313.782 29.2212ZM321.748 43.0165L328.676 39.0165L328.676 39.0162L321.748 43.0165ZM328.753 48.3925L326.682 56.1199L326.682 56.1199L328.753 48.3925ZM346.743 53.213L348.814 45.4856L348.813 45.4856L346.743 53.213ZM354.901 67.3421L362.629 69.4126L362.629 69.4124L354.901 67.3421ZM350.081 85.3315L342.353 83.261L350.081 85.3315ZM359.846 109.004L366.774 105.004L366.774 105.004L359.846 109.004ZM355.623 124.764L359.623 131.692L359.623 131.692L355.623 124.764ZM340.705 133.377L336.705 126.449L340.705 133.377ZM335.33 140.383L327.603 138.312L327.603 138.312L335.33 140.383ZM331.057 156.33L338.784 158.401L338.784 158.4L331.057 156.33ZM320.759 164.849L320.173 156.871L316.116 157.169L313.967 160.623L320.759 164.849ZM318.252 168.208L324.198 173.561L324.198 173.561L318.252 168.208ZM300.911 178.22L302.574 186.045L302.574 186.045L300.911 178.22ZM267.011 172.793L264.941 180.52L267.011 172.793ZM234.939 160.543L229.586 166.488L229.586 166.488L234.939 160.543ZM224.927 143.201L217.102 144.865L217.102 144.865L224.927 143.201ZM224.436 139.038L232.431 138.774L232.297 134.711L228.936 132.423L224.436 139.038ZM219.782 126.514L212.055 124.443L212.055 124.444L219.782 126.514ZM223.982 110.838L231.71 112.909L231.71 112.909L223.982 110.838ZM222.83 102.084L229.758 98.0836L229.758 98.0833L222.83 102.084ZM214.017 86.8207L207.089 90.8204L207.089 90.8209L214.017 86.8207ZM218.24 71.0612L214.24 64.1328L214.24 64.1331L218.24 71.0612ZM233.504 62.2495L237.503 69.1779L237.504 69.1777L233.504 62.2495ZM238.879 55.2438L231.151 53.1733L238.879 55.2438ZM243.626 37.5261L235.899 35.4553L235.899 35.4555L243.626 37.5261ZM257.756 29.3691L259.827 21.6416L257.756 29.3691ZM275.473 34.1163L273.402 41.8437L275.473 34.1163ZM284.228 32.963L280.228 26.0348L284.228 32.963ZM298.023 24.9984L302.023 31.9266C303.714 30.9502 305.878 31.5295 306.854 33.2214L313.782 29.2212L320.711 25.2209C315.316 15.8774 303.367 12.6752 294.023 18.0702L298.023 24.9984ZM313.782 29.2212L306.854 33.2215L314.82 47.0168L321.748 43.0165L328.676 39.0162L320.71 25.2209L313.782 29.2212ZM321.748 43.0165L314.82 47.0166C317.41 51.5023 321.675 54.7783 326.682 56.1199L328.753 48.3925L330.823 40.6651C329.919 40.4228 329.146 39.8304 328.676 39.0165L321.748 43.0165ZM328.753 48.3925L326.682 56.1199L344.672 60.9404L346.743 53.213L348.813 45.4856L330.823 40.6651L328.753 48.3925ZM346.743 53.213L344.672 60.9404C346.56 61.4461 347.679 63.3856 347.174 65.2718L354.901 67.3421L362.629 69.4124C365.421 58.9897 359.235 48.2781 348.814 45.4856L346.743 53.213ZM354.901 67.3421L347.174 65.2715L342.353 83.261L350.081 85.3315L357.808 87.4021L362.629 69.4126L354.901 67.3421ZM350.081 85.3315L342.353 83.261C341.013 88.2654 341.714 93.5984 344.305 98.0862L351.233 94.0862L358.161 90.0862C357.693 89.2744 357.565 88.3087 357.808 87.4021L350.081 85.3315ZM351.233 94.0862L344.305 98.0862L352.918 113.004L359.846 109.004L366.774 105.004L358.161 90.0862L351.233 94.0862ZM359.846 109.004L352.918 113.004C353.895 114.696 353.315 116.859 351.623 117.836L355.623 124.764L359.623 131.692C368.968 126.297 372.169 114.349 366.774 105.004L359.846 109.004ZM355.623 124.764L351.623 117.836L336.705 126.449L340.705 133.377L344.705 140.305L359.623 131.692L355.623 124.764ZM340.705 133.377L336.705 126.449C332.217 129.04 328.943 133.308 327.603 138.312L335.33 140.383L343.057 142.453C343.3 141.547 343.893 140.774 344.705 140.305L340.705 133.377ZM335.33 140.383L327.603 138.312L323.33 154.259L331.057 156.33L338.784 158.4L343.057 142.453L335.33 140.383ZM331.057 156.33L323.33 154.259C322.934 155.736 321.647 156.763 320.173 156.871L320.759 164.849L321.345 172.828C329.39 172.237 336.57 166.663 338.784 158.401L331.057 156.33ZM320.759 164.849L313.967 160.623C313.424 161.495 312.878 162.221 312.307 162.855L318.252 168.208L324.198 173.561C325.457 172.162 326.56 170.668 327.551 169.076L320.759 164.849ZM318.252 168.208L312.307 162.855C308.86 166.684 304.288 169.323 299.248 170.395L300.911 178.22L302.574 186.045C310.919 184.271 318.489 179.901 324.198 173.561L318.252 168.208ZM300.911 178.22L299.248 170.395C296.888 170.896 293.959 170.886 289.115 170.004C284.178 169.104 277.973 167.448 269.082 165.066L267.011 172.793L264.941 180.52C273.577 182.835 280.517 184.7 286.247 185.744C292.068 186.805 297.326 187.161 302.574 186.045L300.911 178.22ZM267.011 172.793L269.082 165.066C260.191 162.683 253.989 161.015 249.263 159.326C244.627 157.668 242.086 156.212 240.293 154.598L234.939 160.543L229.586 166.488C233.574 170.078 238.305 172.4 243.877 174.392C249.361 176.352 256.304 178.206 264.941 180.52L267.011 172.793ZM234.939 160.543L240.293 154.598C236.463 151.15 233.824 146.578 232.753 141.538L224.927 143.201L217.102 144.865C218.876 153.21 223.246 160.779 229.586 166.488L234.939 160.543ZM224.927 143.201L232.753 141.538C232.575 140.702 232.465 139.8 232.431 138.774L224.436 139.038L216.44 139.301C216.502 141.178 216.711 143.023 217.102 144.865L224.927 143.201ZM224.436 139.038L228.936 132.423C227.715 131.593 227.114 130.061 227.51 128.584L219.782 126.514L212.055 124.444C209.842 132.702 213.269 141.116 219.935 145.652L224.436 139.038ZM219.782 126.514L227.509 128.584L231.71 112.909L223.982 110.838L216.255 108.768L212.055 124.443L219.782 126.514ZM223.982 110.838L231.71 112.909C233.051 107.904 232.349 102.571 229.758 98.0836L222.83 102.084L215.902 106.084C216.371 106.895 216.498 107.861 216.255 108.768L223.982 110.838ZM222.83 102.084L229.758 98.0833L220.945 82.8204L214.017 86.8207L207.089 90.8209L215.902 106.084L222.83 102.084ZM214.017 86.8207L220.946 82.8209C219.969 81.1293 220.549 78.9659 222.24 77.9892L218.24 71.0612L214.24 64.1331C204.896 69.5282 201.695 81.4763 207.089 90.8204L214.017 86.8207ZM218.24 71.0612L222.24 77.9895L237.503 69.1779L233.504 62.2495L229.504 55.3212L214.24 64.1328L218.24 71.0612ZM233.504 62.2495L237.504 69.1777C241.991 66.5867 245.265 62.3188 246.606 57.3144L238.879 55.2438L231.151 53.1733C230.908 54.0799 230.315 54.8526 229.503 55.3214L233.504 62.2495ZM238.879 55.2438L246.606 57.3144L251.354 39.5966L243.626 37.5261L235.899 35.4555L231.151 53.1733L238.879 55.2438ZM243.626 37.5261L251.354 39.5969C251.859 37.7106 253.798 36.5908 255.685 37.0965L257.756 29.3691L259.827 21.6416C249.405 18.8492 238.692 25.0328 235.899 35.4553L243.626 37.5261ZM257.756 29.3691L255.685 37.0965L273.402 41.8437L275.473 34.1163L277.543 26.3889L259.827 21.6416L257.756 29.3691ZM275.473 34.1163L273.402 41.8437C278.408 43.185 283.742 42.4814 288.228 39.8912L284.228 32.963L280.228 26.0348C279.414 26.5044 278.448 26.6313 277.543 26.3889L275.473 34.1163ZM284.228 32.963L288.228 39.8912L302.023 31.9266L298.023 24.9984L294.023 18.0702L280.228 26.0348L284.228 32.963Z" fill="white" mask="url(#path-4-outside-1_305_2607)"/>
</g>
<g filter="url(#filter3_g_305_2607)">
<path d="M321.747 43.0167C323.277 45.6666 325.797 47.6001 328.753 48.3921L346.743 53.2125C352.897 54.8616 356.55 61.1878 354.901 67.3424L350.081 85.3315C349.289 88.287 349.703 91.4361 351.233 94.086L359.846 109.004C363.032 114.522 361.141 121.578 355.623 124.764L340.705 133.377C338.055 134.907 336.122 137.427 335.33 140.383L331.057 156.329C329.408 162.484 323.081 166.136 316.927 164.487L227.94 140.643C221.785 138.994 218.133 132.668 219.782 126.513L223.982 110.838C224.774 107.883 224.359 104.734 222.829 102.084L214.017 86.8209C210.832 81.3029 212.722 74.247 218.24 71.0611L233.503 62.2491C236.153 60.7192 238.087 58.1993 238.878 55.2438L243.626 37.5264C245.275 31.3718 251.601 27.7194 257.756 29.3685L275.473 34.1158C278.429 34.9078 281.578 34.4932 284.228 32.9633L298.023 24.9986C303.541 21.8127 310.597 23.7034 313.783 29.2214L321.747 43.0167Z" fill="#5A79F9"/>
</g>
<g filter="url(#filter4_ig_305_2607)">
<rect x="243.777" y="59.2305" width="103.68" height="103.68" rx="32.4" transform="rotate(15 243.777 59.2305)" fill="#FFC6B7"/>
</g>
<g filter="url(#filter5_g_305_2607)">
<path d="M251.583 89.8346C252.941 84.763 253.621 82.2272 255.127 80.5546C256.452 79.0833 258.208 78.0692 260.145 77.6576C262.346 77.1896 264.882 77.8691 269.954 79.228C275.025 80.5869 277.561 81.2664 279.234 82.7724C280.705 84.0972 281.719 85.8537 282.131 87.7902C282.599 89.9918 281.919 92.5276 280.56 97.5992L276.678 112.088C275.319 117.16 274.64 119.695 273.134 121.368C271.809 122.839 270.052 123.853 268.116 124.265C265.914 124.733 263.378 124.054 258.307 122.695C253.235 121.336 250.699 120.656 249.027 119.15C247.556 117.825 246.541 116.069 246.13 114.132C245.662 111.931 246.341 109.395 247.7 104.323L251.583 89.8346Z" fill="white"/>
<path d="M292.876 100.899C294.234 95.8275 294.914 93.2917 296.42 91.619C297.745 90.1478 299.501 89.1336 301.438 88.722C303.639 88.2541 306.175 88.9335 311.247 90.2924V90.2924C316.318 91.6514 318.854 92.3308 320.527 93.8369C321.998 95.1616 323.012 96.9181 323.424 98.8547C323.892 101.056 323.212 103.592 321.853 108.664L317.971 123.153C316.612 128.224 315.933 130.76 314.427 132.433C313.102 133.904 311.345 134.918 309.409 135.33C307.207 135.797 304.671 135.118 299.6 133.759V133.759C294.528 132.4 291.992 131.721 290.32 130.215C288.849 128.89 287.834 127.133 287.423 125.197C286.955 122.995 287.634 120.46 288.993 115.388L292.876 100.899Z" fill="white"/>
<path d="M267.924 96.9333C270.46 97.6128 271.728 97.9524 272.564 98.7053C273.3 99.3677 273.807 100.246 274.013 101.215C274.247 102.315 273.907 103.583 273.227 106.119L271.286 113.363C270.607 115.899 270.267 117.167 269.514 118.003C268.852 118.739 267.973 119.246 267.005 119.452C265.904 119.686 264.636 119.346 262.101 118.667C259.565 117.987 258.297 117.648 257.461 116.895C256.725 116.232 256.218 115.354 256.012 114.385C255.778 113.285 256.118 112.017 256.797 109.481L257.479 106.936C257.703 106.102 257.815 105.684 258.135 105.489C258.455 105.294 258.897 105.39 259.779 105.581C260.778 105.798 261.489 105.862 262.141 105.723C263.11 105.518 263.988 105.01 264.651 104.275C265.404 103.438 265.743 102.171 266.423 99.6349L267.004 97.4672C267.111 97.0663 267.523 96.8259 267.924 96.9333V96.9333Z" fill="#4C4C4C"/>
<path d="M308.037 108.068C310.573 108.748 311.841 109.087 312.677 109.84C313.413 110.502 313.92 111.381 314.126 112.349C314.36 113.45 314.02 114.718 313.341 117.254L311.4 124.498C310.72 127.034 310.38 128.302 309.628 129.138C308.965 129.874 308.087 130.381 307.118 130.587C306.018 130.821 304.75 130.481 302.214 129.801C299.678 129.122 298.41 128.782 297.574 128.029C296.838 127.367 296.331 126.488 296.125 125.52C295.891 124.419 296.231 123.151 296.911 120.616L297.591 118.076C297.817 117.235 297.929 116.814 298.255 116.619C298.581 116.424 299.018 116.527 299.892 116.732C301.087 117.013 301.89 117.111 302.619 116.956C303.587 116.75 304.465 116.242 305.127 115.507C305.88 114.671 306.22 113.403 306.899 110.867L307.578 108.334C307.631 108.134 307.837 108.014 308.037 108.068V108.068Z" fill="#4C4C4C"/>
</g>
<g filter="url(#filter6_g_305_2607)">
<path d="M259.307 133.3C260.484 130.776 263.676 129.96 265.919 131.609L272.172 136.204C273.319 137.046 274.62 137.653 276.002 137.99L283.542 139.827C286.247 140.486 287.673 143.455 286.497 145.979V145.979C285.608 147.885 283.497 148.899 281.453 148.401L273.02 146.347C271.096 145.878 269.284 145.033 267.688 143.86L260.694 138.721C258.999 137.475 258.418 135.206 259.307 133.3V133.3Z" fill="white"/>
</g>
</g>
<defs>
<filter id="filter0_d_305_2607" x="0" y="5.51172" width="360" height="360" filterUnits="userSpaceOnUse" color-interpolation-filters="sRGB">
<feFlood flood-opacity="0" result="BackgroundImageFix"/>
<feColorMatrix in="SourceAlpha" type="matrix" values="0 0 0 0 0 0 0 0 0 0 0 0 0 0 0 0 0 0 127 0" result="hardAlpha"/>
<feOffset/>
<feGaussianBlur stdDeviation="45"/>
<feComposite in2="hardAlpha" operator="out"/>
<feColorMatrix type="matrix" values="0 0 0 0 1 0 0 0 0 1 0 0 0 0 1 0 0 0 1 0"/>
<feBlend mode="normal" in2="BackgroundImageFix" result="effect1_dropShadow_305_2607"/>
<feBlend mode="normal" in="SourceGraphic" in2="effect1_dropShadow_305_2607" result="shape"/>
</filter>
<filter id="filter1_d_305_2607" x="189.469" y="0.449219" width="194.926" height="201.28" filterUnits="userSpaceOnUse" color-interpolation-filters="sRGB">
<feFlood flood-opacity="0" result="BackgroundImageFix"/>
<feColorMatrix in="SourceAlpha" type="matrix" values="0 0 0 0 0 0 0 0 0 0 0 0 0 0 0 0 0 0 127 0" result="hardAlpha"/>
<feOffset/>
<feGaussianBlur stdDeviation="7.5"/>
<feComposite in2="hardAlpha" operator="out"/>
<feColorMatrix type="matrix" values="0 0 0 0 0 0 0 0 0 0 0 0 0 0 0 0 0 0 0.25 0"/>
<feBlend mode="normal" in2="BackgroundImageFix" result="effect1_dropShadow_305_2607"/>
<feBlend mode="normal" in="SourceGraphic" in2="effect1_dropShadow_305_2607" result="shape"/>
</filter>
<filter id="filter2_g_305_2607" x="202.969" y="13.9492" width="167.926" height="174.28" filterUnits="userSpaceOnUse" color-interpolation-filters="sRGB">
<feFlood flood-opacity="0" result="BackgroundImageFix"/>
<feBlend mode="normal" in="SourceGraphic" in2="BackgroundImageFix" result="shape"/>
<feTurbulence type="fractalNoise" baseFrequency="0.066666677594184875 0.066666677594184875" numOctaves="3" seed="5149" />
<feDisplacementMap in="shape" scale="2.9999995231628418" xChannelSelector="R" yChannelSelector="G" result="displacedImage" width="100%" height="100%" />
<feMerge result="effect1_texture_305_2607">
<feMergeNode in="displacedImage"/>
</feMerge>
</filter>
<filter id="filter3_g_305_2607" x="210.969" y="21.9512" width="151.926" height="144.433" filterUnits="userSpaceOnUse" color-interpolation-filters="sRGB">
<feFlood flood-opacity="0" result="BackgroundImageFix"/>
<feBlend mode="normal" in="SourceGraphic" in2="BackgroundImageFix" result="shape"/>
<feTurbulence type="fractalNoise" baseFrequency="0.066666670143604279 0.066666670143604279" numOctaves="3" seed="5149" />
<feDisplacementMap in="shape" scale="3" xChannelSelector="R" yChannelSelector="G" result="displacedImage" width="100%" height="100%" />
<feMerge result="effect1_texture_305_2607">
<feMergeNode in="displacedImage"/>
</feMerge>
</filter>
<filter id="filter4_ig_305_2607" x="222.922" y="65.2109" width="115.023" height="115.021" filterUnits="userSpaceOnUse" color-interpolation-filters="sRGB">
<feFlood flood-opacity="0" result="BackgroundImageFix"/>
<feBlend mode="normal" in="SourceGraphic" in2="BackgroundImageFix" result="shape"/>
<feColorMatrix in="SourceAlpha" type="matrix" values="0 0 0 0 0 0 0 0 0 0 0 0 0 0 0 0 0 0 127 0" result="hardAlpha"/>
<feOffset dy="1.5"/>
<feGaussianBlur stdDeviation="3.75"/>
<feComposite in2="hardAlpha" operator="arithmetic" k2="-1" k3="1"/>
<feColorMatrix type="matrix" values="0 0 0 0 0.352941 0 0 0 0 0.47451 0 0 0 0 0.976471 0 0 0 1 0"/>
<feBlend mode="normal" in2="shape" result="effect1_innerShadow_305_2607"/>
<feTurbulence type="fractalNoise" baseFrequency="0.066666670143604279 0.066666670143604279" numOctaves="3" seed="5149" />
<feDisplacementMap in="effect1_innerShadow_305_2607" scale="3" xChannelSelector="R" yChannelSelector="G" result="displacedImage" width="100%" height="100%" />
<feMerge result="effect2_texture_305_2607">
<feMergeNode in="displacedImage"/>
</feMerge>
</filter>
<filter id="filter5_g_305_2607" x="244.484" y="76.0098" width="80.5859" height="60.9668" filterUnits="userSpaceOnUse" color-interpolation-filters="sRGB">
<feFlood flood-opacity="0" result="BackgroundImageFix"/>
<feBlend mode="normal" in="SourceGraphic" in2="BackgroundImageFix" result="shape"/>
<feTurbulence type="fractalNoise" baseFrequency="0.066666670143604279 0.066666670143604279" numOctaves="3" seed="5149" />
<feDisplacementMap in="shape" scale="3" xChannelSelector="R" yChannelSelector="G" result="displacedImage" width="100%" height="100%" />
<feMerge result="effect1_texture_305_2607">
<feMergeNode in="displacedImage"/>
</feMerge>
</filter>
<filter id="filter6_g_305_2607" x="257.395" y="129.251" width="31.0195" height="20.7764" filterUnits="userSpaceOnUse" color-interpolation-filters="sRGB">
<feFlood flood-opacity="0" result="BackgroundImageFix"/>
<feBlend mode="normal" in="SourceGraphic" in2="BackgroundImageFix" result="shape"/>
<feTurbulence type="fractalNoise" baseFrequency="0.066666677594184875 0.066666677594184875" numOctaves="3" seed="5149" />
<feDisplacementMap in="shape" scale="2.9999995231628418" xChannelSelector="R" yChannelSelector="G" result="displacedImage" width="100%" height="100%" />
<feMerge result="effect1_texture_305_2607">
<feMergeNode in="displacedImage"/>
</feMerge>
</filter>
</defs>
</svg>
