<svg width="360" height="361" viewBox="0 0 360 361" fill="none" xmlns="http://www.w3.org/2000/svg">
<g filter="url(#filter0_d_305_2605)">
<rect x="99" y="99.5117" width="162" height="162" rx="50" fill="white"/>
<rect x="94.5" y="95.0117" width="171" height="171" rx="54.5" stroke="#5A79F9" stroke-width="9"/>
<path d="M160.184 199.63H160.832C162.29 200.494 164.342 201.385 166.988 202.303C169.634 203.221 172.658 203.68 176.06 203.68C180.056 203.68 183.161 203.086 185.375 201.898C187.589 200.71 189.128 199.198 189.992 197.362C190.856 195.526 191.288 193.636 191.288 191.692C191.288 188.128 190.154 185.401 187.886 183.511C185.618 181.621 182.216 180.676 177.68 180.676C174.224 180.676 171.335 180.973 169.013 181.567C166.745 182.161 164.882 182.62 163.424 182.944L162.776 182.62V166.42C162.776 165.34 162.749 163.909 162.695 162.127C162.695 160.345 162.641 158.59 162.533 156.862C162.479 155.134 162.344 153.784 162.128 152.812L162.29 152.164C163.532 151.84 165.071 151.597 166.907 151.435C168.743 151.273 171.038 151.192 173.792 151.192H196.472V157.996H166.988L169.985 156.214C170.039 156.97 170.093 157.861 170.147 158.887C170.201 159.913 170.228 160.912 170.228 161.884V178.003L168.365 175.249C169.769 174.979 171.308 174.736 172.982 174.52C174.71 174.304 176.384 174.196 178.004 174.196C185.132 174.196 190.424 175.735 193.88 178.813C197.336 181.891 199.064 186.184 199.064 191.692C199.064 195.472 198.119 198.766 196.229 201.574C194.393 204.382 191.747 206.569 188.291 208.135C184.889 209.701 180.812 210.484 176.06 210.484C172.82 210.484 169.796 210.187 166.988 209.593C164.234 208.999 161.966 208.216 160.184 207.244V199.63Z" fill="#5A79F9"/>
</g>
<defs>
<filter id="filter0_d_305_2605" x="0" y="0.511719" width="360" height="360" filterUnits="userSpaceOnUse" color-interpolation-filters="sRGB">
<feFlood flood-opacity="0" result="BackgroundImageFix"/>
<feColorMatrix in="SourceAlpha" type="matrix" values="0 0 0 0 0 0 0 0 0 0 0 0 0 0 0 0 0 0 127 0" result="hardAlpha"/>
<feOffset/>
<feGaussianBlur stdDeviation="45"/>
<feComposite in2="hardAlpha" operator="out"/>
<feColorMatrix type="matrix" values="0 0 0 0 1 0 0 0 0 1 0 0 0 0 1 0 0 0 1 0"/>
<feBlend mode="normal" in2="BackgroundImageFix" result="effect1_dropShadow_305_2605"/>
<feBlend mode="normal" in="SourceGraphic" in2="effect1_dropShadow_305_2605" result="shape"/>
</filter>
</defs>
</svg>
