<svg width="500" height="500" viewBox="0 0 500 500" fill="none" xmlns="http://www.w3.org/2000/svg">
<g opacity="0.5" filter="url(#filter0_d_320_4430)">
<rect x="169" y="169" width="162" height="162" rx="50" fill="white"/>
<rect x="164.5" y="164.5" width="171" height="171" rx="54.5" stroke="#5A79F9" stroke-width="9"/>
<path d="M221.736 279.972C218.82 279.972 216.039 279.675 213.393 279.081C210.801 278.487 208.614 277.704 206.832 276.732V269.118H207.48C209.1 270.144 211.152 271.089 213.636 271.953C216.12 272.763 218.82 273.168 221.736 273.168C225.732 273.168 228.81 272.574 230.97 271.386C233.13 270.144 234.615 268.659 235.425 266.931C236.235 265.149 236.64 263.448 236.64 261.828C236.64 258.588 235.479 255.996 233.157 254.052C230.889 252.108 227.406 251.136 222.708 251.136H216.876L215.58 247.896L235.02 224.811L236.154 227.16H207.804V220.68H240.528L241.5 221.49C241.608 221.868 241.689 222.354 241.743 222.948C241.797 223.488 241.824 223.92 241.824 224.244C241.824 225.54 241.5 226.836 240.852 228.132C240.204 229.374 239.34 230.616 238.26 231.858L224.409 247.41L223.761 244.98C228.189 245.034 231.915 245.763 234.939 247.167C237.963 248.517 240.231 250.461 241.743 252.999C243.309 255.483 244.092 258.534 244.092 262.152C244.092 265.716 243.201 268.848 241.419 271.548C239.637 274.194 237.072 276.273 233.724 277.785C230.376 279.243 226.38 279.972 221.736 279.972ZM274.079 279.972C267.761 279.972 263.009 278.838 259.823 276.57C256.691 274.248 255.125 270.738 255.125 266.04C255.125 262.908 255.881 260.316 257.393 258.264C258.959 256.212 261.146 254.673 263.954 253.647C266.816 252.621 270.191 252.108 274.079 252.108C277.103 252.108 279.614 252.378 281.612 252.918C283.664 253.404 285.419 253.89 286.877 254.376V260.208C285.419 259.722 283.61 259.29 281.45 258.912C279.29 258.48 277.265 258.264 275.375 258.264C271.001 258.264 267.734 258.831 265.574 259.965C263.468 261.099 262.415 263.124 262.415 266.04C262.415 268.794 263.441 270.792 265.493 272.034C267.545 273.222 270.515 273.816 274.403 273.816C276.563 273.816 278.642 273.654 280.64 273.33C282.638 272.952 284.501 272.466 286.229 271.872L284.771 274.059C284.663 273.627 284.555 273.141 284.447 272.601C284.393 272.061 284.339 271.494 284.285 270.9C284.231 270.306 284.177 269.685 284.123 269.037C284.123 268.389 284.123 267.714 284.123 267.012V252.432C284.123 248.976 283.637 246.411 282.665 244.737C281.747 243.009 280.343 241.875 278.453 241.335C276.617 240.741 274.295 240.444 271.487 240.444C269.381 240.444 267.221 240.714 265.007 241.254C262.847 241.794 261.119 242.388 259.823 243.036H259.175V236.394C261.119 235.584 263.279 234.99 265.655 234.612C268.085 234.18 270.353 233.964 272.459 233.964C275.159 233.964 277.643 234.207 279.911 234.693C282.233 235.179 284.258 236.07 285.986 237.366C287.768 238.608 289.145 240.417 290.117 242.793C291.089 245.169 291.575 248.274 291.575 252.108V262.8C291.575 263.88 291.575 265.284 291.575 267.012C291.629 268.74 291.683 270.441 291.737 272.115C291.845 273.789 292.007 275.112 292.223 276.084L292.061 276.732C290.279 277.38 288.308 277.947 286.148 278.433C283.988 278.919 281.828 279.297 279.668 279.567C277.562 279.837 275.699 279.972 274.079 279.972Z" fill="#5A79F9"/>
</g>
<defs>
<filter id="filter0_d_320_4430" x="70" y="70" width="360" height="360" filterUnits="userSpaceOnUse" color-interpolation-filters="sRGB">
<feFlood flood-opacity="0" result="BackgroundImageFix"/>
<feColorMatrix in="SourceAlpha" type="matrix" values="0 0 0 0 0 0 0 0 0 0 0 0 0 0 0 0 0 0 127 0" result="hardAlpha"/>
<feOffset/>
<feGaussianBlur stdDeviation="45"/>
<feComposite in2="hardAlpha" operator="out"/>
<feColorMatrix type="matrix" values="0 0 0 0 1 0 0 0 0 1 0 0 0 0 1 0 0 0 1 0"/>
<feBlend mode="normal" in2="BackgroundImageFix" result="effect1_dropShadow_320_4430"/>
<feBlend mode="normal" in="SourceGraphic" in2="effect1_dropShadow_320_4430" result="shape"/>
</filter>
</defs>
</svg>
