<svg width="500" height="500" viewBox="0 0 500 500" fill="none" xmlns="http://www.w3.org/2000/svg">
<g filter="url(#filter0_d_440_12326)">
<rect x="169" y="169" width="162" height="162" rx="50" fill="white"/>
<rect x="164.5" y="164.5" width="171" height="171" rx="54.5" stroke="#5A79F9" stroke-width="9"/>
<path d="M221.736 279.972C218.82 279.972 216.039 279.675 213.393 279.081C210.801 278.487 208.614 277.704 206.832 276.732V269.118H207.48C209.1 270.144 211.152 271.089 213.636 271.953C216.12 272.763 218.82 273.168 221.736 273.168C225.732 273.168 228.81 272.574 230.97 271.386C233.13 270.144 234.615 268.659 235.425 266.931C236.235 265.149 236.64 263.448 236.64 261.828C236.64 258.588 235.479 255.996 233.157 254.052C230.889 252.108 227.406 251.136 222.708 251.136H216.876L215.58 247.896L235.02 224.811L236.154 227.16H207.804V220.68H240.528L241.5 221.49C241.608 221.868 241.689 222.354 241.743 222.948C241.797 223.488 241.824 223.92 241.824 224.244C241.824 225.54 241.5 226.836 240.852 228.132C240.204 229.374 239.34 230.616 238.26 231.858L224.409 247.41L223.761 244.98C228.189 245.034 231.915 245.763 234.939 247.167C237.963 248.517 240.231 250.461 241.743 252.999C243.309 255.483 244.092 258.534 244.092 262.152C244.092 265.716 243.201 268.848 241.419 271.548C239.637 274.194 237.072 276.273 233.724 277.785C230.376 279.243 226.38 279.972 221.736 279.972ZM274.079 279.972C267.761 279.972 263.009 278.838 259.823 276.57C256.691 274.248 255.125 270.738 255.125 266.04C255.125 262.908 255.881 260.316 257.393 258.264C258.959 256.212 261.146 254.673 263.954 253.647C266.816 252.621 270.191 252.108 274.079 252.108C277.103 252.108 279.614 252.378 281.612 252.918C283.664 253.404 285.419 253.89 286.877 254.376V260.208C285.419 259.722 283.61 259.29 281.45 258.912C279.29 258.48 277.265 258.264 275.375 258.264C271.001 258.264 267.734 258.831 265.574 259.965C263.468 261.099 262.415 263.124 262.415 266.04C262.415 268.794 263.441 270.792 265.493 272.034C267.545 273.222 270.515 273.816 274.403 273.816C276.563 273.816 278.642 273.654 280.64 273.33C282.638 272.952 284.501 272.466 286.229 271.872L284.771 274.059C284.663 273.627 284.555 273.141 284.447 272.601C284.393 272.061 284.339 271.494 284.285 270.9C284.231 270.306 284.177 269.685 284.123 269.037C284.123 268.389 284.123 267.714 284.123 267.012V252.432C284.123 248.976 283.637 246.411 282.665 244.737C281.747 243.009 280.343 241.875 278.453 241.335C276.617 240.741 274.295 240.444 271.487 240.444C269.381 240.444 267.221 240.714 265.007 241.254C262.847 241.794 261.119 242.388 259.823 243.036H259.175V236.394C261.119 235.584 263.279 234.99 265.655 234.612C268.085 234.18 270.353 233.964 272.459 233.964C275.159 233.964 277.643 234.207 279.911 234.693C282.233 235.179 284.258 236.07 285.986 237.366C287.768 238.608 289.145 240.417 290.117 242.793C291.089 245.169 291.575 248.274 291.575 252.108V262.8C291.575 263.88 291.575 265.284 291.575 267.012C291.629 268.74 291.683 270.441 291.737 272.115C291.845 273.789 292.007 275.112 292.223 276.084L292.061 276.732C290.279 277.38 288.308 277.947 286.148 278.433C283.988 278.919 281.828 279.297 279.668 279.567C277.562 279.837 275.699 279.972 274.079 279.972Z" fill="#5A79F9"/>
</g>
<g filter="url(#filter1_d_440_12326)">
<g filter="url(#filter2_g_440_12326)">
<mask id="path-4-outside-1_440_12326" maskUnits="userSpaceOnUse" x="226.986" y="51.203" width="208.465" height="209.173" fill="black">
<rect fill="white" x="226.986" y="51.203" width="208.465" height="209.173"/>
<path d="M342.213 81.9994C347.731 78.8136 354.787 80.7043 357.973 86.2224L365.938 100.018C367.468 102.667 369.987 104.601 372.943 105.393L390.933 110.213C397.087 111.862 400.74 118.188 399.091 124.343L394.271 142.332C393.479 145.288 393.893 148.437 395.423 151.086L404.036 166.004C407.222 171.523 405.331 178.579 399.813 181.765L384.895 190.378C382.245 191.908 380.312 194.428 379.52 197.384L375.247 213.33C373.942 218.2 369.708 221.5 364.949 221.849C364.182 223.082 363.357 224.192 362.442 225.209C357.864 230.293 351.793 233.798 345.101 235.221C337.492 236.838 328.728 234.49 311.201 229.793C293.674 225.097 284.911 222.749 279.13 217.544C274.045 212.966 270.54 206.895 269.117 200.202C268.833 198.864 268.673 197.489 268.626 196.038C264.682 193.354 262.668 188.382 263.972 183.514L268.172 167.839C268.964 164.884 268.55 161.734 267.02 159.085L258.208 143.822C255.022 138.304 256.913 131.247 262.431 128.061L277.694 119.25C280.343 117.72 282.277 115.2 283.069 112.245L287.816 94.5271C289.465 88.3725 295.791 84.72 301.946 86.3691L319.663 91.1163C322.618 91.9082 325.768 91.4938 328.418 89.964L342.213 81.9994Z"/>
</mask>
<path d="M357.973 86.2224L364.901 82.2224L357.973 86.2224ZM365.938 100.018L359.01 104.018L359.01 104.018L365.938 100.018ZM372.943 105.393L370.872 113.12L370.872 113.12L372.943 105.393ZM394.271 142.332L386.543 140.262L386.543 140.262L394.271 142.332ZM395.423 151.086L388.495 155.086L388.495 155.086L395.423 151.086ZM399.813 181.765L403.813 188.693L399.813 181.765ZM384.895 190.378L380.895 183.45L380.895 183.45L384.895 190.378ZM364.949 221.849L364.362 213.871L360.306 214.169L358.157 217.623L364.949 221.849ZM362.442 225.209L368.387 230.562L368.387 230.562L362.442 225.209ZM345.101 235.221L346.764 243.046L346.764 243.046L345.101 235.221ZM311.201 229.793L309.131 237.521L311.201 229.793ZM279.13 217.544L273.777 223.489L273.777 223.489L279.13 217.544ZM269.117 200.202L261.292 201.866L261.292 201.866L269.117 200.202ZM268.626 196.038L276.621 195.774L276.487 191.711L273.126 189.424L268.626 196.038ZM267.02 159.085L273.948 155.085L273.948 155.085L267.02 159.085ZM258.208 143.822L251.28 147.822L258.208 143.822ZM262.431 128.061L266.431 134.99L262.431 128.061ZM277.694 119.25L281.694 126.178L281.694 126.178L277.694 119.25ZM283.069 112.245L290.796 114.316L290.796 114.315L283.069 112.245ZM328.418 89.964L332.417 96.8923L332.418 96.8922L328.418 89.964ZM342.213 81.9994L346.213 88.9276C347.904 87.9509 350.068 88.5307 351.045 90.2224L357.973 86.2224L364.901 82.2224C359.506 72.878 347.557 69.6762 338.213 75.0712L342.213 81.9994ZM357.973 86.2224L351.045 90.2224L359.01 104.018L365.938 100.018L372.866 96.0175L364.901 82.2224L357.973 86.2224ZM365.938 100.018L359.01 104.018C361.6 108.505 365.867 111.779 370.872 113.12L372.943 105.393L375.013 97.6652C374.107 97.4224 373.335 96.8297 372.866 96.0174L365.938 100.018ZM372.943 105.393L370.872 113.12L388.862 117.94L390.933 110.213L393.003 102.486L375.013 97.6651L372.943 105.393ZM390.933 110.213L388.862 117.94C390.749 118.446 391.869 120.386 391.363 122.273L399.091 124.343L406.818 126.414C409.611 115.991 403.426 105.278 393.003 102.486L390.933 110.213ZM399.091 124.343L391.363 122.273L386.543 140.262L394.271 142.332L401.998 144.403L406.818 126.414L399.091 124.343ZM394.271 142.332L386.543 140.262C385.202 145.267 385.904 150.599 388.495 155.086L395.423 151.086L402.351 147.086C401.882 146.274 401.755 145.309 401.998 144.403L394.271 142.332ZM395.423 151.086L388.495 155.086L397.108 170.004L404.036 166.004L410.964 162.004L402.351 147.086L395.423 151.086ZM404.036 166.004L397.108 170.004C398.085 171.696 397.505 173.86 395.813 174.837L399.813 181.765L403.813 188.693C413.158 183.298 416.359 171.349 410.964 162.004L404.036 166.004ZM399.813 181.765L395.813 174.837L380.895 183.45L384.895 190.378L388.895 197.306L403.813 188.693L399.813 181.765ZM384.895 190.378L380.895 183.45C376.407 186.041 373.133 190.309 371.792 195.313L379.52 197.384L387.247 199.454C387.49 198.548 388.083 197.775 388.895 197.306L384.895 190.378ZM379.52 197.384L371.792 195.313L367.519 211.259L375.247 213.33L382.974 215.4L387.247 199.454L379.52 197.384ZM375.247 213.33L367.519 211.259C367.124 212.736 365.837 213.763 364.362 213.871L364.949 221.849L365.535 229.828C373.58 229.237 380.76 223.663 382.974 215.4L375.247 213.33ZM364.949 221.849L358.157 217.623C357.613 218.496 357.067 219.223 356.497 219.856L362.442 225.209L368.387 230.562C369.648 229.162 370.751 227.667 371.741 226.076L364.949 221.849ZM362.442 225.209L356.497 219.856C353.049 223.685 348.478 226.324 343.438 227.396L345.101 235.221L346.764 243.046C355.109 241.272 362.679 236.902 368.387 230.562L362.442 225.209ZM345.101 235.221L343.438 227.396C341.078 227.897 338.15 227.887 333.305 227.004C328.368 226.104 322.163 224.448 313.272 222.066L311.201 229.793L309.131 237.521C317.767 239.835 324.707 241.701 330.436 242.745C336.257 243.806 341.515 244.161 346.764 243.046L345.101 235.221ZM311.201 229.793L313.272 222.066C304.381 219.683 298.179 218.015 293.454 216.326C288.817 214.668 286.276 213.213 284.483 211.599L279.13 217.544L273.777 223.489C277.765 227.08 282.496 229.401 288.068 231.392C293.551 233.353 300.495 235.207 309.131 237.521L311.201 229.793ZM279.13 217.544L284.483 211.599C280.654 208.151 278.014 203.579 276.942 198.539L269.117 200.202L261.292 201.866C263.066 210.211 267.437 217.781 273.777 223.489L279.13 217.544ZM269.117 200.202L276.942 198.539C276.765 197.704 276.655 196.801 276.621 195.774L268.626 196.038L260.63 196.301C260.692 198.177 260.9 200.023 261.292 201.866L269.117 200.202ZM268.626 196.038L273.126 189.424C271.905 188.592 271.304 187.061 271.699 185.584L263.972 183.514L256.245 181.443C254.032 189.703 257.459 198.116 264.125 202.652L268.626 196.038ZM263.972 183.514L271.699 185.584L275.899 169.91L268.172 167.839L260.445 165.769L256.245 181.443L263.972 183.514ZM268.172 167.839L275.899 169.91C277.24 164.905 276.539 159.572 273.948 155.085L267.02 159.085L260.091 163.084C260.56 163.896 260.688 164.862 260.445 165.769L268.172 167.839ZM267.02 159.085L273.948 155.085L265.136 139.822L258.208 143.822L251.28 147.822L260.092 163.085L267.02 159.085ZM258.208 143.822L265.136 139.822C264.159 138.13 264.739 135.966 266.431 134.99L262.431 128.061L258.431 121.133C249.086 126.528 245.885 138.478 251.28 147.822L258.208 143.822ZM262.431 128.061L266.431 134.99L281.694 126.178L277.694 119.25L273.694 112.321L258.431 121.133L262.431 128.061ZM277.694 119.25L281.694 126.178C286.181 123.587 289.455 119.32 290.796 114.316L283.069 112.245L275.341 110.174C275.098 111.08 274.506 111.852 273.693 112.321L277.694 119.25ZM283.069 112.245L290.796 114.315L295.543 96.5976L287.816 94.5271L280.089 92.4565L275.341 110.174L283.069 112.245ZM287.816 94.5271L295.543 96.5976C296.049 94.7107 297.989 93.5909 299.875 94.0965L301.946 86.3691L304.017 78.6417C293.594 75.849 282.881 82.0342 280.089 92.4565L287.816 94.5271ZM301.946 86.3691L299.875 94.0965L317.592 98.8437L319.663 91.1163L321.733 83.3889L304.017 78.6417L301.946 86.3691ZM319.663 91.1163L317.592 98.8437C322.597 100.185 327.93 99.4831 332.417 96.8923L328.418 89.964L324.418 83.0358C323.606 83.5045 322.64 83.6318 321.733 83.3889L319.663 91.1163ZM328.418 89.964L332.418 96.8922L346.213 88.9276L342.213 81.9994L338.213 75.0712L324.418 83.0358L328.418 89.964Z" fill="white" mask="url(#path-4-outside-1_440_12326)"/>
</g>
<g filter="url(#filter3_g_440_12326)">
<path d="M365.938 100.017C367.468 102.667 369.988 104.6 372.943 105.392L390.933 110.213C397.088 111.862 400.74 118.188 399.091 124.343L394.271 142.332C393.479 145.287 393.894 148.436 395.423 151.086L404.037 166.005C407.222 171.523 405.332 178.579 399.814 181.764L384.895 190.377C382.246 191.907 380.312 194.427 379.52 197.383L375.247 213.33C373.598 219.484 367.272 223.137 361.117 221.488L272.13 197.644C265.976 195.994 262.323 189.668 263.972 183.514L268.172 167.839C268.964 164.884 268.549 161.735 267.02 159.085L258.207 143.821C255.021 138.303 256.912 131.247 262.43 128.061L277.694 119.248C280.344 117.719 282.277 115.199 283.069 112.243L287.816 94.5266C289.465 88.372 295.792 84.7196 301.946 86.3687L319.664 91.1161C322.619 91.908 325.768 91.4935 328.418 89.9636L342.213 81.9988C347.731 78.813 354.787 80.7036 357.973 86.2217L365.938 100.017Z" fill="#5A79F9"/>
</g>
<g filter="url(#filter4_ig_440_12326)">
<rect x="287.966" y="116.23" width="103.68" height="103.68" rx="32.4" transform="rotate(15 287.966 116.23)" fill="#FFC6B7"/>
</g>
<g filter="url(#filter5_g_440_12326)">
<path d="M295.771 146.835C297.13 141.763 297.809 139.227 299.315 137.555C300.64 136.083 302.397 135.069 304.333 134.658C306.535 134.19 309.071 134.869 314.142 136.228C319.214 137.587 321.75 138.266 323.422 139.772C324.893 141.097 325.908 142.854 326.319 144.79C326.787 146.992 326.108 149.528 324.749 154.599L320.867 169.088C319.508 174.16 318.828 176.695 317.322 178.368C315.997 179.839 314.241 180.853 312.304 181.265C310.103 181.733 307.567 181.054 302.495 179.695C297.424 178.336 294.888 177.656 293.215 176.15C291.744 174.825 290.73 173.069 290.318 171.132C289.85 168.931 290.53 166.395 291.889 161.323L295.771 146.835Z" fill="white"/>
<path d="M337.064 157.9C338.423 152.828 339.102 150.293 340.608 148.62C341.933 147.149 343.69 146.135 345.626 145.723C347.828 145.255 350.364 145.934 355.435 147.293V147.293C360.507 148.652 363.043 149.332 364.715 150.838C366.186 152.163 367.201 153.919 367.612 155.856C368.08 158.057 367.401 160.593 366.042 165.665L362.159 180.153C360.801 185.225 360.121 187.761 358.615 189.433C357.29 190.905 355.534 191.919 353.597 192.331C351.396 192.798 348.86 192.119 343.788 190.76V190.76C338.717 189.401 336.181 188.722 334.508 187.216C333.037 185.891 332.023 184.134 331.611 182.198C331.143 179.996 331.823 177.46 333.182 172.389L337.064 157.9Z" fill="white"/>
<path d="M305.121 154.751C304.442 157.286 304.102 158.554 304.336 159.655C304.542 160.623 305.049 161.502 305.785 162.164C306.621 162.917 307.889 163.257 310.424 163.936V163.936C310.885 164.06 311.115 164.122 311.271 164.248C311.451 164.394 311.569 164.598 311.606 164.828C311.637 165.025 311.576 165.253 311.454 165.71L310.475 169.364C309.795 171.9 309.455 173.168 308.702 174.005C308.04 174.74 307.161 175.247 306.193 175.453C305.092 175.687 303.825 175.347 301.289 174.667C298.753 173.988 297.485 173.648 296.649 172.895C295.913 172.233 295.406 171.355 295.2 170.387C294.966 169.286 295.306 168.017 295.986 165.482L297.927 158.237C298.606 155.702 298.946 154.434 299.699 153.597C300.361 152.862 301.24 152.355 302.208 152.149C302.694 152.046 303.212 152.055 303.858 152.156C304.699 152.288 305.12 152.354 305.348 152.704C305.576 153.054 305.456 153.501 305.217 154.395L305.121 154.751Z" fill="#4C4C4C"/>
<path d="M345.6 165.986C344.92 168.522 344.58 169.79 344.814 170.89C345.02 171.858 345.528 172.736 346.263 173.399C347.1 174.152 348.367 174.492 350.903 175.172V175.172C351.024 175.204 351.085 175.22 351.133 175.239C351.543 175.399 351.786 175.819 351.719 176.254C351.711 176.305 351.696 176.364 351.664 176.482L350.588 180.496C349.909 183.032 349.569 184.3 348.816 185.136C348.154 185.872 347.275 186.379 346.307 186.585C345.206 186.819 343.938 186.479 341.403 185.8C338.867 185.12 337.599 184.78 336.763 184.028C336.027 183.365 335.52 182.486 335.314 181.518C335.08 180.417 335.42 179.15 336.099 176.614L338.041 169.37C338.72 166.834 339.06 165.566 339.813 164.73C340.475 163.994 341.354 163.487 342.322 163.281C342.9 163.158 343.524 163.195 344.355 163.356C345.199 163.519 345.621 163.601 345.837 163.947C346.053 164.292 345.935 164.733 345.7 165.613L345.6 165.986Z" fill="#4C4C4C"/>
</g>
<g filter="url(#filter6_g_440_12326)">
<path d="M303.496 190.3C304.673 187.776 307.864 186.96 310.108 188.609L316.361 193.204C317.507 194.046 318.809 194.653 320.191 194.99L327.73 196.827C330.436 197.486 331.862 200.455 330.685 202.979V202.979C329.796 204.885 327.685 205.899 325.641 205.401L317.208 203.347C315.284 202.878 313.472 202.033 311.876 200.86L304.882 195.721C303.187 194.475 302.607 192.206 303.496 190.3V190.3Z" fill="white"/>
</g>
</g>
<defs>
<filter id="filter0_d_440_12326" x="70" y="70" width="360" height="360" filterUnits="userSpaceOnUse" color-interpolation-filters="sRGB">
<feFlood flood-opacity="0" result="BackgroundImageFix"/>
<feColorMatrix in="SourceAlpha" type="matrix" values="0 0 0 0 0 0 0 0 0 0 0 0 0 0 0 0 0 0 127 0" result="hardAlpha"/>
<feOffset/>
<feGaussianBlur stdDeviation="45"/>
<feComposite in2="hardAlpha" operator="out"/>
<feColorMatrix type="matrix" values="0 0 0 0 1 0 0 0 0 1 0 0 0 0 1 0 0 0 1 0"/>
<feBlend mode="normal" in2="BackgroundImageFix" result="effect1_dropShadow_440_12326"/>
<feBlend mode="normal" in="SourceGraphic" in2="effect1_dropShadow_440_12326" result="shape"/>
</filter>
<filter id="filter1_d_440_12326" x="233.659" y="57.4502" width="194.926" height="201.279" filterUnits="userSpaceOnUse" color-interpolation-filters="sRGB">
<feFlood flood-opacity="0" result="BackgroundImageFix"/>
<feColorMatrix in="SourceAlpha" type="matrix" values="0 0 0 0 0 0 0 0 0 0 0 0 0 0 0 0 0 0 127 0" result="hardAlpha"/>
<feOffset/>
<feGaussianBlur stdDeviation="7.5"/>
<feComposite in2="hardAlpha" operator="out"/>
<feColorMatrix type="matrix" values="0 0 0 0 0 0 0 0 0 0 0 0 0 0 0 0 0 0 0.25 0"/>
<feBlend mode="normal" in2="BackgroundImageFix" result="effect1_dropShadow_440_12326"/>
<feBlend mode="normal" in="SourceGraphic" in2="effect1_dropShadow_440_12326" result="shape"/>
</filter>
<filter id="filter2_g_440_12326" x="247.159" y="70.9502" width="167.926" height="174.279" filterUnits="userSpaceOnUse" color-interpolation-filters="sRGB">
<feFlood flood-opacity="0" result="BackgroundImageFix"/>
<feBlend mode="normal" in="SourceGraphic" in2="BackgroundImageFix" result="shape"/>
<feTurbulence type="fractalNoise" baseFrequency="0.066666677594184875 0.066666677594184875" numOctaves="3" seed="5149" />
<feDisplacementMap in="shape" scale="2.9999995231628418" xChannelSelector="R" yChannelSelector="G" result="displacedImage" width="100%" height="100%" />
<feMerge result="effect1_texture_440_12326">
<feMergeNode in="displacedImage"/>
</feMerge>
</filter>
<filter id="filter3_g_440_12326" x="255.159" y="78.9512" width="151.925" height="144.433" filterUnits="userSpaceOnUse" color-interpolation-filters="sRGB">
<feFlood flood-opacity="0" result="BackgroundImageFix"/>
<feBlend mode="normal" in="SourceGraphic" in2="BackgroundImageFix" result="shape"/>
<feTurbulence type="fractalNoise" baseFrequency="0.066666670143604279 0.066666670143604279" numOctaves="3" seed="5149" />
<feDisplacementMap in="shape" scale="3" xChannelSelector="R" yChannelSelector="G" result="displacedImage" width="100%" height="100%" />
<feMerge result="effect1_texture_440_12326">
<feMergeNode in="displacedImage"/>
</feMerge>
</filter>
<filter id="filter4_ig_440_12326" x="267.112" y="122.211" width="115.021" height="115.021" filterUnits="userSpaceOnUse" color-interpolation-filters="sRGB">
<feFlood flood-opacity="0" result="BackgroundImageFix"/>
<feBlend mode="normal" in="SourceGraphic" in2="BackgroundImageFix" result="shape"/>
<feColorMatrix in="SourceAlpha" type="matrix" values="0 0 0 0 0 0 0 0 0 0 0 0 0 0 0 0 0 0 127 0" result="hardAlpha"/>
<feOffset dy="1.5"/>
<feGaussianBlur stdDeviation="3.75"/>
<feComposite in2="hardAlpha" operator="arithmetic" k2="-1" k3="1"/>
<feColorMatrix type="matrix" values="0 0 0 0 0.352941 0 0 0 0 0.47451 0 0 0 0 0.976471 0 0 0 1 0"/>
<feBlend mode="normal" in2="shape" result="effect1_innerShadow_440_12326"/>
<feTurbulence type="fractalNoise" baseFrequency="0.066666670143604279 0.066666670143604279" numOctaves="3" seed="5149" />
<feDisplacementMap in="effect1_innerShadow_440_12326" scale="3" xChannelSelector="R" yChannelSelector="G" result="displacedImage" width="100%" height="100%" />
<feMerge result="effect2_texture_440_12326">
<feMergeNode in="displacedImage"/>
</feMerge>
</filter>
<filter id="filter5_g_440_12326" x="288.671" y="133.01" width="80.5889" height="60.9678" filterUnits="userSpaceOnUse" color-interpolation-filters="sRGB">
<feFlood flood-opacity="0" result="BackgroundImageFix"/>
<feBlend mode="normal" in="SourceGraphic" in2="BackgroundImageFix" result="shape"/>
<feTurbulence type="fractalNoise" baseFrequency="0.066666670143604279 0.066666670143604279" numOctaves="3" seed="5149" />
<feDisplacementMap in="shape" scale="3" xChannelSelector="R" yChannelSelector="G" result="displacedImage" width="100%" height="100%" />
<feMerge result="effect1_texture_440_12326">
<feMergeNode in="displacedImage"/>
</feMerge>
</filter>
<filter id="filter6_g_440_12326" x="301.582" y="186.251" width="31.0186" height="20.7764" filterUnits="userSpaceOnUse" color-interpolation-filters="sRGB">
<feFlood flood-opacity="0" result="BackgroundImageFix"/>
<feBlend mode="normal" in="SourceGraphic" in2="BackgroundImageFix" result="shape"/>
<feTurbulence type="fractalNoise" baseFrequency="0.066666677594184875 0.066666677594184875" numOctaves="3" seed="5149" />
<feDisplacementMap in="shape" scale="2.9999995231628418" xChannelSelector="R" yChannelSelector="G" result="displacedImage" width="100%" height="100%" />
<feMerge result="effect1_texture_440_12326">
<feMergeNode in="displacedImage"/>
</feMerge>
</filter>
</defs>
</svg>
