<svg width="361" height="361" viewBox="0 0 361 361" fill="none" xmlns="http://www.w3.org/2000/svg">
<g filter="url(#filter0_d_305_2495)">
<rect x="99.8438" y="99.5117" width="162" height="162" rx="50" fill="url(#paint0_linear_305_2495)"/>
<rect x="95.3438" y="95.0117" width="171" height="171" rx="54.5" stroke="white" stroke-width="9"/>
<path d="M152.58 210.484C149.664 210.484 146.883 210.187 144.237 209.593C141.645 208.999 139.458 208.216 137.676 207.244V199.63H138.324C139.944 200.656 141.996 201.601 144.48 202.465C146.964 203.275 149.664 203.68 152.58 203.68C156.576 203.68 159.654 203.086 161.814 201.898C163.974 200.656 165.459 199.171 166.269 197.443C167.079 195.661 167.484 193.96 167.484 192.34C167.484 189.1 166.323 186.508 164.001 184.564C161.733 182.62 158.25 181.648 153.552 181.648H147.72L146.424 178.408L165.864 155.323L166.998 157.672H138.648V151.192H171.372L172.344 152.002C172.452 152.38 172.533 152.866 172.587 153.46C172.641 154 172.668 154.432 172.668 154.756C172.668 156.052 172.344 157.348 171.696 158.644C171.048 159.886 170.184 161.128 169.104 162.37L155.253 177.922L154.605 175.492C159.033 175.546 162.759 176.275 165.783 177.679C168.807 179.029 171.075 180.973 172.587 183.511C174.153 185.995 174.936 189.046 174.936 192.664C174.936 196.228 174.045 199.36 172.263 202.06C170.481 204.706 167.916 206.785 164.568 208.297C161.22 209.755 157.224 210.484 152.58 210.484ZM204.923 210.484C198.605 210.484 193.853 209.35 190.667 207.082C187.535 204.76 185.969 201.25 185.969 196.552C185.969 193.42 186.725 190.828 188.237 188.776C189.803 186.724 191.99 185.185 194.798 184.159C197.66 183.133 201.035 182.62 204.923 182.62C207.947 182.62 210.458 182.89 212.456 183.43C214.508 183.916 216.263 184.402 217.721 184.888V190.72C216.263 190.234 214.454 189.802 212.294 189.424C210.134 188.992 208.109 188.776 206.219 188.776C201.845 188.776 198.578 189.343 196.418 190.477C194.312 191.611 193.259 193.636 193.259 196.552C193.259 199.306 194.285 201.304 196.337 202.546C198.389 203.734 201.359 204.328 205.247 204.328C207.407 204.328 209.486 204.166 211.484 203.842C213.482 203.464 215.345 202.978 217.073 202.384L215.615 204.571C215.507 204.139 215.399 203.653 215.291 203.113C215.237 202.573 215.183 202.006 215.129 201.412C215.075 200.818 215.021 200.197 214.967 199.549C214.967 198.901 214.967 198.226 214.967 197.524V182.944C214.967 179.488 214.481 176.923 213.509 175.249C212.591 173.521 211.187 172.387 209.297 171.847C207.461 171.253 205.139 170.956 202.331 170.956C200.225 170.956 198.065 171.226 195.851 171.766C193.691 172.306 191.963 172.9 190.667 173.548H190.019V166.906C191.963 166.096 194.123 165.502 196.499 165.124C198.929 164.692 201.197 164.476 203.303 164.476C206.003 164.476 208.487 164.719 210.755 165.205C213.077 165.691 215.102 166.582 216.83 167.878C218.612 169.12 219.989 170.929 220.961 173.305C221.933 175.681 222.419 178.786 222.419 182.62V193.312C222.419 194.392 222.419 195.796 222.419 197.524C222.473 199.252 222.527 200.953 222.581 202.627C222.689 204.301 222.851 205.624 223.067 206.596L222.905 207.244C221.123 207.892 219.152 208.459 216.992 208.945C214.832 209.431 212.672 209.809 210.512 210.079C208.406 210.349 206.543 210.484 204.923 210.484Z" fill="white"/>
</g>
<defs>
<filter id="filter0_d_305_2495" x="0.84375" y="0.511719" width="360" height="360" filterUnits="userSpaceOnUse" color-interpolation-filters="sRGB">
<feFlood flood-opacity="0" result="BackgroundImageFix"/>
<feColorMatrix in="SourceAlpha" type="matrix" values="0 0 0 0 0 0 0 0 0 0 0 0 0 0 0 0 0 0 127 0" result="hardAlpha"/>
<feOffset/>
<feGaussianBlur stdDeviation="45"/>
<feComposite in2="hardAlpha" operator="out"/>
<feColorMatrix type="matrix" values="0 0 0 0 0.351909 0 0 0 0 0.475644 0 0 0 0 0.975962 0 0 0 1 0"/>
<feBlend mode="normal" in2="BackgroundImageFix" result="effect1_dropShadow_305_2495"/>
<feBlend mode="normal" in="SourceGraphic" in2="effect1_dropShadow_305_2495" result="shape"/>
</filter>
<linearGradient id="paint0_linear_305_2495" x1="99.8438" y1="180.512" x2="261.844" y2="180.512" gradientUnits="userSpaceOnUse">
<stop stop-color="#F67F1E"/>
<stop offset="1" stop-color="#EBC333"/>
</linearGradient>
</defs>
</svg>
