<svg width="361" height="361" viewBox="0 0 361 361" fill="none" xmlns="http://www.w3.org/2000/svg">
<g filter="url(#filter0_d_305_2707)">
<rect x="99.8438" y="99.5117" width="162" height="162" rx="50" fill="url(#paint0_linear_305_2707)"/>
<rect x="95.3438" y="95.0117" width="171" height="171" rx="54.5" stroke="white" stroke-width="9"/>
<path d="M181.44 210.484C177.66 210.484 174.42 209.809 171.72 208.459C169.02 207.055 166.833 205.057 165.159 202.465C163.539 199.873 162.324 196.795 161.514 193.231C160.758 189.667 160.38 185.698 160.38 181.324C160.38 176.518 160.947 172.225 162.081 168.445C163.215 164.611 164.889 161.344 167.103 158.644C169.371 155.89 172.179 153.811 175.527 152.407C178.929 150.949 182.844 150.22 187.272 150.22C189.54 150.22 191.457 150.382 193.023 150.706C194.589 150.976 196.02 151.354 197.316 151.84V158.968H196.668C195.534 158.482 194.238 158.05 192.78 157.672C191.322 157.24 189.378 157.024 186.948 157.024C183.708 157.024 180.9 157.564 178.524 158.644C176.148 159.67 174.204 161.236 172.692 163.342C171.18 165.394 170.046 167.905 169.29 170.875C168.534 173.791 168.156 177.166 168.156 181C168.156 186.076 168.561 190.315 169.371 193.717C170.235 197.119 171.639 199.684 173.583 201.412C175.581 203.14 178.308 204.004 181.764 204.004C184.68 204.004 187.029 203.41 188.811 202.222C190.647 200.98 191.97 199.36 192.78 197.362C193.644 195.31 194.076 193.096 194.076 190.72C194.076 186.832 193.023 183.754 190.917 181.486C188.865 179.218 185.814 178.084 181.764 178.084C178.2 178.084 175.257 178.813 172.935 180.271C170.667 181.675 168.75 183.43 167.184 185.536H164.268V177.922H167.508C168.804 176.356 170.667 174.925 173.097 173.629C175.527 172.279 178.848 171.604 183.06 171.604C186.624 171.604 189.783 172.333 192.537 173.791C195.345 175.195 197.532 177.328 199.098 180.19C200.718 182.998 201.528 186.508 201.528 190.72C201.528 194.392 200.745 197.74 199.179 200.764C197.667 203.734 195.399 206.11 192.375 207.892C189.405 209.62 185.76 210.484 181.44 210.484Z" fill="white"/>
</g>
<defs>
<filter id="filter0_d_305_2707" x="0.84375" y="0.511719" width="360" height="360" filterUnits="userSpaceOnUse" color-interpolation-filters="sRGB">
<feFlood flood-opacity="0" result="BackgroundImageFix"/>
<feColorMatrix in="SourceAlpha" type="matrix" values="0 0 0 0 0 0 0 0 0 0 0 0 0 0 0 0 0 0 127 0" result="hardAlpha"/>
<feOffset/>
<feGaussianBlur stdDeviation="45"/>
<feComposite in2="hardAlpha" operator="out"/>
<feColorMatrix type="matrix" values="0 0 0 0 0.351909 0 0 0 0 0.475644 0 0 0 0 0.975962 0 0 0 1 0"/>
<feBlend mode="normal" in2="BackgroundImageFix" result="effect1_dropShadow_305_2707"/>
<feBlend mode="normal" in="SourceGraphic" in2="effect1_dropShadow_305_2707" result="shape"/>
</filter>
<linearGradient id="paint0_linear_305_2707" x1="99.8438" y1="180.512" x2="261.844" y2="180.512" gradientUnits="userSpaceOnUse">
<stop stop-color="#F67F1E"/>
<stop offset="1" stop-color="#EBC333"/>
</linearGradient>
</defs>
</svg>
